<?xml version="1.0" encoding="UTF-8" standalone="no"?>
<!DOCTYPE svg PUBLIC "-//W3C//DTD SVG 1.1//EN"
 "http://www.w3.org/Graphics/SVG/1.1/DTD/svg11.dtd">
<!-- Generated by graphviz version 2.38.0 (20140413.2041)
 -->
<!-- Title: G Pages: 1 -->
<svg width="3354pt" height="4215pt"
 viewBox="0.00 0.00 805.00 1011.69" xmlns="http://www.w3.org/2000/svg" xmlns:xlink="http://www.w3.org/1999/xlink">
<g id="graph0" class="graph" transform="scale(4.16667 4.16667) rotate(0) translate(4 1007.69)">
<title>G</title>
<polygon fill="white" stroke="none" points="-4,4 -4,-1007.69 801,-1007.69 801,4 -4,4"/>
<g id="clust1" class="cluster"><title>cluster_measurement_hidden</title>
<polygon fill="none" stroke="none" points="153,-486.24 153,-995.693 523,-995.693 523,-486.24 153,-486.24"/>
</g>
<g id="clust2" class="cluster"><title>cluster_symbolic_representation</title>
<polygon fill="none" stroke="black" points="8,-8 8,-440.24 507,-440.24 507,-8 8,-8"/>
<text text-anchor="middle" x="257.5" y="-425.04" font-family="Calibri" font-size="14.00">Symbolic Representation</text>
</g>
<g id="clust3" class="cluster"><title>cluster_symbolic_system</title>
<polygon fill="none" stroke="black" points="16,-108.74 16,-409.24 423,-409.24 423,-108.74 16,-108.74"/>
<text text-anchor="middle" x="219.5" y="-394.04" font-family="Calibri" font-size="14.00">Symbolic Relational System</text>
</g>
<g id="clust4" class="cluster"><title>cluster_real_world</title>
<polygon fill="none" stroke="black" points="531,-100.74 531,-786.693 789,-786.693 789,-100.74 531,-100.74"/>
<text text-anchor="middle" x="660" y="-771.493" font-family="Calibri" font-size="14.00">The Real World</text>
</g>
<g id="clust5" class="cluster"><title>cluster_empirical_system</title>
<polygon fill="none" stroke="black" points="539,-108.74 539,-409.24 781,-409.24 781,-108.74 539,-108.74"/>
<text text-anchor="middle" x="660" y="-394.04" font-family="Calibri" font-size="14.00">Empirical Relational System</text>
</g>
<!-- n_observer -->
<g id="node1" class="node"><title>n_observer</title>
<ellipse fill="none" stroke="black" cx="384" cy="-969.693" rx="46.2923" ry="18"/>
<text text-anchor="middle" x="384" y="-965.993" font-family="Calibri" font-size="14.00">Observer</text>
</g>
<!-- n_measurement -->
<g id="node2" class="node"><title>n_measurement</title>
<ellipse fill="none" stroke="black" cx="327" cy="-902.693" rx="63.8893" ry="18"/>
<text text-anchor="middle" x="327" y="-898.993" font-family="Calibri" font-size="14.00">Measurement</text>
</g>
<!-- n_observer&#45;&gt;n_measurement -->
<g id="edge1" class="edge"><title>n_observer&#45;&gt;n_measurement</title>
<path fill="none" stroke="black" d="M369.616,-952.291C363.185,-944.957 355.471,-936.161 348.384,-928.079"/>
<polygon fill="black" stroke="black" points="350.802,-925.528 341.577,-920.317 345.539,-930.143 350.802,-925.528"/>
<text text-anchor="middle" x="385.5" y="-932.493" font-family="Calibri" font-size="14.00">perform</text>
</g>
<!-- n_observation -->
<g id="node5" class="node"><title>n_observation</title>
<ellipse fill="none" stroke="black" cx="458" cy="-835.693" rx="57.3905" ry="18"/>
<text text-anchor="middle" x="458" y="-831.993" font-family="Calibri" font-size="14.00">Observation</text>
</g>
<!-- n_observer&#45;&gt;n_observation -->
<g id="edge4" class="edge"><title>n_observer&#45;&gt;n_observation</title>
<path fill="none" stroke="black" d="M404.98,-953.503C408.274,-950.503 411.433,-947.192 414,-943.693 431.931,-919.26 444.011,-886.456 450.907,-863.638"/>
<polygon fill="black" stroke="black" points="454.301,-864.501 453.713,-853.923 447.576,-862.559 454.301,-864.501"/>
<text text-anchor="middle" x="460" y="-898.993" font-family="Calibri" font-size="14.00">make</text>
</g>
<!-- n_error -->
<g id="node4" class="node"><title>n_error</title>
<ellipse fill="none" stroke="black" cx="327" cy="-835.693" rx="30.5947" ry="18"/>
<text text-anchor="middle" x="327" y="-831.993" font-family="Calibri" font-size="14.00">Error</text>
</g>
<!-- n_measurement&#45;&gt;n_error -->
<g id="edge2" class="edge"><title>n_measurement&#45;&gt;n_error</title>
<path fill="none" stroke="black" d="M327,-884.615C327,-878.395 327,-871.193 327,-864.293"/>
<polygon fill="black" stroke="black" points="330.5,-863.883 327,-853.883 323.5,-863.883 330.5,-863.883"/>
<text text-anchor="middle" x="337.5" y="-865.493" font-family="Calibri" font-size="14.00">has</text>
</g>
<!-- n_operation -->
<g id="node6" class="node"><title>n_operation</title>
<ellipse fill="none" stroke="black" cx="230" cy="-835.693" rx="48.9926" ry="18"/>
<text text-anchor="middle" x="230" y="-831.993" font-family="Calibri" font-size="14.00">Operation</text>
</g>
<!-- n_measurement&#45;&gt;n_operation -->
<g id="edge6" class="edge"><title>n_measurement&#45;&gt;n_operation</title>
<path fill="none" stroke="black" d="M303.519,-885.959C290.825,-877.452 274.981,-866.835 261.256,-857.638"/>
<polygon fill="black" stroke="black" points="262.853,-854.495 252.597,-851.836 258.956,-860.31 262.853,-854.495"/>
<text text-anchor="middle" x="301.5" y="-865.493" font-family="Calibri" font-size="14.00">is an</text>
</g>
<!-- n_systematic -->
<g id="node3" class="node"><title>n_systematic</title>
<polygon fill="none" stroke="#1874cd" points="366.5,-691.693 366.5,-737.693 445.5,-737.693 445.5,-691.693 366.5,-691.693"/>
<text text-anchor="middle" x="406" y="-722.493" font-family="Calibri" font-size="14.00" fill="#1874cd">Random</text>
<polyline fill="none" stroke="#1874cd" points="366.5,-714.693 445.5,-714.693 "/>
<text text-anchor="middle" x="406" y="-699.493" font-family="Calibri" font-size="14.00" fill="#1874cd">Systematic</text>
</g>
<!-- n_error&#45;&gt;n_systematic -->
<g id="edge3" class="edge"><title>n_error&#45;&gt;n_systematic</title>
<path fill="none" stroke="#1874cd" d="M323.118,-817.586C322.368,-809.851 323.038,-801.043 328,-794.693 336.233,-784.158 346.102,-794.44 357,-786.693 371.32,-776.515 382.805,-760.757 391.046,-746.67"/>
<polygon fill="#1874cd" stroke="#1874cd" points="395.991,-737.729 395.089,-748.658 393.571,-742.104 391.151,-746.48 391.151,-746.48 391.151,-746.48 393.571,-742.104 387.213,-744.302 395.991,-737.729 395.991,-737.729"/>
<text text-anchor="middle" x="362.5" y="-798.493" font-family="Calibri" font-size="14.00" fill="#1874cd">categorized</text>
</g>
<!-- n_error&#45;&gt;n_observation -->
<g id="edge5" class="edge"><title>n_error&#45;&gt;n_observation</title>
<path fill="none" stroke="black" d="M357.714,-835.693C367.657,-835.693 379.107,-835.693 390.635,-835.693"/>
<polygon fill="black" stroke="black" points="390.748,-839.194 400.748,-835.693 390.748,-832.194 390.748,-839.194"/>
<text text-anchor="middle" x="379.176" y="-842.493" font-family="Calibri" font-size="14.00">vary</text>
</g>
<!-- n_manifestation -->
<g id="node23" class="node"><title>n_manifestation</title>
<ellipse fill="none" stroke="black" cx="710" cy="-337.24" rx="63.0888" ry="18"/>
<text text-anchor="middle" x="710" y="-333.54" font-family="Calibri" font-size="14.00">Manifestation</text>
</g>
<!-- n_observation&#45;&gt;n_manifestation -->
<g id="edge28" class="edge"><title>n_observation&#45;&gt;n_manifestation</title>
<path fill="none" stroke="black" d="M498.09,-822.681C503.605,-819.34 508.551,-815.091 512,-809.693 559.473,-735.401 420.251,-685.838 473,-615.193 480.488,-605.165 490.629,-615.49 500,-607.193 557.663,-556.142 507.15,-494.13 569,-448.24 593.793,-429.845 611.454,-456.001 638,-440.24 667.159,-422.928 687.568,-388.683 699.032,-364.665"/>
<polygon fill="black" stroke="black" points="702.296,-365.942 703.261,-355.392 695.927,-363.038 702.296,-365.942"/>
<text text-anchor="middle" x="505.5" y="-648.993" font-family="Calibri" font-size="14.00">is a</text>
<text text-anchor="middle" x="505.5" y="-633.993" font-family="Calibri" font-size="14.00">perception</text>
<text text-anchor="middle" x="505.5" y="-618.993" font-family="Calibri" font-size="14.00">of</text>
</g>
<!-- n_rule -->
<g id="node7" class="node"><title>n_rule</title>
<ellipse fill="none" stroke="black" cx="188" cy="-714.693" rx="27" ry="18"/>
<text text-anchor="middle" x="188" y="-710.993" font-family="Calibri" font-size="14.00">Rule</text>
</g>
<!-- n_operation&#45;&gt;n_rule -->
<g id="edge7" class="edge"><title>n_operation&#45;&gt;n_rule</title>
<path fill="none" stroke="black" d="M223.982,-817.644C216.988,-797.826 205.366,-764.898 197.229,-741.841"/>
<polygon fill="black" stroke="black" points="200.5,-740.593 193.871,-732.328 193.899,-742.923 200.5,-740.593"/>
<text text-anchor="middle" x="248.5" y="-798.493" font-family="Calibri" font-size="14.00">bound by</text>
</g>
<!-- n_empirical -->
<g id="node8" class="node"><title>n_empirical</title>
<polygon fill="none" stroke="#1874cd" points="348.5,-732.693 279.5,-732.693 279.5,-696.693 348.5,-696.693 348.5,-732.693"/>
<text text-anchor="middle" x="314" y="-710.993" font-family="Calibri" font-size="14.00" fill="#1874cd">Empirical</text>
</g>
<!-- n_rule&#45;&gt;n_empirical -->
<g id="edge8" class="edge"><title>n_rule&#45;&gt;n_empirical</title>
<path fill="none" stroke="#1874cd" d="M215.03,-714.693C230.82,-714.693 251.143,-714.693 269.26,-714.693"/>
<polygon fill="#1874cd" stroke="#1874cd" points="279.338,-714.693 269.338,-719.194 274.338,-714.693 269.338,-714.694 269.338,-714.694 269.338,-714.694 274.338,-714.693 269.338,-710.194 279.338,-714.693 279.338,-714.693"/>
<text text-anchor="middle" x="247.25" y="-721.493" font-family="Calibri" font-size="14.00" fill="#1874cd">must be</text>
</g>
<!-- n_objective -->
<g id="node9" class="node"><title>n_objective</title>
<polygon fill="none" stroke="#1874cd" points="232.5,-987.693 161.5,-987.693 161.5,-951.693 232.5,-951.693 232.5,-987.693"/>
<text text-anchor="middle" x="197" y="-965.993" font-family="Calibri" font-size="14.00" fill="#1874cd">Objective</text>
</g>
<!-- n_rule&#45;&gt;n_objective -->
<g id="edge9" class="edge"><title>n_rule&#45;&gt;n_objective</title>
<path fill="none" stroke="#1874cd" d="M184.528,-732.563C180.573,-752.714 174.354,-787.492 172,-817.693 170.756,-833.645 170.291,-837.785 172,-853.693 175.274,-884.17 183.297,-918.421 189.378,-941.556"/>
<polygon fill="#1874cd" stroke="#1874cd" points="192.011,-951.349 185.069,-942.861 190.713,-946.521 189.414,-941.692 189.414,-941.692 189.414,-941.692 190.713,-946.521 193.76,-940.524 192.011,-951.349 192.011,-951.349"/>
<text text-anchor="middle" x="199.5" y="-865.493" font-family="Calibri" font-size="14.00" fill="#1874cd">must be</text>
</g>
<!-- n_isomorphic -->
<g id="node10" class="node"><title>n_isomorphic</title>
<ellipse fill="none" stroke="black" cx="220" cy="-531.717" rx="58.8803" ry="37.4533"/>
<text text-anchor="middle" x="220" y="-543.017" font-family="Calibri" font-size="14.00">Isomoprhic</text>
<text text-anchor="middle" x="220" y="-528.017" font-family="Calibri" font-size="14.00">Mapping</text>
<text text-anchor="middle" x="220" y="-513.017" font-family="Calibri" font-size="14.00">Function</text>
</g>
<!-- n_rule&#45;&gt;n_isomorphic -->
<g id="edge21" class="edge"><title>n_rule&#45;&gt;n_isomorphic</title>
<path fill="none" stroke="black" d="M191.01,-696.668C196.145,-667.63 206.703,-607.915 213.561,-569.131"/>
</g>
<!-- n_homomorphic -->
<g id="node11" class="node"><title>n_homomorphic</title>
<ellipse fill="none" stroke="black" cx="367" cy="-531.717" rx="70.922" ry="37.4533"/>
<text text-anchor="middle" x="367" y="-543.017" font-family="Calibri" font-size="14.00">Homomorphic</text>
<text text-anchor="middle" x="367" y="-528.017" font-family="Calibri" font-size="14.00">Mapping</text>
<text text-anchor="middle" x="367" y="-513.017" font-family="Calibri" font-size="14.00">Function</text>
</g>
<!-- n_rule&#45;&gt;n_homomorphic -->
<g id="edge22" class="edge"><title>n_rule&#45;&gt;n_homomorphic</title>
<path fill="none" stroke="black" d="M202.346,-699.189C230.884,-670.336 295.402,-605.106 334.669,-565.405"/>
</g>
<!-- n_symbol_or_number -->
<g id="node12" class="node"><title>n_symbol_or_number</title>
<ellipse fill="none" stroke="black" cx="334" cy="-337.24" rx="81.4863" ry="18"/>
<text text-anchor="middle" x="334" y="-333.54" font-family="Calibri" font-size="14.00">Symbol or Number</text>
</g>
<!-- n_rule&#45;&gt;n_symbol_or_number -->
<g id="edge12" class="edge"><title>n_rule&#45;&gt;n_symbol_or_number</title>
<path fill="none" stroke="black" d="M178.701,-697.663C157.267,-658.393 109.379,-555.542 152,-486.24 175.741,-447.638 207.066,-467.853 243,-440.24 271.905,-418.029 298.886,-385.748 315.845,-363.479"/>
<polygon fill="black" stroke="black" points="318.861,-365.291 322.05,-355.187 313.256,-361.097 318.861,-365.291"/>
<text text-anchor="middle" x="161.5" y="-588.493" font-family="Calibri" font-size="14.00">assign</text>
</g>
<!-- n_rule&#45;&gt;n_manifestation -->
<g id="edge20" class="edge"><title>n_rule&#45;&gt;n_manifestation</title>
<path fill="none" stroke="black" d="M210.587,-704.642C257.922,-684.951 369.541,-634.686 447,-569.193 460.155,-558.071 528.799,-456.346 544,-448.24 580.998,-428.512 601.624,-461.093 638,-440.24 667.42,-423.375 687.771,-389.03 699.15,-364.868"/>
<polygon fill="black" stroke="black" points="702.439,-366.089 703.343,-355.533 696.053,-363.221 702.439,-366.089"/>
<text text-anchor="middle" x="466" y="-595.993" font-family="Calibri" font-size="14.00">determine</text>
<text text-anchor="middle" x="466" y="-580.993" font-family="Calibri" font-size="14.00">classify</text>
</g>
<!-- n_real_world -->
<g id="node20" class="node"><title>n_real_world</title>
<ellipse fill="none" stroke="black" cx="622" cy="-714.693" rx="67.6881" ry="18"/>
<text text-anchor="middle" x="622" y="-710.993" font-family="Calibri" font-size="14.00">The Real World</text>
</g>
<!-- n_empirical&#45;&gt;n_real_world -->
<g id="edge25" class="edge"><title>n_empirical&#45;&gt;n_real_world</title>
<path fill="none" stroke="#1874cd" d="M319.229,-732.848C325.258,-750.081 337.003,-775.031 357,-786.693 392.129,-807.181 502.027,-801.247 540,-786.693 564.476,-777.313 586.448,-757.04 601.473,-740.39"/>
<polygon fill="#1874cd" stroke="#1874cd" points="608.271,-732.57 605.106,-743.07 604.99,-736.344 601.71,-740.117 601.71,-740.117 601.71,-740.117 604.99,-736.344 598.314,-737.165 608.271,-732.57 608.271,-732.57"/>
<text text-anchor="middle" x="426" y="-798.493" font-family="Calibri" font-size="14.00" fill="#1874cd">based on</text>
</g>
<!-- n_objective&#45;&gt;n_observer -->
<g id="edge10" class="edge"><title>n_objective&#45;&gt;n_observer</title>
<path fill="none" stroke="#1874cd" d="M232.613,-969.693C259.367,-969.693 296.544,-969.693 327.361,-969.693"/>
<polygon fill="#1874cd" stroke="#1874cd" points="337.543,-969.693 327.544,-974.194 332.543,-969.693 327.543,-969.694 327.543,-969.694 327.543,-969.694 332.543,-969.693 327.543,-965.194 337.543,-969.693 337.543,-969.693"/>
<text text-anchor="middle" x="285.177" y="-976.493" font-family="Calibri" font-size="14.00" fill="#1874cd">independent of</text>
</g>
<!-- n_real_rel -->
<g id="node24" class="node"><title>n_real_rel</title>
<ellipse fill="none" stroke="black" cx="588" cy="-337.24" rx="40.8928" ry="18"/>
<text text-anchor="middle" x="588" y="-333.54" font-family="Calibri" font-size="14.00">Relation</text>
</g>
<!-- n_isomorphic&#45;&gt;n_real_rel -->
<g id="edge27" class="edge"><title>n_isomorphic&#45;&gt;n_real_rel</title>
<path fill="none" stroke="black" d="M257.92,-503.006C267.155,-496.98 277.202,-490.994 287,-486.24 345.925,-457.649 367.774,-468.201 427,-440.24 476.231,-416.998 528.683,-381.499 559.881,-359.098"/>
<polygon fill="black" stroke="black" points="562.05,-361.849 568.097,-353.149 557.945,-356.179 562.05,-361.849"/>
</g>
<!-- n_homomorphic&#45;&gt;n_manifestation -->
<g id="edge26" class="edge"><title>n_homomorphic&#45;&gt;n_manifestation</title>
<path fill="none" stroke="black" d="M426.73,-511.301C448.035,-502.898 471.554,-491.835 491,-478.24 505.948,-467.79 502.526,-456.066 519,-448.24 542.94,-436.867 614.89,-453.217 638,-440.24 671.831,-421.244 693.553,-378.944 703.559,-355.217"/>
</g>
<!-- n_symbol_or_number&#45;&gt;n_homomorphic -->
<g id="edge30" class="edge"><title>n_symbol_or_number&#45;&gt;n_homomorphic</title>
<path fill="none" stroke="black" d="M338.72,-365.767C344.497,-399.468 354.303,-456.66 360.715,-494.06"/>
<polygon fill="black" stroke="black" points="342.134,-364.971 336.994,-355.706 335.235,-366.154 342.134,-364.971"/>
</g>
<!-- n_meaningful -->
<g id="node15" class="node"><title>n_meaningful</title>
<polygon fill="none" stroke="#1874cd" points="363,-288.24 281,-288.24 281,-252.24 363,-252.24 363,-288.24"/>
<text text-anchor="middle" x="322" y="-266.54" font-family="Calibri" font-size="14.00" fill="#1874cd">Meaningful</text>
</g>
<!-- n_symbol_or_number&#45;&gt;n_meaningful -->
<g id="edge31" class="edge"><title>n_symbol_or_number&#45;&gt;n_meaningful</title>
<path fill="none" stroke="#1874cd" d="M324.567,-319.119C323.509,-316.544 322.598,-313.869 322,-311.24 321.09,-307.241 320.6,-302.958 320.384,-298.735"/>
<polygon fill="#1874cd" stroke="#1874cd" points="320.331,-288.557 324.883,-298.533 320.357,-293.557 320.383,-298.557 320.383,-298.557 320.383,-298.557 320.357,-293.557 315.883,-298.58 320.331,-288.557 320.331,-288.557"/>
<text text-anchor="middle" x="327" y="-300.04" font-family="Calibri" font-size="14.00" fill="#1874cd">is</text>
</g>
<!-- n_scale -->
<g id="node16" class="node"><title>n_scale</title>
<ellipse fill="none" stroke="black" cx="465" cy="-270.24" rx="29.795" ry="18"/>
<text text-anchor="middle" x="465" y="-266.54" font-family="Calibri" font-size="14.00">Scale</text>
</g>
<!-- n_symbol_or_number&#45;&gt;n_scale -->
<g id="edge13" class="edge"><title>n_symbol_or_number&#45;&gt;n_scale</title>
<path fill="none" stroke="black" d="M404.785,-328.367C427.162,-324.499 448.129,-318.962 456,-311.24 459.56,-307.748 461.846,-303.171 463.288,-298.365"/>
<polygon fill="black" stroke="black" points="466.742,-298.934 465.201,-288.451 459.869,-297.607 466.742,-298.934"/>
<text text-anchor="middle" x="474.5" y="-300.04" font-family="Calibri" font-size="14.00">has</text>
</g>
<!-- n_sym_rel -->
<g id="node13" class="node"><title>n_sym_rel</title>
<ellipse fill="none" stroke="black" cx="129" cy="-337.24" rx="105.082" ry="18"/>
<text text-anchor="middle" x="129" y="-333.54" font-family="Calibri" font-size="14.00">Relation, Math Operation</text>
</g>
<!-- n_sym_rel&#45;&gt;n_isomorphic -->
<g id="edge29" class="edge"><title>n_sym_rel&#45;&gt;n_isomorphic</title>
<path fill="none" stroke="black" d="M141.536,-364.756C157.593,-398.717 185.47,-457.681 203.309,-495.414"/>
<polygon fill="black" stroke="black" points="144.587,-363.019 137.148,-355.475 138.258,-366.011 144.587,-363.019"/>
</g>
<!-- n_sym_rel_type -->
<g id="node14" class="node"><title>n_sym_rel_type</title>
<polygon fill="none" stroke="#1874cd" points="102,-117.24 102,-209.24 156,-209.24 156,-117.24 102,-117.24"/>
<text text-anchor="middle" x="129" y="-194.04" font-family="Calibri" font-size="14.00" fill="#1874cd">=, ≠</text>
<polyline fill="none" stroke="#1874cd" points="102,-186.24 156,-186.24 "/>
<text text-anchor="middle" x="129" y="-171.04" font-family="Calibri" font-size="14.00" fill="#1874cd">&gt;, &lt;</text>
<polyline fill="none" stroke="#1874cd" points="102,-163.24 156,-163.24 "/>
<text text-anchor="middle" x="129" y="-148.04" font-family="Calibri" font-size="14.00" fill="#1874cd">+, &#45;</text>
<polyline fill="none" stroke="#1874cd" points="102,-140.24 156,-140.24 "/>
<text text-anchor="middle" x="129" y="-125.04" font-family="Calibri" font-size="14.00" fill="#1874cd">×, ÷</text>
</g>
<!-- n_sym_rel&#45;&gt;n_sym_rel_type -->
<g id="edge11" class="edge"><title>n_sym_rel&#45;&gt;n_sym_rel_type</title>
<path fill="none" stroke="#1874cd" d="M129,-319.119C129,-296.172 129,-254.342 129,-219.933"/>
<polygon fill="#1874cd" stroke="#1874cd" points="129,-209.522 133.5,-219.522 129,-214.522 129,-219.522 129,-219.522 129,-219.522 129,-214.522 124.5,-219.522 129,-209.522 129,-209.522"/>
<text text-anchor="middle" x="150.5" y="-266.54" font-family="Calibri" font-size="14.00" fill="#1874cd">such as</text>
</g>
<!-- n_sym_rel&#45;&gt;n_scale -->
<g id="edge33" class="edge"><title>n_sym_rel&#45;&gt;n_scale</title>
<path fill="none" stroke="black" d="M203.769,-324.555C217.148,-322.645 230.973,-320.787 244,-319.24 283.438,-314.557 296.103,-325.933 333,-311.24 342.995,-307.26 342.038,-300.303 352,-296.24 383.04,-283.58 394.634,-296.97 427,-288.24 429.154,-287.659 431.342,-286.971 433.523,-286.21"/>
<polygon fill="black" stroke="black" points="434.899,-289.43 442.924,-282.513 432.337,-282.915 434.899,-289.43"/>
<text text-anchor="middle" x="402" y="-300.04" font-family="Calibri" font-size="14.00">is consistent with</text>
</g>
<!-- n_scale_type -->
<g id="node17" class="node"><title>n_scale_type</title>
<polygon fill="none" stroke="#1874cd" points="431,-105.74 431,-220.74 499,-220.74 499,-105.74 431,-105.74"/>
<text text-anchor="middle" x="465" y="-205.54" font-family="Calibri" font-size="14.00" fill="#1874cd">Nominal</text>
<polyline fill="none" stroke="#1874cd" points="431,-197.74 499,-197.74 "/>
<text text-anchor="middle" x="465" y="-182.54" font-family="Calibri" font-size="14.00" fill="#1874cd">Ordinal</text>
<polyline fill="none" stroke="#1874cd" points="431,-174.74 499,-174.74 "/>
<text text-anchor="middle" x="465" y="-159.54" font-family="Calibri" font-size="14.00" fill="#1874cd">Interval</text>
<polyline fill="none" stroke="#1874cd" points="431,-151.74 499,-151.74 "/>
<text text-anchor="middle" x="465" y="-136.54" font-family="Calibri" font-size="14.00" fill="#1874cd">Ratio</text>
<polyline fill="none" stroke="#1874cd" points="431,-128.74 499,-128.74 "/>
<text text-anchor="middle" x="465" y="-113.54" font-family="Calibri" font-size="14.00" fill="#1874cd">Absolute</text>
</g>
<!-- n_scale&#45;&gt;n_scale_type -->
<g id="edge14" class="edge"><title>n_scale&#45;&gt;n_scale_type</title>
<path fill="none" stroke="#1874cd" d="M465,-251.902C465,-245.907 465,-238.782 465,-231.221"/>
<polygon fill="#1874cd" stroke="#1874cd" points="465,-221.09 469.5,-231.09 465,-226.09 465,-231.09 465,-231.09 465,-231.09 465,-226.09 460.5,-231.09 465,-221.09 465,-221.09"/>
<text text-anchor="middle" x="482" y="-233.04" font-family="Calibri" font-size="14.00" fill="#1874cd">typed</text>
</g>
<!-- n_scale_transformations -->
<g id="node18" class="node"><title>n_scale_transformations</title>
<ellipse fill="none" stroke="black" cx="313" cy="-42.8701" rx="79.8062" ry="26.7407"/>
<text text-anchor="middle" x="313" y="-46.6701" font-family="Calibri" font-size="14.00">Scale</text>
<text text-anchor="middle" x="313" y="-31.6701" font-family="Calibri" font-size="14.00">Transformations</text>
</g>
<!-- n_scale_type&#45;&gt;n_scale_transformations -->
<g id="edge15" class="edge"><title>n_scale_type&#45;&gt;n_scale_transformations</title>
<path fill="none" stroke="#1874cd" d="M431.863,-105.56C430.29,-103.877 428.668,-102.263 427,-100.74 412.118,-87.1507 393.388,-76.0305 375.434,-67.3432"/>
<polygon fill="#1874cd" stroke="#1874cd" points="366.141,-63.022 377.106,-63.1579 370.675,-65.1302 375.209,-67.2384 375.209,-67.2384 375.209,-67.2384 370.675,-65.1302 373.311,-71.3188 366.141,-63.022 366.141,-63.022"/>
<text text-anchor="middle" x="434" y="-81.5401" font-family="Calibri" font-size="14.00" fill="#1874cd">admit</text>
</g>
<!-- n_statistics -->
<g id="node19" class="node"><title>n_statistics</title>
<ellipse fill="none" stroke="black" cx="455" cy="-42.8701" rx="44.393" ry="18"/>
<text text-anchor="middle" x="455" y="-39.1701" font-family="Calibri" font-size="14.00">Statistics</text>
</g>
<!-- n_scale_type&#45;&gt;n_statistics -->
<g id="edge16" class="edge"><title>n_scale_type&#45;&gt;n_statistics</title>
<path fill="none" stroke="#1874cd" d="M460.205,-105.482C459.186,-93.4159 458.155,-81.2151 457.283,-70.89"/>
<polygon fill="#1874cd" stroke="#1874cd" points="456.438,-60.8936 461.764,-70.4792 456.859,-65.8758 457.28,-70.8581 457.28,-70.8581 457.28,-70.8581 456.859,-65.8758 452.796,-71.2369 456.438,-60.8936 456.438,-60.8936"/>
<text text-anchor="middle" x="479.5" y="-81.5401" font-family="Calibri" font-size="14.00" fill="#1874cd">permit</text>
</g>
<!-- n_object_or_event -->
<g id="node21" class="node"><title>n_object_or_event</title>
<ellipse fill="none" stroke="black" cx="676" cy="-637.693" rx="68.7879" ry="18"/>
<text text-anchor="middle" x="676" y="-633.993" font-family="Calibri" font-size="14.00">Object or Event</text>
</g>
<!-- n_real_world&#45;&gt;n_object_or_event -->
<g id="edge17" class="edge"><title>n_real_world&#45;&gt;n_object_or_event</title>
<path fill="none" stroke="black" d="M634.253,-696.675C641.227,-686.99 650.093,-674.675 657.86,-663.889"/>
<polygon fill="black" stroke="black" points="660.792,-665.805 663.795,-655.645 655.112,-661.715 660.792,-665.805"/>
<text text-anchor="middle" x="677.5" y="-671.993" font-family="Calibri" font-size="14.00">contains</text>
</g>
<!-- n_property -->
<g id="node22" class="node"><title>n_property</title>
<ellipse fill="none" stroke="black" cx="710" cy="-531.717" rx="44.393" ry="18"/>
<text text-anchor="middle" x="710" y="-528.017" font-family="Calibri" font-size="14.00">Property</text>
</g>
<!-- n_object_or_event&#45;&gt;n_property -->
<g id="edge18" class="edge"><title>n_object_or_event&#45;&gt;n_property</title>
<path fill="none" stroke="black" d="M681.614,-619.524C686.954,-603.194 695.068,-578.38 701.255,-559.459"/>
<polygon fill="black" stroke="black" points="704.596,-560.504 704.377,-549.912 697.943,-558.329 704.596,-560.504"/>
<text text-anchor="middle" x="705.5" y="-588.493" font-family="Calibri" font-size="14.00">has</text>
</g>
<!-- n_object_or_event&#45;&gt;n_real_rel -->
<g id="edge24" class="edge"><title>n_object_or_event&#45;&gt;n_real_rel</title>
<path fill="none" stroke="black" d="M663.803,-619.74C654.862,-606.553 643.092,-587.482 636,-569.193 608.632,-498.619 595.761,-409.559 590.721,-365.498"/>
<polygon fill="black" stroke="black" points="594.172,-364.863 589.604,-355.304 587.214,-365.626 594.172,-364.863"/>
<text text-anchor="middle" x="646.5" y="-528.017" font-family="Calibri" font-size="14.00">has</text>
</g>
<!-- n_property&#45;&gt;n_manifestation -->
<g id="edge23" class="edge"><title>n_property&#45;&gt;n_manifestation</title>
<path fill="none" stroke="black" d="M710,-513.636C710,-480.178 710,-405.764 710,-365.453"/>
<polygon fill="black" stroke="black" points="713.5,-365.283 710,-355.283 706.5,-365.283 713.5,-365.283"/>
<text text-anchor="middle" x="720.5" y="-459.54" font-family="Calibri" font-size="14.00">has</text>
</g>
<!-- n_manifestation&#45;&gt;n_symbol_or_number -->
<g id="edge32" class="edge"><title>n_manifestation&#45;&gt;n_symbol_or_number</title>
<path fill="none" stroke="black" d="M699.423,-364.65C688.259,-389.353 668.073,-424.182 638,-440.24 576.71,-472.968 465.288,-457.531 432.5,-443.24 391.278,-425.273 359.545,-380.608 344.185,-355.364"/>
<polygon fill="black" stroke="black" points="702.659,-365.985 703.394,-355.416 696.228,-363.22 702.659,-365.985"/>
<text text-anchor="middle" x="461" y="-467.04" font-family="Calibri" font-size="14.00">represent</text>
<text text-anchor="middle" x="461" y="-452.04" font-family="Calibri" font-size="14.00">describe</text>
</g>
<!-- n_real_rel_type -->
<g id="node25" class="node"><title>n_real_rel_type</title>
<polygon fill="none" stroke="#1874cd" points="547,-117.24 547,-209.24 763,-209.24 763,-117.24 547,-117.24"/>
<text text-anchor="middle" x="655" y="-194.04" font-family="Calibri" font-size="14.00" fill="#1874cd">Identity</text>
<polyline fill="none" stroke="#1874cd" points="547,-186.24 763,-186.24 "/>
<text text-anchor="middle" x="655" y="-171.04" font-family="Calibri" font-size="14.00" fill="#1874cd">Order</text>
<polyline fill="none" stroke="#1874cd" points="547,-163.24 763,-163.24 "/>
<text text-anchor="middle" x="655" y="-148.04" font-family="Calibri" font-size="14.00" fill="#1874cd">Equality of Intervals or Differences</text>
<polyline fill="none" stroke="#1874cd" points="547,-140.24 763,-140.24 "/>
<text text-anchor="middle" x="655" y="-125.04" font-family="Calibri" font-size="14.00" fill="#1874cd">Equality of Ratios</text>
</g>
<!-- n_real_rel&#45;&gt;n_real_rel_type -->
<g id="edge19" class="edge"><title>n_real_rel&#45;&gt;n_real_rel_type</title>
<path fill="none" stroke="#1874cd" d="M594.546,-319.435C603.546,-296.332 620.163,-253.673 633.701,-218.918"/>
<polygon fill="#1874cd" stroke="#1874cd" points="637.429,-209.348 637.992,-220.299 635.614,-214.007 633.799,-218.666 633.799,-218.666 633.799,-218.666 635.614,-214.007 629.606,-217.032 637.429,-209.348 637.429,-209.348"/>
<text text-anchor="middle" x="637" y="-266.54" font-family="Calibri" font-size="14.00" fill="#1874cd">typed</text>
</g>
</g>
</svg>
