<?xml version="1.0" encoding="UTF-8" standalone="no"?>
<!DOCTYPE svg PUBLIC "-//W3C//DTD SVG 1.1//EN"
 "http://www.w3.org/Graphics/SVG/1.1/DTD/svg11.dtd">
<!-- Generated by graphviz version 2.38.0 (20140413.2041)
 -->
<!-- Title: G Pages: 1 -->
<svg width="1789pt" height="1473pt"
 viewBox="0.00 0.00 429.36 353.60" xmlns="http://www.w3.org/2000/svg" xmlns:xlink="http://www.w3.org/1999/xlink">
<g id="graph0" class="graph" transform="scale(4.16667 4.16667) rotate(0) translate(4 349.598)">
<title>G</title>
<polygon fill="white" stroke="none" points="-4,4 -4,-349.598 425.359,-349.598 425.359,4 -4,4"/>
<text text-anchor="middle" x="210.679" y="-15.6" font-family="Calibri" font-size="8.00">Account Takeover (Conceptual Diagram) by Open&#45;Measure</text>
<text text-anchor="middle" x="210.679" y="-6.6" font-family="Calibri" font-size="8.00">Licensed under Creative Commons Attribution 4.0 International License</text>
<!-- n_identity_theft -->
<g id="node1" class="node"><title>n_identity_theft</title>
<ellipse fill="#ffffff" stroke="black" cx="316" cy="-327.598" rx="50.4563" ry="18"/>
<text text-anchor="middle" x="316" y="-324.498" font-family="Calibri" font-size="12.00">Identity Theft</text>
</g>
<!-- n_account_takeover -->
<g id="node2" class="node"><title>n_account_takeover</title>
<g id="a_node2"><a xlink:href="https://open-measure.atlassian.net/wiki/spaces/DIC/pages/1079050286" xlink:title="Account Takeover">
<ellipse fill="#5599ff" stroke="black" cx="316" cy="-258.799" rx="105.218" ry="19.6"/>
<text text-anchor="middle" x="316" y="-254.399" font-family="Calibri" font-size="18.00">Account Takeover</text>
</a>
</g>
</g>
<!-- n_identity_theft&#45;&gt;n_account_takeover -->
<g id="edge1" class="edge"><title>n_identity_theft&#45;&gt;n_account_takeover</title>
<path fill="none" stroke="black" d="M316,-299.215C316,-292.452 316,-285.349 316,-279.064"/>
<polygon fill="black" stroke="black" points="312.5,-299.396 316,-309.396 319.5,-299.396 312.5,-299.396"/>
<text text-anchor="middle" x="331.5" y="-290.398" font-family="Calibri" font-size="14.00"> &#160;is a &#160;</text>
</g>
<!-- n_perpetrator -->
<g id="node3" class="node"><title>n_perpetrator</title>
<g id="a_node3"><a xlink:href="https://open-measure.atlassian.net/wiki/spaces/DIC/pages/67600948" xlink:title="Perpetrator">
<ellipse fill="#d6e7ff" stroke="black" cx="95" cy="-175" rx="43.9143" ry="18"/>
<text text-anchor="middle" x="95" y="-171.9" font-family="Calibri" font-size="12.00">Perpetrator</text>
</a>
</g>
</g>
<!-- n_account_takeover&#45;&gt;n_perpetrator -->
<g id="edge2" class="edge"><title>n_account_takeover&#45;&gt;n_perpetrator</title>
<path fill="none" stroke="black" d="M266.16,-241.251C256.462,-237.93 246.393,-234.411 237,-231 202.323,-218.409 163.257,-203.202 134.891,-191.973"/>
<polygon fill="black" stroke="black" points="135.915,-188.613 125.329,-188.177 133.332,-195.12 135.915,-188.613"/>
<text text-anchor="middle" x="274.5" y="-219.8" font-family="Calibri" font-size="14.00"> &#160;committed &#160;</text>
<text text-anchor="middle" x="274.5" y="-204.8" font-family="Calibri" font-size="14.00"> &#160;by &#160;</text>
</g>
<!-- n_characteristics -->
<g id="node8" class="node"><title>n_characteristics</title>
<ellipse fill="#d6e7ff" stroke="black" cx="316" cy="-175" rx="28.8653" ry="18"/>
<text text-anchor="middle" x="316" y="-171.9" font-family="Calibri" font-size="12.00">Illegal</text>
</g>
<!-- n_account_takeover&#45;&gt;n_characteristics -->
<g id="edge9" class="edge"><title>n_account_takeover&#45;&gt;n_characteristics</title>
<path fill="none" stroke="black" d="M316,-238.827C316,-228.276 316,-214.96 316,-203.306"/>
<polygon fill="black" stroke="black" points="319.5,-203.198 316,-193.198 312.5,-203.198 319.5,-203.198"/>
<text text-anchor="middle" x="347" y="-219.8" font-family="Calibri" font-size="14.00"> is &#160;</text>
<text text-anchor="middle" x="347" y="-204.8" font-family="Calibri" font-size="14.00"> &#160;generally </text>
</g>
<!-- n_control -->
<g id="node4" class="node"><title>n_control</title>
<ellipse fill="#d6e7ff" stroke="black" cx="166" cy="-68.5" rx="32.0211" ry="18"/>
<text text-anchor="middle" x="166" y="-65.4" font-family="Calibri" font-size="12.00">Control</text>
</g>
<!-- n_perpetrator&#45;&gt;n_control -->
<g id="edge3" class="edge"><title>n_perpetrator&#45;&gt;n_control</title>
<path fill="none" stroke="black" d="M115.419,-158.896C118.85,-155.843 122.2,-152.49 125,-149 137.956,-132.85 148.538,-111.958 155.704,-95.6441"/>
<polygon fill="black" stroke="black" points="159.043,-96.735 159.716,-86.1615 152.596,-94.0078 159.043,-96.735"/>
<text text-anchor="middle" x="162.5" y="-130.3" font-family="Calibri" font-size="14.00"> &#160;take &#160;</text>
</g>
<!-- n_victim -->
<g id="node6" class="node"><title>n_victim</title>
<g id="a_node6"><a xlink:href="https://open-measure.atlassian.net/wiki/spaces/DIC/pages/123830932" xlink:title="Victim">
<ellipse fill="#d6e7ff" stroke="black" cx="240" cy="-175" rx="28.8653" ry="18"/>
<text text-anchor="middle" x="240" y="-171.9" font-family="Calibri" font-size="12.00">Victim</text>
</a>
</g>
</g>
<!-- n_perpetrator&#45;&gt;n_victim -->
<g id="edge5" class="edge"><title>n_perpetrator&#45;&gt;n_victim</title>
<path fill="none" stroke="black" d="M148.99,-175C166.208,-175 184.918,-175 200.871,-175"/>
<polygon fill="black" stroke="black" points="148.898,-171.5 138.898,-175 148.898,-178.5 148.898,-171.5"/>
<polygon fill="black" stroke="black" points="200.913,-178.5 210.913,-175 200.913,-171.5 200.913,-178.5"/>
<text text-anchor="middle" x="174.887" y="-181.8" font-family="Calibri" font-size="14.00"> &#160;distinct &#160;</text>
</g>
<!-- n_motivations -->
<g id="node7" class="node"><title>n_motivations</title>
<polygon fill="#d6e7ff" stroke="black" points="0,-26.5 0,-110.5 106,-110.5 106,-26.5 0,-26.5"/>
<text text-anchor="middle" x="53" y="-96.9" font-family="Calibri" font-size="12.00">Money</text>
<polyline fill="none" stroke="black" points="0,-89.5 106,-89.5 "/>
<text text-anchor="middle" x="53" y="-75.9" font-family="Calibri" font-size="12.00">Reputation Harm</text>
<polyline fill="none" stroke="black" points="0,-68.5 106,-68.5 "/>
<text text-anchor="middle" x="53" y="-54.9" font-family="Calibri" font-size="12.00">Identity Deception</text>
<polyline fill="none" stroke="black" points="0,-47.5 106,-47.5 "/>
<text text-anchor="middle" x="53" y="-33.9" font-family="Calibri" font-size="12.00">...</text>
</g>
<!-- n_perpetrator&#45;&gt;n_motivations -->
<g id="edge8" class="edge"><title>n_perpetrator&#45;&gt;n_motivations</title>
<path fill="none" stroke="black" d="M65.6825,-161.324C61.015,-157.998 56.8066,-153.926 54,-149 49.1819,-140.544 46.942,-130.715 46.2255,-120.912"/>
<polygon fill="black" stroke="black" points="49.721,-120.677 45.9862,-110.762 42.723,-120.842 49.721,-120.677"/>
<text text-anchor="middle" x="89.5" y="-137.8" font-family="Calibri" font-size="14.00"> &#160;motivated &#160;</text>
<text text-anchor="middle" x="89.5" y="-122.8" font-family="Calibri" font-size="14.00"> &#160;by &#160;</text>
</g>
<!-- n_identity -->
<g id="node5" class="node"><title>n_identity</title>
<g id="a_node5"><a xlink:href="https://open-measure.atlassian.net/wiki/spaces/DIC/pages/67600948" xlink:title="Identity">
<ellipse fill="#d6e7ff" stroke="black" cx="273" cy="-68.5" rx="32.7527" ry="18"/>
<text text-anchor="middle" x="273" y="-65.4" font-family="Calibri" font-size="12.00">Identity</text>
</a>
</g>
</g>
<!-- n_control&#45;&gt;n_identity -->
<g id="edge4" class="edge"><title>n_control&#45;&gt;n_identity</title>
<path fill="none" stroke="black" d="M198.104,-68.5C208.18,-68.5 219.468,-68.5 230.164,-68.5"/>
<polygon fill="black" stroke="black" points="230.178,-72.0001 240.178,-68.5 230.178,-65.0001 230.178,-72.0001"/>
<text text-anchor="middle" x="219.192" y="-75.3" font-family="Calibri" font-size="14.00"> &#160;of &#160;</text>
</g>
<!-- n_victim&#45;&gt;n_control -->
<g id="edge6" class="edge"><title>n_victim&#45;&gt;n_control</title>
<path fill="none" stroke="black" d="M219.068,-162.163C213.694,-158.442 208.24,-153.985 204,-149 196.708,-140.427 185.245,-115.446 176.814,-95.7499"/>
<polygon fill="black" stroke="black" points="179.949,-94.1762 172.836,-86.3244 173.5,-96.8984 179.949,-94.1762"/>
<text text-anchor="middle" x="225.5" y="-130.3" font-family="Calibri" font-size="14.00"> &#160;loose &#160;</text>
</g>
<!-- n_victim&#45;&gt;n_identity -->
<g id="edge7" class="edge"><title>n_victim&#45;&gt;n_identity</title>
<path fill="none" stroke="black" d="M247.677,-157.46C248.859,-154.664 250.013,-151.769 251,-149 257.131,-131.791 262.614,-111.993 266.573,-96.459"/>
<polygon fill="black" stroke="black" points="270.04,-97.0193 269.06,-86.47 263.248,-95.3284 270.04,-97.0193"/>
<text text-anchor="middle" x="282" y="-130.3" font-family="Calibri" font-size="14.00"> &#160;owns &#160;</text>
</g>
</g>
</svg>
