<?xml version="1.0" encoding="UTF-8" standalone="no"?>
<!DOCTYPE svg PUBLIC "-//W3C//DTD SVG 1.1//EN"
 "http://www.w3.org/Graphics/SVG/1.1/DTD/svg11.dtd">
<!-- Generated by graphviz version 2.38.0 (20140413.2041)
 -->
<!-- Title: G Pages: 1 -->
<svg width="1706pt" height="1802pt"
 viewBox="0.00 0.00 409.36 432.50" xmlns="http://www.w3.org/2000/svg" xmlns:xlink="http://www.w3.org/1999/xlink">
<g id="graph0" class="graph" transform="scale(4.16667 4.16667) rotate(0) translate(4 428.5)">
<title>G</title>
<polygon fill="white" stroke="none" points="-4,4 -4,-428.5 405.359,-428.5 405.359,4 -4,4"/>
<text text-anchor="middle" x="200.679" y="-15.6" font-family="Calibri" font-size="8.00">Account Takeover (Conceptual Diagram) by Open&#45;Measure</text>
<text text-anchor="middle" x="200.679" y="-6.6" font-family="Calibri" font-size="8.00">Licensed under Creative Commons Attribution 4.0 International License</text>
<g id="clust1" class="cluster"><title>cluster_motivations</title>
<polygon fill="none" stroke="black" points="220.359,-275.5 220.359,-357.5 386.359,-357.5 386.359,-275.5 220.359,-275.5"/>
<text text-anchor="middle" x="303.359" y="-342.3" font-family="Calibri" font-size="14.00">Motivations</text>
</g>
<!-- n_identity_theft -->
<g id="node1" class="node"><title>n_identity_theft</title>
<ellipse fill="#ffffff" stroke="black" cx="105.359" cy="-406.5" rx="50.4563" ry="18"/>
<text text-anchor="middle" x="105.359" y="-403.4" font-family="Calibri" font-size="12.00">Identity Theft</text>
</g>
<!-- n_account_takeover -->
<g id="node2" class="node"><title>n_account_takeover</title>
<g id="a_node2"><a xlink:href="https://open-measure.atlassian.net/wiki/spaces/DIC/pages/1079050286" xlink:title="Account Takeover">
<ellipse fill="#5599ff" stroke="black" cx="105.359" cy="-305" rx="105.218" ry="19.6"/>
<text text-anchor="middle" x="105.359" y="-300.6" font-family="Calibri" font-size="18.00">Account Takeover</text>
</a>
</g>
</g>
<!-- n_identity_theft&#45;&gt;n_account_takeover -->
<g id="edge1" class="edge"><title>n_identity_theft&#45;&gt;n_account_takeover</title>
<path fill="none" stroke="black" d="M105.359,-377.794C105.359,-360.909 105.359,-339.778 105.359,-324.825"/>
<polygon fill="black" stroke="black" points="101.859,-378.168 105.359,-388.168 108.859,-378.168 101.859,-378.168"/>
<text text-anchor="middle" x="120.859" y="-369.3" font-family="Calibri" font-size="14.00"> &#160;is a &#160;</text>
</g>
<!-- n_perpetrator -->
<g id="node3" class="node"><title>n_perpetrator</title>
<g id="a_node3"><a xlink:href="https://open-measure.atlassian.net/wiki/spaces/DIC/pages/67600948" xlink:title="Perpetrator">
<ellipse fill="#d6e7ff" stroke="black" cx="216.359" cy="-211.5" rx="43.9143" ry="18"/>
<text text-anchor="middle" x="216.359" y="-208.4" font-family="Calibri" font-size="12.00">Perpetrator</text>
</a>
</g>
</g>
<!-- n_account_takeover&#45;&gt;n_perpetrator -->
<g id="edge2" class="edge"><title>n_account_takeover&#45;&gt;n_perpetrator</title>
<path fill="none" stroke="black" d="M118.082,-285.138C128.607,-270.643 144.657,-250.898 162.359,-237.5 166.525,-234.347 171.153,-231.463 175.898,-228.867"/>
<polygon fill="black" stroke="black" points="177.727,-231.864 185.074,-224.231 174.571,-225.616 177.727,-231.864"/>
<text text-anchor="middle" x="199.859" y="-256.3" font-family="Calibri" font-size="14.00"> &#160;committed &#160;</text>
<text text-anchor="middle" x="199.859" y="-241.3" font-family="Calibri" font-size="14.00"> &#160;by &#160;</text>
</g>
<!-- n_control -->
<g id="node4" class="node"><title>n_control</title>
<ellipse fill="#d6e7ff" stroke="black" cx="239.359" cy="-59.5" rx="32.0211" ry="18"/>
<text text-anchor="middle" x="239.359" y="-56.4" font-family="Calibri" font-size="12.00">Control</text>
</g>
<!-- n_perpetrator&#45;&gt;n_control -->
<g id="edge3" class="edge"><title>n_perpetrator&#45;&gt;n_control</title>
<path fill="none" stroke="black" d="M196.627,-195.314C173.273,-175.404 139.653,-139.38 157.359,-108.5 167.03,-91.6327 185.178,-80.1222 201.948,-72.6113"/>
<polygon fill="black" stroke="black" points="203.674,-75.6856 211.587,-68.6409 201.008,-69.2131 203.674,-75.6856"/>
<text text-anchor="middle" x="187.087" y="-72.4409" font-family="Calibri" font-size="14.00">take &#160;&#160;&#160;&#160;&#160;&#160;&#160;</text>
</g>
<!-- n_distinct -->
<g id="node7" class="node"><title>n_distinct</title>
<polygon fill="none" stroke="none" points="296.859,-212 295.859,-212 295.859,-211 296.859,-211 296.859,-212"/>
</g>
<!-- n_perpetrator&#45;&gt;n_distinct -->
<g id="edge5" class="edge"><title>n_perpetrator&#45;&gt;n_distinct</title>
<path fill="none" stroke="black" d="M270.145,-211.5C278.694,-211.5 287.243,-211.5 295.793,-211.5"/>
<polygon fill="black" stroke="black" points="270.109,-208 260.109,-211.5 270.109,-215 270.109,-208"/>
<text text-anchor="middle" x="295.793" y="-199" font-family="Verdana" font-size="50.00" fill="#ff0000">x</text>
</g>
<!-- n_authorization_no -->
<g id="node10" class="node"><title>n_authorization_no</title>
<polygon fill="none" stroke="none" points="216.859,-176.5 215.859,-176.5 215.859,-175.5 216.859,-175.5 216.859,-176.5"/>
</g>
<!-- n_perpetrator&#45;&gt;n_authorization_no -->
<g id="edge11" class="edge"><title>n_perpetrator&#45;&gt;n_authorization_no</title>
<path fill="none" stroke="black" d="M216.359,-193.5C216.359,-185.531 216.359,-177.563 216.359,-176.598"/>
<text text-anchor="middle" x="216.359" y="-164.098" font-family="Verdana" font-size="50.00" fill="#ff0000">x</text>
</g>
<!-- n_identity -->
<g id="node5" class="node"><title>n_identity</title>
<g id="a_node5"><a xlink:href="https://open-measure.atlassian.net/wiki/spaces/DIC/pages/67600948" xlink:title="Identity">
<ellipse fill="#d6e7ff" stroke="black" cx="348.359" cy="-59.5" rx="32.7527" ry="18"/>
<text text-anchor="middle" x="348.359" y="-56.4" font-family="Calibri" font-size="12.00">Identity</text>
</a>
</g>
</g>
<!-- n_control&#45;&gt;n_identity -->
<g id="edge4" class="edge"><title>n_control&#45;&gt;n_identity</title>
<path fill="none" stroke="black" d="M271.718,-59.5C282.95,-59.5 294.181,-59.5 305.412,-59.5"/>
<polygon fill="black" stroke="black" points="305.727,-63.0001 315.727,-59.5 305.727,-56.0001 305.727,-63.0001"/>
<text text-anchor="middle" x="301.727" y="-63.3" font-family="Calibri" font-size="14.00"> &#160;of &#160;&#160;</text>
</g>
<!-- n_victim -->
<g id="node6" class="node"><title>n_victim</title>
<g id="a_node6"><a xlink:href="https://open-measure.atlassian.net/wiki/spaces/DIC/pages/123830932" xlink:title="Victim">
<ellipse fill="#d6e7ff" stroke="black" cx="361.359" cy="-211.5" rx="28.8653" ry="18"/>
<text text-anchor="middle" x="361.359" y="-208.4" font-family="Calibri" font-size="12.00">Victim</text>
</a>
</g>
</g>
<!-- n_victim&#45;&gt;n_control -->
<g id="edge7" class="edge"><title>n_victim&#45;&gt;n_control</title>
<path fill="none" stroke="black" d="M348.762,-195.012C327.393,-168.739 283.906,-115.271 258.67,-84.2434"/>
<polygon fill="black" stroke="black" points="261.095,-81.6777 252.07,-76.1281 255.664,-86.0946 261.095,-81.6777"/>
<text text-anchor="middle" x="284.07" y="-95.9281" font-family="Calibri" font-size="14.00"> &#160;&#160;&#160;&#160;&#160;&#160;&#160;&#160;&#160;&#160;loose</text>
</g>
<!-- n_victim&#45;&gt;n_identity -->
<g id="edge8" class="edge"><title>n_victim&#45;&gt;n_identity</title>
<path fill="none" stroke="black" d="M359.868,-193.293C357.624,-167.41 353.362,-118.227 350.701,-87.5262"/>
<polygon fill="black" stroke="black" points="354.183,-87.1667 349.833,-77.5062 347.209,-87.7711 354.183,-87.1667"/>
<text text-anchor="middle" x="379.359" y="-156.3" font-family="Calibri" font-size="14.00"> &#160;owns &#160;</text>
</g>
<!-- n_authorization -->
<g id="node9" class="node"><title>n_authorization</title>
<ellipse fill="#d6e7ff" stroke="black" cx="216.359" cy="-126.5" rx="49.7255" ry="18"/>
<text text-anchor="middle" x="216.359" y="-123.4" font-family="Calibri" font-size="12.00">Authorization</text>
</g>
<!-- n_victim&#45;&gt;n_authorization -->
<g id="edge10" class="edge"><title>n_victim&#45;&gt;n_authorization</title>
<path fill="none" stroke="black" d="M335.803,-202.858C322.985,-198.558 307.446,-192.62 294.359,-185.5 276.02,-175.523 257.189,-161.643 242.625,-149.962"/>
<polygon fill="black" stroke="black" points="244.537,-147.004 234.579,-143.386 240.106,-152.424 244.537,-147.004"/>
<text text-anchor="middle" x="257.079" y="-147.186" font-family="Calibri" font-size="14.00"> &#160;&#160;&#160;&#160;&#160;&#160;&#160;has</text>
</g>
<!-- n_distinct&#45;&gt;n_victim -->
<g id="edge6" class="edge"><title>n_distinct&#45;&gt;n_victim</title>
<path fill="none" stroke="black" d="M296.867,-211.5C305.284,-211.5 313.702,-211.5 322.12,-211.5"/>
<polygon fill="black" stroke="black" points="322.388,-215 332.388,-211.5 322.388,-208 322.388,-215"/>
</g>
<!-- n_motivations -->
<g id="node8" class="node"><title>n_motivations</title>
<polygon fill="#d6e7ff" stroke="black" points="228.859,-284 228.859,-326 377.859,-326 377.859,-284 228.859,-284"/>
<text text-anchor="middle" x="253.859" y="-312.4" font-family="Calibri" font-size="12.00">Money</text>
<polyline fill="none" stroke="black" points="278.859,-305 278.859,-326 "/>
<text text-anchor="middle" x="328.359" y="-312.4" font-family="Calibri" font-size="12.00">Reputation Harm</text>
<polyline fill="none" stroke="black" points="228.859,-305 377.859,-305 "/>
<text text-anchor="middle" x="285.859" y="-291.4" font-family="Calibri" font-size="12.00">Identity Deception</text>
<polyline fill="none" stroke="black" points="342.859,-284 342.859,-305 "/>
<text text-anchor="middle" x="360.359" y="-291.4" font-family="Calibri" font-size="12.00">...</text>
</g>
<!-- n_motivations&#45;&gt;n_perpetrator -->
<g id="edge9" class="edge"><title>n_motivations&#45;&gt;n_perpetrator</title>
<path fill="none" stroke="black" d="M269.251,-268.128C256.207,-254.409 241.979,-239.446 231.569,-228.497"/>
<polygon fill="black" stroke="black" points="266.917,-270.753 276.345,-275.588 271.99,-265.93 266.917,-270.753"/>
<text text-anchor="middle" x="302.859" y="-256.3" font-family="Calibri" font-size="14.00"> &#160;motivated &#160;</text>
<text text-anchor="middle" x="302.859" y="-241.3" font-family="Calibri" font-size="14.00"> &#160;by &#160;</text>
</g>
<!-- n_authorization&#45;&gt;n_control -->
<g id="edge13" class="edge"><title>n_authorization&#45;&gt;n_control</title>
<path fill="none" stroke="black" d="M222.402,-108.422C224.744,-101.802 227.48,-94.0705 230.062,-86.774"/>
<polygon fill="black" stroke="black" points="233.4,-87.8339 233.436,-77.2391 226.8,-85.4988 233.4,-87.8339"/>
<text text-anchor="middle" x="240.359" y="-89.3" font-family="Calibri" font-size="14.00"> &#160;&#160;to</text>
</g>
<!-- n_authorization_no&#45;&gt;n_authorization -->
<g id="edge12" class="edge"><title>n_authorization_no&#45;&gt;n_authorization</title>
<path fill="none" stroke="black" d="M216.359,-175.362C216.359,-174.133 216.359,-164.857 216.359,-154.793"/>
<polygon fill="black" stroke="black" points="219.859,-154.736 216.359,-144.736 212.859,-154.736 219.859,-154.736"/>
</g>
<!-- n_characteristics -->
<g id="node11" class="node"><title>n_characteristics</title>
<ellipse fill="#d6e7ff" stroke="black" cx="202.359" cy="-406.5" rx="28.8653" ry="18"/>
<text text-anchor="middle" x="202.359" y="-403.4" font-family="Calibri" font-size="12.00">Illegal</text>
</g>
<!-- n_characteristics&#45;&gt;n_account_takeover -->
<g id="edge14" class="edge"><title>n_characteristics&#45;&gt;n_account_takeover</title>
<path fill="none" stroke="black" d="M180.684,-383.267C163.555,-365.696 139.913,-341.445 123.711,-324.825"/>
<polygon fill="black" stroke="black" points="178.559,-386.101 188.046,-390.818 183.572,-381.215 178.559,-386.101"/>
<text text-anchor="middle" x="211.859" y="-369.3" font-family="Calibri" font-size="14.00"> is generally </text>
</g>
</g>
</svg>
