<!DOCTYPE svg [<!ENTITY nbsp "&#160;">]><svg width="431pt" height="372pt" viewBox="0 0 431 372" xmlns="http://www.w3.org/2000/svg" xmlns:xlink="http://www.w3.org/1999/xlink">
<g id="graph0" class="graph" transform="scale(1 1) rotate(0) translate(4 367.6607)">
<title>G</title>
<polygon fill="#ffffff" stroke="transparent" points="-4,4 -4,-367.6607 427.4865,-367.6607 427.4865,4 -4,4"></polygon>
<text text-anchor="middle" x="211.7432" y="-16" font-family="Calibri" font-size="8.00" fill="#000000">Account Takeover (Conceptual Diagram) by Open-Measure</text>
<text text-anchor="middle" x="211.7432" y="-6.4" font-family="Calibri" font-size="8.00" fill="#000000">Licensed under Creative Commons Attribution 4.0 International License</text>
<!-- n_identity_theft -->
<g id="node1" class="node">
<title>n_identity_theft</title>
<ellipse fill="#ffffff" stroke="#000000" cx="317.8194" cy="-345.6607" rx="52.6469" ry="18"></ellipse>
<text text-anchor="middle" x="317.8194" y="-342.0607" font-family="Calibri" font-size="12.00" fill="#000000">Identity Theft</text>
</g>
<!-- n_account_takeover -->
<g id="node2" class="node">
<title>n_account_takeover</title>
<g id="a_node2"><a xlink:href="https://open-measure.atlassian.net/wiki/spaces/DIC/pages/1079050286" xlink:title="Account Takeover">
<ellipse fill="#5599ff" stroke="#000000" cx="317.8194" cy="-273.9304" rx="105.8344" ry="20.861"></ellipse>
<text text-anchor="middle" x="317.8194" y="-268.5304" font-family="Calibri" font-size="18.00" fill="#000000">Account Takeover</text>
</a>
</g>
</g>
<!-- n_identity_theft&#45;&gt;n_account_takeover -->
<g id="edge1" class="edge">
<title>n_identity_theft-&gt;n_account_takeover</title>
<path fill="none" stroke="#000000" d="M317.8194,-317.4716C317.8194,-310.0154 317.8194,-302.0947 317.8194,-295.082"></path>
<polygon fill="#000000" stroke="#000000" points="314.3195,-317.5601 317.8194,-327.5601 321.3195,-317.5602 314.3195,-317.5601"></polygon>
<text text-anchor="middle" x="334.3443" y="-307.0607" font-family="Calibri" font-size="14.00" fill="#000000"> &nbsp;is a &nbsp;</text>
</g>
<!-- n_perpetrator -->
<g id="node3" class="node">
<title>n_perpetrator</title>
<g id="a_node3"><a xlink:href="URL=https://open-measure.atlassian.net/wiki/spaces/DIC/pages/67600948" xlink:title="Perpetrator">
<ellipse fill="#d6e7ff" stroke="#000000" cx="90.8194" cy="-185.4" rx="44.0316" ry="18"></ellipse>
<text text-anchor="middle" x="90.8194" y="-181.8" font-family="Calibri" font-size="12.00" fill="#000000">Perpetrator</text>
</a>
</g>
</g>
<!-- n_account_takeover&#45;&gt;n_perpetrator -->
<g id="edge2" class="edge">
<title>n_account_takeover-&gt;n_perpetrator</title>
<path fill="none" stroke="#000000" d="M267.4766,-255.436C258.2989,-252.0059 248.8198,-248.4243 239.9372,-245 203.0842,-230.7929 161.3534,-214.058 131.4294,-201.9438"></path>
<polygon fill="#000000" stroke="#000000" points="132.7322,-198.6953 122.1498,-198.182 130.1023,-205.1826 132.7322,-198.6953"></polygon>
<text text-anchor="middle" x="276.7605" y="-232.4" font-family="Calibri" font-size="14.00" fill="#000000"> &nbsp;committed &nbsp;</text>
<text text-anchor="middle" x="276.7605" y="-215.6" font-family="Calibri" font-size="14.00" fill="#000000"> &nbsp;by &nbsp;</text>
</g>
<!-- n_characteristics -->
<g id="node8" class="node">
<title>n_characteristics</title>
<ellipse fill="#d6e7ff" stroke="#000000" cx="317.8194" cy="-185.4" rx="29.5956" ry="18"></ellipse>
<text text-anchor="middle" x="317.8194" y="-181.8" font-family="Calibri" font-size="12.00" fill="#000000">Illegal</text>
</g>
<!-- n_account_takeover&#45;&gt;n_characteristics -->
<g id="edge9" class="edge">
<title>n_account_takeover-&gt;n_characteristics</title>
<path fill="none" stroke="#000000" d="M317.8194,-252.9499C317.8194,-241.2055 317.8194,-226.404 317.8194,-213.6518"></path>
<polygon fill="#000000" stroke="#000000" points="321.3195,-213.5341 317.8194,-203.5341 314.3195,-213.5341 321.3195,-213.5341"></polygon>
<text text-anchor="middle" x="349.1122" y="-232.4" font-family="Calibri" font-size="14.00" fill="#000000"> is &nbsp;</text>
<text text-anchor="middle" x="349.1122" y="-215.6" font-family="Calibri" font-size="14.00" fill="#000000"> &nbsp;generally </text>
</g>
<!-- n_control -->
<g id="node4" class="node">
<title>n_control</title>
<ellipse fill="#d6e7ff" stroke="#000000" cx="161.8194" cy="-72.5" rx="33.7776" ry="18"></ellipse>
<text text-anchor="middle" x="161.8194" y="-68.9" font-family="Calibri" font-size="12.00" fill="#000000">Control</text>
</g>
<!-- n_perpetrator&#45;&gt;n_control -->
<g id="edge3" class="edge">
<title>n_perpetrator-&gt;n_control</title>
<path fill="none" stroke="#000000" d="M113.8468,-169.6958C117.4757,-166.5657 120.9653,-163.0938 123.8194,-159.4 137.5172,-141.6724 147.3884,-118.2428 153.6315,-100.1791"></path>
<polygon fill="#000000" stroke="#000000" points="157.0129,-101.1001 156.8087,-90.5072 150.3626,-98.9154 157.0129,-101.1001"></polygon>
<text text-anchor="middle" x="162.4793" y="-138.4" font-family="Calibri" font-size="14.00" fill="#000000"> &nbsp;take &nbsp;</text>
</g>
<!-- n_victim -->
<g id="node6" class="node">
<title>n_victim</title>
<g id="a_node6"><a xlink:href="https://open-measure.atlassian.net/wiki/spaces/DIC/pages/123830932" xlink:title="Victim">
<ellipse fill="#d6e7ff" stroke="#000000" cx="238.8194" cy="-185.4" rx="31.5126" ry="18"></ellipse>
<text text-anchor="middle" x="238.8194" y="-181.8" font-family="Calibri" font-size="12.00" fill="#000000">Victim</text>
</a>
</g>
</g>
<!-- n_perpetrator&#45;&gt;n_victim -->
<g id="edge5" class="edge">
<title>n_perpetrator-&gt;n_victim</title>
<path fill="none" stroke="#000000" d="M145.2375,-185.4C162.3223,-185.4 180.9076,-185.4 196.9799,-185.4"></path>
<polygon fill="#000000" stroke="#000000" points="145.2243,-181.9001 135.2243,-185.4 145.2242,-188.9001 145.2243,-181.9001"></polygon>
<polygon fill="#000000" stroke="#000000" points="197.1378,-188.9001 207.1378,-185.4 197.1378,-181.9001 197.1378,-188.9001"></polygon>
<text text-anchor="middle" x="171.1989" y="-192.6" font-family="Calibri" font-size="14.00" fill="#000000"> &nbsp;distinct &nbsp;</text>
</g>
<!-- n_motivations -->
<g id="node7" class="node">
<title>n_motivations</title>
<polygon fill="#d6e7ff" stroke="#000000" points="0,-27.7 0,-117.3 105.6388,-117.3 105.6388,-27.7 0,-27.7"></polygon>
<text text-anchor="middle" x="52.8194" y="-102.5" font-family="Calibri" font-size="12.00" fill="#000000">Money</text>
<polyline fill="none" stroke="#000000" points="0,-94.9 105.6388,-94.9 "></polyline>
<text text-anchor="middle" x="52.8194" y="-80.1" font-family="Calibri" font-size="12.00" fill="#000000">Reputation Harm</text>
<polyline fill="none" stroke="#000000" points="0,-72.5 105.6388,-72.5 "></polyline>
<text text-anchor="middle" x="52.8194" y="-57.7" font-family="Calibri" font-size="12.00" fill="#000000">Identity Deception</text>
<polyline fill="none" stroke="#000000" points="0,-50.1 105.6388,-50.1 "></polyline>
<text text-anchor="middle" x="52.8194" y="-35.3" font-family="Calibri" font-size="12.00" fill="#000000">...</text>
</g>
<!-- n_perpetrator&#45;&gt;n_motivations -->
<g id="edge8" class="edge">
<title>n_perpetrator-&gt;n_motivations</title>
<path fill="none" stroke="#000000" d="M63.5592,-170.9631C59.6522,-167.6922 56.1694,-163.8448 53.8278,-159.4 48.7128,-149.6909 46.4229,-138.484 45.7658,-127.4142"></path>
<polygon fill="#000000" stroke="#000000" points="49.2638,-127.2698 45.587,-117.3335 42.2649,-127.394 49.2638,-127.2698"></polygon>
<text text-anchor="middle" x="89.8152" y="-146.8" font-family="Calibri" font-size="14.00" fill="#000000"> &nbsp;motivated &nbsp;</text>
<text text-anchor="middle" x="89.8152" y="-130" font-family="Calibri" font-size="14.00" fill="#000000"> &nbsp;by &nbsp;</text>
</g>
<!-- n_identity -->
<g id="node5" class="node">
<title>n_identity</title>
<g id="a_node5"><a xlink:href="URL=https://open-measure.atlassian.net/wiki/spaces/DIC/pages/67600948" xlink:title="Identity">
<ellipse fill="#d6e7ff" stroke="#000000" cx="272.8194" cy="-72.5" rx="34.1187" ry="18"></ellipse>
<text text-anchor="middle" x="272.8194" y="-68.9" font-family="Calibri" font-size="12.00" fill="#000000">Identity</text>
</a>
</g>
</g>
<!-- n_control&#45;&gt;n_identity -->
<g id="edge4" class="edge">
<title>n_control-&gt;n_identity</title>
<path fill="none" stroke="#000000" d="M195.7262,-72.5C206.0656,-72.5 217.5896,-72.5 228.5104,-72.5"></path>
<polygon fill="#000000" stroke="#000000" points="228.7378,-76.0001 238.7378,-72.5 228.7377,-69.0001 228.7378,-76.0001"></polygon>
<text text-anchor="middle" x="217.109" y="-79.7" font-family="Calibri" font-size="14.00" fill="#000000"> &nbsp;of &nbsp;</text>
</g>
<!-- n_victim&#45;&gt;n_control -->
<g id="edge6" class="edge">
<title>n_victim-&gt;n_control</title>
<path fill="none" stroke="#000000" d="M217.0507,-172.1078C212.1094,-168.4142 207.1737,-164.1092 203.2696,-159.4 195.221,-149.6916 182.2601,-121.2377 172.9738,-99.5089"></path>
<polygon fill="#000000" stroke="#000000" points="176.111,-97.941 168.9966,-90.0902 169.6624,-100.6641 176.111,-97.941"></polygon>
<text text-anchor="middle" x="225.5943" y="-138.4" font-family="Calibri" font-size="14.00" fill="#000000"> &nbsp;loose &nbsp;</text>
</g>
<!-- n_victim&#45;&gt;n_identity -->
<g id="edge7" class="edge">
<title>n_victim-&gt;n_identity</title>
<path fill="none" stroke="#000000" d="M247.4006,-167.9601C248.6362,-165.134 249.8241,-162.2119 250.8194,-159.4 257.6567,-140.0825 263.2806,-117.6474 267.1306,-100.4121"></path>
<polygon fill="#000000" stroke="#000000" points="270.597,-100.9413 269.2934,-90.427 263.7557,-99.4593 270.597,-100.9413"></polygon>
<text text-anchor="middle" x="281.595" y="-138.4" font-family="Calibri" font-size="14.00" fill="#000000"> &nbsp;owns &nbsp;</text>
</g>
</g>
</svg>