<?xml version="1.0" encoding="UTF-8" standalone="no"?>
<!DOCTYPE svg PUBLIC "-//W3C//DTD SVG 1.1//EN"
 "http://www.w3.org/Graphics/SVG/1.1/DTD/svg11.dtd">
<!-- Generated by graphviz version 2.38.0 (20140413.2041)
 -->
<!-- Title: G Pages: 1 -->
<svg width="1823pt" height="2300pt"
 viewBox="0.00 0.00 437.59 551.97" xmlns="http://www.w3.org/2000/svg" xmlns:xlink="http://www.w3.org/1999/xlink">
<g id="graph0" class="graph" transform="scale(4.16667 4.16667) rotate(0) translate(4 547.966)">
<title>G</title>
<polygon fill="white" stroke="none" points="-4,4 -4,-547.966 433.594,-547.966 433.594,4 -4,4"/>
<text text-anchor="middle" x="214.797" y="-15.6" font-family="Calibri" font-size="8.00">Authorization Externalization (Conceptual Diagram) by Open&#45;Measure</text>
<text text-anchor="middle" x="214.797" y="-6.6" font-family="Calibri" font-size="8.00">Licensed under Creative Commons Attribution 4.0 International License</text>
<!-- n_architectural_design -->
<g id="node1" class="node"><title>n_architectural_design</title>
<ellipse fill="#ffffff" stroke="black" cx="175.5" cy="-525.966" rx="71.3163" ry="18"/>
<text text-anchor="middle" x="175.5" y="-522.866" font-family="Calibri" font-size="12.00">Architectural Design</text>
</g>
<!-- n_authorization_externalization -->
<g id="node2" class="node"><title>n_authorization_externalization</title>
<g id="a_node2"><a xlink:href="https://open-measure.atlassian.net/wiki/spaces/DIC/pages/1079050286" xlink:title="Authorization\nExternalization">
<ellipse fill="#5599ff" stroke="black" cx="244.5" cy="-443.024" rx="90.5193" ry="33.8824"/>
<text text-anchor="middle" x="244.5" y="-448.624" font-family="Calibri" font-size="18.00">Authorization</text>
<text text-anchor="middle" x="244.5" y="-428.624" font-family="Calibri" font-size="18.00">Externalization</text>
</a>
</g>
</g>
<!-- n_architectural_design&#45;&gt;n_authorization_externalization -->
<g id="edge1" class="edge"><title>n_architectural_design&#45;&gt;n_authorization_externalization</title>
<path fill="none" stroke="black" d="M196.636,-500.172C203.274,-492.385 210.693,-483.682 217.672,-475.496"/>
<polygon fill="black" stroke="black" points="193.621,-498.314 189.797,-508.194 198.948,-502.855 193.621,-498.314"/>
<text text-anchor="middle" x="226" y="-488.766" font-family="Calibri" font-size="14.00"> &#160;is a &#160;</text>
</g>
<!-- n_outside_implementation -->
<g id="node4" class="node"><title>n_outside_implementation</title>
<ellipse fill="#aaffaa" stroke="black" cx="344.5" cy="-320.583" rx="65.1077" ry="24.0833"/>
<text text-anchor="middle" x="344.5" y="-323.983" font-family="Calibri" font-size="12.00"> &#160;Implemented &#160;</text>
<text text-anchor="middle" x="344.5" y="-310.983" font-family="Calibri" font-size="12.00"> &#160;Outside &#160;</text>
</g>
<!-- n_authorization_externalization&#45;&gt;n_outside_implementation -->
<g id="edge5" class="edge"><title>n_authorization_externalization&#45;&gt;n_outside_implementation</title>
<path fill="none" stroke="black" d="M271.702,-410.344C274.346,-407.223 276.981,-404.096 279.5,-401.083 293.008,-384.927 307.89,-366.754 320.001,-351.865"/>
<polygon fill="black" stroke="black" points="322.83,-353.934 326.418,-343.965 317.397,-349.52 322.83,-353.934"/>
<text text-anchor="middle" x="330" y="-389.883" font-family="Calibri" font-size="14.00"> &#160;consist &#160;</text>
<text text-anchor="middle" x="330" y="-374.883" font-family="Calibri" font-size="14.00"> &#160;in &#160;</text>
</g>
<!-- n_xacml -->
<g id="node10" class="node"><title>n_xacml</title>
<polygon fill="#d6e7ff" stroke="black" points="96,-278.583 96,-362.583 261,-362.583 261,-278.583 96,-278.583"/>
<text text-anchor="middle" x="178.5" y="-348.983" font-family="Calibri" font-size="12.00">3rd Party Authorization System</text>
<polyline fill="none" stroke="black" points="96,-341.583 261,-341.583 "/>
<text text-anchor="middle" x="178.5" y="-327.983" font-family="Calibri" font-size="12.00">Custom Implementation</text>
<polyline fill="none" stroke="black" points="96,-320.583 261,-320.583 "/>
<text text-anchor="middle" x="178.5" y="-306.983" font-family="Calibri" font-size="12.00">OPA</text>
<polyline fill="none" stroke="black" points="96,-299.583 261,-299.583 "/>
<text text-anchor="middle" x="178.5" y="-285.983" font-family="Calibri" font-size="12.00">XACML</text>
</g>
<!-- n_authorization_externalization&#45;&gt;n_xacml -->
<g id="edge10" class="edge"><title>n_authorization_externalization&#45;&gt;n_xacml</title>
<path fill="none" stroke="black" d="M226.124,-409.424C224.554,-406.606 222.996,-403.796 221.5,-401.083 216.28,-391.614 210.755,-381.483 205.467,-371.732"/>
<polygon fill="black" stroke="black" points="208.531,-370.041 200.693,-362.914 202.376,-373.374 208.531,-370.041"/>
<text text-anchor="middle" x="250.5" y="-389.883" font-family="Calibri" font-size="14.00"> &#160;enabled &#160;</text>
<text text-anchor="middle" x="250.5" y="-374.883" font-family="Calibri" font-size="14.00"> &#160;by &#160;</text>
</g>
<!-- n_best_practice -->
<g id="node3" class="node"><title>n_best_practice</title>
<ellipse fill="#ffffff" stroke="black" cx="314.5" cy="-525.966" rx="49.4952" ry="18"/>
<text text-anchor="middle" x="314.5" y="-522.866" font-family="Calibri" font-size="12.00">Best Practice</text>
</g>
<!-- n_best_practice&#45;&gt;n_authorization_externalization -->
<g id="edge2" class="edge"><title>n_best_practice&#45;&gt;n_authorization_externalization</title>
<path fill="none" stroke="black" d="M293.76,-500.984C286.836,-492.977 279.013,-483.931 271.673,-475.445"/>
<polygon fill="black" stroke="black" points="291.146,-503.312 300.334,-508.586 296.44,-498.733 291.146,-503.312"/>
<text text-anchor="middle" x="308" y="-488.766" font-family="Calibri" font-size="14.00"> &#160;is a &#160;</text>
</g>
<!-- n_application -->
<g id="node8" class="node"><title>n_application</title>
<ellipse fill="#d6e7ff" stroke="black" cx="378.5" cy="-176.083" rx="51.1876" ry="18"/>
<text text-anchor="middle" x="378.5" y="-172.983" font-family="Calibri" font-size="12.00"> &#160;Application &#160;</text>
</g>
<!-- n_outside_implementation&#45;&gt;n_application -->
<g id="edge7" class="edge"><title>n_outside_implementation&#45;&gt;n_application</title>
<path fill="none" stroke="black" d="M350.038,-296.371C356.085,-271.028 365.753,-230.508 372.115,-203.845"/>
<polygon fill="black" stroke="black" points="375.541,-204.566 374.457,-194.027 368.732,-202.942 375.541,-204.566"/>
<text text-anchor="middle" x="371" y="-258.883" font-family="Calibri" font-size="14.00"> &#160;of &#160;</text>
</g>
<!-- n_key_drivers -->
<g id="node5" class="node"><title>n_key_drivers</title>
<ellipse fill="#d6e7ff" stroke="black" cx="52.5" cy="-443.024" rx="51.1876" ry="18"/>
<text text-anchor="middle" x="52.5" y="-439.924" font-family="Calibri" font-size="12.00"> &#160;Key Drivers &#160;</text>
</g>
<!-- n_key_drivers&#45;&gt;n_authorization_externalization -->
<g id="edge4" class="edge"><title>n_key_drivers&#45;&gt;n_authorization_externalization</title>
<path fill="none" stroke="black" d="M113.717,-443.024C126.487,-443.024 140.206,-443.024 153.784,-443.024"/>
<polygon fill="black" stroke="black" points="113.7,-439.524 103.7,-443.024 113.7,-446.524 113.7,-439.524"/>
<text text-anchor="middle" x="128.792" y="-449.824" font-family="Calibri" font-size="14.00"> &#160;has &#160;</text>
</g>
<!-- n_motivations -->
<g id="node6" class="node"><title>n_motivations</title>
<polygon fill="#d6e7ff" stroke="black" points="0,-105.583 0,-246.583 149,-246.583 149,-105.583 0,-105.583"/>
<text text-anchor="middle" x="74.5" y="-232.983" font-family="Calibri" font-size="12.00">Reduced</text>
<text text-anchor="middle" x="74.5" y="-219.983" font-family="Calibri" font-size="12.00">Software Development</text>
<text text-anchor="middle" x="74.5" y="-206.983" font-family="Calibri" font-size="12.00">Cost and Complexity</text>
<polyline fill="none" stroke="black" points="0,-199.583 149,-199.583 "/>
<text text-anchor="middle" x="74.5" y="-185.983" font-family="Calibri" font-size="12.00">Reduced</text>
<text text-anchor="middle" x="74.5" y="-172.983" font-family="Calibri" font-size="12.00">Software Maintenance</text>
<text text-anchor="middle" x="74.5" y="-159.983" font-family="Calibri" font-size="12.00">Cost and Complexity</text>
<polyline fill="none" stroke="black" points="0,-152.583 149,-152.583 "/>
<text text-anchor="middle" x="74.5" y="-138.983" font-family="Calibri" font-size="12.00">Scalability of</text>
<text text-anchor="middle" x="74.5" y="-125.983" font-family="Calibri" font-size="12.00">Authorization Management</text>
<text text-anchor="middle" x="74.5" y="-112.983" font-family="Calibri" font-size="12.00">over n Systems</text>
</g>
<!-- n_key_drivers&#45;&gt;n_motivations -->
<g id="edge3" class="edge"><title>n_key_drivers&#45;&gt;n_motivations</title>
<path fill="none" stroke="black" d="M53.0321,-424.764C54.047,-394.848 56.6074,-331.449 61.5,-278.083 62.1236,-271.282 62.855,-264.233 63.6475,-257.166"/>
<polygon fill="black" stroke="black" points="67.1712,-257.164 64.8469,-246.827 60.2178,-256.357 67.1712,-257.164"/>
<text text-anchor="middle" x="74" y="-316.883" font-family="Calibri" font-size="14.00"> &#160;of &#160;</text>
</g>
<!-- n_motivations&#45;&gt;n_outside_implementation -->
<!-- n_authorization_system -->
<g id="node7" class="node"><title>n_authorization_system</title>
<ellipse fill="#d6e7ff" stroke="black" cx="243.5" cy="-176.083" rx="65.5227" ry="24.0833"/>
<text text-anchor="middle" x="243.5" y="-179.483" font-family="Calibri" font-size="12.00"> &#160;Authorization &#160;</text>
<text text-anchor="middle" x="243.5" y="-166.483" font-family="Calibri" font-size="12.00"> &#160;System &#160;</text>
</g>
<!-- n_authorization_system&#45;&gt;n_outside_implementation -->
<g id="edge6" class="edge"><title>n_authorization_system&#45;&gt;n_outside_implementation</title>
<path fill="none" stroke="black" d="M259.429,-199.557C276.464,-223.593 303.594,-261.869 322.625,-288.72"/>
<polygon fill="black" stroke="black" points="319.858,-290.869 328.496,-297.004 325.569,-286.821 319.858,-290.869"/>
<text text-anchor="middle" x="320.5" y="-258.883" font-family="Calibri" font-size="14.00"> &#160;is &#160;</text>
</g>
<!-- n_inside_implementation -->
<g id="node9" class="node"><title>n_inside_implementation</title>
<ellipse fill="#ffaaaa" stroke="black" cx="319.5" cy="-50.0416" rx="65.1077" ry="24.0833"/>
<text text-anchor="middle" x="319.5" y="-53.4416" font-family="Calibri" font-size="12.00"> &#160;Implemented &#160;</text>
<text text-anchor="middle" x="319.5" y="-40.4416" font-family="Calibri" font-size="12.00"> &#160;Inside &#160;</text>
</g>
<!-- n_authorization_system&#45;&gt;n_inside_implementation -->
<g id="edge8" class="edge"><title>n_authorization_system&#45;&gt;n_inside_implementation</title>
<path fill="none" stroke="black" d="M251.341,-151.979C258.656,-132.314 270.794,-103.873 286.5,-82.0833 286.948,-81.4611 287.411,-80.8414 287.885,-80.2247"/>
<polygon fill="black" stroke="black" points="290.715,-82.302 294.588,-72.4403 285.41,-77.7344 290.715,-82.302"/>
<text text-anchor="middle" x="308.5" y="-85.8833" font-family="Calibri" font-size="14.00"> &#160;is not &#160;</text>
</g>
<!-- n_inside_implementation&#45;&gt;n_application -->
<g id="edge9" class="edge"><title>n_inside_implementation&#45;&gt;n_application</title>
<path fill="none" stroke="black" d="M330.492,-74.1502C340.588,-95.3772 355.538,-126.807 366.066,-148.943"/>
<polygon fill="black" stroke="black" points="362.964,-150.569 370.42,-158.096 369.285,-147.562 362.964,-150.569"/>
<text text-anchor="middle" x="352" y="-85.8833" font-family="Calibri" font-size="14.00"> &#160;of &#160;</text>
</g>
</g>
</svg>
