<!DOCTYPE svg [<!ENTITY nbsp "&#160;">]><svg width="490pt" height="589pt" viewBox="0 0 490 589" xmlns="http://www.w3.org/2000/svg" xmlns:xlink="http://www.w3.org/1999/xlink">
<g id="graph0" class="graph" transform="scale(1 1) rotate(0) translate(4 584.8508)">
<title>G</title>
<polygon fill="#ffffff" stroke="transparent" points="-4,4 -4,-584.8508 485.6175,-584.8508 485.6175,4 -4,4"></polygon>
<text text-anchor="middle" x="240.8087" y="-16" font-family="Calibri" font-size="8.00" fill="#000000">Authorization Externalization (Conceptual Diagram) by Open-Measure</text>
<text text-anchor="middle" x="240.8087" y="-6.4" font-family="Calibri" font-size="8.00" fill="#000000">Licensed under Creative Commons Attribution 4.0 International License</text>
<!-- n_architectural_design -->
<g id="node1" class="node">
<title>n_architectural_design</title>
<ellipse fill="#ffffff" stroke="#000000" cx="178.548" cy="-562.8508" rx="74.0494" ry="18"></ellipse>
<text text-anchor="middle" x="178.548" y="-559.2508" font-family="Calibri" font-size="12.00" fill="#000000">Architectural Design</text>
</g>
<!-- n_authorization_externalization -->
<g id="node2" class="node">
<title>n_authorization_externalization</title>
<g id="a_node2"><a xlink:href="https://open-measure.atlassian.net/wiki/spaces/DIC/pages/1079050286" xlink:title="Authorization\nExternalization">
<ellipse fill="#5599ff" stroke="#000000" cx="250.548" cy="-475.8469" rx="89.1347" ry="36.4089"></ellipse>
<text text-anchor="middle" x="250.548" y="-481.2469" font-family="Calibri" font-size="18.00" fill="#000000">Authorization</text>
<text text-anchor="middle" x="250.548" y="-459.6469" font-family="Calibri" font-size="18.00" fill="#000000">Externalization</text>
</a>
</g>
</g>
<!-- n_architectural_design&#45;&gt;n_authorization_externalization -->
<g id="edge1" class="edge">
<title>n_architectural_design-&gt;n_authorization_externalization</title>
<path fill="none" stroke="#000000" d="M200.0239,-536.8996C206.9129,-528.5749 214.6545,-519.2201 221.9688,-510.3816"></path>
<polygon fill="#000000" stroke="#000000" points="197.1455,-534.888 193.4664,-544.8235 202.5384,-539.3509 197.1455,-534.888"></polygon>
<text text-anchor="middle" x="228.0729" y="-524.2508" font-family="Calibri" font-size="14.00" fill="#000000"> &nbsp;is a &nbsp;</text>
</g>
<!-- n_outside_implementation -->
<g id="node4" class="node">
<title>n_outside_implementation</title>
<ellipse fill="#aaffaa" stroke="#000000" cx="350.548" cy="-344.7431" rx="64.6381" ry="26.0431"></ellipse>
<text text-anchor="middle" x="350.548" y="-348.3431" font-family="Calibri" font-size="12.00" fill="#000000"> &nbsp;Implemented &nbsp;</text>
<text text-anchor="middle" x="350.548" y="-333.9431" font-family="Calibri" font-size="12.00" fill="#000000"> &nbsp;Outside &nbsp;</text>
</g>
<!-- n_authorization_externalization&#45;&gt;n_outside_implementation -->
<g id="edge5" class="edge">
<title>n_authorization_externalization-&gt;n_outside_implementation</title>
<path fill="none" stroke="#000000" d="M278.1511,-441.1703C280.6635,-437.9583 283.1598,-434.7459 285.548,-431.6431 299.0518,-414.0977 313.8549,-394.3488 325.9188,-378.1166"></path>
<polygon fill="#000000" stroke="#000000" points="328.8087,-380.0955 331.9564,-369.979 323.187,-375.9245 328.8087,-380.0955"></polygon>
<text text-anchor="middle" x="336.9905" y="-419.0431" font-family="Calibri" font-size="14.00" fill="#000000"> &nbsp;consist &nbsp;</text>
<text text-anchor="middle" x="336.9905" y="-402.2431" font-family="Calibri" font-size="14.00" fill="#000000"> &nbsp;in &nbsp;</text>
</g>
<!-- n_xacml -->
<g id="node10" class="node">
<title>n_xacml</title>
<polygon fill="#d6e7ff" stroke="#000000" points="99.3948,-299.9431 99.3948,-389.5431 267.7012,-389.5431 267.7012,-299.9431 99.3948,-299.9431"></polygon>
<text text-anchor="middle" x="183.548" y="-374.7431" font-family="Calibri" font-size="12.00" fill="#000000">3rd Party Authorization System</text>
<polyline fill="none" stroke="#000000" points="99.3948,-367.1431 267.7012,-367.1431 "></polyline>
<text text-anchor="middle" x="183.548" y="-352.3431" font-family="Calibri" font-size="12.00" fill="#000000">Custom Implementation</text>
<polyline fill="none" stroke="#000000" points="99.3948,-344.7431 267.7012,-344.7431 "></polyline>
<text text-anchor="middle" x="183.548" y="-329.9431" font-family="Calibri" font-size="12.00" fill="#000000">OPA</text>
<polyline fill="none" stroke="#000000" points="99.3948,-322.3431 267.7012,-322.3431 "></polyline>
<text text-anchor="middle" x="183.548" y="-307.5431" font-family="Calibri" font-size="12.00" fill="#000000">XACML</text>
</g>
<!-- n_authorization_externalization&#45;&gt;n_xacml -->
<g id="edge10" class="edge">
<title>n_authorization_externalization-&gt;n_xacml</title>
<path fill="none" stroke="#000000" d="M232.4168,-440.3683C225.8679,-427.5536 218.3185,-412.7812 211.1425,-398.7393"></path>
<polygon fill="#000000" stroke="#000000" points="214.1623,-396.9571 206.495,-389.6452 207.9291,-400.1425 214.1623,-396.9571"></polygon>
<text text-anchor="middle" x="255.3152" y="-419.0431" font-family="Calibri" font-size="14.00" fill="#000000"> &nbsp;enabled &nbsp;</text>
<text text-anchor="middle" x="255.3152" y="-402.2431" font-family="Calibri" font-size="14.00" fill="#000000"> &nbsp;by &nbsp;</text>
</g>
<!-- n_best_practice -->
<g id="node3" class="node">
<title>n_best_practice</title>
<ellipse fill="#ffffff" stroke="#000000" cx="321.548" cy="-562.8508" rx="50.3809" ry="18"></ellipse>
<text text-anchor="middle" x="321.548" y="-559.2508" font-family="Calibri" font-size="12.00" fill="#000000">Best Practice</text>
</g>
<!-- n_best_practice&#45;&gt;n_authorization_externalization -->
<g id="edge2" class="edge">
<title>n_best_practice-&gt;n_authorization_externalization</title>
<path fill="none" stroke="#000000" d="M300.6483,-537.2403C293.7727,-528.8148 286.0122,-519.305 278.6887,-510.3308"></path>
<polygon fill="#000000" stroke="#000000" points="298.1458,-539.7095 307.18,-545.2443 303.5692,-535.2837 298.1458,-539.7095"></polygon>
<text text-anchor="middle" x="315.0729" y="-524.2508" font-family="Calibri" font-size="14.00" fill="#000000"> &nbsp;is a &nbsp;</text>
</g>
<!-- n_application -->
<g id="node8" class="node">
<title>n_application</title>
<ellipse fill="#d6e7ff" stroke="#000000" cx="427.548" cy="-189.3431" rx="54.1391" ry="18"></ellipse>
<text text-anchor="middle" x="427.548" y="-185.7431" font-family="Calibri" font-size="12.00" fill="#000000"> &nbsp;Application &nbsp;</text>
</g>
<!-- n_outside_implementation&#45;&gt;n_application -->
<g id="edge7" class="edge">
<title>n_outside_implementation-&gt;n_application</title>
<path fill="none" stroke="#000000" d="M363.2629,-319.0819C377.3089,-290.7346 399.829,-245.2849 414.1448,-216.3932"></path>
<polygon fill="#000000" stroke="#000000" points="417.3573,-217.7928 418.661,-207.2785 411.085,-214.6849 417.3573,-217.7928"></polygon>
<text text-anchor="middle" x="396.3783" y="-278.8431" font-family="Calibri" font-size="14.00" fill="#000000"> &nbsp;of &nbsp;</text>
</g>
<!-- n_key_drivers -->
<g id="node5" class="node">
<title>n_key_drivers</title>
<ellipse fill="#d6e7ff" stroke="#000000" cx="55.548" cy="-475.8469" rx="55.596" ry="18"></ellipse>
<text text-anchor="middle" x="55.548" y="-472.2469" font-family="Calibri" font-size="12.00" fill="#000000"> &nbsp;Key Drivers &nbsp;</text>
</g>
<!-- n_key_drivers&#45;&gt;n_authorization_externalization -->
<g id="edge4" class="edge">
<title>n_key_drivers-&gt;n_authorization_externalization</title>
<path fill="none" stroke="#000000" d="M121.2854,-475.8469C134.1493,-475.8469 147.8414,-475.8469 161.3211,-475.8469"></path>
<polygon fill="#000000" stroke="#000000" points="121.1662,-472.347 111.1662,-475.8469 121.1661,-479.347 121.1662,-472.347"></polygon>
<text text-anchor="middle" x="136.2883" y="-483.0469" font-family="Calibri" font-size="14.00" fill="#000000"> &nbsp;has &nbsp;</text>
</g>
<!-- n_motivations -->
<g id="node6" class="node">
<title>n_motivations</title>
<polygon fill="#d6e7ff" stroke="#000000" points="10.401,-112.5431 10.401,-266.1431 158.695,-266.1431 158.695,-112.5431 10.401,-112.5431"></polygon>
<text text-anchor="middle" x="84.548" y="-251.3431" font-family="Calibri" font-size="12.00" fill="#000000">Reduced</text>
<text text-anchor="middle" x="84.548" y="-236.9431" font-family="Calibri" font-size="12.00" fill="#000000">Software Development</text>
<text text-anchor="middle" x="84.548" y="-222.5431" font-family="Calibri" font-size="12.00" fill="#000000">Cost and Complexity</text>
<polyline fill="none" stroke="#000000" points="10.401,-214.9431 158.695,-214.9431 "></polyline>
<text text-anchor="middle" x="84.548" y="-200.1431" font-family="Calibri" font-size="12.00" fill="#000000">Reduced</text>
<text text-anchor="middle" x="84.548" y="-185.7431" font-family="Calibri" font-size="12.00" fill="#000000">Software Maintenance</text>
<text text-anchor="middle" x="84.548" y="-171.3431" font-family="Calibri" font-size="12.00" fill="#000000">Cost and Complexity</text>
<polyline fill="none" stroke="#000000" points="10.401,-163.7431 158.695,-163.7431 "></polyline>
<text text-anchor="middle" x="84.548" y="-148.9431" font-family="Calibri" font-size="12.00" fill="#000000">Scalability of</text>
<text text-anchor="middle" x="84.548" y="-134.5431" font-family="Calibri" font-size="12.00" fill="#000000">Authorization Management</text>
<text text-anchor="middle" x="84.548" y="-120.1431" font-family="Calibri" font-size="12.00" fill="#000000">over n Systems</text>
</g>
<!-- n_key_drivers&#45;&gt;n_motivations -->
<g id="edge3" class="edge">
<title>n_key_drivers-&gt;n_motivations</title>
<path fill="none" stroke="#000000" d="M55.7679,-457.755C56.3214,-425.7342 58.2477,-357.0251 64.8874,-299.4431 65.7631,-291.848 66.8346,-283.9846 68.0209,-276.1152"></path>
<polygon fill="#000000" stroke="#000000" points="71.4899,-276.5848 69.5788,-266.1637 64.5742,-275.502 71.4899,-276.5848"></polygon>
<text text-anchor="middle" x="78.3783" y="-340.5431" font-family="Calibri" font-size="14.00" fill="#000000"> &nbsp;of &nbsp;</text>
</g>
<!-- n_motivations&#45;&gt;n_outside_implementation -->
<!-- n_authorization_system -->
<g id="node7" class="node">
<title>n_authorization_system</title>
<ellipse fill="#d6e7ff" stroke="#000000" cx="288.548" cy="-189.3431" rx="66.856" ry="26.0431"></ellipse>
<text text-anchor="middle" x="288.548" y="-192.9431" font-family="Calibri" font-size="12.00" fill="#000000"> &nbsp;Authorization &nbsp;</text>
<text text-anchor="middle" x="288.548" y="-178.5431" font-family="Calibri" font-size="12.00" fill="#000000"> &nbsp;System &nbsp;</text>
</g>
<!-- n_authorization_system&#45;&gt;n_outside_implementation -->
<g id="edge6" class="edge">
<title>n_authorization_system-&gt;n_outside_implementation</title>
<path fill="none" stroke="#000000" d="M298.8559,-215.1793C309.0995,-240.8544 324.8905,-280.4338 336.3242,-309.092"></path>
<polygon fill="#000000" stroke="#000000" points="333.214,-310.7415 340.1706,-318.7326 339.7157,-308.1475 333.214,-310.7415"></polygon>
<text text-anchor="middle" x="340.2156" y="-278.8431" font-family="Calibri" font-size="14.00" fill="#000000"> &nbsp;is &nbsp;</text>
</g>
<!-- n_inside_implementation -->
<g id="node9" class="node">
<title>n_inside_implementation</title>
<ellipse fill="#ffaaaa" stroke="#000000" cx="357.548" cy="-53.2215" rx="64.6381" ry="26.0431"></ellipse>
<text text-anchor="middle" x="357.548" y="-56.8215" font-family="Calibri" font-size="12.00" fill="#000000"> &nbsp;Implemented &nbsp;</text>
<text text-anchor="middle" x="357.548" y="-42.4215" font-family="Calibri" font-size="12.00" fill="#000000"> &nbsp;Inside &nbsp;</text>
</g>
<!-- n_authorization_system&#45;&gt;n_inside_implementation -->
<g id="edge8" class="edge">
<title>n_authorization_system-&gt;n_inside_implementation</title>
<path fill="none" stroke="#000000" d="M301.5263,-163.7396C312.3479,-142.3912 327.8731,-111.7635 339.8366,-88.1621"></path>
<polygon fill="#000000" stroke="#000000" points="342.9937,-89.675 344.3932,-79.173 336.75,-86.51 342.9937,-89.675"></polygon>
<text text-anchor="middle" x="360.9109" y="-91.4431" font-family="Calibri" font-size="14.00" fill="#000000"> &nbsp;is not &nbsp;</text>
</g>
<!-- n_inside_implementation&#45;&gt;n_application -->
<g id="edge9" class="edge">
<title>n_inside_implementation-&gt;n_application</title>
<path fill="none" stroke="#000000" d="M380.8791,-77.7136C383.293,-80.8041 385.5786,-84.0167 387.548,-87.2431 401.868,-110.7033 412.7583,-140.1756 419.5328,-161.4171"></path>
<polygon fill="#000000" stroke="#000000" points="416.2337,-162.5963 422.5248,-171.1211 422.923,-160.5338 416.2337,-162.5963"></polygon>
<text text-anchor="middle" x="408.3783" y="-91.4431" font-family="Calibri" font-size="14.00" fill="#000000"> &nbsp;of &nbsp;</text>
</g>
</g>
</svg>