<?xml version="1.0" encoding="UTF-8" standalone="no"?>
<!DOCTYPE svg PUBLIC "-//W3C//DTD SVG 1.1//EN"
 "http://www.w3.org/Graphics/SVG/1.1/DTD/svg11.dtd">
<!-- Generated by graphviz version 2.38.0 (20140413.2041)
 -->
<!-- Title: G Pages: 1 -->
<svg width="2450pt" height="2423pt"
 viewBox="0.00 0.00 587.93 581.60" xmlns="http://www.w3.org/2000/svg" xmlns:xlink="http://www.w3.org/1999/xlink">
<g id="graph0" class="graph" transform="scale(4.16667 4.16667) rotate(0) translate(4 577.598)">
<title>G</title>
<polygon fill="white" stroke="none" points="-4,4 -4,-577.598 583.933,-577.598 583.933,4 -4,4"/>
<text text-anchor="middle" x="289.966" y="-15.6" font-family="Calibri" font-size="8.00">Claimant (Conceptual Diagram) by Open&#45;Measure</text>
<text text-anchor="middle" x="289.966" y="-6.6" font-family="Calibri" font-size="8.00">Licensed under Creative Commons Attribution 4.0 International License</text>
<!-- n_claimant -->
<g id="node1" class="node"><title>n_claimant</title>
<g id="a_node1"><a xlink:href="https://open-measure.atlassian.net/wiki/spaces/DIC/pages/848363630" xlink:title="Claimant">
<ellipse fill="#5599ff" stroke="black" cx="148.933" cy="-553.799" rx="58.8803" ry="19.6"/>
<text text-anchor="middle" x="148.933" y="-549.399" font-family="Calibri" font-size="18.00">Claimant</text>
</a>
</g>
</g>
<!-- n_entity -->
<g id="node2" class="node"><title>n_entity</title>
<g id="a_node2"><a xlink:href="https://open-measure.atlassian.net/wiki/spaces/DIC/pages/123830932" xlink:title="Entity">
<ellipse fill="#d6e7ff" stroke="black" cx="294.933" cy="-553.799" rx="27.1719" ry="18"/>
<text text-anchor="middle" x="294.933" y="-550.699" font-family="Calibri" font-size="12.00">Entity</text>
</a>
</g>
</g>
<!-- n_claimant&#45;&gt;n_entity -->
<g id="edge1" class="edge"><title>n_claimant&#45;&gt;n_entity</title>
<path fill="none" stroke="black" d="M207.896,-553.799C224.743,-553.799 242.627,-553.799 257.773,-553.799"/>
<polygon fill="black" stroke="black" points="257.775,-557.299 267.775,-553.799 257.775,-550.299 257.775,-557.299"/>
<text text-anchor="middle" x="237.735" y="-560.599" font-family="Calibri" font-size="14.00"> &#160;claim &#160;</text>
</g>
<!-- n_claimed_identity -->
<g id="node3" class="node"><title>n_claimed_identity</title>
<ellipse fill="white" stroke="black" cx="167.933" cy="-485" rx="59.1929" ry="18"/>
<text text-anchor="middle" x="167.933" y="-481.9" font-family="Calibri" font-size="12.00">Claimed Identity</text>
</g>
<!-- n_claimant&#45;&gt;n_claimed_identity -->
<g id="edge2" class="edge"><title>n_claimant&#45;&gt;n_claimed_identity</title>
<path fill="none" stroke="black" d="M154.326,-533.836C156.184,-527.305 158.301,-519.863 160.302,-512.825"/>
<polygon fill="black" stroke="black" points="163.739,-513.535 163.109,-502.959 157.007,-511.62 163.739,-513.535"/>
<text text-anchor="middle" x="184.933" y="-514.8" font-family="Calibri" font-size="14.00"> &#160;assert &#160;</text>
</g>
<!-- n_authenticator -->
<g id="node4" class="node"><title>n_authenticator</title>
<g id="a_node4"><a xlink:href="https://open-measure.atlassian.net/wiki/spaces/DIC/pages/848724060" xlink:title="Authenticator">
<ellipse fill="#d6e7ff" stroke="black" cx="125.933" cy="-418" rx="51.1876" ry="18"/>
<text text-anchor="middle" x="125.933" y="-414.9" font-family="Calibri" font-size="12.00">Authenticator</text>
</a>
</g>
</g>
<!-- n_claimant&#45;&gt;n_authenticator -->
<g id="edge3" class="edge"><title>n_claimant&#45;&gt;n_authenticator</title>
<path fill="none" stroke="black" d="M102.097,-541.687C81.7693,-534.288 59.909,-522.258 47.9326,-503 39.483,-489.413 40.1277,-480.967 47.9326,-467 55.4319,-453.58 68.3929,-443.449 81.6202,-436.039"/>
<polygon fill="black" stroke="black" points="83.4671,-439.025 90.7562,-431.336 80.2632,-432.801 83.4671,-439.025"/>
<text text-anchor="middle" x="73.9326" y="-488.8" font-family="Calibri" font-size="14.00"> &#160;posess &#160;</text>
<text text-anchor="middle" x="73.9326" y="-473.8" font-family="Calibri" font-size="14.00"> &#160;&amp; use &#160;</text>
</g>
<!-- n_identity -->
<g id="node5" class="node"><title>n_identity</title>
<g id="a_node5"><a xlink:href="https://open-measure.atlassian.net/wiki/spaces/DIC/pages/67600948" xlink:title="Identity">
<ellipse fill="#d6e7ff" stroke="black" cx="294.933" cy="-485" rx="32.7527" ry="18"/>
<text text-anchor="middle" x="294.933" y="-481.9" font-family="Calibri" font-size="12.00">Identity</text>
</a>
</g>
</g>
<!-- n_entity&#45;&gt;n_identity -->
<g id="edge4" class="edge"><title>n_entity&#45;&gt;n_identity</title>
<path fill="none" stroke="black" d="M294.933,-525.48C294.933,-518.011 294.933,-510.122 294.933,-503.376"/>
<polygon fill="black" stroke="black" points="291.433,-525.597 294.933,-535.597 298.433,-525.597 291.433,-525.597"/>
<text text-anchor="middle" x="313.933" y="-514.8" font-family="Calibri" font-size="14.00"> &#160;map &#160;</text>
</g>
<!-- n_claimed_identity&#45;&gt;n_authenticator -->
<g id="edge5" class="edge"><title>n_claimed_identity&#45;&gt;n_authenticator</title>
<path fill="none" stroke="black" d="M157.117,-467.261C152.644,-460.34 147.359,-452.16 142.423,-444.521"/>
<polygon fill="black" stroke="black" points="145.225,-442.408 136.858,-435.908 139.345,-446.207 145.225,-442.408"/>
<text text-anchor="middle" x="167.433" y="-447.8" font-family="Calibri" font-size="14.00"> &#160;has &#160;</text>
</g>
<!-- n_claimed_identity&#45;&gt;n_identity -->
<g id="edge19" class="edge"><title>n_claimed_identity&#45;&gt;n_identity</title>
<path fill="none" stroke="black" stroke-dasharray="1,5" d="M227.464,-485C239.06,-485 250.656,-485 262.252,-485"/>
</g>
<!-- n_credential -->
<g id="node6" class="node"><title>n_credential</title>
<g id="a_node6"><a xlink:href="https://open-measure.atlassian.net/wiki/spaces/DIC/pages/67633343" xlink:title="Credential">
<ellipse fill="#d6e7ff" stroke="black" cx="294.933" cy="-418" rx="41.4901" ry="18"/>
<text text-anchor="middle" x="294.933" y="-414.9" font-family="Calibri" font-size="12.00">Credential</text>
</a>
</g>
</g>
<!-- n_authenticator&#45;&gt;n_credential -->
<g id="edge20" class="edge"><title>n_authenticator&#45;&gt;n_credential</title>
<path fill="none" stroke="black" stroke-dasharray="1,5" d="M177.095,-418C202.565,-418 228.035,-418 253.505,-418"/>
</g>
<!-- n_authenticator_output -->
<g id="node7" class="node"><title>n_authenticator_output</title>
<ellipse fill="white" stroke="black" cx="113.933" cy="-178" rx="30.5603" ry="18"/>
<text text-anchor="middle" x="113.933" y="-174.9" font-family="Calibri" font-size="12.00">Output</text>
</g>
<!-- n_authenticator&#45;&gt;n_authenticator_output -->
<g id="edge9" class="edge"><title>n_authenticator&#45;&gt;n_authenticator_output</title>
<path fill="none" stroke="black" d="M108.969,-400.745C98.067,-388.504 85.9326,-370.683 85.9326,-352 85.9326,-352 85.9326,-352 85.9326,-230 85.9326,-220.459 89.7442,-211.016 94.5548,-202.898"/>
<polygon fill="black" stroke="black" points="97.6144,-204.618 100.261,-194.359 91.7944,-200.729 97.6144,-204.618"/>
<text text-anchor="middle" x="116.433" y="-280.3" font-family="Calibri" font-size="14.00"> &#160;produce &#160;</text>
</g>
<!-- n_claimed_identity_attributes -->
<g id="node9" class="node"><title>n_claimed_identity_attributes</title>
<ellipse fill="white" stroke="black" cx="182.933" cy="-351" rx="40.0263" ry="18"/>
<text text-anchor="middle" x="182.933" y="-347.9" font-family="Calibri" font-size="12.00">Attributes</text>
</g>
<!-- n_authenticator&#45;&gt;n_claimed_identity_attributes -->
<g id="edge8" class="edge"><title>n_authenticator&#45;&gt;n_claimed_identity_attributes</title>
<path fill="none" stroke="black" d="M140.316,-400.598C146.914,-393.074 154.863,-384.01 162.099,-375.758"/>
<polygon fill="black" stroke="black" points="164.789,-377.998 168.751,-368.172 159.526,-373.383 164.789,-377.998"/>
<text text-anchor="middle" x="170.933" y="-380.8" font-family="Calibri" font-size="14.00"> &#160;is &#160;</text>
</g>
<!-- n_authenticator_secret -->
<g id="node10" class="node"><title>n_authenticator_secret</title>
<ellipse fill="white" stroke="black" cx="28.9326" cy="-351" rx="28.8653" ry="18"/>
<text text-anchor="middle" x="28.9326" y="-347.9" font-family="Calibri" font-size="12.00">Secret</text>
</g>
<!-- n_authenticator&#45;&gt;n_authenticator_secret -->
<g id="edge10" class="edge"><title>n_authenticator&#45;&gt;n_authenticator_secret</title>
<path fill="none" stroke="black" d="M75.7284,-414.078C60.2148,-410.649 44.4574,-404.124 33.9326,-392 30.8559,-388.456 29.048,-384.024 28.0553,-379.412"/>
<polygon fill="black" stroke="black" points="31.5201,-378.89 27.0082,-369.304 24.5574,-379.611 31.5201,-378.89"/>
<text text-anchor="middle" x="52.9326" y="-380.8" font-family="Calibri" font-size="14.00"> &#160;hold &#160;</text>
</g>
<!-- n_identity&#45;&gt;n_credential -->
<g id="edge6" class="edge"><title>n_identity&#45;&gt;n_credential</title>
<path fill="none" stroke="black" d="M294.933,-466.922C294.933,-460.702 294.933,-453.5 294.933,-446.6"/>
<polygon fill="black" stroke="black" points="298.433,-446.19 294.933,-436.19 291.433,-446.19 298.433,-446.19"/>
<text text-anchor="middle" x="311.433" y="-447.8" font-family="Calibri" font-size="14.00"> &#160;has &#160;</text>
</g>
<!-- n_verifier -->
<g id="node8" class="node"><title>n_verifier</title>
<ellipse fill="white" stroke="black" cx="268.933" cy="-178" rx="32.7527" ry="18"/>
<text text-anchor="middle" x="268.933" y="-174.9" font-family="Calibri" font-size="12.00">Verifier</text>
</g>
<!-- n_credential&#45;&gt;n_verifier -->
<g id="edge16" class="edge"><title>n_credential&#45;&gt;n_verifier</title>
<path fill="none" stroke="black" d="M345.603,-412.704C412.506,-405.607 521.933,-388.431 521.933,-352 521.933,-352 521.933,-352 521.933,-230 521.933,-185.585 370.204,-179.376 301.749,-178.834"/>
<polygon fill="black" stroke="black" points="344.848,-409.263 335.254,-413.758 345.557,-416.227 344.848,-409.263"/>
<text text-anchor="middle" x="550.933" y="-280.3" font-family="Calibri" font-size="14.00"> &#160;validate &#160;</text>
</g>
<!-- n_identity_attributes -->
<g id="node13" class="node"><title>n_identity_attributes</title>
<g id="a_node13"><a xlink:href="https://open-measure.atlassian.net/wiki/spaces/DIC/pages/82903275" xlink:title="Attribute">
<ellipse fill="#d6e7ff" stroke="black" cx="294.933" cy="-351" rx="36.1402" ry="18"/>
<text text-anchor="middle" x="294.933" y="-347.9" font-family="Calibri" font-size="12.00">Attribute</text>
</a>
</g>
</g>
<!-- n_credential&#45;&gt;n_identity_attributes -->
<g id="edge13" class="edge"><title>n_credential&#45;&gt;n_identity_attributes</title>
<path fill="none" stroke="black" d="M294.933,-399.922C294.933,-393.702 294.933,-386.5 294.933,-379.6"/>
<polygon fill="black" stroke="black" points="298.433,-379.19 294.933,-369.19 291.433,-379.19 298.433,-379.19"/>
<text text-anchor="middle" x="305.933" y="-380.8" font-family="Calibri" font-size="14.00"> &#160;is &#160;</text>
</g>
<!-- n_authenticator_output&#45;&gt;n_verifier -->
<g id="edge7" class="edge"><title>n_authenticator_output&#45;&gt;n_verifier</title>
<path fill="none" stroke="black" d="M154.986,-178C180.349,-178 212.456,-178 236.12,-178"/>
<polygon fill="black" stroke="black" points="154.927,-174.5 144.927,-178 154.927,-181.5 154.927,-174.5"/>
<text text-anchor="middle" x="190.509" y="-184.8" font-family="Calibri" font-size="14.00"> &#160;verify &#160;</text>
</g>
<!-- n_authentication_process -->
<g id="node16" class="node"><title>n_authentication_process</title>
<g id="a_node16"><a xlink:href="https://open-measure.atlassian.net/wiki/spaces/DIC/pages/61177884" xlink:title="Authentication Process">
<ellipse fill="#d6e7ff" stroke="black" cx="268.933" cy="-111" rx="78.5908" ry="18"/>
<text text-anchor="middle" x="268.933" y="-107.9" font-family="Calibri" font-size="12.00">Authentication Process</text>
</a>
</g>
</g>
<!-- n_verifier&#45;&gt;n_authentication_process -->
<g id="edge17" class="edge"><title>n_verifier&#45;&gt;n_authentication_process</title>
<path fill="none" stroke="black" d="M268.933,-159.922C268.933,-153.702 268.933,-146.5 268.933,-139.6"/>
<polygon fill="black" stroke="black" points="272.433,-139.19 268.933,-129.19 265.433,-139.19 272.433,-139.19"/>
<text text-anchor="middle" x="297.433" y="-140.8" font-family="Calibri" font-size="14.00"> &#160;execute &#160;</text>
</g>
<!-- n_unverified -->
<g id="node11" class="node"><title>n_unverified</title>
<ellipse fill="white" stroke="black" cx="268.933" cy="-231" rx="41.4901" ry="18"/>
<text text-anchor="middle" x="268.933" y="-227.9" font-family="Calibri" font-size="12.00">Unverified</text>
</g>
<!-- n_claimed_identity_attributes&#45;&gt;n_unverified -->
<g id="edge11" class="edge"><title>n_claimed_identity_attributes&#45;&gt;n_unverified</title>
<path fill="none" stroke="black" d="M180.087,-332.777C178.042,-314.434 177.745,-285.424 191.933,-266 199.55,-255.571 211.085,-248.291 222.924,-243.228"/>
<polygon fill="black" stroke="black" points="224.308,-246.446 232.415,-239.625 221.824,-239.902 224.308,-246.446"/>
<text text-anchor="middle" x="202.933" y="-280.3" font-family="Calibri" font-size="14.00"> &#160;is &#160;</text>
</g>
<!-- n_unvalidated -->
<g id="node12" class="node"><title>n_unvalidated</title>
<ellipse fill="white" stroke="black" cx="268.933" cy="-284" rx="46.3387" ry="18"/>
<text text-anchor="middle" x="268.933" y="-280.9" font-family="Calibri" font-size="12.00">Unvalidated</text>
</g>
<!-- n_claimed_identity_attributes&#45;&gt;n_unvalidated -->
<g id="edge12" class="edge"><title>n_claimed_identity_attributes&#45;&gt;n_unvalidated</title>
<path fill="none" stroke="black" d="M202.447,-335.25C213.641,-326.79 227.898,-316.014 240.337,-306.613"/>
<polygon fill="black" stroke="black" points="242.73,-309.191 248.598,-300.369 238.51,-303.607 242.73,-309.191"/>
<text text-anchor="middle" x="244.933" y="-313.8" font-family="Calibri" font-size="14.00"> &#160;is &#160;</text>
</g>
<!-- n_claimed_identity_attributes&#45;&gt;n_identity_attributes -->
<g id="edge21" class="edge"><title>n_claimed_identity_attributes&#45;&gt;n_identity_attributes</title>
<path fill="none" stroke="black" stroke-dasharray="1,5" d="M223.183,-351C234.954,-351 246.726,-351 258.497,-351"/>
</g>
<!-- n_unverified&#45;&gt;n_verifier -->
<!-- n_verified -->
<g id="node14" class="node"><title>n_verified</title>
<ellipse fill="white" stroke="black" cx="388.933" cy="-231" rx="33.7152" ry="18"/>
<text text-anchor="middle" x="388.933" y="-227.9" font-family="Calibri" font-size="12.00">Verified</text>
</g>
<!-- n_unverified&#45;&gt;n_verified -->
<g id="edge23" class="edge"><title>n_unverified&#45;&gt;n_verified</title>
<path fill="none" stroke="black" stroke-dasharray="1,5" d="M310.183,-231C325.051,-231 339.919,-231 354.787,-231"/>
</g>
<!-- n_unvalidated&#45;&gt;n_unverified -->
<!-- n_validated -->
<g id="node15" class="node"><title>n_validated</title>
<ellipse fill="white" stroke="black" cx="388.933" cy="-284" rx="38.5652" ry="18"/>
<text text-anchor="middle" x="388.933" y="-280.9" font-family="Calibri" font-size="12.00">Validated</text>
</g>
<!-- n_unvalidated&#45;&gt;n_validated -->
<g id="edge22" class="edge"><title>n_unvalidated&#45;&gt;n_validated</title>
<path fill="none" stroke="black" stroke-dasharray="1,5" d="M315.339,-284C326.934,-284 338.529,-284 350.123,-284"/>
</g>
<!-- n_identity_attributes&#45;&gt;n_verified -->
<g id="edge14" class="edge"><title>n_identity_attributes&#45;&gt;n_verified</title>
<path fill="none" stroke="black" d="M331.146,-349.15C364.934,-346.174 413.543,-335.816 436.933,-302 446.034,-288.841 444.282,-280.212 436.933,-266 433.482,-259.327 428.051,-253.682 422.063,-249.024"/>
<polygon fill="black" stroke="black" points="423.912,-246.049 413.685,-243.282 419.955,-251.823 423.912,-246.049"/>
<text text-anchor="middle" x="453.933" y="-280.3" font-family="Calibri" font-size="14.00"> &#160;is &#160;</text>
</g>
<!-- n_identity_attributes&#45;&gt;n_validated -->
<g id="edge15" class="edge"><title>n_identity_attributes&#45;&gt;n_validated</title>
<path fill="none" stroke="black" d="M315.329,-335.896C328.297,-326.929 345.293,-315.176 359.686,-305.224"/>
<polygon fill="black" stroke="black" points="362.017,-307.867 368.251,-299.301 358.035,-302.11 362.017,-307.867"/>
<text text-anchor="middle" x="360.933" y="-313.8" font-family="Calibri" font-size="14.00"> &#160;is &#160;</text>
</g>
<!-- n_validated&#45;&gt;n_verified -->
<!-- n_confidence -->
<g id="node17" class="node"><title>n_confidence</title>
<ellipse fill="white" stroke="black" cx="268.933" cy="-44" rx="43.9143" ry="18"/>
<text text-anchor="middle" x="268.933" y="-40.9" font-family="Calibri" font-size="12.00">Confidence</text>
</g>
<!-- n_authentication_process&#45;&gt;n_confidence -->
<g id="edge18" class="edge"><title>n_authentication_process&#45;&gt;n_confidence</title>
<path fill="none" stroke="black" d="M268.933,-92.922C268.933,-86.7016 268.933,-79.4999 268.933,-72.5999"/>
<polygon fill="black" stroke="black" points="272.433,-72.1896 268.933,-62.1896 265.433,-72.1896 272.433,-72.1896"/>
<text text-anchor="middle" x="300.933" y="-73.8" font-family="Calibri" font-size="14.00"> &#160;establish &#160;</text>
</g>
</g>
</svg>
