<?xml version="1.0" encoding="UTF-8" standalone="no"?>
<!DOCTYPE svg PUBLIC "-//W3C//DTD SVG 1.1//EN"
 "http://www.w3.org/Graphics/SVG/1.1/DTD/svg11.dtd">
<!-- Generated by graphviz version 2.38.0 (20140413.2041)
 -->
<!-- Title: G Pages: 1 -->
<svg width="1567pt" height="1275pt"
 viewBox="0.00 0.00 376.13 306.07" xmlns="http://www.w3.org/2000/svg" xmlns:xlink="http://www.w3.org/1999/xlink">
<g id="graph0" class="graph" transform="scale(4.16667 4.16667) rotate(0) translate(4 302.066)">
<title>G</title>
<polygon fill="white" stroke="none" points="-4,4 -4,-302.066 372.126,-302.066 372.126,4 -4,4"/>
<text text-anchor="middle" x="184.063" y="-15.6" font-family="Calibri" font-size="8.00">Credential (Conceptual Diagram) by Open&#45;Measure</text>
<text text-anchor="middle" x="184.063" y="-6.6" font-family="Calibri" font-size="8.00">Licensed under Creative Commons Attribution 4.0 International License</text>
<!-- n_datastructure -->
<g id="node1" class="node"><title>n_datastructure</title>
<ellipse fill="#ffffff" stroke="black" cx="198.626" cy="-280.066" rx="52.881" ry="18"/>
<text text-anchor="middle" x="198.626" y="-276.966" font-family="Calibri" font-size="12.00">Data Structure</text>
</g>
<!-- n_credential -->
<g id="node2" class="node"><title>n_credential</title>
<g id="a_node2"><a xlink:href="https://open-measure.atlassian.net/wiki/spaces/DIC/pages/848363630" xlink:title="Credential">
<ellipse fill="#5599ff" stroke="black" cx="198.626" cy="-196.267" rx="66.4361" ry="19.6"/>
<text text-anchor="middle" x="198.626" y="-191.867" font-family="Calibri" font-size="18.00">Credential</text>
</a>
</g>
</g>
<!-- n_datastructure&#45;&gt;n_credential -->
<g id="edge1" class="edge"><title>n_datastructure&#45;&gt;n_credential</title>
<path fill="none" stroke="black" d="M198.626,-261.719C198.626,-251.521 198.626,-238.361 198.626,-226.594"/>
<polygon fill="black" stroke="black" points="202.126,-226.303 198.626,-216.303 195.126,-226.303 202.126,-226.303"/>
<text text-anchor="middle" x="217.626" y="-242.866" font-family="Calibri" font-size="14.00"> &#160;type &#160;</text>
<text text-anchor="middle" x="217.626" y="-227.866" font-family="Calibri" font-size="14.00"> &#160;of &#160;</text>
</g>
<!-- n_identity -->
<g id="node3" class="node"><title>n_identity</title>
<g id="a_node3"><a xlink:href="URL=https://open-measure.atlassian.net/wiki/spaces/DIC/pages/67600948" xlink:title="Identity">
<ellipse fill="#d6e7ff" stroke="black" cx="32.6261" cy="-112.234" rx="32.7527" ry="18"/>
<text text-anchor="middle" x="32.6261" y="-109.134" font-family="Calibri" font-size="12.00">Identity</text>
</a>
</g>
</g>
<!-- n_credential&#45;&gt;n_identity -->
<g id="edge2" class="edge"><title>n_credential&#45;&gt;n_identity</title>
<path fill="none" stroke="black" d="M154.684,-181.255C130.053,-172.553 99.2311,-160.22 73.6261,-145.468 67.9626,-142.205 62.2331,-138.219 56.925,-134.178"/>
<polygon fill="black" stroke="black" points="59.0064,-131.361 49.0009,-127.877 54.6496,-136.84 59.0064,-131.361"/>
<text text-anchor="middle" x="68.9618" y="-177.659" font-family="Calibri" font-size="14.00"> &#160;vouches &#160;</text>
<text text-anchor="middle" x="68.9618" y="-162.659" font-family="Calibri" font-size="14.00"> &#160;for &#160;</text>
</g>
<!-- n_method -->
<g id="node4" class="node"><title>n_method</title>
<ellipse fill="#d6e7ff" stroke="black" cx="144.626" cy="-112.234" rx="61.5366" ry="33.4697"/>
<text text-anchor="middle" x="144.626" y="-122.134" font-family="Calibri" font-size="12.00">Trust and</text>
<text text-anchor="middle" x="144.626" y="-109.134" font-family="Calibri" font-size="12.00">authentication</text>
<text text-anchor="middle" x="144.626" y="-96.134" font-family="Calibri" font-size="12.00">method</text>
</g>
<!-- n_credential&#45;&gt;n_method -->
<g id="edge3" class="edge"><title>n_credential&#45;&gt;n_method</title>
<path fill="none" stroke="black" d="M186.373,-176.652C181.565,-169.349 175.857,-160.679 170.231,-152.131"/>
<polygon fill="black" stroke="black" points="173.09,-150.108 164.668,-143.68 167.243,-153.957 173.09,-150.108"/>
<text text-anchor="middle" x="156" y="-163.935" font-family="Calibri" font-size="14.00"> &#160;uses &#160;</text>
</g>
<!-- n_form -->
<g id="node6" class="node"><title>n_form</title>
<polygon fill="#d6e7ff" stroke="black" points="224.626,-91.234 224.626,-133.234 280.626,-133.234 280.626,-91.234 224.626,-91.234"/>
<text text-anchor="middle" x="252.626" y="-119.634" font-family="Calibri" font-size="12.00">Logical</text>
<polyline fill="none" stroke="black" points="224.626,-112.234 280.626,-112.234 "/>
<text text-anchor="middle" x="252.626" y="-98.634" font-family="Calibri" font-size="12.00">Physical</text>
</g>
<!-- n_credential&#45;&gt;n_form -->
<g id="edge5" class="edge"><title>n_credential&#45;&gt;n_form</title>
<path fill="none" stroke="black" d="M210.88,-176.652C217.624,-166.406 226.14,-153.47 233.719,-141.957"/>
<polygon fill="black" stroke="black" points="236.712,-143.776 239.286,-133.499 230.865,-139.927 236.712,-143.776"/>
<text text-anchor="middle" x="246.126" y="-157.268" font-family="Calibri" font-size="14.00"> forms </text>
</g>
<!-- n_lifecycle -->
<g id="node7" class="node"><title>n_lifecycle</title>
<polygon fill="#d6e7ff" stroke="black" points="299.126,-91.234 299.126,-133.234 368.126,-133.234 368.126,-91.234 299.126,-91.234"/>
<text text-anchor="middle" x="333.626" y="-119.634" font-family="Calibri" font-size="12.00">Permanent</text>
<polyline fill="none" stroke="black" points="299.126,-112.234 368.126,-112.234 "/>
<text text-anchor="middle" x="333.626" y="-98.634" font-family="Calibri" font-size="12.00">Temporary</text>
</g>
<!-- n_credential&#45;&gt;n_lifecycle -->
<g id="edge6" class="edge"><title>n_credential&#45;&gt;n_lifecycle</title>
<path fill="none" stroke="black" d="M243.205,-181.561C252.559,-177.899 262.151,-173.526 270.626,-168.468 283.592,-160.73 296.401,-150.186 307.049,-140.383"/>
<polygon fill="black" stroke="black" points="309.539,-142.846 314.392,-133.428 304.725,-137.764 309.539,-142.846"/>
<text text-anchor="middle" x="322.126" y="-157.268" font-family="Calibri" font-size="14.00"> &#160;lifecycles </text>
</g>
<!-- n_entity -->
<g id="node5" class="node"><title>n_entity</title>
<g id="a_node5"><a xlink:href="https://open-measure.atlassian.net/wiki/spaces/DIC/pages/123830932" xlink:title="Entity">
<ellipse fill="#d6e7ff" stroke="black" cx="32.6261" cy="-44" rx="27.1719" ry="18"/>
<text text-anchor="middle" x="32.6261" y="-40.9" font-family="Calibri" font-size="12.00">Entity</text>
</a>
</g>
</g>
<!-- n_identity&#45;&gt;n_entity -->
<g id="edge4" class="edge"><title>n_identity&#45;&gt;n_entity</title>
<path fill="none" stroke="black" d="M32.6261,-94.1771C32.6261,-87.5078 32.6261,-79.6919 32.6261,-72.279"/>
<polygon fill="black" stroke="black" points="36.1262,-72.2293 32.6261,-62.2293 29.1262,-72.2293 36.1262,-72.2293"/>
<text text-anchor="middle" x="20.1261" y="-82.0424" font-family="Calibri" font-size="14.00"> &#160;of &#160;</text>
</g>
</g>
</svg>
