<!DOCTYPE svg [<!ENTITY nbsp "&#160;">]><svg width="904pt" height="864pt" viewBox="0 0 904 864" xmlns="http://www.w3.org/2000/svg" xmlns:xlink="http://www.w3.org/1999/xlink">
<g id="graph0" class="graph" transform="scale(1 1) rotate(0) translate(4 860.2077)">
<title>G</title>
<polygon fill="#ffffff" stroke="transparent" points="-4,4 -4,-860.2077 900,-860.2077 900,4 -4,4"></polygon>
<text text-anchor="middle" x="448" y="-16" font-family="Calibri" font-size="8.00" fill="#000000">Credential Harvesting (Conceptual Diagram) by Open-Measure</text>
<text text-anchor="middle" x="448" y="-6.4" font-family="Calibri" font-size="8.00" fill="#000000">Licensed under Creative Commons Attribution 4.0 International License</text>
<g id="clust1" class="cluster">
<title>cluster_countermeasures</title>
<polygon fill="none" stroke="#000000" points="8,-487 8,-599.2 210,-599.2 210,-487 8,-487"></polygon>
<text text-anchor="middle" x="109" y="-582.6" font-family="Calibri" font-size="14.00" fill="#000000">Countermeasures</text>
</g>
<g id="clust2" class="cluster">
<title>cluster_attack_phases</title>
<polygon fill="none" stroke="#000000" points="268,-739.2077 268,-848.2077 388,-848.2077 388,-739.2077 268,-739.2077"></polygon>
<text text-anchor="middle" x="328" y="-831.6077" font-family="Calibri" font-size="14.00" fill="#000000">Attack Phases</text>
</g>
<g id="clust3" class="cluster">
<title>cluster_characteristics</title>
<polygon fill="none" stroke="#000000" points="218,-97 218,-581.5 668,-581.5 668,-97 218,-97"></polygon>
<text text-anchor="middle" x="443" y="-564.9" font-family="Calibri" font-size="14.00" fill="#000000">Distinctive Characteristics</text>
</g>
<g id="clust4" class="cluster">
<title>cluster_information</title>
<polygon fill="none" stroke="#000000" points="267,-105 267,-181.8 578,-181.8 578,-105 267,-105"></polygon>
<text text-anchor="middle" x="422.5" y="-165.2" font-family="Calibri" font-size="14.00" fill="#000000">Information</text>
</g>
<g id="clust5" class="cluster">
<title>cluster_threat_actor_class</title>
<polygon fill="none" stroke="#000000" points="56,-376.4 56,-454.2 204,-454.2 204,-376.4 56,-376.4"></polygon>
<text text-anchor="middle" x="130" y="-437.6" font-family="Calibri" font-size="14.00" fill="#000000">Actor Classes</text>
</g>
<g id="clust6" class="cluster">
<title>cluster_information_types</title>
<polygon fill="none" stroke="#000000" points="20,-240.2 20,-334.8 210,-334.8 210,-240.2 20,-240.2"></polygon>
<text text-anchor="middle" x="115" y="-318.2" font-family="Calibri" font-size="14.00" fill="#000000">Information Types</text>
</g>
<g id="clust7" class="cluster">
<title>cluster_data_sources</title>
<polygon fill="none" stroke="#000000" points="676,-231.4 676,-343.6 870,-343.6 870,-231.4 676,-231.4"></polygon>
<text text-anchor="middle" x="773" y="-327" font-family="Calibri" font-size="14.00" fill="#000000">Data Sources</text>
</g>
<g id="clust8" class="cluster">
<title>cluster_method</title>
<polygon fill="none" stroke="#000000" points="676,-504.2 676,-582 888,-582 888,-504.2 676,-504.2"></polygon>
<text text-anchor="middle" x="782" y="-565.4" font-family="Calibri" font-size="14.00" fill="#000000">Methods</text>
</g>
<!-- n_cyberattack_class -->
<g id="node1" class="node">
<title>n_cyberattack_class</title>
<ellipse fill="#ffffff" stroke="#000000" cx="192" cy="-781.3077" rx="65.945" ry="19.4695"></ellipse>
<text text-anchor="middle" x="192" y="-776.5077" font-family="Calibri" font-size="16.00" fill="#000000">Cyberattack</text>
</g>
<!-- n_credential_harvesting -->
<g id="node2" class="node">
<title>n_credential_harvesting</title>
<g id="a_node2"><a xlink:href="https://open-measure.atlassian.net/wiki/spaces/DIC/pages/1254719498" xlink:title="Credential\nHarvesting">
<ellipse fill="#5599ff" stroke="#000000" cx="232" cy="-669.2039" rx="67.3102" ry="36.4089"></ellipse>
<text text-anchor="middle" x="232" y="-674.6039" font-family="Calibri" font-size="18.00" fill="#000000">Credential</text>
<text text-anchor="middle" x="232" y="-653.0039" font-family="Calibri" font-size="18.00" fill="#000000">Harvesting</text>
</a>
</g>
</g>
<!-- n_cyberattack_class&#45;&gt;n_credential_harvesting -->
<g id="edge1" class="edge">
<title>n_cyberattack_class-&gt;n_credential_harvesting</title>
<path fill="none" stroke="#000000" d="M202.2506,-752.5793C207.4263,-738.074 213.7551,-720.3369 219.2428,-704.9571"></path>
<polygon fill="#000000" stroke="#000000" points="198.9405,-751.4417 198.8762,-762.0364 205.5334,-753.7942 198.9405,-751.4417"></polygon>
<text text-anchor="middle" x="243.1848" y="-718.6077" font-family="Calibri" font-size="14.00" fill="#000000"> &nbsp;of class &nbsp;</text>
</g>
<!-- n_countermeasures -->
<g id="node3" class="node">
<title>n_countermeasures</title>
<polygon fill="#d6e7ff" stroke="#000000" points="16.124,-495.5 16.124,-565.9 201.876,-565.9 201.876,-495.5 16.124,-495.5"></polygon>
<text text-anchor="middle" x="55.3356" y="-554.7" font-family="Calibri" font-size="8.00" fill="#000000">Access controls</text>
<polyline fill="none" stroke="#000000" points="94.5472,-548.3 94.5472,-565.9 "></polyline>
<text text-anchor="middle" x="124.9848" y="-554.7" font-family="Calibri" font-size="8.00" fill="#000000">Deception</text>
<polyline fill="none" stroke="#000000" points="155.4224,-548.3 155.4224,-565.9 "></polyline>
<text text-anchor="middle" x="178.5892" y="-554.7" font-family="Calibri" font-size="8.00" fill="#000000">MFA</text>
<polyline fill="none" stroke="#000000" points="16.124,-548.3 201.876,-548.3 "></polyline>
<text text-anchor="middle" x="71.3848" y="-537.1" font-family="Calibri" font-size="8.00" fill="#000000">Disabling credential caching</text>
<polyline fill="none" stroke="#000000" points="126.6456,-530.7 126.6456,-548.3 "></polyline>
<text text-anchor="middle" x="145.7564" y="-537.1" font-family="Calibri" font-size="8.00" fill="#000000">DRM</text>
<polyline fill="none" stroke="#000000" points="164.8672,-530.7 164.8672,-548.3 "></polyline>
<text text-anchor="middle" x="183.034" y="-537.1" font-family="Calibri" font-size="8.00" fill="#000000">HSM</text>
<polyline fill="none" stroke="#000000" points="16.124,-530.7 201.876,-530.7 "></polyline>
<text text-anchor="middle" x="63.2232" y="-519.5" font-family="Calibri" font-size="8.00" fill="#000000">Password Managers</text>
<polyline fill="none" stroke="#000000" points="110.3224,-513.1 110.3224,-530.7 "></polyline>
<text text-anchor="middle" x="156.0848" y="-519.5" font-family="Calibri" font-size="8.00" fill="#000000">Security awareness</text>
<polyline fill="none" stroke="#000000" points="16.124,-513.1 201.876,-513.1 "></polyline>
<text text-anchor="middle" x="32.7908" y="-501.9" font-family="Calibri" font-size="8.00" fill="#000000">PAM</text>
<polyline fill="none" stroke="#000000" points="49.4576,-495.5 49.4576,-513.1 "></polyline>
<text text-anchor="middle" x="86.23" y="-501.9" font-family="Calibri" font-size="8.00" fill="#000000">System hardening</text>
<polyline fill="none" stroke="#000000" points="123.0024,-495.5 123.0024,-513.1 "></polyline>
<text text-anchor="middle" x="148.7764" y="-501.9" font-family="Calibri" font-size="8.00" fill="#000000">Encryption</text>
<polyline fill="none" stroke="#000000" points="174.5504,-495.5 174.5504,-513.1 "></polyline>
<text text-anchor="middle" x="188.2132" y="-501.9" font-family="Calibri" font-size="8.00" fill="#000000">etc.</text>
</g>
<!-- n_credential_harvesting&#45;&gt;n_countermeasures -->
<g id="edge2" class="edge">
<title>n_credential_harvesting-&gt;n_countermeasures</title>
<path fill="none" stroke="#000000" d="M202.6196,-636.6471C198.8064,-632.3985 194.9582,-628.0994 191.305,-624 186.3935,-618.4886 181.3264,-612.7859 176.2328,-607.0412"></path>
<polygon fill="#000000" stroke="#000000" points="178.5336,-604.36 169.2828,-599.1954 173.2938,-609.0017 178.5336,-604.36"></polygon>
<text text-anchor="middle" x="227.3475" y="-611.4" font-family="Calibri" font-size="14.00" fill="#000000">countered by</text>
</g>
<!-- n_threat_actor -->
<g id="node5" class="node">
<title>n_threat_actor</title>
<ellipse fill="#d6e7ff" stroke="#000000" cx="336" cy="-530.7" rx="60.7714" ry="18"></ellipse>
<text text-anchor="middle" x="336" y="-526.5" font-family="Calibri" font-size="14.00" fill="#000000">Threat Actor</text>
</g>
<!-- n_credential_harvesting&#45;&gt;n_threat_actor -->
<g id="edge4" class="edge">
<title>n_credential_harvesting-&gt;n_threat_actor</title>
<path fill="none" stroke="#000000" d="M257.4413,-635.322C267.7904,-621.5393 280.0581,-605.2016 291.7853,-589.5837"></path>
<polygon fill="#000000" stroke="#000000" points="294.6499,-591.5977 297.8556,-581.4995 289.0522,-587.3945 294.6499,-591.5977"></polygon>
<text text-anchor="middle" x="330.0523" y="-611.4" font-family="Calibri" font-size="14.00" fill="#000000"> &nbsp;characterized by &nbsp;</text>
</g>
<!-- n_attack_phases -->
<g id="node4" class="node">
<title>n_attack_phases</title>
<polygon fill="#d6e7ff" stroke="#000000" points="275.5172,-747.7077 275.5172,-814.9077 380.4828,-814.9077 380.4828,-747.7077 275.5172,-747.7077"></polygon>
<text text-anchor="middle" x="328" y="-800.1077" font-family="Calibri" font-size="12.00" fill="#000000">Reconnaissance</text>
<polyline fill="none" stroke="#000000" points="275.5172,-792.5077 380.4828,-792.5077 "></polyline>
<text text-anchor="middle" x="328" y="-777.7077" font-family="Calibri" font-size="12.00" fill="#000000">Exploitation</text>
<polyline fill="none" stroke="#000000" points="275.5172,-770.1077 380.4828,-770.1077 "></polyline>
<text text-anchor="middle" x="328" y="-755.3077" font-family="Calibri" font-size="12.00" fill="#000000">Lateral Movement</text>
</g>
<!-- n_attack_phases&#45;&gt;n_credential_harvesting -->
<g id="edge3" class="edge">
<title>n_attack_phases-&gt;n_credential_harvesting</title>
<path fill="none" stroke="#000000" d="M289.2384,-731.3507C284.5174,-725.5748 279.7007,-719.8194 275,-714.4077 271.3065,-710.1555 267.3393,-705.7657 263.362,-701.4696"></path>
<polygon fill="#000000" stroke="#000000" points="286.5859,-733.6368 295.5969,-739.2092 292.0277,-729.2337 286.5859,-733.6368"></polygon>
<text text-anchor="middle" x="313.2756" y="-718.6077" font-family="Calibri" font-size="14.00" fill="#000000"> &nbsp;during &nbsp;</text>
</g>
<!-- n_collection -->
<g id="node6" class="node">
<title>n_collection</title>
<ellipse fill="#d6e7ff" stroke="#000000" cx="609" cy="-402.9" rx="51.0415" ry="18"></ellipse>
<text text-anchor="middle" x="609" y="-398.7" font-family="Calibri" font-size="14.00" fill="#000000">Collection</text>
</g>
<!-- n_threat_actor&#45;&gt;n_collection -->
<g id="edge5" class="edge">
<title>n_threat_actor-&gt;n_collection</title>
<path fill="none" stroke="#000000" d="M368.659,-515.4113C418.7264,-491.9732 514.3443,-447.2114 568.6658,-421.7817"></path>
<polygon fill="#000000" stroke="#000000" points="570.4122,-424.8288 577.985,-417.4191 567.4443,-418.4891 570.4122,-424.8288"></polygon>
<text text-anchor="middle" x="512.2658" y="-466.4" font-family="Calibri" font-size="14.00" fill="#000000"> &nbsp;performs &nbsp;</text>
</g>
<!-- n_objective -->
<g id="node8" class="node">
<title>n_objective</title>
<ellipse fill="#d6e7ff" stroke="#000000" cx="422" cy="-402.9" rx="40.026" ry="18"></ellipse>
<text text-anchor="middle" x="422" y="-399.3" font-family="Calibri" font-size="12.00" fill="#000000">Objective</text>
</g>
<!-- n_threat_actor&#45;&gt;n_objective -->
<g id="edge7" class="edge">
<title>n_threat_actor-&gt;n_objective</title>
<path fill="none" stroke="#000000" d="M347.9579,-512.93C362.6556,-491.0886 387.7137,-453.851 404.5584,-428.819"></path>
<polygon fill="#000000" stroke="#000000" points="407.4644,-430.7696 410.1436,-420.5191 401.6569,-426.8616 407.4644,-430.7696"></polygon>
<text text-anchor="middle" x="397.3296" y="-466.4" font-family="Calibri" font-size="14.00" fill="#000000"> &nbsp;has &nbsp;</text>
</g>
<!-- n_actor_classes -->
<g id="node15" class="node">
<title>n_actor_classes</title>
<polygon fill="#d6e7ff" stroke="#000000" points="64.3408,-384.9 64.3408,-420.9 195.6592,-420.9 195.6592,-384.9 64.3408,-384.9"></polygon>
<text text-anchor="middle" x="81.0096" y="-399.3" font-family="Calibri" font-size="12.00" fill="#000000">Bot</text>
<polyline fill="none" stroke="#000000" points="97.6784,-384.9 97.6784,-420.9 "></polyline>
<text text-anchor="middle" x="123.3406" y="-399.3" font-family="Calibri" font-size="12.00" fill="#000000">Human</text>
<polyline fill="none" stroke="#000000" points="149.0028,-384.9 149.0028,-420.9 "></polyline>
<text text-anchor="middle" x="172.331" y="-399.3" font-family="Calibri" font-size="12.00" fill="#000000">Worm</text>
</g>
<!-- n_threat_actor&#45;&gt;n_actor_classes -->
<g id="edge16" class="edge">
<title>n_threat_actor-&gt;n_actor_classes</title>
<path fill="none" stroke="#000000" d="M309.4908,-514.254C284.9897,-499.0538 247.2597,-475.6465 212.7034,-454.2082"></path>
<polygon fill="#000000" stroke="#000000" points="214.3389,-451.1041 203.9962,-448.8064 210.6487,-457.0524 214.3389,-451.1041"></polygon>
<text text-anchor="middle" x="279.1848" y="-466.4" font-family="Calibri" font-size="14.00" fill="#000000"> &nbsp;of class &nbsp;</text>
</g>
<!-- n_certificates -->
<g id="node7" class="node">
<title>n_certificates</title>
<ellipse fill="#d6e7ff" stroke="#000000" cx="524" cy="-131" rx="45.5858" ry="18"></ellipse>
<text text-anchor="middle" x="524" y="-127.4" font-family="Calibri" font-size="12.00" fill="#000000">Certificates</text>
</g>
<!-- n_collection&#45;&gt;n_certificates -->
<g id="edge6" class="edge">
<title>n_collection-&gt;n_certificates</title>
<path fill="none" stroke="#000000" d="M603.2909,-384.6377C591.1381,-345.7628 562.2423,-253.3302 542.8984,-191.4526"></path>
<polygon fill="#000000" stroke="#000000" points="546.2042,-190.297 539.8798,-181.7968 539.5231,-192.3856 546.2042,-190.297"></polygon>
<text text-anchor="middle" x="601.8303" y="-270.9" font-family="Calibri" font-size="14.00" fill="#000000"> &nbsp;of &nbsp;</text>
</g>
<!-- n_indiscriminate -->
<g id="node19" class="node">
<title>n_indiscriminate</title>
<ellipse fill="#d6e7ff" stroke="#000000" cx="768" cy="-402.9" rx="54.4759" ry="18"></ellipse>
<text text-anchor="middle" x="768" y="-399.3" font-family="Calibri" font-size="12.00" fill="#000000">Indiscriminate</text>
</g>
<!-- n_collection&#45;&gt;n_indiscriminate -->
<g id="edge20" class="edge">
<title>n_collection-&gt;n_indiscriminate</title>
<path fill="none" stroke="#000000" d="M660.6227,-402.9C674.1946,-402.9 689.0076,-402.9 703.1763,-402.9"></path>
<polygon fill="#000000" stroke="#000000" points="703.3525,-406.4001 713.3525,-402.9 703.3525,-399.4001 703.3525,-406.4001"></polygon>
<text text-anchor="middle" x="686.8911" y="-410.1" font-family="Calibri" font-size="14.00" fill="#000000"> &nbsp;is &nbsp;</text>
</g>
<!-- n_vulnerable -->
<g id="node14" class="node">
<title>n_vulnerable</title>
<ellipse fill="#d6e7ff" stroke="#000000" cx="422" cy="-45.2" rx="44.0347" ry="18"></ellipse>
<text text-anchor="middle" x="422" y="-41.6" font-family="Calibri" font-size="12.00" fill="#000000">Vulnerable</text>
</g>
<!-- n_certificates&#45;&gt;n_vulnerable -->
<g id="edge15" class="edge">
<title>n_certificates-&gt;n_vulnerable</title>
<path fill="none" stroke="#000000" d="M504.3334,-114.4569C488.8114,-101.4002 466.9673,-83.0254 449.6794,-68.4832"></path>
<polygon fill="#000000" stroke="#000000" points="451.5119,-65.4511 441.6063,-61.6923 447.0059,-70.808 451.5119,-65.4511"></polygon>
<text text-anchor="middle" x="484.6676" y="-76.4" font-family="Calibri" font-size="14.00" fill="#000000"> &nbsp;is &nbsp;</text>
</g>
<!-- n_objective&#45;&gt;n_collection -->
<g id="edge21" class="edge">
<title>n_objective-&gt;n_collection</title>
<path fill="none" stroke="#000000" d="M472.2915,-402.9C498.6933,-402.9 530.9873,-402.9 557.5574,-402.9"></path>
<polygon fill="#000000" stroke="#000000" points="472.1162,-399.4001 462.1162,-402.9 472.1162,-406.4001 472.1162,-399.4001"></polygon>
<text text-anchor="middle" x="509.8714" y="-426.9" font-family="Calibri" font-size="14.00" fill="#000000"> &nbsp;to &nbsp;</text>
<text text-anchor="middle" x="509.8714" y="-410.1" font-family="Calibri" font-size="14.00" fill="#000000"> &nbsp;accomplish &nbsp;</text>
</g>
<!-- n_compromise -->
<g id="node9" class="node">
<title>n_compromise</title>
<ellipse fill="#d6e7ff" stroke="#000000" cx="282" cy="-402.9" rx="56.4165" ry="18"></ellipse>
<text text-anchor="middle" x="282" y="-399.3" font-family="Calibri" font-size="12.00" fill="#000000">Compromising</text>
</g>
<!-- n_objective&#45;&gt;n_compromise -->
<g id="edge8" class="edge">
<title>n_objective-&gt;n_compromise</title>
<path fill="none" stroke="#000000" d="M381.5987,-402.9C371.3169,-402.9 359.9909,-402.9 348.7755,-402.9"></path>
<polygon fill="#000000" stroke="#000000" points="348.5398,-399.4001 338.5398,-402.9 348.5398,-406.4001 348.5398,-399.4001"></polygon>
<text text-anchor="middle" x="360.0974" y="-410.1" font-family="Calibri" font-size="14.00" fill="#000000"> &nbsp;of &nbsp;</text>
</g>
<!-- n_abuse -->
<g id="node10" class="node">
<title>n_abuse</title>
<ellipse fill="#d6e7ff" stroke="#000000" cx="422" cy="-275.1" rx="36.3841" ry="18"></ellipse>
<text text-anchor="middle" x="422" y="-271.5" font-family="Calibri" font-size="12.00" fill="#000000">Abusing</text>
</g>
<!-- n_objective&#45;&gt;n_abuse -->
<g id="edge9" class="edge">
<title>n_objective-&gt;n_abuse</title>
<path fill="none" stroke="#000000" d="M422,-384.8604C422,-363.7631 422,-328.5692 422,-303.7296"></path>
<polygon fill="#000000" stroke="#000000" points="425.5001,-303.4616 422,-293.4616 418.5001,-303.4617 425.5001,-303.4616"></polygon>
<text text-anchor="middle" x="434.8303" y="-355.8" font-family="Calibri" font-size="14.00" fill="#000000"> &nbsp;of &nbsp;</text>
</g>
<!-- n_information_system -->
<g id="node11" class="node">
<title>n_information_system</title>
<ellipse fill="#d6e7ff" stroke="#000000" cx="283" cy="-275.1" rx="51.6844" ry="26.0431"></ellipse>
<text text-anchor="middle" x="283" y="-278.7" font-family="Calibri" font-size="12.00" fill="#000000">Information</text>
<text text-anchor="middle" x="283" y="-264.3" font-family="Calibri" font-size="12.00" fill="#000000">System</text>
</g>
<!-- n_compromise&#45;&gt;n_information_system -->
<g id="edge10" class="edge">
<title>n_compromise-&gt;n_information_system</title>
<path fill="none" stroke="#000000" d="M282.1412,-384.8604C282.2894,-365.9208 282.5264,-335.6205 282.714,-311.6496"></path>
<polygon fill="#000000" stroke="#000000" points="286.2151,-311.5081 282.7936,-301.4809 279.2153,-311.4532 286.2151,-311.5081"></polygon>
<text text-anchor="middle" x="297.5526" y="-355.8" font-family="Calibri" font-size="14.00" fill="#000000"> &nbsp;the &nbsp;</text>
</g>
<!-- n_identities -->
<g id="node12" class="node">
<title>n_identities</title>
<ellipse fill="#d6e7ff" stroke="#000000" cx="422" cy="-131" rx="38.9814" ry="18"></ellipse>
<text text-anchor="middle" x="422" y="-127.4" font-family="Calibri" font-size="12.00" fill="#000000">Identities</text>
</g>
<!-- n_abuse&#45;&gt;n_identities -->
<g id="edge11" class="edge">
<title>n_abuse-&gt;n_identities</title>
<path fill="none" stroke="#000000" d="M422,-256.8496C422,-232.2713 422,-188.2872 422,-159.3737"></path>
<polygon fill="#000000" stroke="#000000" points="425.5001,-159.1021 422,-149.1022 418.5001,-159.1022 425.5001,-159.1021"></polygon>
<text text-anchor="middle" x="437.5526" y="-202.4" font-family="Calibri" font-size="14.00" fill="#000000"> &nbsp;the &nbsp;</text>
</g>
<!-- n_credentials -->
<g id="node13" class="node">
<title>n_credentials</title>
<ellipse fill="#d6e7ff" stroke="#000000" cx="320" cy="-131" rx="45.2476" ry="18"></ellipse>
<text text-anchor="middle" x="320" y="-127.4" font-family="Calibri" font-size="12.00" fill="#000000">Credentials</text>
</g>
<!-- n_information_system&#45;&gt;n_credentials -->
<g id="edge12" class="edge">
<title>n_information_system-&gt;n_credentials</title>
<path fill="none" stroke="#000000" d="M292.2762,-238.9731C296.7172,-221.6769 302.1113,-200.6691 306.9569,-181.7976"></path>
<polygon fill="#000000" stroke="#000000" points="288.7974,-238.4483 289.7004,-249.0046 295.5775,-240.1892 288.7974,-238.4483"></polygon>
<text text-anchor="middle" x="360.3647" y="-210.8" font-family="Calibri" font-size="14.00" fill="#000000"> &nbsp;may be leveraged &nbsp;</text>
<text text-anchor="middle" x="360.3647" y="-194" font-family="Calibri" font-size="14.00" fill="#000000"> &nbsp;to grant access to &nbsp;</text>
</g>
<!-- n_identities&#45;&gt;n_vulnerable -->
<g id="edge13" class="edge">
<title>n_identities-&gt;n_vulnerable</title>
<path fill="none" stroke="#000000" d="M422,-112.804C422,-101.4286 422,-86.5378 422,-73.6277"></path>
<polygon fill="#000000" stroke="#000000" points="425.5001,-73.3697 422,-63.3697 418.5001,-73.3698 425.5001,-73.3697"></polygon>
<text text-anchor="middle" x="433.6676" y="-76.4" font-family="Calibri" font-size="14.00" fill="#000000"> &nbsp;is &nbsp;</text>
</g>
<!-- n_credentials&#45;&gt;n_vulnerable -->
<g id="edge14" class="edge">
<title>n_credentials-&gt;n_vulnerable</title>
<path fill="none" stroke="#000000" d="M339.6666,-114.4569C355.1886,-101.4002 377.0327,-83.0254 394.3206,-68.4832"></path>
<polygon fill="#000000" stroke="#000000" points="396.9941,-70.808 402.3937,-61.6923 392.4881,-65.4511 396.9941,-70.808"></polygon>
<text text-anchor="middle" x="400.6676" y="-76.4" font-family="Calibri" font-size="14.00" fill="#000000"> &nbsp;is &nbsp;</text>
</g>
<!-- n_information_types -->
<g id="node16" class="node">
<title>n_information_types</title>
<polygon fill="#d6e7ff" stroke="#000000" points="27.6804,-248.7 27.6804,-301.5 202.3196,-301.5 202.3196,-248.7 27.6804,-248.7"></polygon>
<text text-anchor="middle" x="74.7284" y="-290.3" font-family="Calibri" font-size="8.00" fill="#000000">Email address</text>
<polyline fill="none" stroke="#000000" points="121.7764,-283.9 121.7764,-301.5 "></polyline>
<text text-anchor="middle" x="161.5508" y="-290.3" font-family="Calibri" font-size="8.00" fill="#000000">Login ID</text>
<polyline fill="none" stroke="#000000" points="27.6804,-283.9 202.3196,-283.9 "></polyline>
<text text-anchor="middle" x="67.01" y="-272.7" font-family="Calibri" font-size="8.00" fill="#000000">Password</text>
<polyline fill="none" stroke="#000000" points="106.3396,-266.3 106.3396,-283.9 "></polyline>
<text text-anchor="middle" x="154.0004" y="-272.7" font-family="Calibri" font-size="8.00" fill="#000000">Password hash</text>
<polyline fill="none" stroke="#000000" points="27.6804,-266.3 202.3196,-266.3 "></polyline>
<text text-anchor="middle" x="53.7856" y="-255.1" font-family="Calibri" font-size="8.00" fill="#000000">Private key</text>
<polyline fill="none" stroke="#000000" points="79.8908,-248.7 79.8908,-266.3 "></polyline>
<text text-anchor="middle" x="105.332" y="-255.1" font-family="Calibri" font-size="8.00" fill="#000000">Session ID</text>
<polyline fill="none" stroke="#000000" points="130.7732,-248.7 130.7732,-266.3 "></polyline>
<text text-anchor="middle" x="152.8836" y="-255.1" font-family="Calibri" font-size="8.00" fill="#000000">SSH key</text>
<polyline fill="none" stroke="#000000" points="174.994,-248.7 174.994,-266.3 "></polyline>
<text text-anchor="middle" x="188.6568" y="-255.1" font-family="Calibri" font-size="8.00" fill="#000000">etc.</text>
</g>
<!-- n_actor_classes&#45;&gt;n_information_types -->
<!-- n_information_types&#45;&gt;n_credentials -->
<g id="edge17" class="edge">
<title>n_information_types-&gt;n_credentials</title>
<path fill="none" stroke="#000000" d="M117.8817,-238.3325C120.9711,-221.6213 127.2156,-202.7396 139.7342,-189.8 157.57,-171.3643 220.4969,-153.5834 267.0046,-142.4924"></path>
<polygon fill="#000000" stroke="#000000" points="116.7735,-229.6201 117.3379,-240.2 123.4944,-231.5773 116.7735,-229.6201"></polygon>
<text text-anchor="middle" x="176.1329" y="-202.4" font-family="Calibri" font-size="14.00" fill="#000000">of type &nbsp;&nbsp;&nbsp;&nbsp;&nbsp;&nbsp;&nbsp;&nbsp;&nbsp;</text>
</g>
<!-- n_data_sources -->
<g id="node17" class="node">
<title>n_data_sources</title>
<polygon fill="#d6e7ff" stroke="#000000" points="684.1256,-239.9 684.1256,-310.3 861.8744,-310.3 861.8744,-239.9 684.1256,-239.9"></polygon>
<text text-anchor="middle" x="729.954" y="-299.1" font-family="Calibri" font-size="8.00" fill="#000000">Computer memory</text>
<polyline fill="none" stroke="#000000" points="775.7824,-292.7 775.7824,-310.3 "></polyline>
<text text-anchor="middle" x="818.5024" y="-299.1" font-family="Calibri" font-size="8.00" fill="#000000">Phishing website</text>
<polyline fill="none" stroke="#000000" points="684.1256,-292.7 861.8744,-292.7 "></polyline>
<text text-anchor="middle" x="722.4528" y="-281.5" font-family="Calibri" font-size="8.00" fill="#000000">Configuration files</text>
<polyline fill="none" stroke="#000000" points="760.78,-275.1 760.78,-292.7 "></polyline>
<text text-anchor="middle" x="781.8904" y="-281.5" font-family="Calibri" font-size="8.00" fill="#000000">Cookies</text>
<polyline fill="none" stroke="#000000" points="803.0008,-275.1 803.0008,-292.7 "></polyline>
<text text-anchor="middle" x="832.4376" y="-281.5" font-family="Calibri" font-size="8.00" fill="#000000">ID repository</text>
<polyline fill="none" stroke="#000000" points="684.1256,-275.1 861.8744,-275.1 "></polyline>
<text text-anchor="middle" x="706.012" y="-263.9" font-family="Calibri" font-size="8.00" fill="#000000">People</text>
<polyline fill="none" stroke="#000000" points="727.8984,-257.5 727.8984,-275.1 "></polyline>
<text text-anchor="middle" x="767.4464" y="-263.9" font-family="Calibri" font-size="8.00" fill="#000000">Windows registry</text>
<polyline fill="none" stroke="#000000" points="806.9944,-257.5 806.9944,-275.1 "></polyline>
<text text-anchor="middle" x="834.2072" y="-263.9" font-family="Calibri" font-size="8.00" fill="#000000">Databases</text>
<polyline fill="none" stroke="#000000" points="684.1256,-257.5 861.8744,-257.5 "></polyline>
<text text-anchor="middle" x="727.9448" y="-246.3" font-family="Calibri" font-size="8.00" fill="#000000">Previous data breach</text>
<polyline fill="none" stroke="#000000" points="771.764,-239.9 771.764,-257.5 "></polyline>
<text text-anchor="middle" x="800.4816" y="-246.3" font-family="Calibri" font-size="8.00" fill="#000000">Documents</text>
<polyline fill="none" stroke="#000000" points="829.1992,-239.9 829.1992,-257.5 "></polyline>
<text text-anchor="middle" x="845.362" y="-246.3" font-family="Calibri" font-size="8.00" fill="#000000">etc.</text>
</g>
<!-- n_data_sources&#45;&gt;n_certificates -->
<g id="edge18" class="edge">
<title>n_data_sources-&gt;n_certificates</title>
<path fill="none" stroke="#000000" d="M719.6608,-224.5552C704.9315,-212.1714 688.4554,-199.6583 672,-189.8 642.5861,-172.1785 606.9376,-157.8307 577.998,-147.7203"></path>
<polygon fill="#000000" stroke="#000000" points="717.7821,-227.5545 727.6529,-231.404 722.3371,-222.2392 717.7821,-227.5545"></polygon>
<text text-anchor="middle" x="746.5256" y="-202.4" font-family="Calibri" font-size="14.00" fill="#000000"> &nbsp;found in &nbsp;</text>
</g>
<!-- n_methods -->
<g id="node18" class="node">
<title>n_methods</title>
<polygon fill="#d6e7ff" stroke="#000000" points="683.5346,-512.7 683.5346,-548.7 880.4654,-548.7 880.4654,-512.7 683.5346,-512.7"></polygon>
<text text-anchor="middle" x="723.3454" y="-527.1" font-family="Calibri" font-size="12.00" fill="#000000">Direct access</text>
<polyline fill="none" stroke="#000000" points="763.1562,-512.7 763.1562,-548.7 "></polyline>
<text text-anchor="middle" x="791.4818" y="-527.1" font-family="Calibri" font-size="12.00" fill="#000000">Hacking</text>
<polyline fill="none" stroke="#000000" points="819.8074,-512.7 819.8074,-548.7 "></polyline>
<text text-anchor="middle" x="850.1364" y="-527.1" font-family="Calibri" font-size="12.00" fill="#000000">Guessing</text>
</g>
<!-- n_methods&#45;&gt;n_collection -->
<g id="edge19" class="edge">
<title>n_methods-&gt;n_collection</title>
<path fill="none" stroke="#000000" d="M737.7283,-497.9952C703.6082,-472.7898 657.8724,-439.0034 631.1042,-419.229"></path>
<polygon fill="#000000" stroke="#000000" points="736.011,-501.078 746.134,-504.2047 740.1703,-495.4477 736.011,-501.078"></polygon>
<text text-anchor="middle" x="727.5" y="-466.4" font-family="Calibri" font-size="14.00" fill="#000000"> &nbsp;&nbsp;&nbsp;by &nbsp;</text>
</g>
<!-- n_methods&#45;&gt;n_indiscriminate -->
</g>
</svg>