<!DOCTYPE svg [<!ENTITY nbsp "&#160;">]><svg width="867pt" height="1005pt" viewBox="0 0 867 1005" xmlns="http://www.w3.org/2000/svg" xmlns:xlink="http://www.w3.org/1999/xlink">
<g id="graph0" class="graph" transform="scale(1 1) rotate(0) translate(4 1001.0077)">
<title>G</title>
<polygon fill="#ffffff" stroke="transparent" points="-4,4 -4,-1001.0077 863,-1001.0077 863,4 -4,4"></polygon>
<text text-anchor="middle" x="429.5" y="-16" font-family="Calibri" font-size="8.00" fill="#000000">Credential Harvesting (Conceptual Diagram) by Open-Measure</text>
<text text-anchor="middle" x="429.5" y="-6.4" font-family="Calibri" font-size="8.00" fill="#000000">Licensed under Creative Commons Attribution 4.0 International License</text>
<g id="clust1" class="cluster">
<title>cluster_countermeasures</title>
<polygon fill="none" stroke="#000000" points="8,-578.2 8,-715.2 210,-715.2 210,-578.2 8,-578.2"></polygon>
<text text-anchor="middle" x="109" y="-698.6" font-family="Calibri" font-size="14.00" fill="#000000">Countermeasures</text>
</g>
<g id="clust2" class="cluster">
<title>cluster_attack_phases</title>
<polygon fill="none" stroke="#000000" points="239,-855.2077 239,-989.0077 359,-989.0077 359,-855.2077 239,-855.2077"></polygon>
<text text-anchor="middle" x="299" y="-972.4077" font-family="Calibri" font-size="14.00" fill="#000000">Attack Phases</text>
</g>
<g id="clust3" class="cluster">
<title>cluster_characteristics</title>
<polygon fill="none" stroke="#000000" points="218,-97 218,-697.5 631,-697.5 631,-97 218,-97"></polygon>
<text text-anchor="middle" x="424.5" y="-680.9" font-family="Calibri" font-size="14.00" fill="#000000">Distinctive Characteristics</text>
</g>
<g id="clust4" class="cluster">
<title>cluster_information</title>
<polygon fill="none" stroke="#000000" points="226,-105 226,-206.6 623,-206.6 623,-105 226,-105"></polygon>
<text text-anchor="middle" x="424.5" y="-190" font-family="Calibri" font-size="14.00" fill="#000000">Autentication-related Information</text>
</g>
<g id="clust5" class="cluster">
<title>cluster_threat_actor_class</title>
<polygon fill="none" stroke="#000000" points="88,-426 88,-528.6 200,-528.6 200,-426 88,-426"></polygon>
<text text-anchor="middle" x="144" y="-512" font-family="Calibri" font-size="14.00" fill="#000000">Actor Classes</text>
</g>
<g id="clust6" class="cluster">
<title>cluster_information_types</title>
<polygon fill="none" stroke="#000000" points="20,-265 20,-384.4 210,-384.4 210,-265 20,-265"></polygon>
<text text-anchor="middle" x="115" y="-367.8" font-family="Calibri" font-size="14.00" fill="#000000">Information Types</text>
</g>
<g id="clust7" class="cluster">
<title>cluster_data_sources</title>
<polygon fill="none" stroke="#000000" points="639,-256.2 639,-393.2 833,-393.2 833,-256.2 639,-256.2"></polygon>
<text text-anchor="middle" x="736" y="-376.6" font-family="Calibri" font-size="14.00" fill="#000000">Data Sources</text>
</g>
<g id="clust8" class="cluster">
<title>cluster_method</title>
<polygon fill="none" stroke="#000000" points="639,-595.4 639,-698 851,-698 851,-595.4 639,-595.4"></polygon>
<text text-anchor="middle" x="745" y="-681.4" font-family="Calibri" font-size="14.00" fill="#000000">Methods</text>
</g>
<!-- n_cyberattack_class -->
<g id="node1" class="node">
<title>n_cyberattack_class</title>
<ellipse fill="#ffffff" stroke="#000000" cx="163" cy="-897.3077" rx="65.945" ry="19.4695"></ellipse>
<text text-anchor="middle" x="163" y="-892.5077" font-family="Calibri" font-size="16.00" fill="#000000">Cyberattack</text>
</g>
<!-- n_credential_harvesting -->
<g id="node2" class="node">
<title>n_credential_harvesting</title>
<g id="a_node2"><a xlink:href="https://open-measure.atlassian.net/wiki/spaces/DIC/pages/1254719498" xlink:title="Credential\nHarvesting">
<ellipse fill="#5599ff" stroke="#000000" cx="203" cy="-785.2039" rx="67.3102" ry="36.4089"></ellipse>
<text text-anchor="middle" x="203" y="-790.6039" font-family="Calibri" font-size="18.00" fill="#000000">Credential</text>
<text text-anchor="middle" x="203" y="-769.0039" font-family="Calibri" font-size="18.00" fill="#000000">Harvesting</text>
</a>
</g>
</g>
<!-- n_cyberattack_class&#45;&gt;n_credential_harvesting -->
<g id="edge1" class="edge">
<title>n_cyberattack_class-&gt;n_credential_harvesting</title>
<path fill="none" stroke="#000000" d="M173.2506,-868.5793C178.4263,-854.074 184.7551,-836.3369 190.2428,-820.9571"></path>
<polygon fill="#000000" stroke="#000000" points="169.9405,-867.4417 169.8762,-878.0364 176.5334,-869.7942 169.9405,-867.4417"></polygon>
<text text-anchor="middle" x="214.1848" y="-834.6077" font-family="Calibri" font-size="14.00" fill="#000000"> &nbsp;of class &nbsp;</text>
</g>
<!-- n_countermeasures -->
<g id="node3" class="node">
<title>n_countermeasures</title>
<polygon fill="#d6e7ff" stroke="#000000" points="16.124,-586.7 16.124,-657.1 201.876,-657.1 201.876,-586.7 16.124,-586.7"></polygon>
<text text-anchor="middle" x="55.3356" y="-645.9" font-family="Calibri" font-size="8.00" fill="#000000">Access controls</text>
<polyline fill="none" stroke="#000000" points="94.5472,-639.5 94.5472,-657.1 "></polyline>
<text text-anchor="middle" x="124.9848" y="-645.9" font-family="Calibri" font-size="8.00" fill="#000000">Deception</text>
<polyline fill="none" stroke="#000000" points="155.4224,-639.5 155.4224,-657.1 "></polyline>
<text text-anchor="middle" x="178.5892" y="-645.9" font-family="Calibri" font-size="8.00" fill="#000000">MFA</text>
<polyline fill="none" stroke="#000000" points="16.124,-639.5 201.876,-639.5 "></polyline>
<text text-anchor="middle" x="71.3848" y="-628.3" font-family="Calibri" font-size="8.00" fill="#000000">Disabling credential caching</text>
<polyline fill="none" stroke="#000000" points="126.6456,-621.9 126.6456,-639.5 "></polyline>
<text text-anchor="middle" x="145.7564" y="-628.3" font-family="Calibri" font-size="8.00" fill="#000000">DRM</text>
<polyline fill="none" stroke="#000000" points="164.8672,-621.9 164.8672,-639.5 "></polyline>
<text text-anchor="middle" x="183.034" y="-628.3" font-family="Calibri" font-size="8.00" fill="#000000">HSM</text>
<polyline fill="none" stroke="#000000" points="16.124,-621.9 201.876,-621.9 "></polyline>
<text text-anchor="middle" x="63.2232" y="-610.7" font-family="Calibri" font-size="8.00" fill="#000000">Password Managers</text>
<polyline fill="none" stroke="#000000" points="110.3224,-604.3 110.3224,-621.9 "></polyline>
<text text-anchor="middle" x="156.0848" y="-610.7" font-family="Calibri" font-size="8.00" fill="#000000">Security awareness</text>
<polyline fill="none" stroke="#000000" points="16.124,-604.3 201.876,-604.3 "></polyline>
<text text-anchor="middle" x="32.7908" y="-593.1" font-family="Calibri" font-size="8.00" fill="#000000">PAM</text>
<polyline fill="none" stroke="#000000" points="49.4576,-586.7 49.4576,-604.3 "></polyline>
<text text-anchor="middle" x="86.23" y="-593.1" font-family="Calibri" font-size="8.00" fill="#000000">System hardening</text>
<polyline fill="none" stroke="#000000" points="123.0024,-586.7 123.0024,-604.3 "></polyline>
<text text-anchor="middle" x="148.7764" y="-593.1" font-family="Calibri" font-size="8.00" fill="#000000">Encryption</text>
<polyline fill="none" stroke="#000000" points="174.5504,-586.7 174.5504,-604.3 "></polyline>
<text text-anchor="middle" x="188.2132" y="-593.1" font-family="Calibri" font-size="8.00" fill="#000000">etc.</text>
</g>
<!-- n_credential_harvesting&#45;&gt;n_countermeasures -->
<g id="edge2" class="edge">
<title>n_credential_harvesting-&gt;n_countermeasures</title>
<path fill="none" stroke="#000000" d="M166.9651,-754.4695C162.7078,-749.89 158.6838,-745.0144 155.305,-740 151.9641,-735.0419 148.8111,-729.8072 145.8437,-724.4104"></path>
<polygon fill="#000000" stroke="#000000" points="148.7602,-722.4347 141.0244,-715.1952 142.5572,-725.6786 148.7602,-722.4347"></polygon>
<text text-anchor="middle" x="191.3475" y="-727.4" font-family="Calibri" font-size="14.00" fill="#000000">countered by</text>
</g>
<!-- n_threat_actor -->
<g id="node5" class="node">
<title>n_threat_actor</title>
<ellipse fill="#d6e7ff" stroke="#000000" cx="292" cy="-621.9" rx="60.7714" ry="18"></ellipse>
<text text-anchor="middle" x="292" y="-617.7" font-family="Calibri" font-size="14.00" fill="#000000">Threat Actor</text>
</g>
<!-- n_credential_harvesting&#45;&gt;n_threat_actor -->
<g id="edge4" class="edge">
<title>n_credential_harvesting-&gt;n_threat_actor</title>
<path fill="none" stroke="#000000" d="M225.5288,-750.871C227.7657,-747.2313 229.9607,-743.5598 232,-740 238.1304,-729.2988 244.3253,-717.8987 250.2886,-706.5619"></path>
<polygon fill="#000000" stroke="#000000" points="253.4946,-707.9834 255.0158,-697.4983 247.2881,-704.7463 253.4946,-707.9834"></polygon>
<text text-anchor="middle" x="293.0523" y="-727.4" font-family="Calibri" font-size="14.00" fill="#000000"> &nbsp;characterized by &nbsp;</text>
</g>
<!-- n_attack_phases -->
<g id="node4" class="node">
<title>n_attack_phases</title>
<polygon fill="#d6e7ff" stroke="#000000" points="246.5172,-863.7077 246.5172,-930.9077 351.4828,-930.9077 351.4828,-863.7077 246.5172,-863.7077"></polygon>
<text text-anchor="middle" x="299" y="-916.1077" font-family="Calibri" font-size="12.00" fill="#000000">Reconnaissance</text>
<polyline fill="none" stroke="#000000" points="246.5172,-908.5077 351.4828,-908.5077 "></polyline>
<text text-anchor="middle" x="299" y="-893.7077" font-family="Calibri" font-size="12.00" fill="#000000">Exploitation</text>
<polyline fill="none" stroke="#000000" points="246.5172,-886.1077 351.4828,-886.1077 "></polyline>
<text text-anchor="middle" x="299" y="-871.3077" font-family="Calibri" font-size="12.00" fill="#000000">Lateral Movement</text>
</g>
<!-- n_attack_phases&#45;&gt;n_credential_harvesting -->
<g id="edge3" class="edge">
<title>n_attack_phases-&gt;n_credential_harvesting</title>
<path fill="none" stroke="#000000" d="M260.2384,-847.3507C255.5174,-841.5748 250.7007,-835.8194 246,-830.4077 242.3065,-826.1555 238.3393,-821.7657 234.362,-817.4696"></path>
<polygon fill="#000000" stroke="#000000" points="257.5859,-849.6368 266.5969,-855.2092 263.0277,-845.2337 257.5859,-849.6368"></polygon>
<text text-anchor="middle" x="284.2756" y="-834.6077" font-family="Calibri" font-size="14.00" fill="#000000"> &nbsp;during &nbsp;</text>
</g>
<!-- n_collection -->
<g id="node6" class="node">
<title>n_collection</title>
<ellipse fill="#d6e7ff" stroke="#000000" cx="572" cy="-452.5" rx="51.0415" ry="18"></ellipse>
<text text-anchor="middle" x="572" y="-448.3" font-family="Calibri" font-size="14.00" fill="#000000">Collection</text>
</g>
<!-- n_threat_actor&#45;&gt;n_collection -->
<g id="edge5" class="edge">
<title>n_threat_actor-&gt;n_collection</title>
<path fill="none" stroke="#000000" d="M349.0161,-615.5737C388.1889,-609.0722 439.9647,-596.0519 479,-570.2 513.9614,-547.0461 541.7344,-506.4562 557.5309,-479.5233"></path>
<polygon fill="#000000" stroke="#000000" points="560.6963,-481.0378 562.6109,-470.6173 554.616,-477.5694 560.6963,-481.0378"></polygon>
<text text-anchor="middle" x="547.2658" y="-549.2" font-family="Calibri" font-size="14.00" fill="#000000"> &nbsp;performs &nbsp;</text>
</g>
<!-- n_objective -->
<g id="node8" class="node">
<title>n_objective</title>
<ellipse fill="#d6e7ff" stroke="#000000" cx="307" cy="-452.5" rx="40.026" ry="18"></ellipse>
<text text-anchor="middle" x="307" y="-448.9" font-family="Calibri" font-size="12.00" fill="#000000">Objective</text>
</g>
<!-- n_threat_actor&#45;&gt;n_objective -->
<g id="edge7" class="edge">
<title>n_threat_actor-&gt;n_objective</title>
<path fill="none" stroke="#000000" d="M293.6053,-603.7712C296.2217,-574.2232 301.4237,-515.4753 304.5186,-480.5231"></path>
<polygon fill="#000000" stroke="#000000" points="308.0105,-480.7682 305.4063,-470.4984 301.0378,-480.1507 308.0105,-480.7682"></polygon>
<text text-anchor="middle" x="315.3296" y="-549.2" font-family="Calibri" font-size="14.00" fill="#000000"> &nbsp;has &nbsp;</text>
</g>
<!-- n_actor_classes -->
<g id="node16" class="node">
<title>n_actor_classes</title>
<polygon fill="#d6e7ff" stroke="#000000" points="96.4532,-434.5 96.4532,-470.5 191.5468,-470.5 191.5468,-434.5 96.4532,-434.5"></polygon>
<text text-anchor="middle" x="124.2252" y="-459.3" font-family="Calibri" font-size="8.00" fill="#000000">Bot/Crawler</text>
<polyline fill="none" stroke="#000000" points="151.9972,-452.9 151.9972,-470.5 "></polyline>
<text text-anchor="middle" x="171.772" y="-459.3" font-family="Calibri" font-size="8.00" fill="#000000">Human</text>
<polyline fill="none" stroke="#000000" points="96.4532,-452.9 191.5468,-452.9 "></polyline>
<text text-anchor="middle" x="121.3352" y="-441.7" font-family="Calibri" font-size="8.00" fill="#000000">Scanner</text>
<polyline fill="none" stroke="#000000" points="146.2172,-435.3 146.2172,-452.9 "></polyline>
<text text-anchor="middle" x="168.436" y="-441.7" font-family="Calibri" font-size="8.00" fill="#000000">Worm</text>
</g>
<!-- n_threat_actor&#45;&gt;n_actor_classes -->
<g id="edge16" class="edge">
<title>n_threat_actor-&gt;n_actor_classes</title>
<path fill="none" stroke="#000000" d="M271.6654,-604.7263C260.5878,-595.0135 246.8845,-582.4013 235.6304,-570.2 225.8276,-559.5722 215.9423,-547.9817 206.4767,-536.354"></path>
<polygon fill="#000000" stroke="#000000" points="208.9956,-533.9016 199.9968,-528.3094 203.5441,-538.2928 208.9956,-533.9016"></polygon>
<text text-anchor="middle" x="263.1848" y="-549.2" font-family="Calibri" font-size="14.00" fill="#000000"> &nbsp;of class &nbsp;</text>
</g>
<!-- n_certificates -->
<g id="node7" class="node">
<title>n_certificates</title>
<ellipse fill="#d6e7ff" stroke="#000000" cx="569" cy="-131" rx="45.5858" ry="18"></ellipse>
<text text-anchor="middle" x="569" y="-127.4" font-family="Calibri" font-size="12.00" fill="#000000">Certificates</text>
</g>
<!-- n_collection&#45;&gt;n_certificates -->
<g id="edge6" class="edge">
<title>n_collection-&gt;n_certificates</title>
<path fill="none" stroke="#000000" d="M571.8301,-434.2936C571.4472,-393.2539 570.4959,-291.3074 569.8016,-216.9027"></path>
<polygon fill="#000000" stroke="#000000" points="573.2987,-216.5628 569.7054,-206.5959 566.299,-216.6282 573.2987,-216.5628"></polygon>
<text text-anchor="middle" x="583.8303" y="-295.7" font-family="Calibri" font-size="14.00" fill="#000000"> &nbsp;of &nbsp;</text>
</g>
<!-- n_opportunistic -->
<g id="node20" class="node">
<title>n_opportunistic</title>
<ellipse fill="#d6e7ff" stroke="#000000" cx="730" cy="-452.5" rx="52.2348" ry="18"></ellipse>
<text text-anchor="middle" x="730" y="-448.9" font-family="Calibri" font-size="12.00" fill="#000000">Opportunistic</text>
</g>
<!-- n_collection&#45;&gt;n_opportunistic -->
<g id="edge20" class="edge">
<title>n_collection-&gt;n_opportunistic</title>
<path fill="none" stroke="#000000" d="M623.2981,-452.5C637.428,-452.5 652.9118,-452.5 667.5946,-452.5"></path>
<polygon fill="#000000" stroke="#000000" points="667.6052,-456.0001 677.6052,-452.5 667.6051,-449.0001 667.6052,-456.0001"></polygon>
<text text-anchor="middle" x="650.4515" y="-459.7" font-family="Calibri" font-size="14.00" fill="#000000"> &nbsp;is &nbsp;</text>
</g>
<!-- n_vulnerable -->
<g id="node15" class="node">
<title>n_vulnerable</title>
<ellipse fill="#d6e7ff" stroke="#000000" cx="460" cy="-45.2" rx="44.0347" ry="18"></ellipse>
<text text-anchor="middle" x="460" y="-41.6" font-family="Calibri" font-size="12.00" fill="#000000">Vulnerable</text>
</g>
<!-- n_certificates&#45;&gt;n_vulnerable -->
<g id="edge15" class="edge">
<title>n_certificates-&gt;n_vulnerable</title>
<path fill="none" stroke="#000000" d="M548.4979,-114.8617C531.5225,-101.4994 507.2202,-82.3697 488.376,-67.5363"></path>
<polygon fill="#000000" stroke="#000000" points="490.4327,-64.701 480.4101,-61.266 486.103,-70.2014 490.4327,-64.701"></polygon>
<text text-anchor="middle" x="525.6676" y="-76.4" font-family="Calibri" font-size="14.00" fill="#000000"> &nbsp;is &nbsp;</text>
</g>
<!-- n_objective&#45;&gt;n_collection -->
<g id="edge21" class="edge">
<title>n_objective-&gt;n_collection</title>
<path fill="none" stroke="#000000" d="M323.2042,-478.3002C338.9674,-500.7366 365.1774,-531.7041 397.1199,-545.2 444.6406,-565.2777 471.3039,-560.3042 512,-528.6 532.97,-512.2633 550.9104,-487.1042 561.5729,-470.2358"></path>
<polygon fill="#000000" stroke="#000000" points="326.0005,-476.1878 317.4901,-469.8772 320.2077,-480.1176 326.0005,-476.1878"></polygon>
<text text-anchor="middle" x="436" y="-557.6" font-family="Calibri" font-size="14.00" fill="#000000"> &nbsp;to &nbsp;</text>
<text text-anchor="middle" x="436" y="-540.8" font-family="Calibri" font-size="14.00" fill="#000000"> &nbsp;accomplish &nbsp;</text>
</g>
<!-- n_compromise -->
<g id="node9" class="node">
<title>n_compromise</title>
<ellipse fill="#d6e7ff" stroke="#000000" cx="447" cy="-452.5" rx="56.4165" ry="18"></ellipse>
<text text-anchor="middle" x="447" y="-448.9" font-family="Calibri" font-size="12.00" fill="#000000">Compromising</text>
</g>
<!-- n_objective&#45;&gt;n_compromise -->
<g id="edge8" class="edge">
<title>n_objective-&gt;n_compromise</title>
<path fill="none" stroke="#000000" d="M347.1184,-452.5C357.6174,-452.5 369.2204,-452.5 380.6909,-452.5"></path>
<polygon fill="#000000" stroke="#000000" points="380.7059,-456.0001 390.7059,-452.5 380.7059,-449.0001 380.7059,-456.0001"></polygon>
<text text-anchor="middle" x="368.9026" y="-459.7" font-family="Calibri" font-size="14.00" fill="#000000"> &nbsp;of &nbsp;</text>
</g>
<!-- n_abuse -->
<g id="node10" class="node">
<title>n_abuse</title>
<ellipse fill="#d6e7ff" stroke="#000000" cx="326" cy="-299.9" rx="36.3841" ry="18"></ellipse>
<text text-anchor="middle" x="326" y="-296.3" font-family="Calibri" font-size="12.00" fill="#000000">Abusing</text>
</g>
<!-- n_objective&#45;&gt;n_abuse -->
<g id="edge9" class="edge">
<title>n_objective-&gt;n_abuse</title>
<path fill="none" stroke="#000000" d="M309.2542,-434.3955C312.5252,-408.1238 318.618,-359.1892 322.4829,-328.1479"></path>
<polygon fill="#000000" stroke="#000000" points="325.9863,-328.3368 323.7488,-317.9809 319.04,-327.4718 325.9863,-328.3368"></polygon>
<text text-anchor="middle" x="325.8303" y="-405.4" font-family="Calibri" font-size="14.00" fill="#000000"> &nbsp;of &nbsp;</text>
</g>
<!-- n_infosec_domain -->
<g id="node11" class="node">
<title>n_infosec_domain</title>
<ellipse fill="#d6e7ff" stroke="#000000" cx="449" cy="-299.9" rx="51.6844" ry="36.4089"></ellipse>
<text text-anchor="middle" x="449" y="-310.7" font-family="Calibri" font-size="12.00" fill="#000000">Information</text>
<text text-anchor="middle" x="449" y="-296.3" font-family="Calibri" font-size="12.00" fill="#000000">Security</text>
<text text-anchor="middle" x="449" y="-281.9" font-family="Calibri" font-size="12.00" fill="#000000">domain</text>
</g>
<!-- n_compromise&#45;&gt;n_infosec_domain -->
<g id="edge10" class="edge">
<title>n_compromise-&gt;n_infosec_domain</title>
<path fill="none" stroke="#000000" d="M447.2373,-434.3955C447.5196,-412.8556 448.0016,-376.081 448.3902,-346.4246"></path>
<polygon fill="#000000" stroke="#000000" points="451.8919,-346.3133 448.5234,-336.2682 444.8925,-346.2215 451.8919,-346.3133"></polygon>
<text text-anchor="middle" x="462.5526" y="-405.4" font-family="Calibri" font-size="14.00" fill="#000000"> &nbsp;the &nbsp;</text>
</g>
<!-- n_identities -->
<g id="node12" class="node">
<title>n_identities</title>
<ellipse fill="#d6e7ff" stroke="#000000" cx="358" cy="-131" rx="38.9814" ry="18"></ellipse>
<text text-anchor="middle" x="358" y="-127.4" font-family="Calibri" font-size="12.00" fill="#000000">Identities</text>
</g>
<!-- n_abuse&#45;&gt;n_identities -->
<g id="edge11" class="edge">
<title>n_abuse-&gt;n_identities</title>
<path fill="none" stroke="#000000" d="M329.4246,-281.8247C335.0062,-252.3639 346.1038,-193.7895 352.7064,-158.9403"></path>
<polygon fill="#000000" stroke="#000000" points="356.1773,-159.4221 354.6001,-148.9453 349.2997,-158.119 356.1773,-159.4221"></polygon>
<text text-anchor="middle" x="357.5526" y="-227.2" font-family="Calibri" font-size="14.00" fill="#000000"> &nbsp;the &nbsp;</text>
</g>
<!-- n_credentials -->
<g id="node13" class="node">
<title>n_credentials</title>
<ellipse fill="#d6e7ff" stroke="#000000" cx="460" cy="-131" rx="45.2476" ry="18"></ellipse>
<text text-anchor="middle" x="460" y="-127.4" font-family="Calibri" font-size="12.00" fill="#000000">Credentials</text>
</g>
<!-- n_infosec_domain&#45;&gt;n_credentials -->
<g id="edge12" class="edge">
<title>n_infosec_domain-&gt;n_credentials</title>
<path fill="none" stroke="#000000" d="M450.3394,-253.1145C450.822,-240.5964 451.4552,-227.0777 452.2706,-214.6 452.4424,-211.9718 452.6284,-209.2982 452.8258,-206.5986"></path>
<polygon fill="#000000" stroke="#000000" points="446.8331,-253.2295 449.9689,-263.3496 453.8285,-253.4828 446.8331,-253.2295"></polygon>
<text text-anchor="middle" x="508.3647" y="-235.6" font-family="Calibri" font-size="14.00" fill="#000000"> &nbsp;may be leveraged &nbsp;</text>
<text text-anchor="middle" x="508.3647" y="-218.8" font-family="Calibri" font-size="14.00" fill="#000000"> &nbsp;to grant access to &nbsp;</text>
</g>
<!-- n_identities&#45;&gt;n_vulnerable -->
<g id="edge13" class="edge">
<title>n_identities-&gt;n_vulnerable</title>
<path fill="none" stroke="#000000" d="M377.1854,-114.8617C392.8993,-101.6435 415.3225,-82.7816 432.874,-68.0177"></path>
<polygon fill="#000000" stroke="#000000" points="435.1542,-70.6733 440.5538,-61.5577 430.6481,-65.3165 435.1542,-70.6733"></polygon>
<text text-anchor="middle" x="438.6676" y="-76.4" font-family="Calibri" font-size="14.00" fill="#000000"> &nbsp;is &nbsp;</text>
</g>
<!-- n_credentials&#45;&gt;n_vulnerable -->
<g id="edge14" class="edge">
<title>n_credentials-&gt;n_vulnerable</title>
<path fill="none" stroke="#000000" d="M460,-112.804C460,-101.4286 460,-86.5378 460,-73.6277"></path>
<polygon fill="#000000" stroke="#000000" points="463.5001,-73.3697 460,-63.3697 456.5001,-73.3698 463.5001,-73.3697"></polygon>
<text text-anchor="middle" x="471.6676" y="-76.4" font-family="Calibri" font-size="14.00" fill="#000000"> &nbsp;is &nbsp;</text>
</g>
<!-- n_session -->
<g id="node14" class="node">
<title>n_session</title>
<ellipse fill="#d6e7ff" stroke="#000000" cx="268" cy="-131" rx="33.7761" ry="18"></ellipse>
<text text-anchor="middle" x="268" y="-127.4" font-family="Calibri" font-size="12.00" fill="#000000">Session</text>
</g>
<!-- n_information_types -->
<g id="node17" class="node">
<title>n_information_types</title>
<polygon fill="#d6e7ff" stroke="#000000" points="27.6804,-273.5 27.6804,-326.3 202.3196,-326.3 202.3196,-273.5 27.6804,-273.5"></polygon>
<text text-anchor="middle" x="74.7284" y="-315.1" font-family="Calibri" font-size="8.00" fill="#000000">Email address</text>
<polyline fill="none" stroke="#000000" points="121.7764,-308.7 121.7764,-326.3 "></polyline>
<text text-anchor="middle" x="161.5508" y="-315.1" font-family="Calibri" font-size="8.00" fill="#000000">Login ID</text>
<polyline fill="none" stroke="#000000" points="27.6804,-308.7 202.3196,-308.7 "></polyline>
<text text-anchor="middle" x="67.01" y="-297.5" font-family="Calibri" font-size="8.00" fill="#000000">Password</text>
<polyline fill="none" stroke="#000000" points="106.3396,-291.1 106.3396,-308.7 "></polyline>
<text text-anchor="middle" x="154.0004" y="-297.5" font-family="Calibri" font-size="8.00" fill="#000000">Password hash</text>
<polyline fill="none" stroke="#000000" points="27.6804,-291.1 202.3196,-291.1 "></polyline>
<text text-anchor="middle" x="53.7856" y="-279.9" font-family="Calibri" font-size="8.00" fill="#000000">Private key</text>
<polyline fill="none" stroke="#000000" points="79.8908,-273.5 79.8908,-291.1 "></polyline>
<text text-anchor="middle" x="105.332" y="-279.9" font-family="Calibri" font-size="8.00" fill="#000000">Session ID</text>
<polyline fill="none" stroke="#000000" points="130.7732,-273.5 130.7732,-291.1 "></polyline>
<text text-anchor="middle" x="152.8836" y="-279.9" font-family="Calibri" font-size="8.00" fill="#000000">SSH key</text>
<polyline fill="none" stroke="#000000" points="174.994,-273.5 174.994,-291.1 "></polyline>
<text text-anchor="middle" x="188.6568" y="-279.9" font-family="Calibri" font-size="8.00" fill="#000000">etc.</text>
</g>
<!-- n_actor_classes&#45;&gt;n_information_types -->
<!-- n_information_types&#45;&gt;n_session -->
<g id="edge17" class="edge">
<title>n_information_types-&gt;n_session</title>
<path fill="none" stroke="#000000" d="M119.8021,-262.9781C123.3046,-246.9252 129.3425,-228.6244 139.7342,-214.6 161.7574,-184.8782 197.7421,-162.7653 226.0002,-148.7721"></path>
<polygon fill="#000000" stroke="#000000" points="119.9561,-254.4633 118.8463,-265 126.2846,-257.4551 119.9561,-254.4633"></polygon>
<text text-anchor="middle" x="176.1329" y="-227.2" font-family="Calibri" font-size="14.00" fill="#000000">of type &nbsp;&nbsp;&nbsp;&nbsp;&nbsp;&nbsp;&nbsp;&nbsp;&nbsp;</text>
</g>
<!-- n_data_sources -->
<g id="node18" class="node">
<title>n_data_sources</title>
<polygon fill="#d6e7ff" stroke="#000000" points="647.1256,-264.7 647.1256,-335.1 824.8744,-335.1 824.8744,-264.7 647.1256,-264.7"></polygon>
<text text-anchor="middle" x="692.954" y="-323.9" font-family="Calibri" font-size="8.00" fill="#000000">Computer memory</text>
<polyline fill="none" stroke="#000000" points="738.7824,-317.5 738.7824,-335.1 "></polyline>
<text text-anchor="middle" x="781.5024" y="-323.9" font-family="Calibri" font-size="8.00" fill="#000000">Phishing website</text>
<polyline fill="none" stroke="#000000" points="647.1256,-317.5 824.8744,-317.5 "></polyline>
<text text-anchor="middle" x="685.4528" y="-306.3" font-family="Calibri" font-size="8.00" fill="#000000">Configuration files</text>
<polyline fill="none" stroke="#000000" points="723.78,-299.9 723.78,-317.5 "></polyline>
<text text-anchor="middle" x="744.8904" y="-306.3" font-family="Calibri" font-size="8.00" fill="#000000">Cookies</text>
<polyline fill="none" stroke="#000000" points="766.0008,-299.9 766.0008,-317.5 "></polyline>
<text text-anchor="middle" x="795.4376" y="-306.3" font-family="Calibri" font-size="8.00" fill="#000000">ID repository</text>
<polyline fill="none" stroke="#000000" points="647.1256,-299.9 824.8744,-299.9 "></polyline>
<text text-anchor="middle" x="669.012" y="-288.7" font-family="Calibri" font-size="8.00" fill="#000000">People</text>
<polyline fill="none" stroke="#000000" points="690.8984,-282.3 690.8984,-299.9 "></polyline>
<text text-anchor="middle" x="730.4464" y="-288.7" font-family="Calibri" font-size="8.00" fill="#000000">Windows registry</text>
<polyline fill="none" stroke="#000000" points="769.9944,-282.3 769.9944,-299.9 "></polyline>
<text text-anchor="middle" x="797.2072" y="-288.7" font-family="Calibri" font-size="8.00" fill="#000000">Databases</text>
<polyline fill="none" stroke="#000000" points="647.1256,-282.3 824.8744,-282.3 "></polyline>
<text text-anchor="middle" x="690.9448" y="-271.1" font-family="Calibri" font-size="8.00" fill="#000000">Previous data breach</text>
<polyline fill="none" stroke="#000000" points="734.764,-264.7 734.764,-282.3 "></polyline>
<text text-anchor="middle" x="763.4816" y="-271.1" font-family="Calibri" font-size="8.00" fill="#000000">Documents</text>
<polyline fill="none" stroke="#000000" points="792.1992,-264.7 792.1992,-282.3 "></polyline>
<text text-anchor="middle" x="808.362" y="-271.1" font-family="Calibri" font-size="8.00" fill="#000000">etc.</text>
</g>
<!-- n_data_sources&#45;&gt;n_certificates -->
<g id="edge18" class="edge">
<title>n_data_sources-&gt;n_certificates</title>
<path fill="none" stroke="#000000" d="M685.6519,-248.979C665.8685,-228.9706 643.121,-205.9643 622.9971,-185.6114"></path>
<polygon fill="#000000" stroke="#000000" points="683.2762,-251.5543 692.796,-256.2045 688.2539,-246.6327 683.2762,-251.5543"></polygon>
<text text-anchor="middle" x="711.5256" y="-227.2" font-family="Calibri" font-size="14.00" fill="#000000"> &nbsp;found in &nbsp;</text>
</g>
<!-- n_methods -->
<g id="node19" class="node">
<title>n_methods</title>
<polygon fill="#d6e7ff" stroke="#000000" points="646.5346,-603.9 646.5346,-639.9 843.4654,-639.9 843.4654,-603.9 646.5346,-603.9"></polygon>
<text text-anchor="middle" x="686.3454" y="-618.3" font-family="Calibri" font-size="12.00" fill="#000000">Direct access</text>
<polyline fill="none" stroke="#000000" points="726.1562,-603.9 726.1562,-639.9 "></polyline>
<text text-anchor="middle" x="754.4818" y="-618.3" font-family="Calibri" font-size="12.00" fill="#000000">Hacking</text>
<polyline fill="none" stroke="#000000" points="782.8074,-603.9 782.8074,-639.9 "></polyline>
<text text-anchor="middle" x="813.1364" y="-618.3" font-family="Calibri" font-size="12.00" fill="#000000">Guessing</text>
</g>
<!-- n_methods&#45;&gt;n_collection -->
<g id="edge19" class="edge">
<title>n_methods-&gt;n_collection</title>
<path fill="none" stroke="#000000" d="M710.4484,-588.0674C673.8515,-552.2321 617.5494,-497.1016 589.35,-469.489"></path>
<polygon fill="#000000" stroke="#000000" points="708.3477,-590.9089 717.9414,-595.4045 713.2451,-585.9074 708.3477,-590.9089"></polygon>
<text text-anchor="middle" x="706.5" y="-549.2" font-family="Calibri" font-size="14.00" fill="#000000"> &nbsp;&nbsp;&nbsp;by &nbsp;</text>
</g>
<!-- n_methods&#45;&gt;n_opportunistic -->
</g>
</svg>