<!DOCTYPE svg [<!ENTITY nbsp "&#160;">]><svg width="1010pt" height="903pt" viewBox="0 0 1010 903" xmlns="http://www.w3.org/2000/svg" xmlns:xlink="http://www.w3.org/1999/xlink">
<g id="graph0" class="graph" transform="scale(1 1) rotate(0) translate(4 898.6077)">
<title>G</title>
<polygon fill="#ffffff" stroke="transparent" points="-4,4 -4,-898.6077 1006,-898.6077 1006,4 -4,4"></polygon>
<text text-anchor="middle" x="501" y="-16" font-family="Calibri" font-size="8.00" fill="#000000">Credential Harvesting (Conceptual Diagram) by Open-Measure</text>
<text text-anchor="middle" x="501" y="-6.4" font-family="Calibri" font-size="8.00" fill="#000000">Licensed under Creative Commons Attribution 4.0 International License</text>
<g id="clust1" class="cluster">
<title>cluster_countermeasures</title>
<polygon fill="none" stroke="#000000" points="8,-506.2 8,-637.6 270,-637.6 270,-506.2 8,-506.2"></polygon>
<text text-anchor="middle" x="139" y="-621" font-family="Calibri" font-size="14.00" fill="#000000">Countermeasures</text>
</g>
<g id="clust2" class="cluster">
<title>cluster_attack_phases</title>
<polygon fill="none" stroke="#000000" points="313,-777.6077 313,-886.6077 433,-886.6077 433,-777.6077 313,-777.6077"></polygon>
<text text-anchor="middle" x="373" y="-870.0077" font-family="Calibri" font-size="14.00" fill="#000000">Attack Phases</text>
</g>
<g id="clust3" class="cluster">
<title>cluster_characteristics</title>
<polygon fill="none" stroke="#000000" points="278,-97 278,-610.3 728,-610.3 728,-97 278,-97"></polygon>
<text text-anchor="middle" x="503" y="-593.7" font-family="Calibri" font-size="14.00" fill="#000000">Distinctive Characteristics</text>
</g>
<g id="clust4" class="cluster">
<title>cluster_information</title>
<polygon fill="none" stroke="#000000" points="327,-105 327,-181.8 638,-181.8 638,-105 327,-105"></polygon>
<text text-anchor="middle" x="482.5" y="-165.2" font-family="Calibri" font-size="14.00" fill="#000000">Information</text>
</g>
<g id="clust5" class="cluster">
<title>cluster_threat_actor_class</title>
<polygon fill="none" stroke="#000000" points="109,-395.6 109,-473.4 257,-473.4 257,-395.6 109,-395.6"></polygon>
<text text-anchor="middle" x="183" y="-456.8" font-family="Calibri" font-size="14.00" fill="#000000">Actor Classes</text>
</g>
<g id="clust6" class="cluster">
<title>cluster_information_types</title>
<polygon fill="none" stroke="#000000" points="24,-242.6 24,-351.6 270,-351.6 270,-242.6 24,-242.6"></polygon>
<text text-anchor="middle" x="147" y="-335" font-family="Calibri" font-size="14.00" fill="#000000">Information Types</text>
</g>
<g id="clust7" class="cluster">
<title>cluster_data_sources</title>
<polygon fill="none" stroke="#000000" points="736,-231.4 736,-362.8 994,-362.8 994,-231.4 736,-231.4"></polygon>
<text text-anchor="middle" x="865" y="-346.2" font-family="Calibri" font-size="14.00" fill="#000000">Data Sources</text>
</g>
<g id="clust8" class="cluster">
<title>cluster_method</title>
<polygon fill="none" stroke="#000000" points="736,-533 736,-610.8 948,-610.8 948,-533 736,-533"></polygon>
<text text-anchor="middle" x="842" y="-594.2" font-family="Calibri" font-size="14.00" fill="#000000">Methods</text>
</g>
<!-- n_cyberattack_class -->
<g id="node1" class="node">
<title>n_cyberattack_class</title>
<ellipse fill="#ffffff" stroke="#000000" cx="237" cy="-819.7077" rx="65.945" ry="19.4695"></ellipse>
<text text-anchor="middle" x="237" y="-814.9077" font-family="Calibri" font-size="16.00" fill="#000000">Cyberattack</text>
</g>
<!-- n_credential_harvesting -->
<g id="node2" class="node">
<title>n_credential_harvesting</title>
<g id="a_node2"><a xlink:href="https://open-measure.atlassian.net/wiki/spaces/DIC/pages/1254719498" xlink:title="Credential\nHarvesting">
<ellipse fill="#5599ff" stroke="#000000" cx="277" cy="-707.6039" rx="67.3102" ry="36.4089"></ellipse>
<text text-anchor="middle" x="277" y="-713.0039" font-family="Calibri" font-size="18.00" fill="#000000">Credential</text>
<text text-anchor="middle" x="277" y="-691.4039" font-family="Calibri" font-size="18.00" fill="#000000">Harvesting</text>
</a>
</g>
</g>
<!-- n_cyberattack_class&#45;&gt;n_credential_harvesting -->
<g id="edge1" class="edge">
<title>n_cyberattack_class-&gt;n_credential_harvesting</title>
<path fill="none" stroke="#000000" d="M247.2506,-790.9793C252.4263,-776.474 258.7551,-758.7369 264.2428,-743.3571"></path>
<polygon fill="#000000" stroke="#000000" points="243.9405,-789.8417 243.8762,-800.4364 250.5334,-792.1942 243.9405,-789.8417"></polygon>
<text text-anchor="middle" x="288.1848" y="-757.0077" font-family="Calibri" font-size="14.00" fill="#000000"> &nbsp;of class &nbsp;</text>
</g>
<!-- n_countermeasures -->
<g id="node3" class="node">
<title>n_countermeasures</title>
<polygon fill="#d6e7ff" stroke="#000000" points="15.686,-514.7 15.686,-604.3 262.314,-604.3 262.314,-514.7 15.686,-514.7"></polygon>
<text text-anchor="middle" x="69.0034" y="-589.5" font-family="Calibri" font-size="12.00" fill="#000000">Access controls</text>
<polyline fill="none" stroke="#000000" points="122.3208,-581.9 122.3208,-604.3 "></polyline>
<text text-anchor="middle" x="162.9772" y="-589.5" font-family="Calibri" font-size="12.00" fill="#000000">Deception</text>
<polyline fill="none" stroke="#000000" points="203.6336,-581.9 203.6336,-604.3 "></polyline>
<text text-anchor="middle" x="232.6338" y="-589.5" font-family="Calibri" font-size="12.00" fill="#000000">MFA</text>
<polyline fill="none" stroke="#000000" points="15.686,-581.9 262.314,-581.9 "></polyline>
<text text-anchor="middle" x="93.3272" y="-567.1" font-family="Calibri" font-size="12.00" fill="#000000">Disabling credential caching</text>
<polyline fill="none" stroke="#000000" points="170.9684,-559.5 170.9684,-581.9 "></polyline>
<text text-anchor="middle" x="194.1346" y="-567.1" font-family="Calibri" font-size="12.00" fill="#000000">DRM</text>
<polyline fill="none" stroke="#000000" points="217.3008,-559.5 217.3008,-581.9 "></polyline>
<text text-anchor="middle" x="239.801" y="-567.1" font-family="Calibri" font-size="12.00" fill="#000000">HSM</text>
<polyline fill="none" stroke="#000000" points="15.686,-559.5 262.314,-559.5 "></polyline>
<text text-anchor="middle" x="78.3348" y="-544.7" font-family="Calibri" font-size="12.00" fill="#000000">Password Managers</text>
<polyline fill="none" stroke="#000000" points="140.9836,-537.1 140.9836,-559.5 "></polyline>
<text text-anchor="middle" x="201.6272" y="-544.7" font-family="Calibri" font-size="12.00" fill="#000000">Security awareness</text>
<polyline fill="none" stroke="#000000" points="15.686,-537.1 262.314,-537.1 "></polyline>
<text text-anchor="middle" x="36.6862" y="-522.3" font-family="Calibri" font-size="12.00" fill="#000000">PAM</text>
<polyline fill="none" stroke="#000000" points="57.6864,-514.7 57.6864,-537.1 "></polyline>
<text text-anchor="middle" x="108.845" y="-522.3" font-family="Calibri" font-size="12.00" fill="#000000">System hardening</text>
<polyline fill="none" stroke="#000000" points="160.0036,-514.7 160.0036,-537.1 "></polyline>
<text text-anchor="middle" x="194.6646" y="-522.3" font-family="Calibri" font-size="12.00" fill="#000000">Encryption</text>
<polyline fill="none" stroke="#000000" points="229.3256,-514.7 229.3256,-537.1 "></polyline>
<text text-anchor="middle" x="245.8198" y="-522.3" font-family="Calibri" font-size="12.00" fill="#000000">etc.</text>
</g>
<!-- n_credential_harvesting&#45;&gt;n_countermeasures -->
<g id="edge2" class="edge">
<title>n_credential_harvesting-&gt;n_countermeasures</title>
<path fill="none" stroke="#000000" d="M246.7153,-675.1018C238.2396,-666.0056 228.6116,-655.6726 218.681,-645.015"></path>
<polygon fill="#000000" stroke="#000000" points="221.146,-642.5262 211.7682,-637.596 216.0246,-647.2982 221.146,-642.5262"></polygon>
<text text-anchor="middle" x="268.3475" y="-649.8" font-family="Calibri" font-size="14.00" fill="#000000">countered by</text>
</g>
<!-- n_threat_actor -->
<g id="node5" class="node">
<title>n_threat_actor</title>
<ellipse fill="#d6e7ff" stroke="#000000" cx="393" cy="-559.5" rx="60.7714" ry="18"></ellipse>
<text text-anchor="middle" x="393" y="-555.3" font-family="Calibri" font-size="14.00" fill="#000000">Threat Actor</text>
</g>
<!-- n_credential_harvesting&#45;&gt;n_threat_actor -->
<g id="edge4" class="edge">
<title>n_credential_harvesting-&gt;n_threat_actor</title>
<path fill="none" stroke="#000000" d="M303.3222,-673.9968C316.2154,-657.5353 332.1213,-637.2273 346.9402,-618.3072"></path>
<polygon fill="#000000" stroke="#000000" points="349.8019,-620.3297 353.2126,-610.2988 344.291,-616.0133 349.8019,-620.3297"></polygon>
<text text-anchor="middle" x="377.0523" y="-649.8" font-family="Calibri" font-size="14.00" fill="#000000"> &nbsp;characterized by &nbsp;</text>
</g>
<!-- n_attack_phases -->
<g id="node4" class="node">
<title>n_attack_phases</title>
<polygon fill="#d6e7ff" stroke="#000000" points="320.5172,-786.1077 320.5172,-853.3077 425.4828,-853.3077 425.4828,-786.1077 320.5172,-786.1077"></polygon>
<text text-anchor="middle" x="373" y="-838.5077" font-family="Calibri" font-size="12.00" fill="#000000">Reconnaissance</text>
<polyline fill="none" stroke="#000000" points="320.5172,-830.9077 425.4828,-830.9077 "></polyline>
<text text-anchor="middle" x="373" y="-816.1077" font-family="Calibri" font-size="12.00" fill="#000000">Exploitation</text>
<polyline fill="none" stroke="#000000" points="320.5172,-808.5077 425.4828,-808.5077 "></polyline>
<text text-anchor="middle" x="373" y="-793.7077" font-family="Calibri" font-size="12.00" fill="#000000">Lateral Movement</text>
</g>
<!-- n_attack_phases&#45;&gt;n_credential_harvesting -->
<g id="edge3" class="edge">
<title>n_attack_phases-&gt;n_credential_harvesting</title>
<path fill="none" stroke="#000000" d="M334.2384,-769.7507C329.5174,-763.9748 324.7007,-758.2194 320,-752.8077 316.3065,-748.5555 312.3393,-744.1657 308.362,-739.8696"></path>
<polygon fill="#000000" stroke="#000000" points="331.5859,-772.0368 340.5969,-777.6092 337.0277,-767.6337 331.5859,-772.0368"></polygon>
<text text-anchor="middle" x="358.2756" y="-757.0077" font-family="Calibri" font-size="14.00" fill="#000000"> &nbsp;during &nbsp;</text>
</g>
<!-- n_collection -->
<g id="node6" class="node">
<title>n_collection</title>
<ellipse fill="#d6e7ff" stroke="#000000" cx="669" cy="-422.1" rx="51.0415" ry="18"></ellipse>
<text text-anchor="middle" x="669" y="-417.9" font-family="Calibri" font-size="14.00" fill="#000000">Collection</text>
</g>
<!-- n_threat_actor&#45;&gt;n_collection -->
<g id="edge5" class="edge">
<title>n_threat_actor-&gt;n_collection</title>
<path fill="none" stroke="#000000" d="M424.1242,-544.0056C474.7663,-518.7946 574.8855,-468.9526 630.1275,-441.4518"></path>
<polygon fill="#000000" stroke="#000000" points="631.8538,-444.5021 639.2461,-436.9123 628.7342,-438.2357 631.8538,-444.5021"></polygon>
<text text-anchor="middle" x="579.2658" y="-485.6" font-family="Calibri" font-size="14.00" fill="#000000"> &nbsp;performs &nbsp;</text>
</g>
<!-- n_objective -->
<g id="node8" class="node">
<title>n_objective</title>
<ellipse fill="#d6e7ff" stroke="#000000" cx="482" cy="-422.1" rx="40.026" ry="18"></ellipse>
<text text-anchor="middle" x="482" y="-418.5" font-family="Calibri" font-size="12.00" fill="#000000">Objective</text>
</g>
<!-- n_threat_actor&#45;&gt;n_objective -->
<g id="edge7" class="edge">
<title>n_threat_actor-&gt;n_objective</title>
<path fill="none" stroke="#000000" d="M404.453,-541.8186C419.8065,-518.1155 447.1841,-475.8496 464.9614,-448.4045"></path>
<polygon fill="#000000" stroke="#000000" points="468.0919,-450.0094 470.591,-439.7135 462.2168,-446.2038 468.0919,-450.0094"></polygon>
<text text-anchor="middle" x="458.3296" y="-485.6" font-family="Calibri" font-size="14.00" fill="#000000"> &nbsp;has &nbsp;</text>
</g>
<!-- n_actor_classes -->
<g id="node15" class="node">
<title>n_actor_classes</title>
<polygon fill="#d6e7ff" stroke="#000000" points="117.3408,-404.1 117.3408,-440.1 248.6592,-440.1 248.6592,-404.1 117.3408,-404.1"></polygon>
<text text-anchor="middle" x="134.0096" y="-418.5" font-family="Calibri" font-size="12.00" fill="#000000">Bot</text>
<polyline fill="none" stroke="#000000" points="150.6784,-404.1 150.6784,-440.1 "></polyline>
<text text-anchor="middle" x="176.3406" y="-418.5" font-family="Calibri" font-size="12.00" fill="#000000">Human</text>
<polyline fill="none" stroke="#000000" points="202.0028,-404.1 202.0028,-440.1 "></polyline>
<text text-anchor="middle" x="225.331" y="-418.5" font-family="Calibri" font-size="12.00" fill="#000000">Worm</text>
</g>
<!-- n_threat_actor&#45;&gt;n_actor_classes -->
<g id="edge16" class="edge">
<title>n_threat_actor-&gt;n_actor_classes</title>
<path fill="none" stroke="#000000" d="M367.6691,-542.9263C342.3862,-526.3841 302.153,-500.0601 265.6851,-476.1997"></path>
<polygon fill="#000000" stroke="#000000" points="267.2809,-473.0612 256.9965,-470.5149 263.4483,-478.9188 267.2809,-473.0612"></polygon>
<text text-anchor="middle" x="322.1848" y="-485.6" font-family="Calibri" font-size="14.00" fill="#000000"> &nbsp;of class &nbsp;</text>
</g>
<!-- n_certificates -->
<g id="node7" class="node">
<title>n_certificates</title>
<ellipse fill="#d6e7ff" stroke="#000000" cx="584" cy="-131" rx="45.5858" ry="18"></ellipse>
<text text-anchor="middle" x="584" y="-127.4" font-family="Calibri" font-size="12.00" fill="#000000">Certificates</text>
</g>
<!-- n_collection&#45;&gt;n_certificates -->
<g id="edge6" class="edge">
<title>n_collection-&gt;n_certificates</title>
<path fill="none" stroke="#000000" d="M663.6829,-403.8904C651.5351,-362.2878 621.2904,-258.7085 601.7531,-191.7991"></path>
<polygon fill="#000000" stroke="#000000" points="604.9955,-190.4161 598.8328,-181.798 598.2761,-192.3782 604.9955,-190.4161"></polygon>
<text text-anchor="middle" x="662.8303" y="-280.5" font-family="Calibri" font-size="14.00" fill="#000000"> &nbsp;of &nbsp;</text>
</g>
<!-- n_indiscriminate -->
<g id="node19" class="node">
<title>n_indiscriminate</title>
<ellipse fill="#d6e7ff" stroke="#000000" cx="828" cy="-422.1" rx="54.4759" ry="18"></ellipse>
<text text-anchor="middle" x="828" y="-418.5" font-family="Calibri" font-size="12.00" fill="#000000">Indiscriminate</text>
</g>
<!-- n_collection&#45;&gt;n_indiscriminate -->
<g id="edge20" class="edge">
<title>n_collection-&gt;n_indiscriminate</title>
<path fill="none" stroke="#000000" d="M720.6227,-422.1C734.1946,-422.1 749.0076,-422.1 763.1763,-422.1"></path>
<polygon fill="#000000" stroke="#000000" points="763.3525,-425.6001 773.3525,-422.1 763.3525,-418.6001 763.3525,-425.6001"></polygon>
<text text-anchor="middle" x="746.8911" y="-429.3" font-family="Calibri" font-size="14.00" fill="#000000"> &nbsp;is &nbsp;</text>
</g>
<!-- n_vulnerable -->
<g id="node14" class="node">
<title>n_vulnerable</title>
<ellipse fill="#d6e7ff" stroke="#000000" cx="482" cy="-45.2" rx="44.0347" ry="18"></ellipse>
<text text-anchor="middle" x="482" y="-41.6" font-family="Calibri" font-size="12.00" fill="#000000">Vulnerable</text>
</g>
<!-- n_certificates&#45;&gt;n_vulnerable -->
<g id="edge15" class="edge">
<title>n_certificates-&gt;n_vulnerable</title>
<path fill="none" stroke="#000000" d="M564.3334,-114.4569C548.8114,-101.4002 526.9673,-83.0254 509.6794,-68.4832"></path>
<polygon fill="#000000" stroke="#000000" points="511.5119,-65.4511 501.6063,-61.6923 507.0059,-70.808 511.5119,-65.4511"></polygon>
<text text-anchor="middle" x="544.6676" y="-76.4" font-family="Calibri" font-size="14.00" fill="#000000"> &nbsp;is &nbsp;</text>
</g>
<!-- n_objective&#45;&gt;n_collection -->
<g id="edge21" class="edge">
<title>n_objective-&gt;n_collection</title>
<path fill="none" stroke="#000000" d="M532.2915,-422.1C558.6933,-422.1 590.9873,-422.1 617.5574,-422.1"></path>
<polygon fill="#000000" stroke="#000000" points="532.1162,-418.6001 522.1162,-422.1 532.1162,-425.6001 532.1162,-418.6001"></polygon>
<text text-anchor="middle" x="569.8714" y="-446.1" font-family="Calibri" font-size="14.00" fill="#000000"> &nbsp;to &nbsp;</text>
<text text-anchor="middle" x="569.8714" y="-429.3" font-family="Calibri" font-size="14.00" fill="#000000"> &nbsp;accomplish &nbsp;</text>
</g>
<!-- n_compromise -->
<g id="node9" class="node">
<title>n_compromise</title>
<ellipse fill="#d6e7ff" stroke="#000000" cx="342" cy="-422.1" rx="56.4165" ry="18"></ellipse>
<text text-anchor="middle" x="342" y="-418.5" font-family="Calibri" font-size="12.00" fill="#000000">Compromising</text>
</g>
<!-- n_objective&#45;&gt;n_compromise -->
<g id="edge8" class="edge">
<title>n_objective-&gt;n_compromise</title>
<path fill="none" stroke="#000000" d="M441.5987,-422.1C431.3169,-422.1 419.9909,-422.1 408.7755,-422.1"></path>
<polygon fill="#000000" stroke="#000000" points="408.5398,-418.6001 398.5398,-422.1 408.5398,-425.6001 408.5398,-418.6001"></polygon>
<text text-anchor="middle" x="420.0974" y="-429.3" font-family="Calibri" font-size="14.00" fill="#000000"> &nbsp;of &nbsp;</text>
</g>
<!-- n_abuse -->
<g id="node10" class="node">
<title>n_abuse</title>
<ellipse fill="#d6e7ff" stroke="#000000" cx="482" cy="-284.7" rx="36.3841" ry="18"></ellipse>
<text text-anchor="middle" x="482" y="-281.1" font-family="Calibri" font-size="12.00" fill="#000000">Abusing</text>
</g>
<!-- n_objective&#45;&gt;n_abuse -->
<g id="edge9" class="edge">
<title>n_objective-&gt;n_abuse</title>
<path fill="none" stroke="#000000" d="M482,-403.8543C482,-380.6543 482,-340.3456 482,-313.1069"></path>
<polygon fill="#000000" stroke="#000000" points="485.5001,-313.0211 482,-303.0211 478.5001,-313.0212 485.5001,-313.0211"></polygon>
<text text-anchor="middle" x="494.8303" y="-375" font-family="Calibri" font-size="14.00" fill="#000000"> &nbsp;of &nbsp;</text>
</g>
<!-- n_information_system -->
<g id="node11" class="node">
<title>n_information_system</title>
<ellipse fill="#d6e7ff" stroke="#000000" cx="343" cy="-284.7" rx="51.6844" ry="26.0431"></ellipse>
<text text-anchor="middle" x="343" y="-288.3" font-family="Calibri" font-size="12.00" fill="#000000">Information</text>
<text text-anchor="middle" x="343" y="-273.9" font-family="Calibri" font-size="12.00" fill="#000000">System</text>
</g>
<!-- n_compromise&#45;&gt;n_information_system -->
<g id="edge10" class="edge">
<title>n_compromise-&gt;n_information_system</title>
<path fill="none" stroke="#000000" d="M342.1328,-403.8543C342.2862,-382.781 342.5423,-347.5918 342.7365,-320.9038"></path>
<polygon fill="#000000" stroke="#000000" points="346.2372,-320.8033 342.8102,-310.7781 339.2374,-320.7523 346.2372,-320.8033"></polygon>
<text text-anchor="middle" x="357.5526" y="-375" font-family="Calibri" font-size="14.00" fill="#000000"> &nbsp;the &nbsp;</text>
</g>
<!-- n_identities -->
<g id="node12" class="node">
<title>n_identities</title>
<ellipse fill="#d6e7ff" stroke="#000000" cx="482" cy="-131" rx="38.9814" ry="18"></ellipse>
<text text-anchor="middle" x="482" y="-127.4" font-family="Calibri" font-size="12.00" fill="#000000">Identities</text>
</g>
<!-- n_abuse&#45;&gt;n_identities -->
<g id="edge11" class="edge">
<title>n_abuse-&gt;n_identities</title>
<path fill="none" stroke="#000000" d="M482,-266.465C482,-240.004 482,-190.7166 482,-159.4515"></path>
<polygon fill="#000000" stroke="#000000" points="485.5001,-159.2112 482,-149.2112 478.5001,-159.2113 485.5001,-159.2112"></polygon>
<text text-anchor="middle" x="497.5526" y="-202.4" font-family="Calibri" font-size="14.00" fill="#000000"> &nbsp;the &nbsp;</text>
</g>
<!-- n_credentials -->
<g id="node13" class="node">
<title>n_credentials</title>
<ellipse fill="#d6e7ff" stroke="#000000" cx="380" cy="-131" rx="45.2476" ry="18"></ellipse>
<text text-anchor="middle" x="380" y="-127.4" font-family="Calibri" font-size="12.00" fill="#000000">Credentials</text>
</g>
<!-- n_information_system&#45;&gt;n_credentials -->
<g id="edge12" class="edge">
<title>n_information_system-&gt;n_credentials</title>
<path fill="none" stroke="#000000" d="M351.3476,-248.5589C355.4751,-230.8368 360.5684,-209.1848 365.2706,-189.8 365.9053,-187.1836 366.5602,-184.5029 367.225,-181.7969"></path>
<polygon fill="#000000" stroke="#000000" points="347.8937,-247.9598 349.0393,-258.4925 354.712,-249.5443 347.8937,-247.9598"></polygon>
<text text-anchor="middle" x="421.3647" y="-210.8" font-family="Calibri" font-size="14.00" fill="#000000"> &nbsp;may be leveraged &nbsp;</text>
<text text-anchor="middle" x="421.3647" y="-194" font-family="Calibri" font-size="14.00" fill="#000000"> &nbsp;to grant access to &nbsp;</text>
</g>
<!-- n_identities&#45;&gt;n_vulnerable -->
<g id="edge13" class="edge">
<title>n_identities-&gt;n_vulnerable</title>
<path fill="none" stroke="#000000" d="M482,-112.804C482,-101.4286 482,-86.5378 482,-73.6277"></path>
<polygon fill="#000000" stroke="#000000" points="485.5001,-73.3697 482,-63.3697 478.5001,-73.3698 485.5001,-73.3697"></polygon>
<text text-anchor="middle" x="493.6676" y="-76.4" font-family="Calibri" font-size="14.00" fill="#000000"> &nbsp;is &nbsp;</text>
</g>
<!-- n_credentials&#45;&gt;n_vulnerable -->
<g id="edge14" class="edge">
<title>n_credentials-&gt;n_vulnerable</title>
<path fill="none" stroke="#000000" d="M399.6666,-114.4569C415.1886,-101.4002 437.0327,-83.0254 454.3206,-68.4832"></path>
<polygon fill="#000000" stroke="#000000" points="456.9941,-70.808 462.3937,-61.6923 452.4881,-65.4511 456.9941,-70.808"></polygon>
<text text-anchor="middle" x="460.6676" y="-76.4" font-family="Calibri" font-size="14.00" fill="#000000"> &nbsp;is &nbsp;</text>
</g>
<!-- n_information_types -->
<g id="node16" class="node">
<title>n_information_types</title>
<polygon fill="#d6e7ff" stroke="#000000" points="32.0206,-251.1 32.0206,-318.3 261.9794,-318.3 261.9794,-251.1 32.0206,-251.1"></polygon>
<text text-anchor="middle" x="94.8426" y="-303.5" font-family="Calibri" font-size="12.00" fill="#000000">Email address</text>
<polyline fill="none" stroke="#000000" points="157.6646,-295.9 157.6646,-318.3 "></polyline>
<text text-anchor="middle" x="209.3262" y="-303.5" font-family="Calibri" font-size="12.00" fill="#000000">Login ID</text>
<polyline fill="none" stroke="#000000" points="32.0206,-295.9 261.9794,-295.9 "></polyline>
<text text-anchor="middle" x="83.015" y="-281.1" font-family="Calibri" font-size="12.00" fill="#000000">Password</text>
<polyline fill="none" stroke="#000000" points="134.0094,-273.5 134.0094,-295.9 "></polyline>
<text text-anchor="middle" x="197.5006" y="-281.1" font-family="Calibri" font-size="12.00" fill="#000000">Password hash</text>
<polyline fill="none" stroke="#000000" points="32.0206,-273.5 261.9794,-273.5 "></polyline>
<text text-anchor="middle" x="67.1784" y="-258.7" font-family="Calibri" font-size="12.00" fill="#000000">Private key</text>
<polyline fill="none" stroke="#000000" points="102.3362,-251.1 102.3362,-273.5 "></polyline>
<text text-anchor="middle" x="136.498" y="-258.7" font-family="Calibri" font-size="12.00" fill="#000000">Session ID</text>
<polyline fill="none" stroke="#000000" points="170.6598,-251.1 170.6598,-273.5 "></polyline>
<text text-anchor="middle" x="199.8254" y="-258.7" font-family="Calibri" font-size="12.00" fill="#000000">SSH key</text>
<polyline fill="none" stroke="#000000" points="228.991,-251.1 228.991,-273.5 "></polyline>
<text text-anchor="middle" x="245.4852" y="-258.7" font-family="Calibri" font-size="12.00" fill="#000000">etc.</text>
</g>
<!-- n_actor_classes&#45;&gt;n_information_types -->
<!-- n_information_types&#45;&gt;n_credentials -->
<g id="edge17" class="edge">
<title>n_information_types-&gt;n_credentials</title>
<path fill="none" stroke="#000000" d="M162.539,-241.7544C171.0439,-223.5181 183.2626,-203.3794 199.7342,-189.8 236.0982,-159.8209 288.1676,-144.9832 327.0035,-137.7274"></path>
<polygon fill="#000000" stroke="#000000" points="167.2682,-233.7604 161.4271,-242.6 171.5057,-239.3323 167.2682,-233.7604"></polygon>
<text text-anchor="middle" x="236.1329" y="-202.4" font-family="Calibri" font-size="14.00" fill="#000000">of type &nbsp;&nbsp;&nbsp;&nbsp;&nbsp;&nbsp;&nbsp;&nbsp;&nbsp;</text>
</g>
<!-- n_data_sources -->
<g id="node17" class="node">
<title>n_data_sources</title>
<polygon fill="#d6e7ff" stroke="#000000" points="743.6884,-239.9 743.6884,-329.5 986.3116,-329.5 986.3116,-239.9 743.6884,-239.9"></polygon>
<text text-anchor="middle" x="806.181" y="-314.7" font-family="Calibri" font-size="12.00" fill="#000000">Computer memory</text>
<polyline fill="none" stroke="#000000" points="868.6736,-307.1 868.6736,-329.5 "></polyline>
<text text-anchor="middle" x="927.0036" y="-314.7" font-family="Calibri" font-size="12.00" fill="#000000">Phishing website</text>
<polyline fill="none" stroke="#000000" points="743.6884,-307.1 986.3116,-307.1 "></polyline>
<text text-anchor="middle" x="797.1792" y="-292.3" font-family="Calibri" font-size="12.00" fill="#000000">Configuration files</text>
<polyline fill="none" stroke="#000000" points="850.67,-284.7 850.67,-307.1 "></polyline>
<text text-anchor="middle" x="878.3356" y="-292.3" font-family="Calibri" font-size="12.00" fill="#000000">Cookies</text>
<polyline fill="none" stroke="#000000" points="906.0012,-284.7 906.0012,-307.1 "></polyline>
<text text-anchor="middle" x="946.1564" y="-292.3" font-family="Calibri" font-size="12.00" fill="#000000">ID repository</text>
<polyline fill="none" stroke="#000000" points="743.6884,-284.7 986.3116,-284.7 "></polyline>
<text text-anchor="middle" x="772.518" y="-269.9" font-family="Calibri" font-size="12.00" fill="#000000">People</text>
<polyline fill="none" stroke="#000000" points="801.3476,-262.3 801.3476,-284.7 "></polyline>
<text text-anchor="middle" x="856.6696" y="-269.9" font-family="Calibri" font-size="12.00" fill="#000000">Windows registry</text>
<polyline fill="none" stroke="#000000" points="911.9916,-262.3 911.9916,-284.7 "></polyline>
<text text-anchor="middle" x="948.8108" y="-269.9" font-family="Calibri" font-size="12.00" fill="#000000">Databases</text>
<polyline fill="none" stroke="#000000" points="743.6884,-262.3 986.3116,-262.3 "></polyline>
<text text-anchor="middle" x="805.1672" y="-247.5" font-family="Calibri" font-size="12.00" fill="#000000">Previous data breach</text>
<polyline fill="none" stroke="#000000" points="866.646,-239.9 866.646,-262.3 "></polyline>
<text text-anchor="middle" x="905.9724" y="-247.5" font-family="Calibri" font-size="12.00" fill="#000000">Documents</text>
<polyline fill="none" stroke="#000000" points="945.2988,-239.9 945.2988,-262.3 "></polyline>
<text text-anchor="middle" x="965.793" y="-247.5" font-family="Calibri" font-size="12.00" fill="#000000">etc.</text>
</g>
<!-- n_data_sources&#45;&gt;n_certificates -->
<g id="edge18" class="edge">
<title>n_data_sources-&gt;n_certificates</title>
<path fill="none" stroke="#000000" d="M788.8011,-225.5898C770.7169,-212.9134 751.1125,-200.2155 732,-189.8 702.0849,-173.4976 666.6785,-159.2659 637.9983,-148.8886"></path>
<polygon fill="#000000" stroke="#000000" points="786.8148,-228.472 796.9958,-231.4042 790.8655,-222.763 786.8148,-228.472"></polygon>
<text text-anchor="middle" x="815.5256" y="-202.4" font-family="Calibri" font-size="14.00" fill="#000000"> &nbsp;found in &nbsp;</text>
</g>
<!-- n_methods -->
<g id="node18" class="node">
<title>n_methods</title>
<polygon fill="#d6e7ff" stroke="#000000" points="743.5346,-541.5 743.5346,-577.5 940.4654,-577.5 940.4654,-541.5 743.5346,-541.5"></polygon>
<text text-anchor="middle" x="783.3454" y="-555.9" font-family="Calibri" font-size="12.00" fill="#000000">Direct access</text>
<polyline fill="none" stroke="#000000" points="823.1562,-541.5 823.1562,-577.5 "></polyline>
<text text-anchor="middle" x="851.4818" y="-555.9" font-family="Calibri" font-size="12.00" fill="#000000">Hacking</text>
<polyline fill="none" stroke="#000000" points="879.8074,-541.5 879.8074,-577.5 "></polyline>
<text text-anchor="middle" x="910.1364" y="-555.9" font-family="Calibri" font-size="12.00" fill="#000000">Guessing</text>
</g>
<!-- n_methods&#45;&gt;n_collection -->
<g id="edge19" class="edge">
<title>n_methods-&gt;n_collection</title>
<path fill="none" stroke="#000000" d="M800.5233,-526.5584C765.6375,-498.8514 717.2052,-460.3855 689.9001,-438.6993"></path>
<polygon fill="#000000" stroke="#000000" points="798.627,-529.5219 808.6345,-533.0005 802.9805,-524.0404 798.627,-529.5219"></polygon>
<text text-anchor="middle" x="777.5" y="-485.6" font-family="Calibri" font-size="14.00" fill="#000000"> &nbsp;&nbsp;&nbsp;by &nbsp;</text>
</g>
<!-- n_methods&#45;&gt;n_indiscriminate -->
</g>
</svg>