<?xml version="1.0" encoding="UTF-8" standalone="no"?>
<!DOCTYPE svg PUBLIC "-//W3C//DTD SVG 1.1//EN"
 "http://www.w3.org/Graphics/SVG/1.1/DTD/svg11.dtd">
<!-- Generated by graphviz version 2.38.0 (20140413.2041)
 -->
<!-- Title: G Pages: 1 -->
<svg width="3642pt" height="3991pt"
 viewBox="0.00 0.00 874.00 957.88" xmlns="http://www.w3.org/2000/svg" xmlns:xlink="http://www.w3.org/1999/xlink">
<g id="graph0" class="graph" transform="scale(4.16667 4.16667) rotate(0) translate(4 953.882)">
<title>G</title>
<polygon fill="white" stroke="none" points="-4,4 -4,-953.882 870,-953.882 870,4 -4,4"/>
<text text-anchor="middle" x="433" y="-15.6" font-family="Calibri" font-size="8.00">Credential Harvesting (Conceptual Diagram) by Open&#45;Measure</text>
<text text-anchor="middle" x="433" y="-6.6" font-family="Calibri" font-size="8.00">Licensed under Creative Commons Attribution 4.0 International License</text>
<g id="clust1" class="cluster"><title>cluster_countermeasures</title>
<polygon fill="none" stroke="black" points="8,-553 8,-684 220,-684 220,-553 8,-553"/>
<text text-anchor="middle" x="114" y="-668.8" font-family="Calibri" font-size="14.00">Countermeasures</text>
</g>
<g id="clust7" class="cluster"><title>cluster_data_sources</title>
<polygon fill="none" stroke="black" points="642,-246 642,-377 846,-377 846,-246 642,-246"/>
<text text-anchor="middle" x="744" y="-361.8" font-family="Calibri" font-size="14.00">Data Sources</text>
</g>
<g id="clust2" class="cluster"><title>cluster_attack_phases</title>
<polygon fill="none" stroke="black" points="260,-815.882 260,-941.882 382,-941.882 382,-815.882 260,-815.882"/>
<text text-anchor="middle" x="321" y="-926.682" font-family="Calibri" font-size="14.00">Attack Phases</text>
</g>
<g id="clust3" class="cluster"><title>cluster_characteristics</title>
<polygon fill="none" stroke="black" points="228,-94 228,-667.5 634,-667.5 634,-94 228,-94"/>
<text text-anchor="middle" x="431" y="-652.3" font-family="Calibri" font-size="14.00">Distinctive Characteristics</text>
</g>
<g id="clust4" class="cluster"><title>cluster_information</title>
<polygon fill="none" stroke="black" points="236,-102 236,-200 626,-200 626,-102 236,-102"/>
<text text-anchor="middle" x="431" y="-184.8" font-family="Calibri" font-size="14.00">Autentication&#45;related Information</text>
</g>
<g id="clust5" class="cluster"><title>cluster_threat_actor_class</title>
<polygon fill="none" stroke="black" points="92,-408 92,-507 210,-507 210,-408 92,-408"/>
<text text-anchor="middle" x="151" y="-491.8" font-family="Calibri" font-size="14.00">Actor Classes</text>
</g>
<g id="clust6" class="cluster"><title>cluster_information_types</title>
<polygon fill="none" stroke="black" points="22,-254.5 22,-368.5 220,-368.5 220,-254.5 22,-254.5"/>
<text text-anchor="middle" x="121" y="-353.3" font-family="Calibri" font-size="14.00">Information Types</text>
</g>
<g id="clust8" class="cluster"><title>cluster_method</title>
<polygon fill="none" stroke="black" points="642,-569 642,-668 858,-668 858,-569 642,-569"/>
<text text-anchor="middle" x="750" y="-652.8" font-family="Calibri" font-size="14.00">Methods</text>
</g>
<!-- n_cyberattack_class -->
<g id="node1" class="node"><title>n_cyberattack_class</title>
<ellipse fill="#ffffff" stroke="black" cx="185" cy="-855.882" rx="65.5227" ry="18.2703"/>
<text text-anchor="middle" x="185" y="-852.082" font-family="Calibri" font-size="16.00">Cyberattack</text>
</g>
<!-- n_credential_harvesting -->
<g id="node2" class="node"><title>n_credential_harvesting</title>
<g id="a_node2"><a xlink:href="https://open-measure.atlassian.net/wiki/spaces/DIC/pages/1254719498" xlink:title="Credential\nHarvesting">
<ellipse fill="#5599ff" stroke="black" cx="224" cy="-749.941" rx="67.3507" ry="33.8824"/>
<text text-anchor="middle" x="224" y="-755.541" font-family="Calibri" font-size="18.00">Credential</text>
<text text-anchor="middle" x="224" y="-735.541" font-family="Calibri" font-size="18.00">Harvesting</text>
</a>
</g>
</g>
<!-- n_cyberattack_class&#45;&gt;n_credential_harvesting -->
<g id="edge1" class="edge"><title>n_cyberattack_class&#45;&gt;n_credential_harvesting</title>
<path fill="none" stroke="black" d="M195.256,-827.548C200.336,-814.01 206.505,-797.569 211.823,-783.395"/>
<polygon fill="black" stroke="black" points="191.852,-826.658 191.616,-837.25 198.406,-829.117 191.852,-826.658"/>
<text text-anchor="middle" x="235.5" y="-796.682" font-family="Calibri" font-size="14.00"> &#160;of class &#160;</text>
</g>
<!-- n_countermeasures -->
<g id="node3" class="node"><title>n_countermeasures</title>
<polygon fill="#d6e7ff" stroke="black" points="16,-561.5 16,-629.5 212,-629.5 212,-561.5 16,-561.5"/>
<text text-anchor="middle" x="58" y="-619.1" font-family="Calibri" font-size="8.00">Access controls</text>
<polyline fill="none" stroke="black" points="100,-612.5 100,-629.5 "/>
<text text-anchor="middle" x="133" y="-619.1" font-family="Calibri" font-size="8.00">Deception</text>
<polyline fill="none" stroke="black" points="166,-612.5 166,-629.5 "/>
<text text-anchor="middle" x="189" y="-619.1" font-family="Calibri" font-size="8.00">MFA</text>
<polyline fill="none" stroke="black" points="16,-612.5 212,-612.5 "/>
<text text-anchor="middle" x="76.5" y="-602.1" font-family="Calibri" font-size="8.00">Disabling credential caching</text>
<polyline fill="none" stroke="black" points="137,-595.5 137,-612.5 "/>
<text text-anchor="middle" x="156" y="-602.1" font-family="Calibri" font-size="8.00">DRM</text>
<polyline fill="none" stroke="black" points="175,-595.5 175,-612.5 "/>
<text text-anchor="middle" x="193.5" y="-602.1" font-family="Calibri" font-size="8.00">HSM</text>
<polyline fill="none" stroke="black" points="16,-595.5 212,-595.5 "/>
<text text-anchor="middle" x="65.5" y="-585.1" font-family="Calibri" font-size="8.00">Password Managers</text>
<polyline fill="none" stroke="black" points="115,-578.5 115,-595.5 "/>
<text text-anchor="middle" x="163.5" y="-585.1" font-family="Calibri" font-size="8.00">Security awareness</text>
<polyline fill="none" stroke="black" points="16,-578.5 212,-578.5 "/>
<text text-anchor="middle" x="32" y="-568.1" font-family="Calibri" font-size="8.00">PAM</text>
<polyline fill="none" stroke="black" points="48,-561.5 48,-578.5 "/>
<text text-anchor="middle" x="88" y="-568.1" font-family="Calibri" font-size="8.00">System hardening</text>
<polyline fill="none" stroke="black" points="128,-561.5 128,-578.5 "/>
<text text-anchor="middle" x="155" y="-568.1" font-family="Calibri" font-size="8.00">Encryption</text>
<polyline fill="none" stroke="black" points="182,-561.5 182,-578.5 "/>
<text text-anchor="middle" x="197" y="-568.1" font-family="Calibri" font-size="8.00">etc.</text>
</g>
<!-- n_credential_harvesting&#45;&gt;n_countermeasures -->
<g id="edge2" class="edge"><title>n_credential_harvesting&#45;&gt;n_countermeasures</title>
<path fill="none" stroke="black" d="M184.435,-722.359C178.867,-717.633 173.513,-712.462 169,-707 165.209,-702.412 161.594,-697.52 158.16,-692.442"/>
<polygon fill="black" stroke="black" points="160.913,-690.253 152.554,-683.744 155.029,-694.045 160.913,-690.253"/>
<text text-anchor="middle" x="207.5" y="-695.8" font-family="Calibri" font-size="14.00">countered by</text>
</g>
<!-- n_threat_actor -->
<g id="node5" class="node"><title>n_threat_actor</title>
<ellipse fill="#d6e7ff" stroke="black" cx="310" cy="-595.5" rx="57.6901" ry="18"/>
<text text-anchor="middle" x="310" y="-591.8" font-family="Calibri" font-size="14.00">Threat Actor</text>
</g>
<!-- n_credential_harvesting&#45;&gt;n_threat_actor -->
<g id="edge4" class="edge"><title>n_credential_harvesting&#45;&gt;n_threat_actor</title>
<path fill="none" stroke="black" d="M242.028,-716.984C248.779,-705.018 256.787,-690.824 264.894,-676.453"/>
<polygon fill="black" stroke="black" points="268.08,-677.929 269.945,-667.5 261.983,-674.49 268.08,-677.929"/>
<text text-anchor="middle" x="309" y="-695.8" font-family="Calibri" font-size="14.00"> &#160;characterized by &#160;</text>
</g>
<!-- n_attack_phases -->
<g id="node4" class="node"><title>n_attack_phases</title>
<polygon fill="#d6e7ff" stroke="black" points="268.5,-824.382 268.5,-887.382 373.5,-887.382 373.5,-824.382 268.5,-824.382"/>
<text text-anchor="middle" x="321" y="-873.782" font-family="Calibri" font-size="12.00">Reconnaissance</text>
<polyline fill="none" stroke="black" points="268.5,-866.382 373.5,-866.382 "/>
<text text-anchor="middle" x="321" y="-852.782" font-family="Calibri" font-size="12.00">Exploitation</text>
<polyline fill="none" stroke="black" points="268.5,-845.382 373.5,-845.382 "/>
<text text-anchor="middle" x="321" y="-831.782" font-family="Calibri" font-size="12.00">Lateral Movement</text>
</g>
<!-- n_attack_phases&#45;&gt;n_credential_harvesting -->
<g id="edge3" class="edge"><title>n_attack_phases&#45;&gt;n_credential_harvesting</title>
<path fill="none" stroke="black" d="M281.416,-808.59C276.622,-803.236 271.743,-797.901 267,-792.882 263.132,-788.79 258.982,-784.557 254.842,-780.427"/>
<polygon fill="black" stroke="black" points="279.099,-811.253 288.353,-816.412 284.336,-806.608 279.099,-811.253"/>
<text text-anchor="middle" x="306" y="-796.682" font-family="Calibri" font-size="14.00"> &#160;during &#160;</text>
</g>
<!-- n_collection -->
<g id="node6" class="node"><title>n_collection</title>
<ellipse fill="#d6e7ff" stroke="black" cx="579" cy="-434.5" rx="47.3916" ry="18"/>
<text text-anchor="middle" x="579" y="-430.8" font-family="Calibri" font-size="14.00">Collection</text>
</g>
<!-- n_threat_actor&#45;&gt;n_collection -->
<g id="edge5" class="edge"><title>n_threat_actor&#45;&gt;n_collection</title>
<path fill="none" stroke="black" d="M363.744,-588.733C402.001,-582.611 453.28,-570.149 492,-545 524.5,-523.891 550.293,-486.539 565.109,-461.404"/>
<polygon fill="black" stroke="black" points="568.315,-462.846 570.24,-452.428 562.239,-459.372 568.315,-462.846"/>
<text text-anchor="middle" x="560.5" y="-526.3" font-family="Calibri" font-size="14.00"> &#160;performs &#160;</text>
</g>
<!-- n_objective -->
<g id="node8" class="node"><title>n_objective</title>
<ellipse fill="#d6e7ff" stroke="black" cx="327" cy="-434.5" rx="38.5652" ry="18"/>
<text text-anchor="middle" x="327" y="-431.4" font-family="Calibri" font-size="12.00">Objective</text>
</g>
<!-- n_threat_actor&#45;&gt;n_objective -->
<g id="edge7" class="edge"><title>n_threat_actor&#45;&gt;n_objective</title>
<path fill="none" stroke="black" d="M311.819,-577.484C314.744,-550.133 320.518,-496.127 324.041,-463.175"/>
<polygon fill="black" stroke="black" points="327.559,-463.191 325.142,-452.875 320.599,-462.447 327.559,-463.191"/>
<text text-anchor="middle" x="335.5" y="-526.3" font-family="Calibri" font-size="14.00"> &#160;has &#160;</text>
</g>
<!-- n_actor_classes -->
<g id="node16" class="node"><title>n_actor_classes</title>
<polygon fill="#d6e7ff" stroke="black" points="100.5,-416.5 100.5,-452.5 201.5,-452.5 201.5,-416.5 100.5,-416.5"/>
<text text-anchor="middle" x="130" y="-441.6" font-family="Calibri" font-size="8.00">Bot/Crawler</text>
<polyline fill="none" stroke="black" points="159.5,-434.5 159.5,-452.5 "/>
<text text-anchor="middle" x="180.5" y="-441.6" font-family="Calibri" font-size="8.00">Human</text>
<polyline fill="none" stroke="black" points="100.5,-434.5 201.5,-434.5 "/>
<text text-anchor="middle" x="127.5" y="-423.6" font-family="Calibri" font-size="8.00">Scanner</text>
<polyline fill="none" stroke="black" points="154.5,-416.5 154.5,-434.5 "/>
<text text-anchor="middle" x="178" y="-423.6" font-family="Calibri" font-size="8.00">Worm</text>
</g>
<!-- n_threat_actor&#45;&gt;n_actor_classes -->
<g id="edge16" class="edge"><title>n_threat_actor&#45;&gt;n_actor_classes</title>
<path fill="none" stroke="black" d="M292.123,-578.22C281.747,-568.668 268.497,-556.293 257,-545 243.886,-532.119 230.084,-518.165 216.932,-504.669"/>
<polygon fill="black" stroke="black" points="219.18,-501.96 209.701,-497.228 214.16,-506.839 219.18,-501.96"/>
<text text-anchor="middle" x="284.5" y="-526.3" font-family="Calibri" font-size="14.00"> &#160;of class &#160;</text>
</g>
<!-- n_certificates -->
<g id="node7" class="node"><title>n_certificates</title>
<ellipse fill="#d6e7ff" stroke="black" cx="573" cy="-128" rx="44.8758" ry="18"/>
<text text-anchor="middle" x="573" y="-124.9" font-family="Calibri" font-size="12.00">Certificates</text>
</g>
<!-- n_collection&#45;&gt;n_certificates -->
<g id="edge6" class="edge"><title>n_collection&#45;&gt;n_certificates</title>
<path fill="none" stroke="black" d="M578.66,-416.256C577.892,-377.29 575.982,-280.352 574.593,-209.837"/>
<polygon fill="black" stroke="black" points="578.088,-209.564 574.392,-199.635 571.09,-209.702 578.088,-209.564"/>
<text text-anchor="middle" x="590.5" y="-284.8" font-family="Calibri" font-size="14.00"> &#160;of &#160;</text>
</g>
<!-- n_opportunistic -->
<g id="node20" class="node"><title>n_opportunistic</title>
<ellipse fill="#d6e7ff" stroke="black" cx="725" cy="-434.5" rx="51.1876" ry="18"/>
<text text-anchor="middle" x="725" y="-431.4" font-family="Calibri" font-size="12.00">Opportunistic</text>
</g>
<!-- n_collection&#45;&gt;n_opportunistic -->
<g id="edge20" class="edge"><title>n_collection&#45;&gt;n_opportunistic</title>
<path fill="none" stroke="black" d="M626.806,-434.5C638.566,-434.5 651.32,-434.5 663.622,-434.5"/>
<polygon fill="black" stroke="black" points="663.818,-438 673.818,-434.5 663.818,-431 663.818,-438"/>
<text text-anchor="middle" x="650.176" y="-441.3" font-family="Calibri" font-size="14.00"> &#160;is &#160;</text>
</g>
<!-- n_vulnerable -->
<g id="node15" class="node"><title>n_vulnerable</title>
<ellipse fill="#d6e7ff" stroke="black" cx="466" cy="-44" rx="42.451" ry="18"/>
<text text-anchor="middle" x="466" y="-40.9" font-family="Calibri" font-size="12.00">Vulnerable</text>
</g>
<!-- n_certificates&#45;&gt;n_vulnerable -->
<g id="edge15" class="edge"><title>n_certificates&#45;&gt;n_vulnerable</title>
<path fill="none" stroke="black" d="M553.125,-111.769C536.459,-98.9962 512.471,-80.6132 493.883,-66.3685"/>
<polygon fill="black" stroke="black" points="495.835,-63.4546 485.769,-60.1498 491.577,-69.0107 495.835,-63.4546"/>
<text text-anchor="middle" x="531" y="-74.8" font-family="Calibri" font-size="14.00"> &#160;is &#160;</text>
</g>
<!-- n_objective&#45;&gt;n_collection -->
<g id="edge21" class="edge"><title>n_objective&#45;&gt;n_collection</title>
<path fill="none" stroke="black" d="M343.318,-460.506C358.182,-481.523 382.244,-509.582 411.5,-522 457.527,-541.537 483.548,-537.721 523,-507 542.45,-491.854 558.877,-468.471 568.811,-452.378"/>
<polygon fill="black" stroke="black" points="346.045,-458.291 337.523,-451.996 340.259,-462.231 346.045,-458.291"/>
<text text-anchor="middle" x="450" y="-533.8" font-family="Calibri" font-size="14.00"> &#160;to &#160;</text>
<text text-anchor="middle" x="450" y="-518.8" font-family="Calibri" font-size="14.00"> &#160;accomplish &#160;</text>
</g>
<!-- n_compromise -->
<g id="node9" class="node"><title>n_compromise</title>
<ellipse fill="#d6e7ff" stroke="black" cx="461" cy="-434.5" rx="52.881" ry="18"/>
<text text-anchor="middle" x="461" y="-431.4" font-family="Calibri" font-size="12.00">Compromising</text>
</g>
<!-- n_objective&#45;&gt;n_compromise -->
<g id="edge8" class="edge"><title>n_objective&#45;&gt;n_compromise</title>
<path fill="none" stroke="black" d="M366.119,-434.5C375.953,-434.5 386.764,-434.5 397.457,-434.5"/>
<polygon fill="black" stroke="black" points="397.637,-438 407.637,-434.5 397.637,-431 397.637,-438"/>
<text text-anchor="middle" x="386.921" y="-441.3" font-family="Calibri" font-size="14.00"> &#160;of &#160;</text>
</g>
<!-- n_abuse -->
<g id="node10" class="node"><title>n_abuse</title>
<ellipse fill="#d6e7ff" stroke="black" cx="349" cy="-288.5" rx="34.4458" ry="18"/>
<text text-anchor="middle" x="349" y="-285.4" font-family="Calibri" font-size="12.00">Abusing</text>
</g>
<!-- n_objective&#45;&gt;n_abuse -->
<g id="edge9" class="edge"><title>n_objective&#45;&gt;n_abuse</title>
<path fill="none" stroke="black" d="M329.61,-416.416C333.381,-391.733 340.391,-345.851 344.869,-316.541"/>
<polygon fill="black" stroke="black" points="348.343,-316.976 346.393,-306.562 341.423,-315.919 348.343,-316.976"/>
<text text-anchor="middle" x="347.5" y="-388.8" font-family="Calibri" font-size="14.00"> &#160;of &#160;</text>
</g>
<!-- n_infosec_domain -->
<g id="node11" class="node"><title>n_infosec_domain</title>
<ellipse fill="#d6e7ff" stroke="black" cx="460" cy="-288.5" rx="51.7379" ry="33.4697"/>
<text text-anchor="middle" x="460" y="-298.4" font-family="Calibri" font-size="12.00">Information</text>
<text text-anchor="middle" x="460" y="-285.4" font-family="Calibri" font-size="12.00">Security</text>
<text text-anchor="middle" x="460" y="-272.4" font-family="Calibri" font-size="12.00">domain</text>
</g>
<!-- n_compromise&#45;&gt;n_infosec_domain -->
<g id="edge10" class="edge"><title>n_compromise&#45;&gt;n_infosec_domain</title>
<path fill="none" stroke="black" d="M460.881,-416.416C460.738,-395.714 460.49,-360.1 460.294,-331.858"/>
<polygon fill="black" stroke="black" points="463.794,-331.803 460.224,-321.828 456.794,-331.852 463.794,-331.803"/>
<text text-anchor="middle" x="476.5" y="-388.8" font-family="Calibri" font-size="14.00"> &#160;the &#160;</text>
</g>
<!-- n_identities -->
<g id="node12" class="node"><title>n_identities</title>
<ellipse fill="#d6e7ff" stroke="black" cx="366" cy="-128" rx="38.3335" ry="18"/>
<text text-anchor="middle" x="366" y="-124.9" font-family="Calibri" font-size="12.00">Identities</text>
</g>
<!-- n_abuse&#45;&gt;n_identities -->
<g id="edge11" class="edge"><title>n_abuse&#45;&gt;n_identities</title>
<path fill="none" stroke="black" d="M350.852,-270.236C353.79,-242.844 359.545,-189.184 363.054,-156.467"/>
<polygon fill="black" stroke="black" points="366.564,-156.559 364.151,-146.243 359.604,-155.812 366.564,-156.559"/>
<text text-anchor="middle" x="373.5" y="-219.3" font-family="Calibri" font-size="14.00"> &#160;the &#160;</text>
</g>
<!-- n_credentials -->
<g id="node13" class="node"><title>n_credentials</title>
<ellipse fill="#d6e7ff" stroke="black" cx="466" cy="-128" rx="44.1452" ry="18"/>
<text text-anchor="middle" x="466" y="-124.9" font-family="Calibri" font-size="12.00">Credentials</text>
</g>
<!-- n_infosec_domain&#45;&gt;n_credentials -->
<g id="edge12" class="edge"><title>n_infosec_domain&#45;&gt;n_credentials</title>
<path fill="none" stroke="black" d="M459.405,-244.838C459.401,-232.912 459.547,-219.947 460,-208 460.101,-205.337 460.221,-202.624 460.357,-199.885"/>
<polygon fill="black" stroke="black" points="455.906,-245.012 459.444,-254.998 462.906,-244.985 455.906,-245.012"/>
<text text-anchor="middle" x="517" y="-226.8" font-family="Calibri" font-size="14.00"> &#160;may be leveraged &#160;</text>
<text text-anchor="middle" x="517" y="-211.8" font-family="Calibri" font-size="14.00"> &#160;to grant access to &#160;</text>
</g>
<!-- n_identities&#45;&gt;n_vulnerable -->
<g id="edge13" class="edge"><title>n_identities&#45;&gt;n_vulnerable</title>
<path fill="none" stroke="black" d="M384.342,-111.96C399.751,-99.3246 421.974,-81.1012 439.348,-66.8547"/>
<polygon fill="black" stroke="black" points="441.923,-69.2697 447.436,-60.2224 437.484,-63.8568 441.923,-69.2697"/>
<text text-anchor="middle" x="445" y="-74.8" font-family="Calibri" font-size="14.00"> &#160;is &#160;</text>
</g>
<!-- n_credentials&#45;&gt;n_vulnerable -->
<g id="edge14" class="edge"><title>n_credentials&#45;&gt;n_vulnerable</title>
<path fill="none" stroke="black" d="M466,-109.61C466,-98.7743 466,-84.6012 466,-72.2913"/>
<polygon fill="black" stroke="black" points="469.5,-72.0838 466,-62.0838 462.5,-72.0839 469.5,-72.0838"/>
<text text-anchor="middle" x="477" y="-74.8" font-family="Calibri" font-size="14.00"> &#160;is &#160;</text>
</g>
<!-- n_session -->
<g id="node14" class="node"><title>n_session</title>
<ellipse fill="#d6e7ff" stroke="black" cx="277" cy="-128" rx="32.7527" ry="18"/>
<text text-anchor="middle" x="277" y="-124.9" font-family="Calibri" font-size="12.00">Session</text>
</g>
<!-- n_information_types -->
<g id="node17" class="node"><title>n_information_types</title>
<polygon fill="#d6e7ff" stroke="black" points="30,-263 30,-314 212,-314 212,-263 30,-263"/>
<text text-anchor="middle" x="81" y="-303.6" font-family="Calibri" font-size="8.00">Email address</text>
<polyline fill="none" stroke="black" points="132,-297 132,-314 "/>
<text text-anchor="middle" x="172" y="-303.6" font-family="Calibri" font-size="8.00">Login ID</text>
<polyline fill="none" stroke="black" points="30,-297 212,-297 "/>
<text text-anchor="middle" x="70.5" y="-286.6" font-family="Calibri" font-size="8.00">Password</text>
<polyline fill="none" stroke="black" points="111,-280 111,-297 "/>
<text text-anchor="middle" x="161.5" y="-286.6" font-family="Calibri" font-size="8.00">Password hash</text>
<polyline fill="none" stroke="black" points="30,-280 212,-280 "/>
<text text-anchor="middle" x="58" y="-269.6" font-family="Calibri" font-size="8.00">Private key</text>
<polyline fill="none" stroke="black" points="86,-263 86,-280 "/>
<text text-anchor="middle" x="112.5" y="-269.6" font-family="Calibri" font-size="8.00">Session ID</text>
<polyline fill="none" stroke="black" points="139,-263 139,-280 "/>
<text text-anchor="middle" x="160.5" y="-269.6" font-family="Calibri" font-size="8.00">SSH key</text>
<polyline fill="none" stroke="black" points="182,-263 182,-280 "/>
<text text-anchor="middle" x="197" y="-269.6" font-family="Calibri" font-size="8.00">etc.</text>
</g>
<!-- n_actor_classes&#45;&gt;n_information_types -->
<!-- n_information_types&#45;&gt;n_session -->
<g id="edge17" class="edge"><title>n_information_types&#45;&gt;n_session</title>
<path fill="none" stroke="black" d="M129.753,-252.876C134.773,-237.92 142.264,-220.926 153,-208 175.352,-181.088 209.312,-160.349 236.044,-146.886"/>
<polygon fill="black" stroke="black" points="131.331,-244.246 128.663,-254.5 137.143,-248.148 131.331,-244.246"/>
<text text-anchor="middle" x="188.5" y="-219.3" font-family="Calibri" font-size="14.00">of type &#160;&#160;&#160;&#160;&#160;&#160;&#160;&#160;&#160;</text>
</g>
<!-- n_data_sources -->
<g id="node18" class="node"><title>n_data_sources</title>
<polygon fill="#d6e7ff" stroke="black" points="650.5,-254.5 650.5,-322.5 837.5,-322.5 837.5,-254.5 650.5,-254.5"/>
<text text-anchor="middle" x="698.5" y="-312.1" font-family="Calibri" font-size="8.00">Computer memory</text>
<polyline fill="none" stroke="black" points="746.5,-305.5 746.5,-322.5 "/>
<text text-anchor="middle" x="792" y="-312.1" font-family="Calibri" font-size="8.00">Phishing website</text>
<polyline fill="none" stroke="black" points="650.5,-305.5 837.5,-305.5 "/>
<text text-anchor="middle" x="691" y="-295.1" font-family="Calibri" font-size="8.00">Configuration files</text>
<polyline fill="none" stroke="black" points="731.5,-288.5 731.5,-305.5 "/>
<text text-anchor="middle" x="753.5" y="-295.1" font-family="Calibri" font-size="8.00">Cookies</text>
<polyline fill="none" stroke="black" points="775.5,-288.5 775.5,-305.5 "/>
<text text-anchor="middle" x="806.5" y="-295.1" font-family="Calibri" font-size="8.00">ID repository</text>
<polyline fill="none" stroke="black" points="650.5,-288.5 837.5,-288.5 "/>
<text text-anchor="middle" x="673" y="-278.1" font-family="Calibri" font-size="8.00">People</text>
<polyline fill="none" stroke="black" points="695.5,-271.5 695.5,-288.5 "/>
<text text-anchor="middle" x="736.5" y="-278.1" font-family="Calibri" font-size="8.00">Windows registry</text>
<polyline fill="none" stroke="black" points="777.5,-271.5 777.5,-288.5 "/>
<text text-anchor="middle" x="807.5" y="-278.1" font-family="Calibri" font-size="8.00">Databases</text>
<polyline fill="none" stroke="black" points="650.5,-271.5 837.5,-271.5 "/>
<text text-anchor="middle" x="697.5" y="-261.1" font-family="Calibri" font-size="8.00">Previous data breach</text>
<polyline fill="none" stroke="black" points="744.5,-254.5 744.5,-271.5 "/>
<text text-anchor="middle" x="774.5" y="-261.1" font-family="Calibri" font-size="8.00">Documents</text>
<polyline fill="none" stroke="black" points="804.5,-254.5 804.5,-271.5 "/>
<text text-anchor="middle" x="821" y="-261.1" font-family="Calibri" font-size="8.00">etc.</text>
</g>
<!-- n_data_sources&#45;&gt;n_certificates -->
<g id="edge18" class="edge"><title>n_data_sources&#45;&gt;n_certificates</title>
<path fill="none" stroke="black" d="M692.079,-239.374C671.138,-219.964 647.003,-197.593 625.958,-178.087"/>
<polygon fill="black" stroke="black" points="689.924,-242.149 699.637,-246.38 694.683,-237.015 689.924,-242.149"/>
<text text-anchor="middle" x="718.5" y="-219.3" font-family="Calibri" font-size="14.00"> &#160;found in &#160;</text>
</g>
<!-- n_methods -->
<g id="node19" class="node"><title>n_methods</title>
<polygon fill="#d6e7ff" stroke="black" points="650,-577.5 650,-613.5 850,-613.5 850,-577.5 650,-577.5"/>
<text text-anchor="middle" x="691" y="-592.4" font-family="Calibri" font-size="12.00">Direct access</text>
<polyline fill="none" stroke="black" points="732,-577.5 732,-613.5 "/>
<text text-anchor="middle" x="760" y="-592.4" font-family="Calibri" font-size="12.00">Hacking</text>
<polyline fill="none" stroke="black" points="788,-577.5 788,-613.5 "/>
<text text-anchor="middle" x="819" y="-592.4" font-family="Calibri" font-size="12.00">Guessing</text>
</g>
<!-- n_methods&#45;&gt;n_collection -->
<g id="edge19" class="edge"><title>n_methods&#45;&gt;n_collection</title>
<path fill="none" stroke="black" d="M715.5,-562.421C679.318,-528.778 623.934,-477.28 596.149,-451.446"/>
<polygon fill="black" stroke="black" points="713.206,-565.067 722.913,-569.313 717.972,-559.941 713.206,-565.067"/>
<text text-anchor="middle" x="710.5" y="-526.3" font-family="Calibri" font-size="14.00"> &#160;&#160;&#160;by &#160;</text>
</g>
<!-- n_methods&#45;&gt;n_opportunistic -->
</g>
</svg>
