<?xml version="1.0" encoding="UTF-8" standalone="no"?>
<!DOCTYPE svg PUBLIC "-//W3C//DTD SVG 1.1//EN"
 "http://www.w3.org/Graphics/SVG/1.1/DTD/svg11.dtd">
<!-- Generated by graphviz version 2.38.0 (20140413.2041)
 -->
<!-- Title: G Pages: 1 -->
<svg width="1723pt" height="1767pt"
 viewBox="0.00 0.00 413.50 424.00" xmlns="http://www.w3.org/2000/svg" xmlns:xlink="http://www.w3.org/1999/xlink">
<g id="graph0" class="graph" transform="scale(4.16667 4.16667) rotate(0) translate(4 420)">
<title>G</title>
<polygon fill="white" stroke="none" points="-4,4 -4,-420 409.5,-420 409.5,4 -4,4"/>
<text text-anchor="middle" x="202.75" y="-15.6" font-family="Calibri" font-size="8.00">A Taxonomy of Digital Identity Authenticity by Open&#45;Measure</text>
<text text-anchor="middle" x="202.75" y="-6.6" font-family="Calibri" font-size="8.00">Licensed under Creative Commons Attribution 4.0 International License</text>
<g id="clust3" class="cluster"><title>cluster_legend</title>
<polygon fill="none" stroke="black" points="151.5,-34 151.5,-110 397.5,-110 397.5,-34 151.5,-34"/>
<text text-anchor="middle" x="274.5" y="-94.8" font-family="Calibri" font-size="14.00">Legend</text>
</g>
<!-- n_digital_identity -->
<g id="node1" class="node"><title>n_digital_identity</title>
<g id="a_node1"><a xlink:href="https://open-measure.atlassian.net/wiki/spaces/DIC/pages/782893195" xlink:title="Digital\nIdentity">
<polygon fill="#5599ff" stroke="black" points="98.5,-367.5 98.5,-415.5 172.5,-415.5 172.5,-367.5 98.5,-367.5"/>
<text text-anchor="middle" x="135.5" y="-397.1" font-family="Calibri" font-size="18.00">Digital</text>
<text text-anchor="middle" x="135.5" y="-377.1" font-family="Calibri" font-size="18.00">Identity</text>
</a>
</g>
</g>
<!-- n_level_2 -->
<!-- n_digital_identity&#45;&gt;n_level_2 -->
<g id="edge1" class="edge"><title>n_digital_identity&#45;&gt;n_level_2</title>
<path fill="none" stroke="black" d="M135.5,-367.325C135.5,-351.141 135.5,-332.223 135.5,-331.057"/>
</g>
<!-- n_authentic -->
<g id="node3" class="node"><title>n_authentic</title>
<polygon fill="#d6e7ff" stroke="black" points="67,-248.5 67,-292.5 146,-292.5 146,-248.5 67,-248.5"/>
<text text-anchor="middle" x="106.5" y="-275.7" font-family="Calibri" font-size="16.00">Authentic</text>
<text text-anchor="middle" x="106.5" y="-257.7" font-family="Calibri" font-size="16.00">Identity</text>
</g>
<!-- n_level_2&#45;&gt;n_authentic -->
<g id="edge2" class="edge"><title>n_level_2&#45;&gt;n_authentic:n</title>
<path fill="none" stroke="black" d="M135.417,-328.955C133.716,-328.029 106.5,-312.904 106.5,-293"/>
</g>
<!-- n_fake -->
<g id="node4" class="node"><title>n_fake</title>
<polygon fill="#d6e7ff" stroke="black" points="164.5,-248.5 164.5,-292.5 230.5,-292.5 230.5,-248.5 164.5,-248.5"/>
<text text-anchor="middle" x="197.5" y="-275.7" font-family="Calibri" font-size="16.00">Fake</text>
<text text-anchor="middle" x="197.5" y="-257.7" font-family="Calibri" font-size="16.00">Identity</text>
</g>
<!-- n_level_2&#45;&gt;n_fake -->
<g id="edge3" class="edge"><title>n_level_2&#45;&gt;n_fake:n</title>
<path fill="none" stroke="black" d="M135.545,-328.997C137.422,-328.864 197.5,-324.366 197.5,-293"/>
</g>
<!-- n_level_3_fake -->
<!-- n_fake&#45;&gt;n_level_3_fake -->
<g id="edge4" class="edge"><title>n_fake&#45;&gt;n_level_3_fake</title>
<path fill="none" stroke="black" d="M197.5,-248.416C197.5,-232.518 197.5,-213.247 197.5,-212.058"/>
</g>
<!-- n_honeypot -->
<g id="node6" class="node"><title>n_honeypot</title>
<polygon fill="#aaffaa" stroke="black" points="0,-137.5 0,-173.5 63,-173.5 63,-137.5 0,-137.5"/>
<text text-anchor="middle" x="31.5" y="-158.9" font-family="Calibri" font-size="12.00">Social</text>
<text text-anchor="middle" x="31.5" y="-145.9" font-family="Calibri" font-size="12.00">Honeypot</text>
</g>
<!-- n_level_3_fake&#45;&gt;n_honeypot -->
<g id="edge5" class="edge"><title>n_level_3_fake&#45;&gt;n_honeypot:n</title>
<path fill="none" stroke="black" d="M197.38,-210.001C192.353,-210.045 31.5,-211.157 31.5,-174"/>
</g>
<!-- n_zombie_account -->
<g id="node7" class="node"><title>n_zombie_account</title>
<polygon fill="#ffaaaa" stroke="black" points="81.5,-137.5 81.5,-173.5 137.5,-173.5 137.5,-137.5 81.5,-137.5"/>
<text text-anchor="middle" x="109.5" y="-158.9" font-family="Calibri" font-size="12.00">Zombie</text>
<text text-anchor="middle" x="109.5" y="-145.9" font-family="Calibri" font-size="12.00">Account</text>
</g>
<!-- n_level_3_fake&#45;&gt;n_zombie_account -->
<g id="edge6" class="edge"><title>n_level_3_fake&#45;&gt;n_zombie_account:n</title>
<path fill="none" stroke="black" d="M197.436,-210.004C194.771,-210.184 109.5,-215.597 109.5,-174"/>
</g>
<!-- n_compromised -->
<g id="node8" class="node"><title>n_compromised</title>
<polygon fill="#ffaaaa" stroke="black" points="156,-137.5 156,-173.5 239,-173.5 239,-137.5 156,-137.5"/>
<text text-anchor="middle" x="197.5" y="-158.9" font-family="Calibri" font-size="12.00">Compromised</text>
<text text-anchor="middle" x="197.5" y="-145.9" font-family="Calibri" font-size="12.00">Account</text>
</g>
<!-- n_level_3_fake&#45;&gt;n_compromised -->
<g id="edge7" class="edge"><title>n_level_3_fake&#45;&gt;n_compromised:n</title>
<path fill="none" stroke="black" stroke-dasharray="5,2" d="M197.5,-209.942C197.5,-208.754 197.5,-189.5 197.5,-174"/>
</g>
<!-- n_test -->
<g id="node9" class="node"><title>n_test</title>
<polygon fill="#d6e7ff" stroke="black" points="257.5,-137.5 257.5,-173.5 313.5,-173.5 313.5,-137.5 257.5,-137.5"/>
<text text-anchor="middle" x="285.5" y="-158.9" font-family="Calibri" font-size="12.00">Test</text>
<text text-anchor="middle" x="285.5" y="-145.9" font-family="Calibri" font-size="12.00">Account</text>
</g>
<!-- n_level_3_fake&#45;&gt;n_test -->
<g id="edge8" class="edge"><title>n_level_3_fake&#45;&gt;n_test:n</title>
<path fill="none" stroke="black" stroke-dasharray="5,2" d="M197.564,-210.004C200.229,-210.184 285.5,-215.597 285.5,-174"/>
</g>
<!-- n_research -->
<g id="node10" class="node"><title>n_research</title>
<polygon fill="#d6e7ff" stroke="black" points="331.5,-137.5 331.5,-173.5 393.5,-173.5 393.5,-137.5 331.5,-137.5"/>
<text text-anchor="middle" x="362.5" y="-158.9" font-family="Calibri" font-size="12.00">Research</text>
<text text-anchor="middle" x="362.5" y="-145.9" font-family="Calibri" font-size="12.00">Account</text>
</g>
<!-- n_level_3_fake&#45;&gt;n_research -->
<g id="edge9" class="edge"><title>n_level_3_fake&#45;&gt;n_research:n</title>
<path fill="none" stroke="black" stroke-dasharray="5,2" d="M197.62,-210.001C202.616,-210.038 362.5,-210.943 362.5,-174"/>
</g>
<!-- n_defense -->
<g id="node11" class="node"><title>n_defense</title>
<polygon fill="#aaffaa" stroke="black" points="335.5,-42.5 335.5,-78.5 389.5,-78.5 389.5,-42.5 335.5,-42.5"/>
<text text-anchor="middle" x="362.5" y="-58" font-family="Calibri" font-size="10.00">Defense</text>
</g>
<!-- n_research&#45;&gt;n_defense -->
<!-- n_attack -->
<g id="node12" class="node"><title>n_attack</title>
<polygon fill="#ffaaaa" stroke="black" points="263.5,-42.5 263.5,-78.5 317.5,-78.5 317.5,-42.5 263.5,-42.5"/>
<text text-anchor="middle" x="290.5" y="-58" font-family="Calibri" font-size="10.00">Attack</text>
</g>
<!-- n_dash_tail -->
<!-- n_dash_head -->
<!-- n_dash_tail&#45;&gt;n_dash_head -->
<g id="edge11" class="edge"><title>n_dash_tail&#45;&gt;n_dash_head</title>
<path fill="none" stroke="black" stroke-dasharray="5,2" d="M159.562,-60.5C162.126,-60.5 242.916,-60.5 245.44,-60.5"/>
<text text-anchor="middle" x="202.5" y="-66.5" font-family="Calibri" font-size="10.00">Conditional Link</text>
</g>
</g>
</svg>
