<?xml version="1.0" encoding="UTF-8" standalone="no"?>
<!DOCTYPE svg PUBLIC "-//W3C//DTD SVG 1.1//EN"
 "http://www.w3.org/Graphics/SVG/1.1/DTD/svg11.dtd">
<!-- Generated by graphviz version 2.38.0 (20140413.2041)
 -->
<!-- Title: G Pages: 1 -->
<svg width="1896pt" height="2412pt"
 viewBox="0.00 0.00 455.09 578.85" xmlns="http://www.w3.org/2000/svg" xmlns:xlink="http://www.w3.org/1999/xlink">
<g id="graph0" class="graph" transform="scale(4.16667 4.16667) rotate(0) translate(4 574.848)">
<title>G</title>
<polygon fill="white" stroke="none" points="-4,4 -4,-574.848 451.088,-574.848 451.088,4 -4,4"/>
<text text-anchor="middle" x="223.544" y="-15.6" font-family="Calibri" font-size="8.00">Entity (Conceptual Diagram) by Open&#45;Measure</text>
<text text-anchor="middle" x="223.544" y="-6.6" font-family="Calibri" font-size="8.00">Licensed under Creative Commons Attribution 4.0 International License</text>
<!-- n_daemon -->
<g id="node1" class="node"><title>n_daemon</title>
<ellipse fill="white" stroke="black" cx="35.0885" cy="-552.848" rx="35.1771" ry="18"/>
<text text-anchor="middle" x="35.0885" y="-549.748" font-family="Calibri" font-size="12.00">Daemon</text>
</g>
<!-- n_running_software -->
<g id="node5" class="node"><title>n_running_software</title>
<ellipse fill="white" stroke="black" cx="173.088" cy="-479.806" rx="41.9398" ry="24.0833"/>
<text text-anchor="middle" x="173.088" y="-483.206" font-family="Calibri" font-size="12.00">Running</text>
<text text-anchor="middle" x="173.088" y="-470.206" font-family="Calibri" font-size="12.00">Software</text>
</g>
<!-- n_daemon&#45;&gt;n_running_software -->
<g id="edge1" class="edge"><title>n_daemon&#45;&gt;n_running_software</title>
<path fill="none" stroke="black" d="M59.1262,-539.473C79.7371,-528.863 109.828,-513.372 133.915,-500.973"/>
<polygon fill="black" stroke="black" points="135.531,-504.077 142.82,-496.388 132.327,-497.854 135.531,-504.077"/>
<text text-anchor="middle" x="124.088" y="-515.648" font-family="Calibri" font-size="14.00"> &#160;is &#160;</text>
</g>
<!-- n_service -->
<g id="node2" class="node"><title>n_service</title>
<ellipse fill="white" stroke="black" cx="119.088" cy="-552.848" rx="31.2902" ry="18"/>
<text text-anchor="middle" x="119.088" y="-549.748" font-family="Calibri" font-size="12.00">Service</text>
</g>
<!-- n_service&#45;&gt;n_running_software -->
<g id="edge2" class="edge"><title>n_service&#45;&gt;n_running_software</title>
<path fill="none" stroke="black" d="M131.073,-536.081C136.818,-528.523 143.894,-519.214 150.589,-510.406"/>
<polygon fill="black" stroke="black" points="153.571,-512.266 156.836,-502.187 147.998,-508.03 153.571,-512.266"/>
<text text-anchor="middle" x="161.088" y="-515.648" font-family="Calibri" font-size="14.00"> &#160;is &#160;</text>
</g>
<!-- n_batch -->
<g id="node3" class="node"><title>n_batch</title>
<ellipse fill="white" stroke="black" cx="195.088" cy="-552.848" rx="27.1719" ry="18"/>
<text text-anchor="middle" x="195.088" y="-549.748" font-family="Calibri" font-size="12.00">Batch</text>
</g>
<!-- n_batch&#45;&gt;n_running_software -->
<g id="edge3" class="edge"><title>n_batch&#45;&gt;n_running_software</title>
<path fill="none" stroke="black" d="M189.875,-535.012C187.86,-528.507 185.484,-520.834 183.163,-513.339"/>
<polygon fill="black" stroke="black" points="186.481,-512.22 180.179,-503.703 179.794,-514.291 186.481,-512.22"/>
<text text-anchor="middle" x="199.088" y="-515.648" font-family="Calibri" font-size="14.00"> &#160;is &#160;</text>
</g>
<!-- n_application -->
<g id="node4" class="node"><title>n_application</title>
<ellipse fill="white" stroke="black" cx="284.088" cy="-552.848" rx="43.9143" ry="18"/>
<text text-anchor="middle" x="284.088" y="-549.748" font-family="Calibri" font-size="12.00">Application</text>
</g>
<!-- n_application&#45;&gt;n_running_software -->
<g id="edge4" class="edge"><title>n_application&#45;&gt;n_running_software</title>
<path fill="none" stroke="black" d="M261.358,-537.3C246.343,-527.69 226.342,-514.889 209.176,-503.903"/>
<polygon fill="black" stroke="black" points="210.808,-500.792 200.499,-498.349 207.035,-506.688 210.808,-500.792"/>
<text text-anchor="middle" x="256.088" y="-515.648" font-family="Calibri" font-size="14.00"> &#160;is &#160;</text>
</g>
<!-- n_internal_entity -->
<g id="node10" class="node"><title>n_internal_entity</title>
<ellipse fill="white" stroke="black" cx="173.088" cy="-400.723" rx="38.3684" ry="24.0833"/>
<text text-anchor="middle" x="173.088" y="-404.123" font-family="Calibri" font-size="12.00">Internal</text>
<text text-anchor="middle" x="173.088" y="-391.123" font-family="Calibri" font-size="12.00">Entity</text>
</g>
<!-- n_running_software&#45;&gt;n_internal_entity -->
<g id="edge14" class="edge"><title>n_running_software&#45;&gt;n_internal_entity</title>
<path fill="none" stroke="black" d="M173.088,-455.679C173.088,-449.124 173.088,-441.857 173.088,-434.835"/>
<polygon fill="black" stroke="black" points="176.589,-434.834 173.088,-424.834 169.589,-434.834 176.589,-434.834"/>
<text text-anchor="middle" x="184.088" y="-436.565" font-family="Calibri" font-size="14.00"> &#160;is &#160;</text>
</g>
<!-- n_person -->
<g id="node6" class="node"><title>n_person</title>
<ellipse fill="white" stroke="black" cx="377.088" cy="-552.848" rx="30.5603" ry="18"/>
<text text-anchor="middle" x="377.088" y="-549.748" font-family="Calibri" font-size="12.00">Person</text>
</g>
<!-- n_user -->
<g id="node8" class="node"><title>n_user</title>
<g id="a_node8"><a xlink:href="/wiki/spaces/DIC/pages/82839586/User+Dictionary+Entry" xlink:title="User">
<ellipse fill="#d6e7ff" stroke="black" cx="377.088" cy="-479.806" rx="27" ry="18"/>
<text text-anchor="middle" x="377.088" y="-476.706" font-family="Calibri" font-size="12.00">User</text>
</a>
</g>
</g>
<!-- n_person&#45;&gt;n_user -->
<g id="edge12" class="edge"><title>n_person&#45;&gt;n_user</title>
<path fill="none" stroke="black" d="M377.088,-534.651C377.088,-526.622 377.088,-516.875 377.088,-507.891"/>
<polygon fill="black" stroke="black" points="380.589,-507.845 377.088,-497.845 373.589,-507.845 380.589,-507.845"/>
<text text-anchor="middle" x="385.088" y="-515.648" font-family="Calibri" font-size="14.00"> &#160;is</text>
</g>
<!-- n_physical_object -->
<g id="node7" class="node"><title>n_physical_object</title>
<ellipse fill="white" stroke="black" cx="292.088" cy="-479.806" rx="39.6962" ry="24.0833"/>
<text text-anchor="middle" x="292.088" y="-483.206" font-family="Calibri" font-size="12.00">Physical</text>
<text text-anchor="middle" x="292.088" y="-470.206" font-family="Calibri" font-size="12.00">Object</text>
</g>
<!-- n_external_entity -->
<g id="node9" class="node"><title>n_external_entity</title>
<ellipse fill="white" stroke="black" cx="312.088" cy="-400.723" rx="39.6962" ry="24.0833"/>
<text text-anchor="middle" x="312.088" y="-404.123" font-family="Calibri" font-size="12.00">External</text>
<text text-anchor="middle" x="312.088" y="-391.123" font-family="Calibri" font-size="12.00">Entity</text>
</g>
<!-- n_physical_object&#45;&gt;n_external_entity -->
<g id="edge15" class="edge"><title>n_physical_object&#45;&gt;n_external_entity</title>
<path fill="none" stroke="black" d="M298.089,-455.679C299.805,-449.064 301.71,-441.724 303.547,-434.643"/>
<polygon fill="black" stroke="black" points="307.037,-435.127 306.161,-424.568 300.262,-433.369 307.037,-435.127"/>
<text text-anchor="middle" x="315.088" y="-436.565" font-family="Calibri" font-size="14.00"> &#160;is &#160;</text>
</g>
<!-- n_user&#45;&gt;n_external_entity -->
<g id="edge13" class="edge"><title>n_user&#45;&gt;n_external_entity</title>
<path fill="none" stroke="black" d="M364.247,-463.577C356.268,-454.115 345.757,-441.65 336.262,-430.391"/>
<polygon fill="black" stroke="black" points="338.702,-427.854 329.579,-422.465 333.35,-432.366 338.702,-427.854"/>
<text text-anchor="middle" x="362.088" y="-436.565" font-family="Calibri" font-size="14.00"> &#160;is &#160;</text>
</g>
<!-- n_entity -->
<g id="node11" class="node"><title>n_entity</title>
<g id="a_node11"><a xlink:href="https://open-measure.atlassian.net/wiki/spaces/DIC/pages/123830932" xlink:title="Entity">
<ellipse fill="#5599ff" stroke="black" cx="243.088" cy="-325.882" rx="42.3529" ry="19.6"/>
<text text-anchor="middle" x="243.088" y="-321.482" font-family="Calibri" font-size="18.00">Entity</text>
</a>
</g>
</g>
<!-- n_external_entity&#45;&gt;n_entity -->
<g id="edge18" class="edge"><title>n_external_entity&#45;&gt;n_entity</title>
<path fill="none" stroke="black" d="M292.868,-379.433C284.849,-370.968 275.45,-361.045 266.992,-352.117"/>
<polygon fill="black" stroke="black" points="269.278,-349.44 259.86,-344.588 264.196,-354.254 269.278,-349.44"/>
<text text-anchor="middle" x="293.088" y="-357.481" font-family="Calibri" font-size="14.00"> &#160;is &#160;</text>
</g>
<!-- n_information_system -->
<g id="node17" class="node"><title>n_information_system</title>
<ellipse fill="white" stroke="black" cx="338.088" cy="-50.0416" rx="51.7379" ry="24.0833"/>
<text text-anchor="middle" x="338.088" y="-53.4416" font-family="Calibri" font-size="12.00">Information</text>
<text text-anchor="middle" x="338.088" y="-40.4416" font-family="Calibri" font-size="12.00">System</text>
</g>
<!-- n_external_entity&#45;&gt;n_information_system -->
<g id="edge21" class="edge"><title>n_external_entity&#45;&gt;n_information_system</title>
<path fill="none" stroke="black" d="M343.707,-386.124C366.068,-374.142 392.088,-354.306 392.088,-326.882 392.088,-326.882 392.088,-326.882 392.088,-122.083 392.088,-105.277 382.391,-89.9566 371.215,-77.8814"/>
<polygon fill="black" stroke="black" points="373.683,-75.3991 364.139,-70.7979 368.731,-80.3463 373.683,-75.3991"/>
<text text-anchor="middle" x="419.588" y="-219.883" font-family="Calibri" font-size="14.00"> &#160;outside &#160;</text>
</g>
<!-- n_internal_entity&#45;&gt;n_external_entity -->
<g id="edge16" class="edge"><title>n_internal_entity&#45;&gt;n_external_entity</title>
<path fill="none" stroke="black" d="M221.524,-400.723C234.646,-400.723 248.873,-400.723 262.079,-400.723"/>
<polygon fill="black" stroke="black" points="221.439,-397.223 211.439,-400.723 221.439,-404.223 221.439,-397.223"/>
<polygon fill="black" stroke="black" points="262.411,-404.223 272.411,-400.723 262.411,-397.223 262.411,-404.223"/>
<text text-anchor="middle" x="241.881" y="-407.523" font-family="Calibri" font-size="14.00"> &#160;is not &#160;</text>
</g>
<!-- n_internal_entity&#45;&gt;n_entity -->
<g id="edge17" class="edge"><title>n_internal_entity&#45;&gt;n_entity</title>
<path fill="none" stroke="black" d="M192.216,-379.819C200.565,-371.131 210.443,-360.853 219.263,-351.675"/>
<polygon fill="black" stroke="black" points="221.961,-353.919 226.366,-344.283 216.913,-349.068 221.961,-353.919"/>
<text text-anchor="middle" x="228.088" y="-357.481" font-family="Calibri" font-size="14.00"> &#160;is &#160;</text>
</g>
<!-- n_informational_object -->
<g id="node13" class="node"><title>n_informational_object</title>
<g id="a_node13"><a xlink:href="https://open-measure.atlassian.net/wiki/spaces/DIC/pages/67568133/Object+Dictionary+Entry" xlink:title="Object">
<ellipse fill="#d6e7ff" stroke="black" cx="231.088" cy="-123.083" rx="30.3284" ry="18"/>
<text text-anchor="middle" x="231.088" y="-119.983" font-family="Calibri" font-size="12.00">Object</text>
</a>
</g>
</g>
<!-- n_internal_entity&#45;&gt;n_informational_object -->
<g id="edge11" class="edge"><title>n_internal_entity&#45;&gt;n_informational_object</title>
<path fill="none" stroke="black" d="M139.328,-389.279C112.022,-378.488 78.0885,-358.681 78.0885,-326.882 78.0885,-326.882 78.0885,-326.882 78.0885,-189.083 78.0885,-140.086 145.38,-127.489 190.71,-124.562"/>
<polygon fill="black" stroke="black" points="191.053,-128.049 200.861,-124.042 190.694,-121.058 191.053,-128.049"/>
<text text-anchor="middle" x="89.0885" y="-253.383" font-family="Calibri" font-size="14.00"> &#160;is &#160;</text>
</g>
<!-- n_identity -->
<g id="node12" class="node"><title>n_identity</title>
<g id="a_node12"><a xlink:href="https://open-measure.atlassian.net/wiki/spaces/DIC/pages/67600948" xlink:title="Identity">
<ellipse fill="#d6e7ff" stroke="black" cx="243.088" cy="-257.083" rx="32.7527" ry="18"/>
<text text-anchor="middle" x="243.088" y="-253.983" font-family="Calibri" font-size="12.00">Identity</text>
</a>
</g>
</g>
<!-- n_entity&#45;&gt;n_identity -->
<g id="edge5" class="edge"><title>n_entity&#45;&gt;n_identity</title>
<path fill="none" stroke="black" d="M243.088,-295.529C243.088,-288.69 243.088,-281.621 243.088,-275.492"/>
<polygon fill="black" stroke="black" points="239.589,-295.919 243.088,-305.919 246.589,-295.919 239.589,-295.919"/>
<text text-anchor="middle" x="262.088" y="-286.883" font-family="Calibri" font-size="14.00"> &#160;map &#160;</text>
</g>
<!-- n_operation -->
<g id="node14" class="node"><title>n_operation</title>
<ellipse fill="white" stroke="black" cx="311.088" cy="-190.083" rx="40.0263" ry="18"/>
<text text-anchor="middle" x="311.088" y="-186.983" font-family="Calibri" font-size="12.00">Operation</text>
</g>
<!-- n_entity&#45;&gt;n_operation -->
<g id="edge19" class="edge"><title>n_entity&#45;&gt;n_operation</title>
<path fill="none" stroke="black" d="M271.378,-311.102C276.56,-307.486 281.467,-303.15 285.088,-298.083 301.884,-274.588 307.911,-241.56 310.03,-218.433"/>
<polygon fill="black" stroke="black" points="313.535,-218.494 310.77,-208.267 306.553,-217.986 313.535,-218.494"/>
<text text-anchor="middle" x="334.088" y="-253.383" font-family="Calibri" font-size="14.00"> &#160;initiate &#160;</text>
</g>
<!-- n_attribute -->
<g id="node15" class="node"><title>n_attribute</title>
<g id="a_node15"><a xlink:href="https://open-measure.atlassian.net/wiki/spaces/DIC/pages/82903275" xlink:title="Attribute">
<ellipse fill="#d6e7ff" stroke="black" cx="159.088" cy="-190.083" rx="36.1402" ry="18"/>
<text text-anchor="middle" x="159.088" y="-186.983" font-family="Calibri" font-size="12.00">Attribute</text>
</a>
</g>
</g>
<!-- n_entity&#45;&gt;n_attribute -->
<g id="edge9" class="edge"><title>n_entity&#45;&gt;n_attribute</title>
<path fill="none" stroke="black" d="M196.032,-312.817C176.754,-305.305 156.359,-293.452 145.088,-275.083 132.408,-254.417 141.72,-225.755 150.051,-207.824"/>
<polygon fill="black" stroke="black" points="195.063,-316.188 205.657,-316.263 197.422,-309.597 195.063,-316.188"/>
<text text-anchor="middle" x="173.088" y="-253.383" font-family="Calibri" font-size="14.00"> &#160;identify &#160;</text>
</g>
<!-- n_identity&#45;&gt;n_informational_object -->
<g id="edge6" class="edge"><title>n_identity&#45;&gt;n_informational_object</title>
<path fill="none" stroke="black" d="M241.544,-239.097C239.53,-216.943 235.982,-177.909 233.584,-151.529"/>
<polygon fill="black" stroke="black" points="237.056,-151.066 232.665,-141.424 230.085,-151.7 237.056,-151.066"/>
<text text-anchor="middle" x="250.088" y="-186.383" font-family="Calibri" font-size="14.00"> &#160;is &#160;</text>
</g>
<!-- n_identity&#45;&gt;n_operation -->
<g id="edge7" class="edge"><title>n_identity&#45;&gt;n_operation</title>
<path fill="none" stroke="black" d="M249.784,-239.097C253.443,-231.389 258.571,-222.568 265.088,-216.083 267.907,-213.278 271.106,-210.702 274.473,-208.358"/>
<polygon fill="black" stroke="black" points="276.424,-211.267 283.066,-203.012 272.727,-205.323 276.424,-211.267"/>
<text text-anchor="middle" x="281.588" y="-219.883" font-family="Calibri" font-size="14.00"> &#160;link &#160;</text>
</g>
<!-- n_identity&#45;&gt;n_attribute -->
<g id="edge8" class="edge"><title>n_identity&#45;&gt;n_attribute</title>
<path fill="none" stroke="black" d="M216.391,-246.569C203.341,-241.566 189.335,-235.561 184.088,-231.083 179.38,-227.065 175.272,-221.931 171.821,-216.692"/>
<polygon fill="black" stroke="black" points="174.751,-214.772 166.643,-207.954 168.729,-218.341 174.751,-214.772"/>
<text text-anchor="middle" x="200.588" y="-219.883" font-family="Calibri" font-size="14.00"> &#160;has &#160;</text>
</g>
<!-- n_data -->
<g id="node16" class="node"><title>n_data</title>
<ellipse fill="white" stroke="black" cx="231.088" cy="-50.0416" rx="27" ry="18"/>
<text text-anchor="middle" x="231.088" y="-46.9416" font-family="Calibri" font-size="12.00">Data</text>
</g>
<!-- n_informational_object&#45;&gt;n_data -->
<g id="edge22" class="edge"><title>n_informational_object&#45;&gt;n_data</title>
<path fill="none" stroke="black" d="M231.088,-104.886C231.088,-96.858 231.088,-87.1103 231.088,-78.1266"/>
<polygon fill="black" stroke="black" points="234.589,-78.0804 231.088,-68.0805 227.589,-78.0805 234.589,-78.0804"/>
<text text-anchor="middle" x="250.088" y="-85.8833" font-family="Calibri" font-size="14.00"> &#160;hold &#160;</text>
</g>
<!-- n_informational_object&#45;&gt;n_information_system -->
<g id="edge23" class="edge"><title>n_informational_object&#45;&gt;n_information_system</title>
<path fill="none" stroke="black" d="M252.226,-109.944C258.963,-105.958 266.402,-101.432 273.088,-97.0833 282.952,-90.669 293.438,-83.433 303.044,-76.6298"/>
<polygon fill="black" stroke="black" points="305.115,-79.452 311.222,-70.7942 301.049,-73.7541 305.115,-79.452"/>
<text text-anchor="middle" x="318.088" y="-85.8833" font-family="Calibri" font-size="14.00"> &#160;inside &#160;</text>
</g>
<!-- n_operation&#45;&gt;n_informational_object -->
<g id="edge20" class="edge"><title>n_operation&#45;&gt;n_informational_object</title>
<path fill="none" stroke="black" d="M292.534,-174.008C281.658,-165.171 267.779,-153.894 255.964,-144.295"/>
<polygon fill="black" stroke="black" points="258.145,-141.557 248.177,-137.968 253.731,-146.99 258.145,-141.557"/>
<text text-anchor="middle" x="293.088" y="-152.883" font-family="Calibri" font-size="14.00"> &#160;on &#160;</text>
</g>
<!-- n_attribute&#45;&gt;n_informational_object -->
<g id="edge10" class="edge"><title>n_attribute&#45;&gt;n_informational_object</title>
<path fill="none" stroke="black" d="M171.984,-173.099C178.523,-165.441 186.818,-156.373 195.088,-149.083 197.543,-146.92 200.189,-144.778 202.892,-142.711"/>
<polygon fill="black" stroke="black" points="205.008,-145.499 211.041,-136.79 200.894,-139.836 205.008,-145.499"/>
<text text-anchor="middle" x="206.088" y="-152.883" font-family="Calibri" font-size="14.00"> &#160;is &#160;</text>
</g>
</g>
</svg>
