<?xml version="1.0" encoding="UTF-8" standalone="no"?>
<!DOCTYPE svg PUBLIC "-//W3C//DTD SVG 1.1//EN"
 "http://www.w3.org/Graphics/SVG/1.1/DTD/svg11.dtd">
<!-- Generated by graphviz version 2.38.0 (20140413.2041)
 -->
<!-- Title: G Pages: 1 -->
<svg width="2281pt" height="1893pt"
 viewBox="0.00 0.00 547.41 454.43" xmlns="http://www.w3.org/2000/svg" xmlns:xlink="http://www.w3.org/1999/xlink">
<g id="graph0" class="graph" transform="scale(4.16667 4.16667) rotate(0) translate(4 450.434)">
<title>G</title>
<polygon fill="white" stroke="none" points="-4,4 -4,-450.434 543.409,-450.434 543.409,4 -4,4"/>
<text text-anchor="middle" x="269.705" y="-15.6" font-family="Calibri" font-size="8.00">Identity Guardian (Conceptual Diagram) by Open&#45;Measure</text>
<text text-anchor="middle" x="269.705" y="-6.6" font-family="Calibri" font-size="8.00">Licensed under Creative Commons Attribution 4.0 International License</text>
<!-- n_ims -->
<g id="node1" class="node"><title>n_ims</title>
<ellipse fill="#ffffff" stroke="black" cx="482.134" cy="-413.2" rx="57.0522" ry="33.4697"/>
<text text-anchor="middle" x="482.134" y="-423.1" font-family="Calibri" font-size="12.00">Identity</text>
<text text-anchor="middle" x="482.134" y="-410.1" font-family="Calibri" font-size="12.00">Management</text>
<text text-anchor="middle" x="482.134" y="-397.1" font-family="Calibri" font-size="12.00">System</text>
</g>
<!-- n_role -->
<g id="node2" class="node"><title>n_role</title>
<ellipse fill="#ffffff" stroke="black" cx="298.134" cy="-413.2" rx="45.6069" ry="18"/>
<text text-anchor="middle" x="298.134" y="-410.1" font-family="Calibri" font-size="12.00">Person Role</text>
</g>
<!-- n_role&#45;&gt;n_ims -->
<g id="edge1" class="edge"><title>n_role&#45;&gt;n_ims</title>
<path fill="none" stroke="black" d="M344.09,-413.2C365.323,-413.2 390.966,-413.2 414.359,-413.2"/>
<polygon fill="black" stroke="black" points="414.574,-416.7 424.574,-413.2 414.574,-409.7 414.574,-416.7"/>
<text text-anchor="middle" x="384.272" y="-420" font-family="Calibri" font-size="14.00"> &#160;played in &#160;</text>
</g>
<!-- n_guardian -->
<g id="node3" class="node"><title>n_guardian</title>
<g id="a_node3"><a xlink:href="https://open-measure.atlassian.net/wiki/spaces/DIC/pages/1323597918" xlink:title="Identity\nGuardian">
<ellipse fill="#5599ff" stroke="black" cx="298.134" cy="-315.024" rx="60.623" ry="33.8824"/>
<text text-anchor="middle" x="298.134" y="-320.624" font-family="Calibri" font-size="18.00">Identity</text>
<text text-anchor="middle" x="298.134" y="-300.624" font-family="Calibri" font-size="18.00">Guardian</text>
</a>
</g>
</g>
<!-- n_role&#45;&gt;n_guardian -->
<g id="edge2" class="edge"><title>n_role&#45;&gt;n_guardian</title>
<path fill="none" stroke="black" d="M298.134,-384.961C298.134,-373.78 298.134,-360.733 298.134,-349.017"/>
<polygon fill="black" stroke="black" points="294.634,-385.005 298.134,-395.005 301.634,-385.005 294.634,-385.005"/>
<text text-anchor="middle" x="309.134" y="-360.766" font-family="Calibri" font-size="14.00"> &#160;is &#160;</text>
</g>
<!-- n_subject -->
<g id="node4" class="node"><title>n_subject</title>
<ellipse fill="#d6e7ff" stroke="black" cx="185.134" cy="-181.042" rx="32.0211" ry="18"/>
<text text-anchor="middle" x="185.134" y="-177.942" font-family="Calibri" font-size="12.00">Subject</text>
</g>
<!-- n_guardian&#45;&gt;n_subject -->
<g id="edge10" class="edge"><title>n_guardian&#45;&gt;n_subject</title>
<path fill="none" stroke="black" stroke-dasharray="5,2" d="M254.762,-291.211C246.989,-285.922 239.386,-279.836 233.134,-273.083 215.663,-254.215 202.666,-227.789 194.633,-208.266"/>
<polygon fill="black" stroke="black" points="197.811,-206.782 190.888,-198.762 191.298,-209.349 197.811,-206.782"/>
<text text-anchor="middle" x="272.134" y="-261.883" font-family="Calibri" font-size="14.00"> &#160;if &#160;</text>
<text text-anchor="middle" x="272.134" y="-246.883" font-family="Calibri" font-size="14.00"> &#160;unecessary &#160;</text>
<text text-anchor="middle" x="272.134" y="-231.883" font-family="Calibri" font-size="14.00"> merged &#160;</text>
<text text-anchor="middle" x="272.134" y="-216.883" font-family="Calibri" font-size="14.00"> &#160;with &#160;</text>
</g>
<!-- n_identity -->
<g id="node5" class="node"><title>n_identity</title>
<ellipse fill="#d6e7ff" stroke="black" cx="353.134" cy="-181.042" rx="32.7527" ry="18"/>
<text text-anchor="middle" x="353.134" y="-177.942" font-family="Calibri" font-size="12.00">Identity</text>
</g>
<!-- n_guardian&#45;&gt;n_identity -->
<g id="edge5" class="edge"><title>n_guardian&#45;&gt;n_identity</title>
<path fill="none" stroke="black" d="M311.588,-281.738C321.032,-259.075 333.498,-229.162 342.302,-208.033"/>
<polygon fill="black" stroke="black" points="345.567,-209.297 346.183,-198.72 339.106,-206.604 345.567,-209.297"/>
<text text-anchor="middle" x="362.634" y="-246.883" font-family="Calibri" font-size="14.00"> &#160;linked &#160;</text>
<text text-anchor="middle" x="362.634" y="-231.883" font-family="Calibri" font-size="14.00"> &#160;to &#160;</text>
</g>
<!-- n_requirements -->
<g id="node8" class="node"><title>n_requirements</title>
<polygon fill="#d6e7ff" stroke="black" points="404.134,-160.042 404.134,-202.042 536.134,-202.042 536.134,-160.042 404.134,-160.042"/>
<text text-anchor="middle" x="470.134" y="-188.442" font-family="Calibri" font-size="12.00">Functional Requirement</text>
<polyline fill="none" stroke="black" points="404.134,-181.042 536.134,-181.042 "/>
<text text-anchor="middle" x="470.134" y="-167.442" font-family="Calibri" font-size="12.00">Legal Requirement</text>
</g>
<!-- n_guardian&#45;&gt;n_requirements -->
<g id="edge8" class="edge"><title>n_guardian&#45;&gt;n_requirements</title>
<path fill="none" stroke="black" d="M358.253,-291.787C369.336,-286.455 380.452,-280.206 390.134,-273.083 417.421,-253.008 442.028,-222.175 456.533,-202.055"/>
<polygon fill="black" stroke="black" points="356.607,-288.692 348.984,-296.049 359.531,-295.052 356.607,-288.692"/>
<text text-anchor="middle" x="488.134" y="-246.883" font-family="Calibri" font-size="14.00"> &#160;may require &#160;</text>
<text text-anchor="middle" x="488.134" y="-231.883" font-family="Calibri" font-size="14.00"> &#160;usage of &#160;</text>
</g>
<!-- n_subject&#45;&gt;n_identity -->
<g id="edge3" class="edge"><title>n_subject&#45;&gt;n_identity</title>
<path fill="none" stroke="black" d="M227.688,-181.042C256.43,-181.042 293.811,-181.042 320.268,-181.042"/>
<polygon fill="black" stroke="black" points="227.526,-177.542 217.526,-181.042 227.526,-184.542 227.526,-177.542"/>
<text text-anchor="middle" x="268.826" y="-187.842" font-family="Calibri" font-size="14.00"> &#160;representing &#160;</text>
</g>
<!-- n_subject&#45;&gt;n_requirements -->
<!-- n_populations -->
<g id="node9" class="node"><title>n_populations</title>
<polygon fill="#d6e7ff" stroke="black" points="260.634,-26.5 260.634,-110.5 443.634,-110.5 443.634,-26.5 260.634,-26.5"/>
<text text-anchor="middle" x="352.134" y="-96.9" font-family="Calibri" font-size="12.00">Minor</text>
<polyline fill="none" stroke="black" points="260.634,-89.5 443.634,-89.5 "/>
<text text-anchor="middle" x="352.134" y="-75.9" font-family="Calibri" font-size="12.00">Adul under Legal Guardianship</text>
<polyline fill="none" stroke="black" points="260.634,-68.5 443.634,-68.5 "/>
<text text-anchor="middle" x="352.134" y="-54.9" font-family="Calibri" font-size="12.00">Person granting Power of Attorney</text>
<polyline fill="none" stroke="black" points="260.634,-47.5 443.634,-47.5 "/>
<text text-anchor="middle" x="352.134" y="-33.9" font-family="Calibri" font-size="12.00">etc.</text>
</g>
<!-- n_subject&#45;&gt;n_populations -->
<g id="edge11" class="edge"><title>n_subject&#45;&gt;n_populations</title>
<path fill="none" stroke="black" d="M205.278,-166.708C224.225,-154.166 253.73,-134.636 281.338,-116.362"/>
<polygon fill="black" stroke="black" points="283.424,-119.178 289.831,-110.74 279.56,-113.341 283.424,-119.178"/>
<text text-anchor="middle" x="304.634" y="-137.8" font-family="Calibri" font-size="14.00"> &#160;member &#160;</text>
<text text-anchor="middle" x="304.634" y="-122.8" font-family="Calibri" font-size="14.00"> &#160;of &#160;</text>
</g>
<!-- n_person -->
<g id="node6" class="node"><title>n_person</title>
<ellipse fill="#d6e7ff" stroke="black" cx="98.1335" cy="-315.024" rx="30.5603" ry="18"/>
<text text-anchor="middle" x="98.1335" y="-311.924" font-family="Calibri" font-size="12.00">Person</text>
</g>
<!-- n_person&#45;&gt;n_guardian -->
<g id="edge4" class="edge"><title>n_person&#45;&gt;n_guardian</title>
<path fill="none" stroke="black" d="M139.243,-315.024C167.437,-315.024 205.335,-315.024 237.047,-315.024"/>
<polygon fill="black" stroke="black" points="138.945,-311.524 128.945,-315.024 138.945,-318.524 138.945,-311.524"/>
<text text-anchor="middle" x="183.118" y="-336.824" font-family="Calibri" font-size="14.00"> &#160;played </text>
<text text-anchor="middle" x="183.118" y="-321.824" font-family="Calibri" font-size="14.00"> &#160;by &#160;</text>
</g>
<!-- n_legal_authority -->
<g id="node7" class="node"><title>n_legal_authority</title>
<ellipse fill="#d6e7ff" stroke="black" cx="43.1335" cy="-181.042" rx="43.2674" ry="24.0833"/>
<text text-anchor="middle" x="43.1335" y="-184.442" font-family="Calibri" font-size="12.00">Legal</text>
<text text-anchor="middle" x="43.1335" y="-171.442" font-family="Calibri" font-size="12.00">Authority</text>
</g>
<!-- n_person&#45;&gt;n_legal_authority -->
<g id="edge6" class="edge"><title>n_person&#45;&gt;n_legal_authority</title>
<path fill="none" stroke="black" d="M91.1677,-297.309C82.5044,-276.519 67.5241,-240.571 56.5911,-214.336"/>
<polygon fill="black" stroke="black" points="59.698,-212.692 52.6206,-204.808 53.2366,-215.385 59.698,-212.692"/>
<text text-anchor="middle" x="91.6335" y="-239.383" font-family="Calibri" font-size="14.00">has</text>
</g>
<!-- n_legal_authority&#45;&gt;n_subject -->
<g id="edge7" class="edge"><title>n_legal_authority&#45;&gt;n_subject</title>
<path fill="none" stroke="black" d="M86.5098,-181.042C104.373,-181.042 125,-181.042 142.758,-181.042"/>
<polygon fill="black" stroke="black" points="142.839,-184.542 152.839,-181.042 142.839,-177.542 142.839,-184.542"/>
<text text-anchor="middle" x="119.695" y="-217.842" font-family="Calibri" font-size="14.00"> &#160;act on &#160;</text>
<text text-anchor="middle" x="119.695" y="-202.842" font-family="Calibri" font-size="14.00"> &#160;behalf &#160;</text>
<text text-anchor="middle" x="119.695" y="-187.842" font-family="Calibri" font-size="14.00"> &#160;of &#160;</text>
</g>
<!-- n_requirements&#45;&gt;n_populations -->
<g id="edge9" class="edge"><title>n_requirements&#45;&gt;n_populations</title>
<path fill="none" stroke="black" d="M448.765,-160.023C436.208,-148.26 419.749,-132.841 403.981,-118.07"/>
<polygon fill="black" stroke="black" points="406.007,-115.172 396.316,-110.89 401.221,-120.281 406.007,-115.172"/>
<text text-anchor="middle" x="458.634" y="-137.8" font-family="Calibri" font-size="14.00"> &#160;linked &#160;</text>
<text text-anchor="middle" x="458.634" y="-122.8" font-family="Calibri" font-size="14.00"> &#160;to &#160;</text>
</g>
</g>
</svg>
