<?xml version="1.0" encoding="UTF-8" standalone="no"?>
<!DOCTYPE svg PUBLIC "-//W3C//DTD SVG 1.1//EN"
 "http://www.w3.org/Graphics/SVG/1.1/DTD/svg11.dtd">
<!-- Generated by graphviz version 2.38.0 (20140413.2041)
 -->
<!-- Title: G Pages: 1 -->
<svg width="1847pt" height="2569pt"
 viewBox="0.00 0.00 443.20 616.63" xmlns="http://www.w3.org/2000/svg" xmlns:xlink="http://www.w3.org/1999/xlink">
<g id="graph0" class="graph" transform="scale(4.16667 4.16667) rotate(0) translate(4 612.635)">
<title>G</title>
<polygon fill="white" stroke="none" points="-4,4 -4,-612.635 439.205,-612.635 439.205,4 -4,4"/>
<text text-anchor="middle" x="217.602" y="-15.6" font-family="Calibri" font-size="8.00">Information Security Domain (Conceptual Diagram) by Open&#45;Measure</text>
<text text-anchor="middle" x="217.602" y="-6.6" font-family="Calibri" font-size="8.00">Licensed under Creative Commons Attribution 4.0 International License</text>
<g id="clust1" class="cluster"><title>cluster_composition</title>
<polygon fill="none" stroke="black" points="179.205,-34 179.205,-414.468 427.205,-414.468 427.205,-34 179.205,-34"/>
</g>
<!-- n_system -->
<g id="node1" class="node"><title>n_system</title>
<ellipse fill="#ffffff" stroke="black" cx="167.205" cy="-590.635" rx="31.2902" ry="18"/>
<text text-anchor="middle" x="167.205" y="-587.535" font-family="Calibri" font-size="12.00">System</text>
</g>
<!-- n_domain -->
<g id="node2" class="node"><title>n_domain</title>
<g id="a_node2"><a xlink:href="https://open-measure.atlassian.net/wiki/spaces/DIC/pages/438698009" xlink:title="Information\nSecurity\nDomain">
<ellipse fill="#5599ff" stroke="black" cx="167.205" cy="-493.551" rx="74.4932" ry="48.1667"/>
<text text-anchor="middle" x="167.205" y="-509.151" font-family="Calibri" font-size="18.00">Information</text>
<text text-anchor="middle" x="167.205" y="-489.151" font-family="Calibri" font-size="18.00">Security</text>
<text text-anchor="middle" x="167.205" y="-469.151" font-family="Calibri" font-size="18.00">Domain</text>
</a>
</g>
</g>
<!-- n_system&#45;&gt;n_domain -->
<g id="edge1" class="edge"><title>n_system&#45;&gt;n_domain</title>
<path fill="none" stroke="black" d="M167.205,-562.189C167.205,-555.856 167.205,-548.938 167.205,-542.023"/>
<polygon fill="black" stroke="black" points="163.705,-562.195 167.205,-572.195 170.705,-562.195 163.705,-562.195"/>
<text text-anchor="middle" x="182.705" y="-553.435" font-family="Calibri" font-size="14.00"> &#160;is a &#160;</text>
</g>
<!-- n_bounded -->
<g id="node3" class="node"><title>n_bounded</title>
<ellipse fill="#d6e7ff" stroke="black" cx="39.2046" cy="-388.468" rx="36.1402" ry="18"/>
<text text-anchor="middle" x="39.2046" y="-385.368" font-family="Calibri" font-size="12.00">Bounded</text>
</g>
<!-- n_domain&#45;&gt;n_bounded -->
<g id="edge2" class="edge"><title>n_domain&#45;&gt;n_bounded</title>
<path fill="none" stroke="black" d="M121.355,-455.627C102.54,-440.475 81.4443,-423.485 65.3414,-410.517"/>
<polygon fill="black" stroke="black" points="67.398,-407.679 57.4143,-404.133 63.0074,-413.131 67.398,-407.679"/>
<text text-anchor="middle" x="107.205" y="-426.268" font-family="Calibri" font-size="14.00"> &#160;is &#160;</text>
</g>
<!-- n_coherent -->
<g id="node4" class="node"><title>n_coherent</title>
<ellipse fill="#d6e7ff" stroke="black" cx="131.205" cy="-388.468" rx="37.6017" ry="18"/>
<text text-anchor="middle" x="131.205" y="-385.368" font-family="Calibri" font-size="12.00">Coherent</text>
</g>
<!-- n_domain&#45;&gt;n_coherent -->
<g id="edge3" class="edge"><title>n_domain&#45;&gt;n_coherent</title>
<path fill="none" stroke="black" d="M151.1,-446.437C147.509,-436.154 143.816,-425.581 140.602,-416.377"/>
<polygon fill="black" stroke="black" points="143.809,-414.943 137.207,-406.657 137.2,-417.251 143.809,-414.943"/>
<text text-anchor="middle" x="158.205" y="-426.268" font-family="Calibri" font-size="14.00"> &#160;is &#160;</text>
</g>
<!-- n_authorities -->
<g id="node5" class="node"><title>n_authorities</title>
<ellipse fill="#d6e7ff" stroke="black" cx="230.205" cy="-388.468" rx="43.1824" ry="18"/>
<text text-anchor="middle" x="230.205" y="-385.368" font-family="Calibri" font-size="12.00">Authorities</text>
</g>
<!-- n_domain&#45;&gt;n_authorities -->
<g id="edge4" class="edge"><title>n_domain&#45;&gt;n_authorities</title>
<path fill="none" stroke="black" d="M199.472,-439.755C206.86,-427.665 214.192,-415.668 219.841,-406.425"/>
<polygon fill="black" stroke="black" points="196.333,-438.178 194.105,-448.536 202.306,-441.828 196.333,-438.178"/>
<text text-anchor="middle" x="236.705" y="-426.268" font-family="Calibri" font-size="14.00"> &#160;govern &#160;</text>
</g>
<!-- n_policies -->
<g id="node6" class="node"><title>n_policies</title>
<ellipse fill="#d6e7ff" stroke="black" cx="254.205" cy="-321.468" rx="33.4852" ry="18"/>
<text text-anchor="middle" x="254.205" y="-318.368" font-family="Calibri" font-size="12.00">Policies</text>
</g>
<!-- n_domain&#45;&gt;n_policies -->
<g id="edge5" class="edge"><title>n_domain&#45;&gt;n_policies</title>
<path fill="none" stroke="black" d="M230.05,-467.888C248.841,-457.222 267.256,-442.7 277.892,-423.58"/>
<polygon fill="black" stroke="black" points="281.09,-425.004 282.205,-414.468 274.763,-422.009 281.09,-425.004"/>
<text text-anchor="middle" x="333.705" y="-392.268" font-family="Calibri" font-size="14.00"> &#160;composed &#160;</text>
<text text-anchor="middle" x="333.705" y="-377.268" font-family="Calibri" font-size="14.00"> &#160;of &#160;</text>
</g>
<!-- n_authorities&#45;&gt;n_policies -->
<g id="edge8" class="edge"><title>n_authorities&#45;&gt;n_policies</title>
<path fill="none" stroke="black" d="M236.51,-370.39C238.955,-363.77 241.809,-356.039 244.503,-348.742"/>
<polygon fill="black" stroke="black" points="247.844,-349.8 248.024,-339.207 241.277,-347.376 247.844,-349.8"/>
<text text-anchor="middle" x="266.205" y="-351.268" font-family="Calibri" font-size="14.00"> &#160;issue &#160;</text>
</g>
<!-- n_authorizations -->
<g id="node9" class="node"><title>n_authorizations</title>
<ellipse fill="#d6e7ff" stroke="black" cx="254.205" cy="-254.468" rx="52.881" ry="18"/>
<text text-anchor="middle" x="254.205" y="-251.368" font-family="Calibri" font-size="12.00">Authorizations</text>
</g>
<!-- n_policies&#45;&gt;n_authorizations -->
<g id="edge9" class="edge"><title>n_policies&#45;&gt;n_authorizations</title>
<path fill="none" stroke="black" d="M254.205,-303.39C254.205,-297.17 254.205,-289.968 254.205,-283.068"/>
<polygon fill="black" stroke="black" points="257.705,-282.658 254.205,-272.658 250.705,-282.658 257.705,-282.658"/>
<text text-anchor="middle" x="287.705" y="-284.268" font-family="Calibri" font-size="14.00"> &#160;prescribe &#160;</text>
</g>
<!-- n_coi -->
<g id="node7" class="node"><title>n_coi</title>
<ellipse fill="#d6e7ff" stroke="black" cx="50.2046" cy="-157.234" rx="50.41" ry="33.4697"/>
<text text-anchor="middle" x="50.2046" y="-167.134" font-family="Calibri" font-size="12.00">Community</text>
<text text-anchor="middle" x="50.2046" y="-154.134" font-family="Calibri" font-size="12.00">of</text>
<text text-anchor="middle" x="50.2046" y="-141.134" font-family="Calibri" font-size="12.00">Interest</text>
</g>
<!-- n_coi&#45;&gt;n_authorities -->
<g id="edge6" class="edge"><title>n_coi&#45;&gt;n_authorities</title>
<path fill="none" stroke="black" d="M72.8877,-187.122C108.678,-232.701 177.612,-320.49 211.063,-363.09"/>
<polygon fill="black" stroke="black" points="208.331,-365.279 217.259,-370.982 213.836,-360.955 208.331,-365.279"/>
<text text-anchor="middle" x="192.205" y="-284.268" font-family="Calibri" font-size="14.00"> &#160;constitute &#160;</text>
</g>
<!-- n_entities -->
<g id="node8" class="node"><title>n_entities</title>
<ellipse fill="#d6e7ff" stroke="black" cx="220.205" cy="-157.234" rx="32.7527" ry="18"/>
<text text-anchor="middle" x="220.205" y="-154.134" font-family="Calibri" font-size="12.00">Entities</text>
</g>
<!-- n_coi&#45;&gt;n_entities -->
<g id="edge7" class="edge"><title>n_coi&#45;&gt;n_entities</title>
<path fill="none" stroke="black" d="M100.75,-157.234C125.109,-157.234 154.012,-157.234 177.286,-157.234"/>
<polygon fill="black" stroke="black" points="177.547,-160.734 187.547,-157.234 177.547,-153.734 177.547,-160.734"/>
<text text-anchor="middle" x="143.994" y="-164.034" font-family="Calibri" font-size="14.00"> &#160;constitute &#160;</text>
</g>
<!-- n_identities -->
<g id="node10" class="node"><title>n_identities</title>
<ellipse fill="#d6e7ff" stroke="black" cx="225.205" cy="-60" rx="38.3335" ry="18"/>
<text text-anchor="middle" x="225.205" y="-56.9" font-family="Calibri" font-size="12.00">Identities</text>
</g>
<!-- n_entities&#45;&gt;n_identities -->
<g id="edge11" class="edge"><title>n_entities&#45;&gt;n_identities</title>
<path fill="none" stroke="black" d="M221.098,-139.208C221.84,-125.076 222.91,-104.71 223.771,-88.3039"/>
<polygon fill="black" stroke="black" points="227.272,-88.3694 224.302,-78.1996 220.282,-88.0023 227.272,-88.3694"/>
<text text-anchor="middle" x="252.205" y="-104.8" font-family="Calibri" font-size="14.00"> &#160;proxied &#160;</text>
<text text-anchor="middle" x="252.205" y="-89.8" font-family="Calibri" font-size="14.00"> &#160;by &#160;</text>
</g>
<!-- n_operations -->
<g id="node11" class="node"><title>n_operations</title>
<ellipse fill="#d6e7ff" stroke="black" cx="375.205" cy="-157.234" rx="43.9143" ry="18"/>
<text text-anchor="middle" x="375.205" y="-154.134" font-family="Calibri" font-size="12.00">Operations</text>
</g>
<!-- n_entities&#45;&gt;n_operations -->
<g id="edge12" class="edge"><title>n_entities&#45;&gt;n_operations</title>
<path fill="none" stroke="black" d="M253.076,-157.234C272.881,-157.234 298.585,-157.234 321.299,-157.234"/>
<polygon fill="black" stroke="black" points="321.493,-160.734 331.493,-157.234 321.493,-153.734 321.493,-160.734"/>
<text text-anchor="middle" x="292.164" y="-164.034" font-family="Calibri" font-size="14.00"> &#160;perform &#160;</text>
</g>
<!-- n_authorizations&#45;&gt;n_entities -->
<g id="edge10" class="edge"><title>n_authorizations&#45;&gt;n_entities</title>
<path fill="none" stroke="black" d="M248.126,-236.442C243.001,-222.087 235.58,-201.299 229.676,-184.764"/>
<polygon fill="black" stroke="black" points="232.889,-183.354 226.23,-175.113 226.297,-185.707 232.889,-183.354"/>
<text text-anchor="middle" x="257.705" y="-209.768" font-family="Calibri" font-size="14.00"> &#160;to &#160;</text>
</g>
<!-- n_authorizations&#45;&gt;n_operations -->
<g id="edge13" class="edge"><title>n_authorizations&#45;&gt;n_operations</title>
<path fill="none" stroke="black" d="M274.185,-237.742C294.184,-222.002 325.115,-197.658 347.483,-180.053"/>
<polygon fill="black" stroke="black" points="349.902,-182.602 355.596,-173.667 345.573,-177.102 349.902,-182.602"/>
<text text-anchor="middle" x="351.705" y="-217.268" font-family="Calibri" font-size="14.00"> &#160;to &#160;</text>
<text text-anchor="middle" x="351.705" y="-202.268" font-family="Calibri" font-size="14.00"> &#160;perform &#160;</text>
</g>
<!-- n_resources -->
<g id="node12" class="node"><title>n_resources</title>
<ellipse fill="#d6e7ff" stroke="black" cx="375.205" cy="-60" rx="41.4901" ry="18"/>
<text text-anchor="middle" x="375.205" y="-56.9" font-family="Calibri" font-size="12.00">Resources</text>
</g>
<!-- n_operations&#45;&gt;n_resources -->
<g id="edge14" class="edge"><title>n_operations&#45;&gt;n_resources</title>
<path fill="none" stroke="black" d="M375.205,-139.208C375.205,-125.076 375.205,-104.71 375.205,-88.3039"/>
<polygon fill="black" stroke="black" points="378.705,-88.1996 375.205,-78.1996 371.705,-88.1997 378.705,-88.1996"/>
<text text-anchor="middle" x="389.205" y="-97.3" font-family="Calibri" font-size="14.00"> &#160;on &#160;</text>
</g>
</g>
</svg>
