<?xml version="1.0" encoding="UTF-8" standalone="no"?>
<!DOCTYPE svg PUBLIC "-//W3C//DTD SVG 1.1//EN"
 "http://www.w3.org/Graphics/SVG/1.1/DTD/svg11.dtd">
<!-- Generated by graphviz version 2.38.0 (20140413.2041)
 -->
<!-- Title: G Pages: 1 -->
<svg width="1957pt" height="2324pt"
 viewBox="0.00 0.00 469.80 557.74" xmlns="http://www.w3.org/2000/svg" xmlns:xlink="http://www.w3.org/1999/xlink">
<g id="graph0" class="graph" transform="scale(4.16667 4.16667) rotate(0) translate(4 553.74)">
<title>G</title>
<polygon fill="white" stroke="none" points="-4,4 -4,-553.74 465.796,-553.74 465.796,4 -4,4"/>
<text text-anchor="middle" x="230.898" y="-15.6" font-family="Calibri" font-size="8.00">Insider (Conceptual Diagram) by Open&#45;Measure</text>
<text text-anchor="middle" x="230.898" y="-6.6" font-family="Calibri" font-size="8.00">Licensed under Creative Commons Attribution 4.0 International License</text>
<g id="clust1" class="cluster"><title>cluster_privileges</title>
<polygon fill="none" stroke="black" points="314.25,-399.74 314.25,-481.74 412.25,-481.74 412.25,-399.74 314.25,-399.74"/>
<text text-anchor="middle" x="363.25" y="-466.54" font-family="Calibri" font-size="14.00">Privilege Level</text>
</g>
<g id="clust2" class="cluster"><title>cluster_extended</title>
<polygon fill="none" stroke="black" points="185.25,-34 185.25,-213 369.25,-213 369.25,-34 185.25,-34"/>
<text text-anchor="middle" x="277.25" y="-197.8" font-family="Calibri" font-size="14.00">Extended Organization</text>
</g>
<!-- n_entity -->
<g id="node1" class="node"><title>n_entity</title>
<ellipse fill="#ffffff" stroke="black" cx="230.25" cy="-531.74" rx="27.1719" ry="18"/>
<text text-anchor="middle" x="230.25" y="-528.64" font-family="Calibri" font-size="12.00">Entity</text>
</g>
<!-- n_person -->
<g id="node2" class="node"><title>n_person</title>
<ellipse fill="#ffffff" stroke="black" cx="186.25" cy="-429.24" rx="30.5603" ry="18"/>
<text text-anchor="middle" x="186.25" y="-426.14" font-family="Calibri" font-size="12.00">Person</text>
</g>
<!-- n_entity&#45;&gt;n_person -->
<g id="edge1" class="edge"><title>n_entity&#45;&gt;n_person</title>
<path fill="none" stroke="black" d="M214.089,-506.375C213.801,-505.828 213.521,-505.283 213.25,-504.74 203.78,-485.788 195.933,-462.678 191.183,-447.271"/>
<polygon fill="black" stroke="black" points="211.146,-508.274 219.218,-515.137 217.187,-504.738 211.146,-508.274"/>
<text text-anchor="middle" x="232.75" y="-493.54" font-family="Calibri" font-size="14.00"> &#160;is an &#160;</text>
</g>
<!-- n_insider -->
<g id="node3" class="node"><title>n_insider</title>
<g id="a_node3"><a xlink:href="https://open-measure.atlassian.net/wiki/spaces/DIC/pages/1451884782" xlink:title="Insider">
<ellipse fill="#5599ff" stroke="black" cx="266.25" cy="-340.87" rx="47.2526" ry="19.6"/>
<text text-anchor="middle" x="266.25" y="-336.47" font-family="Calibri" font-size="18.00">Insider</text>
</a>
</g>
</g>
<!-- n_entity&#45;&gt;n_insider -->
<g id="edge3" class="edge"><title>n_entity&#45;&gt;n_insider</title>
<path fill="none" stroke="black" d="M250.795,-507.816C251.33,-506.804 251.819,-505.778 252.25,-504.74 272.514,-455.997 270.723,-392.106 268.228,-360.81"/>
<polygon fill="black" stroke="black" points="247.695,-506.155 245.026,-516.408 253.506,-510.058 247.695,-506.155"/>
<text text-anchor="middle" x="289.75" y="-425.54" font-family="Calibri" font-size="14.00"> &#160;is an &#160;</text>
</g>
<!-- n_person&#45;&gt;n_insider -->
<g id="edge2" class="edge"><title>n_person&#45;&gt;n_insider</title>
<path fill="none" stroke="black" stroke-dasharray="5,2" d="M175.16,-401.919C173.271,-393.294 173.28,-384.056 178.25,-376.74 188.316,-361.924 205.764,-353.403 222.482,-348.502"/>
<polygon fill="black" stroke="black" points="171.842,-403.037 178.066,-411.611 178.547,-401.027 171.842,-403.037"/>
<text text-anchor="middle" x="215.25" y="-380.54" font-family="Calibri" font-size="14.00"> &#160;is (often) a &#160;</text>
</g>
<!-- n_outsider -->
<g id="node4" class="node"><title>n_outsider</title>
<ellipse fill="#5599ff" stroke="black" cx="418.25" cy="-340.87" rx="43.5923" ry="18"/>
<text text-anchor="middle" x="418.25" y="-337.17" font-family="Calibri" font-size="14.00">Outsider</text>
</g>
<!-- n_insider&#45;&gt;n_outsider -->
<g id="edge4" class="edge"><title>n_insider&#45;&gt;n_outsider</title>
<path fill="none" stroke="black" d="M324.161,-340.87C337.375,-340.87 351.363,-340.87 364.399,-340.87"/>
<polygon fill="black" stroke="black" points="323.927,-337.37 313.927,-340.87 323.927,-344.37 323.927,-337.37"/>
<polygon fill="black" stroke="black" points="364.616,-344.37 374.616,-340.87 364.616,-337.37 364.616,-344.37"/>
<text text-anchor="middle" x="344.165" y="-347.67" font-family="Calibri" font-size="14.00"> &#160;is not &#160;</text>
</g>
<!-- n_organization -->
<g id="node5" class="node"><title>n_organization</title>
<ellipse fill="#d6e7ff" stroke="black" cx="277.25" cy="-164" rx="59.2899" ry="18"/>
<text text-anchor="middle" x="277.25" y="-160.3" font-family="Calibri" font-size="14.00">Organization</text>
</g>
<!-- n_insider&#45;&gt;n_organization -->
<g id="edge5" class="edge"><title>n_insider&#45;&gt;n_organization</title>
<path fill="none" stroke="black" d="M307.292,-330.932C334.96,-324.223 368.331,-314.58 379.25,-305 388.07,-297.261 387.748,-292.464 390.25,-281 395.943,-254.914 402.592,-242.852 387.25,-221 384.059,-216.455 380.387,-212.256 376.364,-208.381"/>
<polygon fill="black" stroke="black" points="378.605,-205.691 368.771,-201.748 373.999,-210.963 378.605,-205.691"/>
<text text-anchor="middle" x="420.75" y="-266.8" font-family="Calibri" font-size="14.00"> &#160;linked &#160;</text>
<text text-anchor="middle" x="420.75" y="-251.8" font-family="Calibri" font-size="14.00"> &#160;to &#160;</text>
</g>
<!-- n_knowledge -->
<g id="node9" class="node"><title>n_knowledge</title>
<ellipse fill="#d6e7ff" stroke="black" cx="125.25" cy="-263" rx="51.9908" ry="18"/>
<text text-anchor="middle" x="125.25" y="-259.3" font-family="Calibri" font-size="14.00">Knowledge</text>
</g>
<!-- n_insider&#45;&gt;n_knowledge -->
<g id="edge9" class="edge"><title>n_insider&#45;&gt;n_knowledge</title>
<path fill="none" stroke="black" d="M238.055,-324.699C216.061,-312.864 185.35,-296.339 161.525,-283.519"/>
<polygon fill="black" stroke="black" points="162.902,-280.286 152.437,-278.629 159.585,-286.45 162.902,-280.286"/>
<text text-anchor="middle" x="216.75" y="-293.8" font-family="Calibri" font-size="14.00"> &#160;has &#160;</text>
</g>
<!-- n_trust -->
<g id="node10" class="node"><title>n_trust</title>
<ellipse fill="#d6e7ff" stroke="black" cx="226.25" cy="-263" rx="30.5947" ry="18"/>
<text text-anchor="middle" x="226.25" y="-259.3" font-family="Calibri" font-size="14.00">Trust</text>
</g>
<!-- n_insider&#45;&gt;n_trust -->
<g id="edge11" class="edge"><title>n_insider&#45;&gt;n_trust</title>
<path fill="none" stroke="black" d="M256.362,-321.116C251.332,-311.574 245.143,-299.836 239.687,-289.487"/>
<polygon fill="black" stroke="black" points="242.697,-287.691 234.937,-280.477 236.505,-290.956 242.697,-287.691"/>
<text text-anchor="middle" x="264.75" y="-293.8" font-family="Calibri" font-size="14.00"> &#160;has &#160;</text>
</g>
<!-- n_capabilities -->
<g id="node11" class="node"><title>n_capabilities</title>
<ellipse fill="#d6e7ff" stroke="black" cx="328.25" cy="-263" rx="53.0913" ry="18"/>
<text text-anchor="middle" x="328.25" y="-259.3" font-family="Calibri" font-size="14.00">Capabilities</text>
</g>
<!-- n_insider&#45;&gt;n_capabilities -->
<g id="edge13" class="edge"><title>n_insider&#45;&gt;n_capabilities</title>
<path fill="none" stroke="black" stroke-dasharray="5,2" d="M280.943,-321.89C289.104,-311.903 299.373,-299.337 308.256,-288.466"/>
<polygon fill="black" stroke="black" points="311.104,-290.513 314.722,-280.555 305.684,-286.083 311.104,-290.513"/>
<text text-anchor="middle" x="341.25" y="-293.8" font-family="Calibri" font-size="14.00"> &#160;may have &#160;</text>
</g>
<!-- n_entities -->
<g id="node7" class="node"><title>n_entities</title>
<polygon fill="#d6e7ff" stroke="black" points="193.75,-42.5 193.75,-126.5 360.75,-126.5 360.75,-42.5 193.75,-42.5"/>
<text text-anchor="middle" x="246.75" y="-112.9" font-family="Calibri" font-size="12.00">Employees</text>
<polyline fill="none" stroke="black" points="193.75,-105.5 299.75,-105.5 "/>
<text text-anchor="middle" x="246.75" y="-91.9" font-family="Calibri" font-size="12.00">Former Employees</text>
<polyline fill="none" stroke="black" points="193.75,-84.5 299.75,-84.5 "/>
<text text-anchor="middle" x="246.75" y="-70.9" font-family="Calibri" font-size="12.00">Contractors</text>
<polyline fill="none" stroke="black" points="193.75,-63.5 299.75,-63.5 "/>
<text text-anchor="middle" x="246.75" y="-49.9" font-family="Calibri" font-size="12.00">Board Members</text>
<polyline fill="none" stroke="black" points="299.75,-42.5 299.75,-126.5 "/>
<text text-anchor="middle" x="330.25" y="-112.9" font-family="Calibri" font-size="12.00">Auditors</text>
<polyline fill="none" stroke="black" points="299.75,-105.5 360.75,-105.5 "/>
<text text-anchor="middle" x="330.25" y="-91.9" font-family="Calibri" font-size="12.00">Vendors</text>
<polyline fill="none" stroke="black" points="299.75,-84.5 360.75,-84.5 "/>
<text text-anchor="middle" x="330.25" y="-70.9" font-family="Calibri" font-size="12.00">Suppliers</text>
<polyline fill="none" stroke="black" points="299.75,-63.5 360.75,-63.5 "/>
<text text-anchor="middle" x="330.25" y="-49.9" font-family="Calibri" font-size="12.00">etc.</text>
</g>
<!-- n_organization&#45;&gt;n_entities -->
<!-- n_privileges -->
<g id="node6" class="node"><title>n_privileges</title>
<polygon fill="#d6e7ff" stroke="black" points="323.25,-408.24 323.25,-450.24 401.25,-450.24 401.25,-408.24 323.25,-408.24"/>
<text text-anchor="middle" x="362.25" y="-436.64" font-family="Calibri" font-size="12.00">Unprivileged</text>
<polyline fill="none" stroke="black" points="323.25,-429.24 401.25,-429.24 "/>
<text text-anchor="middle" x="362.25" y="-415.64" font-family="Calibri" font-size="12.00">Privileged</text>
</g>
<!-- n_privileges&#45;&gt;n_insider -->
<g id="edge6" class="edge"><title>n_privileges&#45;&gt;n_insider</title>
<path fill="none" stroke="black" d="M323.316,-393.212C310.283,-381.486 296.325,-368.928 285.475,-359.167"/>
<polygon fill="black" stroke="black" points="321.077,-395.906 330.852,-399.992 325.759,-390.702 321.077,-395.906"/>
<text text-anchor="middle" x="354.25" y="-380.54" font-family="Calibri" font-size="14.00"> &#160;may have &#160;</text>
</g>
<!-- n_threat -->
<g id="node8" class="node"><title>n_threat</title>
<ellipse fill="#d6e7ff" stroke="black" cx="56.2499" cy="-340.87" rx="40.1111" ry="26.7407"/>
<text text-anchor="middle" x="56.2499" y="-344.67" font-family="Calibri" font-size="14.00">Insider</text>
<text text-anchor="middle" x="56.2499" y="-329.67" font-family="Calibri" font-size="14.00">Threat</text>
</g>
<!-- n_threat&#45;&gt;n_insider -->
<g id="edge7" class="edge"><title>n_threat&#45;&gt;n_insider</title>
<path fill="none" stroke="black" d="M106.911,-340.87C140.844,-340.87 185.228,-340.87 218.532,-340.87"/>
<polygon fill="black" stroke="black" points="106.74,-337.37 96.7401,-340.87 106.74,-344.37 106.74,-337.37"/>
<text text-anchor="middle" x="157.714" y="-347.67" font-family="Calibri" font-size="14.00"> &#160;poses &#160;</text>
</g>
<!-- n_threat&#45;&gt;n_organization -->
<g id="edge8" class="edge"><title>n_threat&#45;&gt;n_organization</title>
<path fill="none" stroke="black" d="M32.1354,-319.165C11.8122,-299.177 -11.3616,-268.562 6.24995,-245 31.3549,-211.413 143.787,-187.008 215.714,-174.5"/>
<polygon fill="black" stroke="black" points="216.313,-177.948 225.581,-172.814 215.135,-171.048 216.313,-177.948"/>
<text text-anchor="middle" x="35.2499" y="-266.8" font-family="Calibri" font-size="14.00"> &#160;may &#160;</text>
<text text-anchor="middle" x="35.2499" y="-251.8" font-family="Calibri" font-size="14.00"> &#160;damage &#160;</text>
</g>
<!-- n_knowledge&#45;&gt;n_organization -->
<g id="edge10" class="edge"><title>n_knowledge&#45;&gt;n_organization</title>
<path fill="none" stroke="black" d="M149,-246.844C161.458,-238.894 177.546,-228.627 194.091,-218.069"/>
<polygon fill="black" stroke="black" points="196.221,-220.862 202.767,-212.532 192.455,-214.961 196.221,-220.862"/>
<text text-anchor="middle" x="200.75" y="-224.8" font-family="Calibri" font-size="14.00"> &#160;of &#160;</text>
</g>
<!-- n_trust&#45;&gt;n_organization -->
<g id="edge12" class="edge"><title>n_trust&#45;&gt;n_organization</title>
<path fill="none" stroke="black" d="M234.901,-245.545C238.458,-238.78 242.807,-230.509 247.348,-221.872"/>
<polygon fill="black" stroke="black" points="250.569,-223.268 252.125,-212.788 244.373,-220.01 250.569,-223.268"/>
<text text-anchor="middle" x="259.75" y="-224.8" font-family="Calibri" font-size="14.00"> &#160;of &#160;</text>
</g>
<!-- n_capabilities&#45;&gt;n_organization -->
<g id="edge14" class="edge"><title>n_capabilities&#45;&gt;n_organization</title>
<path fill="none" stroke="black" d="M319.366,-245.104C315.816,-238.351 311.505,-230.151 307.012,-221.605"/>
<polygon fill="black" stroke="black" points="310.039,-219.843 302.288,-212.621 303.844,-223.101 310.039,-219.843"/>
<text text-anchor="middle" x="349.25" y="-224.8" font-family="Calibri" font-size="14.00"> &#160;related to &#160;</text>
</g>
</g>
</svg>
