<?xml version="1.0" encoding="UTF-8" standalone="no"?>
<!DOCTYPE svg PUBLIC "-//W3C//DTD SVG 1.1//EN"
 "http://www.w3.org/Graphics/SVG/1.1/DTD/svg11.dtd">
<!-- Generated by graphviz version 2.38.0 (20140413.2041)
 -->
<!-- Title: G Pages: 1 -->
<svg width="2566pt" height="1634pt"
 viewBox="0.00 0.00 615.94 392.17" xmlns="http://www.w3.org/2000/svg" xmlns:xlink="http://www.w3.org/1999/xlink">
<g id="graph0" class="graph" transform="scale(4.16667 4.16667) rotate(0) translate(4 388.167)">
<title>G</title>
<polygon fill="white" stroke="none" points="-4,4 -4,-388.167 611.936,-388.167 611.936,4 -4,4"/>
<text text-anchor="middle" x="303.968" y="-15.6" font-family="Calibri" font-size="8.00">Joiner (Conceptual Diagram) by Open&#45;Measure</text>
<text text-anchor="middle" x="303.968" y="-6.6" font-family="Calibri" font-size="8.00">Licensed under Creative Commons Attribution 4.0 International License</text>
<!-- n_nonworker -->
<g id="node1" class="node"><title>n_nonworker</title>
<g id="a_node1"><a xlink:href="https://open-measure.atlassian.net/wiki/spaces/DIC/pages/858554692" xlink:title="Nonworker">
<ellipse fill="#d6e7ff" stroke="black" cx="211.305" cy="-226.125" rx="42.451" ry="18"/>
<text text-anchor="middle" x="211.305" y="-223.025" font-family="Calibri" font-size="12.00">Nonworker</text>
</a>
</g>
</g>
<!-- n_joiner -->
<g id="node2" class="node"><title>n_joiner</title>
<g id="a_node2"><a xlink:href="https://open-measure.atlassian.net/wiki/spaces/DIC/pages/855506953" xlink:title="Joiner">
<ellipse fill="#5599ff" stroke="black" cx="373.305" cy="-226.125" rx="43.6818" ry="19.6"/>
<text text-anchor="middle" x="373.305" y="-221.725" font-family="Calibri" font-size="18.00">Joiner</text>
</a>
</g>
</g>
<!-- n_nonworker&#45;&gt;n_joiner -->
<g id="edge1" class="edge"><title>n_nonworker&#45;&gt;n_joiner</title>
<path fill="none" stroke="black" d="M253.869,-226.125C273.848,-226.125 297.889,-226.125 319.149,-226.125"/>
<polygon fill="black" stroke="black" points="319.332,-229.625 329.332,-226.125 319.332,-222.625 319.332,-229.625"/>
<text text-anchor="middle" x="291.623" y="-232.925" font-family="Calibri" font-size="14.00"> &#160;become &#160;</text>
</g>
<!-- n_person -->
<g id="node3" class="node"><title>n_person</title>
<ellipse fill="white" stroke="black" cx="373.305" cy="-147.042" rx="30.5603" ry="18"/>
<text text-anchor="middle" x="373.305" y="-143.942" font-family="Calibri" font-size="12.00">Person</text>
</g>
<!-- n_nonworker&#45;&gt;n_person -->
<g id="edge2" class="edge"><title>n_nonworker&#45;&gt;n_person</title>
<path fill="none" stroke="black" d="M238.42,-212.223C266.623,-198.803 310.777,-177.794 340.825,-163.497"/>
<polygon fill="black" stroke="black" points="342.521,-166.566 350.047,-159.109 339.513,-160.245 342.521,-166.566"/>
<text text-anchor="middle" x="318.305" y="-182.883" font-family="Calibri" font-size="14.00"> &#160;is &#160;</text>
</g>
<!-- n_joiner&#45;&gt;n_person -->
<g id="edge18" class="edge"><title>n_joiner&#45;&gt;n_person</title>
<path fill="none" stroke="black" d="M373.305,-206.071C373.305,-196.806 373.305,-185.502 373.305,-175.341"/>
<polygon fill="black" stroke="black" points="376.805,-175.299 373.305,-165.299 369.805,-175.299 376.805,-175.299"/>
<text text-anchor="middle" x="384.305" y="-182.883" font-family="Calibri" font-size="14.00"> &#160;is &#160;</text>
</g>
<!-- n_worker -->
<g id="node4" class="node"><title>n_worker</title>
<g id="a_node4"><a xlink:href="https://open-measure.atlassian.net/wiki/spaces/DIC/pages/855638141" xlink:title="Worker">
<ellipse fill="#d6e7ff" stroke="black" cx="524.305" cy="-226.125" rx="32.0211" ry="18"/>
<text text-anchor="middle" x="524.305" y="-223.025" font-family="Calibri" font-size="12.00">Worker</text>
</a>
</g>
</g>
<!-- n_joiner&#45;&gt;n_worker -->
<g id="edge19" class="edge"><title>n_joiner&#45;&gt;n_worker</title>
<path fill="none" stroke="black" d="M417.386,-226.125C437.698,-226.125 461.701,-226.125 481.814,-226.125"/>
<polygon fill="black" stroke="black" points="481.936,-229.625 491.936,-226.125 481.936,-222.625 481.936,-229.625"/>
<text text-anchor="middle" x="454.72" y="-232.925" font-family="Calibri" font-size="14.00"> &#160;become &#160;</text>
</g>
<!-- n_entity -->
<g id="node17" class="node"><title>n_entity</title>
<g id="a_node17"><a xlink:href="https://open-measure.atlassian.net/wiki/spaces/DIC/pages/123830932" xlink:title="Entity">
<ellipse fill="#d6e7ff" stroke="black" cx="373.305" cy="-44" rx="27.1719" ry="18"/>
<text text-anchor="middle" x="373.305" y="-40.9" font-family="Calibri" font-size="12.00">Entity</text>
</a>
</g>
</g>
<!-- n_person&#45;&gt;n_entity -->
<g id="edge27" class="edge"><title>n_person&#45;&gt;n_entity</title>
<path fill="none" stroke="black" d="M373.305,-128.901C373.305,-113.442 373.305,-90.4345 373.305,-72.4206"/>
<polygon fill="black" stroke="black" points="376.805,-72.2244 373.305,-62.2244 369.805,-72.2245 376.805,-72.2244"/>
<text text-anchor="middle" x="384.305" y="-88.8" font-family="Calibri" font-size="14.00"> &#160;is &#160;</text>
</g>
<!-- n_worker&#45;&gt;n_person -->
<g id="edge4" class="edge"><title>n_worker&#45;&gt;n_person</title>
<path fill="none" stroke="black" d="M501.371,-213.418C475.724,-200.325 434.012,-179.031 405.196,-164.321"/>
<polygon fill="black" stroke="black" points="406.458,-161.036 395.96,-159.607 403.275,-167.271 406.458,-161.036"/>
<text text-anchor="middle" x="474.305" y="-182.883" font-family="Calibri" font-size="14.00"> &#160;is &#160;</text>
</g>
<!-- n_workforce -->
<g id="node5" class="node"><title>n_workforce</title>
<g id="a_node5"><a xlink:href="https://open-measure.atlassian.net/wiki/spaces/DIC/pages/852492409" xlink:title="Workforce">
<ellipse fill="#d6e7ff" stroke="black" cx="559.305" cy="-147.042" rx="41.4901" ry="18"/>
<text text-anchor="middle" x="559.305" y="-143.942" font-family="Calibri" font-size="12.00">Workforce</text>
</a>
</g>
</g>
<!-- n_worker&#45;&gt;n_workforce -->
<g id="edge3" class="edge"><title>n_worker&#45;&gt;n_workforce</title>
<path fill="none" stroke="black" d="M531.9,-208.399C536.409,-198.467 542.227,-185.654 547.342,-174.39"/>
<polygon fill="black" stroke="black" points="550.657,-175.553 551.605,-165.001 544.283,-172.659 550.657,-175.553"/>
<text text-anchor="middle" x="557.805" y="-182.883" font-family="Calibri" font-size="14.00"> &#160;of &#160;</text>
</g>
<!-- n_organization -->
<g id="node8" class="node"><title>n_organization</title>
<ellipse fill="white" stroke="black" cx="559.305" cy="-44" rx="48.7631" ry="18"/>
<text text-anchor="middle" x="559.305" y="-40.9" font-family="Calibri" font-size="12.00">Organization</text>
</g>
<!-- n_workforce&#45;&gt;n_organization -->
<g id="edge14" class="edge"><title>n_workforce&#45;&gt;n_organization</title>
<path fill="none" stroke="black" d="M559.305,-128.901C559.305,-113.442 559.305,-90.4345 559.305,-72.4206"/>
<polygon fill="black" stroke="black" points="562.805,-72.2244 559.305,-62.2244 555.805,-72.2245 562.805,-72.2244"/>
<text text-anchor="middle" x="571.805" y="-88.8" font-family="Calibri" font-size="14.00"> &#160;of &#160;</text>
</g>
<!-- n_hiring -->
<g id="node6" class="node"><title>n_hiring</title>
<g id="a_node6"><a xlink:href="https://open-measure.atlassian.net/wiki/spaces/DIC/pages/858456203" xlink:title="Hiring">
<ellipse fill="#d6e7ff" stroke="black" cx="309.305" cy="-299.167" rx="28.1352" ry="18"/>
<text text-anchor="middle" x="309.305" y="-296.067" font-family="Calibri" font-size="12.00">Hiring</text>
</a>
</g>
</g>
<!-- n_hiring&#45;&gt;n_joiner -->
<g id="edge5" class="edge"><title>n_hiring&#45;&gt;n_joiner</title>
<path fill="none" stroke="black" d="M322.878,-283.1C330.948,-274.142 341.39,-262.552 350.677,-252.243"/>
<polygon fill="black" stroke="black" points="353.402,-254.447 357.495,-244.674 348.201,-249.761 353.402,-254.447"/>
<text text-anchor="middle" x="370.805" y="-261.967" font-family="Calibri" font-size="14.00"> &#160;trigger &#160;</text>
</g>
<!-- n_start -->
<g id="node7" class="node"><title>n_start</title>
<g id="a_node7"><a xlink:href="https://open-measure.atlassian.net/wiki/spaces/DIC/pages/852492338" xlink:title="Start Time">
<ellipse fill="#d6e7ff" stroke="black" cx="454.305" cy="-299.167" rx="40.7579" ry="18"/>
<text text-anchor="middle" x="454.305" y="-296.067" font-family="Calibri" font-size="12.00">Start Time</text>
</a>
</g>
</g>
<!-- n_hiring&#45;&gt;n_start -->
<g id="edge6" class="edge"><title>n_hiring&#45;&gt;n_start</title>
<path fill="none" stroke="black" d="M337.952,-299.167C356.62,-299.167 381.501,-299.167 403.462,-299.167"/>
<polygon fill="black" stroke="black" points="403.64,-302.667 413.64,-299.167 403.64,-295.667 403.64,-302.667"/>
<text text-anchor="middle" x="375.649" y="-305.967" font-family="Calibri" font-size="14.00"> &#160;precede &#160;</text>
</g>
<!-- n_start&#45;&gt;n_worker -->
<g id="edge7" class="edge"><title>n_start&#45;&gt;n_worker</title>
<path fill="none" stroke="black" d="M456.456,-280.804C458.121,-273.197 461.073,-264.565 466.305,-258.167 472.188,-250.972 480.191,-245.214 488.373,-240.708"/>
<polygon fill="black" stroke="black" points="490.178,-243.719 497.582,-236.141 487.068,-237.448 490.178,-243.719"/>
<text text-anchor="middle" x="491.805" y="-261.967" font-family="Calibri" font-size="14.00"> &#160;trigger &#160;</text>
</g>
<!-- n_onboarder -->
<g id="node9" class="node"><title>n_onboarder</title>
<ellipse fill="white" stroke="black" cx="227.305" cy="-366.167" rx="41.7203" ry="18"/>
<text text-anchor="middle" x="227.305" y="-363.067" font-family="Calibri" font-size="12.00">Onboarder</text>
</g>
<!-- n_onboarding -->
<g id="node10" class="node"><title>n_onboarding</title>
<ellipse fill="white" stroke="black" cx="454.305" cy="-366.167" rx="45.6069" ry="18"/>
<text text-anchor="middle" x="454.305" y="-363.067" font-family="Calibri" font-size="12.00">Onboarding</text>
</g>
<!-- n_onboarder&#45;&gt;n_onboarding -->
<g id="edge8" class="edge"><title>n_onboarder&#45;&gt;n_onboarding</title>
<path fill="none" stroke="black" d="M269.205,-366.167C305.502,-366.167 358.311,-366.167 398.242,-366.167"/>
<polygon fill="black" stroke="black" points="398.358,-369.667 408.358,-366.167 398.358,-362.667 398.358,-369.667"/>
<text text-anchor="middle" x="338.958" y="-372.967" font-family="Calibri" font-size="14.00"> &#160;manage &#160;</text>
</g>
<!-- n_iam_function -->
<g id="node11" class="node"><title>n_iam_function</title>
<ellipse fill="#d6e7ff" stroke="black" cx="110.305" cy="-226.125" rx="41.0244" ry="24.0833"/>
<text text-anchor="middle" x="110.305" y="-229.525" font-family="Calibri" font-size="12.00">IAM</text>
<text text-anchor="middle" x="110.305" y="-216.525" font-family="Calibri" font-size="12.00">Function</text>
</g>
<!-- n_onboarder&#45;&gt;n_iam_function -->
<g id="edge9" class="edge"><title>n_onboarder&#45;&gt;n_iam_function</title>
<path fill="none" stroke="black" d="M213.655,-349.061C194.343,-326.276 158.733,-284.263 134.784,-256.006"/>
<polygon fill="black" stroke="black" points="137.195,-253.437 128.059,-248.072 131.855,-257.963 137.195,-253.437"/>
<text text-anchor="middle" x="209.305" y="-295.467" font-family="Calibri" font-size="14.00"> &#160;notify &#160;</text>
</g>
<!-- n_onboarding&#45;&gt;n_worker -->
<g id="edge10" class="edge"><title>n_onboarding&#45;&gt;n_worker</title>
<path fill="none" stroke="black" d="M489.493,-354.527C496.315,-350.969 502.75,-346.288 507.305,-340.167 525.674,-315.478 528.028,-279.227 527.028,-254.477"/>
<polygon fill="black" stroke="black" points="530.511,-254.086 526.405,-244.319 523.524,-254.515 530.511,-254.086"/>
<text text-anchor="middle" x="539.805" y="-295.467" font-family="Calibri" font-size="14.00"> &#160;of &#160;</text>
</g>
<!-- n_onboarding&#45;&gt;n_workforce -->
<g id="edge11" class="edge"><title>n_onboarding&#45;&gt;n_workforce</title>
<path fill="none" stroke="black" d="M494.84,-357.728C517.447,-351.215 543.55,-339.181 556.305,-317.167 583.906,-269.528 567.858,-249.085 570.305,-194.083 570.601,-187.423 571.435,-185.654 570.305,-179.083 570.051,-177.604 569.733,-176.102 569.367,-174.597"/>
<polygon fill="black" stroke="black" points="572.664,-173.405 566.427,-164.84 565.961,-175.425 572.664,-173.405"/>
<text text-anchor="middle" x="584.805" y="-261.967" font-family="Calibri" font-size="14.00"> &#160;in &#160;</text>
</g>
<!-- n_onboarding&#45;&gt;n_hiring -->
<g id="edge12" class="edge"><title>n_onboarding&#45;&gt;n_hiring</title>
<path fill="none" stroke="black" d="M424.441,-352.456C415.384,-348.558 405.42,-344.226 396.305,-340.167 377.771,-331.913 357.135,-322.437 340.614,-314.781"/>
<polygon fill="black" stroke="black" points="341.953,-311.544 331.409,-310.507 339.004,-317.893 341.953,-311.544"/>
<text text-anchor="middle" x="423.305" y="-328.967" font-family="Calibri" font-size="14.00"> &#160;start at &#160;</text>
</g>
<!-- n_onboarding&#45;&gt;n_start -->
<g id="edge13" class="edge"><title>n_onboarding&#45;&gt;n_start</title>
<path fill="none" stroke="black" d="M454.305,-348.089C454.305,-341.868 454.305,-334.666 454.305,-327.766"/>
<polygon fill="black" stroke="black" points="457.805,-327.356 454.305,-317.356 450.805,-327.356 457.805,-327.356"/>
<text text-anchor="middle" x="478.805" y="-328.967" font-family="Calibri" font-size="14.00"> &#160;end at &#160;</text>
</g>
<!-- n_proofing -->
<g id="node14" class="node"><title>n_proofing</title>
<g id="a_node14"><a xlink:href="https://open-measure.atlassian.net/wiki/spaces/DIC/pages/858522094" xlink:title="Identity\nProofing">
<ellipse fill="#d6e7ff" stroke="black" cx="40.3051" cy="-147.042" rx="40.1111" ry="24.0833"/>
<text text-anchor="middle" x="40.3051" y="-150.442" font-family="Calibri" font-size="12.00">Identity</text>
<text text-anchor="middle" x="40.3051" y="-137.442" font-family="Calibri" font-size="12.00">Proofing</text>
</a>
</g>
</g>
<!-- n_iam_function&#45;&gt;n_proofing -->
<g id="edge20" class="edge"><title>n_iam_function&#45;&gt;n_proofing</title>
<path fill="none" stroke="black" d="M91.5464,-204.468C83.6367,-195.758 74.305,-185.482 65.7872,-176.102"/>
<polygon fill="black" stroke="black" points="68.1867,-173.538 58.8729,-168.488 63.0046,-178.244 68.1867,-173.538"/>
<text text-anchor="middle" x="110.805" y="-182.883" font-family="Calibri" font-size="14.00"> &#160;execute &#160;</text>
</g>
<!-- n_provisioning -->
<g id="node15" class="node"><title>n_provisioning</title>
<g id="a_node15"><a xlink:href="https://open-measure.atlassian.net/wiki/spaces/DIC/pages/61964289" xlink:title="Provisioning">
<ellipse fill="#d6e7ff" stroke="black" cx="196.305" cy="-147.042" rx="46.5702" ry="18"/>
<text text-anchor="middle" x="196.305" y="-143.942" font-family="Calibri" font-size="12.00">Provisioning</text>
</a>
</g>
</g>
<!-- n_iam_function&#45;&gt;n_provisioning -->
<g id="edge21" class="edge"><title>n_iam_function&#45;&gt;n_provisioning</title>
<path fill="none" stroke="black" d="M132.007,-205.674C143.844,-195.064 158.562,-181.871 170.929,-170.787"/>
<polygon fill="black" stroke="black" points="173.551,-173.137 178.662,-163.856 168.879,-167.924 173.551,-173.137"/>
<text text-anchor="middle" x="189.805" y="-182.883" font-family="Calibri" font-size="14.00"> &#160;execute &#160;</text>
</g>
<!-- n_attribute -->
<g id="node12" class="node"><title>n_attribute</title>
<g id="a_node12"><a xlink:href="https://open-measure.atlassian.net/wiki/spaces/DIC/pages/409174161" xlink:title="Attribute">
<ellipse fill="#d6e7ff" stroke="black" cx="40.3051" cy="-44" rx="36.1402" ry="18"/>
<text text-anchor="middle" x="40.3051" y="-40.9" font-family="Calibri" font-size="12.00">Attribute</text>
</a>
</g>
</g>
<!-- n_identity -->
<g id="node13" class="node"><title>n_identity</title>
<g id="a_node13"><a xlink:href="https://open-measure.atlassian.net/wiki/spaces/DIC/pages/67600948" xlink:title="Identity">
<ellipse fill="#d6e7ff" stroke="black" cx="159.305" cy="-44" rx="32.7527" ry="18"/>
<text text-anchor="middle" x="159.305" y="-40.9" font-family="Calibri" font-size="12.00">Identity</text>
</a>
</g>
</g>
<!-- n_attribute&#45;&gt;n_identity -->
<g id="edge15" class="edge"><title>n_attribute&#45;&gt;n_identity</title>
<path fill="none" stroke="black" d="M86.9847,-44C100.165,-44 114.227,-44 126.414,-44"/>
<polygon fill="black" stroke="black" points="86.6557,-40.5001 76.6556,-44 86.6556,-47.5001 86.6557,-40.5001"/>
<text text-anchor="middle" x="101.652" y="-50.8" font-family="Calibri" font-size="14.00"> &#160;has &#160;</text>
</g>
<!-- n_access -->
<g id="node16" class="node"><title>n_access</title>
<g id="a_node16"><a xlink:href="https://open-measure.atlassian.net/wiki/spaces/DIC/pages/123962347" xlink:title="Access">
<ellipse fill="#d6e7ff" stroke="black" cx="273.305" cy="-44" rx="30.5603" ry="18"/>
<text text-anchor="middle" x="273.305" y="-40.9" font-family="Calibri" font-size="12.00">Access</text>
</a>
</g>
</g>
<!-- n_identity&#45;&gt;n_access -->
<g id="edge25" class="edge"><title>n_identity&#45;&gt;n_access</title>
<path fill="none" stroke="black" d="M191.973,-44C204.433,-44 218.802,-44 231.964,-44"/>
<polygon fill="black" stroke="black" points="232.201,-47.5001 242.201,-44 232.201,-40.5001 232.201,-47.5001"/>
<text text-anchor="middle" x="217.228" y="-50.8" font-family="Calibri" font-size="14.00"> &#160;has &#160;</text>
</g>
<!-- n_identity&#45;&gt;n_entity -->
<g id="edge24" class="edge"><title>n_identity&#45;&gt;n_entity</title>
<path fill="none" stroke="black" d="M171.483,-60.7695C180.712,-71.9575 194.481,-85.7247 210.305,-92 256.927,-110.489 313.517,-83.2494 346.271,-62.865"/>
<polygon fill="black" stroke="black" points="348.336,-65.6979 354.849,-57.3411 344.547,-59.8125 348.336,-65.6979"/>
<text text-anchor="middle" x="229.305" y="-88.8" font-family="Calibri" font-size="14.00"> &#160;map &#160;</text>
</g>
<!-- n_proofing&#45;&gt;n_attribute -->
<g id="edge17" class="edge"><title>n_proofing&#45;&gt;n_attribute</title>
<path fill="none" stroke="black" d="M40.3051,-122.861C40.3051,-107.807 40.3051,-88.1184 40.3051,-72.3067"/>
<polygon fill="black" stroke="black" points="43.8052,-72.084 40.3051,-62.0841 36.8052,-72.0841 43.8052,-72.084"/>
<text text-anchor="middle" x="69.3051" y="-103.8" font-family="Calibri" font-size="14.00"> &#160;collect &#160;</text>
<text text-anchor="middle" x="69.3051" y="-88.8" font-family="Calibri" font-size="14.00"> &#160;validate &#160;</text>
<text text-anchor="middle" x="69.3051" y="-73.8" font-family="Calibri" font-size="14.00"> &#160;verify &#160;</text>
</g>
<!-- n_proofing&#45;&gt;n_provisioning -->
<g id="edge16" class="edge"><title>n_proofing&#45;&gt;n_provisioning</title>
<path fill="none" stroke="black" d="M80.885,-147.042C98.6387,-147.042 119.782,-147.042 139.092,-147.042"/>
<polygon fill="black" stroke="black" points="139.295,-150.542 149.295,-147.042 139.295,-143.542 139.295,-150.542"/>
<text text-anchor="middle" x="115.065" y="-153.842" font-family="Calibri" font-size="14.00"> &#160;trigger &#160;</text>
</g>
<!-- n_provisioning&#45;&gt;n_identity -->
<g id="edge22" class="edge"><title>n_provisioning&#45;&gt;n_identity</title>
<path fill="none" stroke="black" d="M187.599,-129.163C185.409,-124.623 183.157,-119.674 181.305,-115 175.75,-100.983 170.629,-84.9641 166.728,-71.7907"/>
<polygon fill="black" stroke="black" points="170.016,-70.5627 163.876,-61.9286 163.292,-72.5073 170.016,-70.5627"/>
<text text-anchor="middle" x="193.805" y="-88.8" font-family="Calibri" font-size="14.00"> &#160;of &#160;</text>
</g>
<!-- n_provisioning&#45;&gt;n_access -->
<g id="edge23" class="edge"><title>n_provisioning&#45;&gt;n_access</title>
<path fill="none" stroke="black" d="M227.225,-133.333C235.663,-128.625 244.161,-122.547 250.305,-115 260.216,-102.826 265.91,-86.2379 269.153,-72.2653"/>
<polygon fill="black" stroke="black" points="272.635,-72.7016 271.184,-62.2067 265.774,-71.316 272.635,-72.7016"/>
<text text-anchor="middle" x="282.805" y="-88.8" font-family="Calibri" font-size="14.00"> &#160;of &#160;</text>
</g>
<!-- n_access&#45;&gt;n_entity -->
<g id="edge26" class="edge"><title>n_access&#45;&gt;n_entity</title>
<path fill="none" stroke="black" d="M304.124,-44C314.196,-44 325.491,-44 335.988,-44"/>
<polygon fill="black" stroke="black" points="336.144,-47.5001 346.144,-44 336.144,-40.5001 336.144,-47.5001"/>
<text text-anchor="middle" x="325.152" y="-50.8" font-family="Calibri" font-size="14.00"> &#160;of &#160;</text>
</g>
</g>
</svg>
