<?xml version="1.0" encoding="UTF-8" standalone="no"?>
<!DOCTYPE svg PUBLIC "-//W3C//DTD SVG 1.1//EN"
 "http://www.w3.org/Graphics/SVG/1.1/DTD/svg11.dtd">
<!-- Generated by graphviz version 2.38.0 (20140413.2041)
 -->
<!-- Title: G Pages: 1 -->
<svg width="2944pt" height="2175pt"
 viewBox="0.00 0.00 706.50 522.07" xmlns="http://www.w3.org/2000/svg" xmlns:xlink="http://www.w3.org/1999/xlink">
<g id="graph0" class="graph" transform="scale(4.16667 4.16667) rotate(0) translate(4 518.066)">
<title>G</title>
<polygon fill="white" stroke="none" points="-4,4 -4,-518.066 702.497,-518.066 702.497,4 -4,4"/>
<text text-anchor="middle" x="349.249" y="-15.6" font-family="Calibri" font-size="8.00">Login ID (Conceptual Diagram) by Open&#45;Measure</text>
<text text-anchor="middle" x="349.249" y="-6.6" font-family="Calibri" font-size="8.00">Licensed under Creative Commons Attribution 4.0 International License</text>
<g id="clust1" class="cluster"><title>cluster_freedom</title>
<polygon fill="none" stroke="black" points="545.497,-424.066 545.497,-506.066 645.497,-506.066 645.497,-424.066 545.497,-424.066"/>
<text text-anchor="middle" x="595.497" y="-490.866" font-family="Calibri" font-size="14.00">Method</text>
</g>
<g id="clust2" class="cluster"><title>cluster_defined_by</title>
<polygon fill="none" stroke="black" points="590.497,-145.468 590.497,-269.468 690.497,-269.468 690.497,-145.468 590.497,-145.468"/>
<text text-anchor="middle" x="640.497" y="-254.268" font-family="Calibri" font-size="14.00">Editor</text>
</g>
<g id="clust3" class="cluster"><title>cluster_mutability</title>
<polygon fill="none" stroke="black" points="453.497,-424.066 453.497,-506.066 537.497,-506.066 537.497,-424.066 453.497,-424.066"/>
<text text-anchor="middle" x="495.497" y="-490.866" font-family="Calibri" font-size="14.00">Mutability</text>
</g>
<g id="clust4" class="cluster"><title>cluster_id_attributes</title>
<polygon fill="none" stroke="black" points="264.497,-134.968 264.497,-279.968 400.497,-279.968 400.497,-134.968 264.497,-134.968"/>
<text text-anchor="middle" x="332.497" y="-264.768" font-family="Calibri" font-size="14.00">Identity Attributes</text>
</g>
<g id="clust5" class="cluster"><title>cluster_naming_convention</title>
<polygon fill="none" stroke="black" points="408.497,-124.468 408.497,-290.468 582.497,-290.468 582.497,-124.468 408.497,-124.468"/>
<text text-anchor="middle" x="495.497" y="-275.268" font-family="Calibri" font-size="14.00">Naming Conventions</text>
</g>
<!-- n_unique_id -->
<g id="node1" class="node"><title>n_unique_id</title>
<ellipse fill="#ffffff" stroke="black" cx="57.4971" cy="-453.566" rx="43.2674" ry="24.0833"/>
<text text-anchor="middle" x="57.4971" y="-456.966" font-family="Calibri" font-size="12.00">Unique</text>
<text text-anchor="middle" x="57.4971" y="-443.966" font-family="Calibri" font-size="12.00">Identifier</text>
</g>
<!-- n_identity_attribute -->
<g id="node2" class="node"><title>n_identity_attribute</title>
<ellipse fill="#ffffff" stroke="black" cx="214.497" cy="-453.566" rx="41.9398" ry="24.0833"/>
<text text-anchor="middle" x="214.497" y="-456.966" font-family="Calibri" font-size="12.00">Identity</text>
<text text-anchor="middle" x="214.497" y="-443.966" font-family="Calibri" font-size="12.00">Attribute</text>
</g>
<!-- n_unique_id&#45;&gt;n_identity_attribute -->
<g id="edge1" class="edge"><title>n_unique_id&#45;&gt;n_identity_attribute</title>
<path fill="none" stroke="black" d="M111.084,-453.566C131.21,-453.566 153.773,-453.566 172.676,-453.566"/>
<polygon fill="black" stroke="black" points="110.814,-450.066 100.814,-453.566 110.814,-457.066 110.814,-450.066"/>
<text text-anchor="middle" x="136.704" y="-460.366" font-family="Calibri" font-size="14.00"> &#160;of class &#160;</text>
</g>
<!-- n_login_id -->
<g id="node3" class="node"><title>n_login_id</title>
<g id="a_node3"><a xlink:href="https://open-measure.atlassian.net/wiki/spaces/DIC/pages/1428685307" xlink:title="Login ID">
<ellipse fill="#5599ff" stroke="black" cx="214.497" cy="-372.267" rx="53.9813" ry="19.6"/>
<text text-anchor="middle" x="214.497" y="-367.867" font-family="Calibri" font-size="18.00">Login ID</text>
</a>
</g>
</g>
<!-- n_identity_attribute&#45;&gt;n_login_id -->
<g id="edge2" class="edge"><title>n_identity_attribute&#45;&gt;n_login_id</title>
<path fill="none" stroke="black" d="M214.497,-419.121C214.497,-409.924 214.497,-400.269 214.497,-392.204"/>
<polygon fill="black" stroke="black" points="210.997,-419.203 214.497,-429.203 217.997,-419.203 210.997,-419.203"/>
<text text-anchor="middle" x="229.997" y="-404.866" font-family="Calibri" font-size="14.00"> &#160;is a &#160;</text>
</g>
<!-- n_claim -->
<g id="node4" class="node"><title>n_claim</title>
<ellipse fill="#d6e7ff" stroke="black" cx="100.497" cy="-195.968" rx="31.3957" ry="18"/>
<text text-anchor="middle" x="100.497" y="-192.268" font-family="Calibri" font-size="14.00">Claim</text>
</g>
<!-- n_login_id&#45;&gt;n_claim -->
<g id="edge3" class="edge"><title>n_login_id&#45;&gt;n_claim</title>
<path fill="none" stroke="black" d="M153.806,-362.573C142.716,-358.416 132.225,-352.336 124.497,-343.468 92.4952,-306.744 94.6647,-244.394 97.9923,-214.273"/>
<polygon fill="black" stroke="black" points="153.061,-366.01 163.652,-365.754 155.212,-359.349 153.061,-366.01"/>
<text text-anchor="middle" x="167.497" y="-317.268" font-family="Calibri" font-size="14.00">references &#160;&#160;&#160;&#160;&#160;&#160;&#160;</text>
</g>
<!-- n_identity -->
<g id="node5" class="node"><title>n_identity</title>
<ellipse fill="#d6e7ff" stroke="black" cx="214.497" cy="-195.968" rx="40.0939" ry="18"/>
<text text-anchor="middle" x="214.497" y="-192.268" font-family="Calibri" font-size="14.00">Identity</text>
</g>
<!-- n_login_id&#45;&gt;n_identity -->
<g id="edge4" class="edge"><title>n_login_id&#45;&gt;n_identity</title>
<path fill="none" stroke="black" d="M214.497,-352.282C214.497,-321.338 214.497,-259.91 214.497,-224.281"/>
<polygon fill="black" stroke="black" points="217.997,-224.114 214.497,-214.114 210.997,-224.114 217.997,-224.114"/>
<text text-anchor="middle" x="246.997" y="-324.768" font-family="Calibri" font-size="14.00"> &#160;uniquely &#160;</text>
<text text-anchor="middle" x="246.997" y="-309.768" font-family="Calibri" font-size="14.00"> &#160;identifies &#160;</text>
</g>
<!-- n_value -->
<g id="node8" class="node"><title>n_value</title>
<ellipse fill="#d6e7ff" stroke="black" cx="495.497" cy="-372.267" rx="31.6951" ry="18"/>
<text text-anchor="middle" x="495.497" y="-368.567" font-family="Calibri" font-size="14.00">Value</text>
</g>
<!-- n_login_id&#45;&gt;n_value -->
<g id="edge8" class="edge"><title>n_login_id&#45;&gt;n_value</title>
<path fill="none" stroke="black" d="M278.441,-372.267C336.056,-372.267 418.394,-372.267 463.285,-372.267"/>
<polygon fill="black" stroke="black" points="278.344,-368.767 268.344,-372.267 278.344,-375.767 278.344,-368.767"/>
<text text-anchor="middle" x="365.944" y="-379.067" font-family="Calibri" font-size="14.00"> &#160;of &#160;</text>
</g>
<!-- n_distinct_from -->
<g id="node12" class="node"><title>n_distinct_from</title>
<polygon fill="#d6e7ff" stroke="black" points="272.997,-143.468 272.997,-248.468 391.997,-248.468 391.997,-143.468 272.997,-143.468"/>
<text text-anchor="middle" x="332.497" y="-234.868" font-family="Calibri" font-size="12.00">System IDs</text>
<polyline fill="none" stroke="black" points="272.997,-227.468 391.997,-227.468 "/>
<text text-anchor="middle" x="332.497" y="-213.868" font-family="Calibri" font-size="12.00">Profile Display Name</text>
<polyline fill="none" stroke="black" points="272.997,-206.468 391.997,-206.468 "/>
<text text-anchor="middle" x="332.497" y="-192.868" font-family="Calibri" font-size="12.00">Entity Name</text>
<polyline fill="none" stroke="black" points="272.997,-185.468 391.997,-185.468 "/>
<text text-anchor="middle" x="332.497" y="-171.868" font-family="Calibri" font-size="12.00">Email</text>
<polyline fill="none" stroke="black" points="272.997,-164.468 391.997,-164.468 "/>
<text text-anchor="middle" x="332.497" y="-150.868" font-family="Calibri" font-size="12.00">...</text>
</g>
<!-- n_login_id&#45;&gt;n_distinct_from -->
<g id="edge12" class="edge"><title>n_login_id&#45;&gt;n_distinct_from</title>
<path fill="none" stroke="black" d="M257.81,-360.429C267.255,-356.387 276.503,-350.896 283.497,-343.468 297.707,-328.375 307.803,-309.041 314.974,-289.403"/>
<polygon fill="black" stroke="black" points="318.349,-290.35 318.265,-279.755 311.724,-288.09 318.349,-290.35"/>
<text text-anchor="middle" x="337.997" y="-332.268" font-family="Calibri" font-size="14.00"> &#160;often &#160;</text>
<text text-anchor="middle" x="337.997" y="-317.268" font-family="Calibri" font-size="14.00"> &#160;distinct &#160;</text>
<text text-anchor="middle" x="337.997" y="-302.268" font-family="Calibri" font-size="14.00"> &#160;from &#160;</text>
</g>
<!-- n_claim&#45;&gt;n_identity -->
<g id="edge6" class="edge"><title>n_claim&#45;&gt;n_identity</title>
<path fill="none" stroke="black" d="M131.95,-195.968C141.839,-195.968 153.021,-195.968 163.889,-195.968"/>
<polygon fill="black" stroke="black" points="164.161,-199.468 174.161,-195.968 164.161,-192.468 164.161,-199.468"/>
<text text-anchor="middle" x="152.948" y="-202.768" font-family="Calibri" font-size="14.00"> &#160;of &#160;</text>
</g>
<!-- n_domain -->
<g id="node7" class="node"><title>n_domain</title>
<ellipse fill="#d6e7ff" stroke="black" cx="214.497" cy="-59.234" rx="51.7379" ry="33.4697"/>
<text text-anchor="middle" x="214.497" y="-69.134" font-family="Calibri" font-size="12.00">Information</text>
<text text-anchor="middle" x="214.497" y="-56.134" font-family="Calibri" font-size="12.00">Security</text>
<text text-anchor="middle" x="214.497" y="-43.134" font-family="Calibri" font-size="12.00">Domain</text>
</g>
<!-- n_identity&#45;&gt;n_domain -->
<g id="edge7" class="edge"><title>n_identity&#45;&gt;n_domain</title>
<path fill="none" stroke="black" d="M214.497,-177.904C214.497,-159.109 214.497,-128.176 214.497,-102.743"/>
<polygon fill="black" stroke="black" points="217.997,-102.589 214.497,-92.5892 210.997,-102.589 217.997,-102.589"/>
<text text-anchor="middle" x="225.997" y="-105.268" font-family="Calibri" font-size="14.00"> &#160;in &#160;</text>
</g>
<!-- n_entity -->
<g id="node6" class="node"><title>n_entity</title>
<ellipse fill="#d6e7ff" stroke="black" cx="32.4971" cy="-372.267" rx="32.4942" ry="18"/>
<text text-anchor="middle" x="32.4971" y="-368.567" font-family="Calibri" font-size="14.00">Entity</text>
</g>
<!-- n_entity&#45;&gt;n_claim -->
<g id="edge5" class="edge"><title>n_entity&#45;&gt;n_claim</title>
<path fill="none" stroke="black" d="M30.0598,-354.077C28.5525,-339.052 27.8453,-316.831 33.4971,-298.468 42.682,-268.627 63.6114,-239.393 79.6524,-220.023"/>
<polygon fill="black" stroke="black" points="82.3647,-222.236 86.1794,-212.352 77.0334,-217.7 82.3647,-222.236"/>
<text text-anchor="middle" x="58.4971" y="-317.268" font-family="Calibri" font-size="14.00"> &#160;makes &#160;</text>
</g>
<!-- n_defined_by -->
<g id="node10" class="node"><title>n_defined_by</title>
<polygon fill="#d6e7ff" stroke="black" points="598.997,-153.968 598.997,-237.968 681.997,-237.968 681.997,-153.968 598.997,-153.968"/>
<text text-anchor="middle" x="640.497" y="-224.368" font-family="Calibri" font-size="12.00">Entity</text>
<polyline fill="none" stroke="black" points="598.997,-216.968 681.997,-216.968 "/>
<text text-anchor="middle" x="640.497" y="-203.368" font-family="Calibri" font-size="12.00">Administrator</text>
<polyline fill="none" stroke="black" points="598.997,-195.968 681.997,-195.968 "/>
<text text-anchor="middle" x="640.497" y="-182.368" font-family="Calibri" font-size="12.00">Algorithm</text>
<polyline fill="none" stroke="black" points="598.997,-174.968 681.997,-174.968 "/>
<text text-anchor="middle" x="640.497" y="-161.368" font-family="Calibri" font-size="12.00">...</text>
</g>
<!-- n_value&#45;&gt;n_defined_by -->
<g id="edge10" class="edge"><title>n_value&#45;&gt;n_defined_by</title>
<path fill="none" stroke="black" d="M520.74,-361.005C530.068,-356.478 540.344,-350.56 548.497,-343.468 569.409,-325.277 587.2,-301.163 601.402,-277.76"/>
<polygon fill="black" stroke="black" points="604.599,-279.23 606.669,-268.84 598.571,-275.672 604.599,-279.23"/>
<text text-anchor="middle" x="613.497" y="-324.768" font-family="Calibri" font-size="14.00"> &#160;defined &#160;</text>
<text text-anchor="middle" x="613.497" y="-309.768" font-family="Calibri" font-size="14.00"> &#160;by &#160;</text>
</g>
<!-- n_naming_convention -->
<g id="node13" class="node"><title>n_naming_convention</title>
<polygon fill="#d6e7ff" stroke="black" points="416.497,-132.968 416.497,-258.968 574.497,-258.968 574.497,-132.968 416.497,-132.968"/>
<text text-anchor="middle" x="495.497" y="-245.368" font-family="Calibri" font-size="12.00">Email</text>
<polyline fill="none" stroke="black" points="416.497,-237.968 574.497,-237.968 "/>
<text text-anchor="middle" x="495.497" y="-224.368" font-family="Calibri" font-size="12.00">Email Local Part</text>
<polyline fill="none" stroke="black" points="416.497,-216.968 574.497,-216.968 "/>
<text text-anchor="middle" x="495.497" y="-203.368" font-family="Calibri" font-size="12.00">Combinations of Entity Name</text>
<polyline fill="none" stroke="black" points="416.497,-195.968 574.497,-195.968 "/>
<text text-anchor="middle" x="495.497" y="-182.368" font-family="Calibri" font-size="12.00">Pseudo&#45;random</text>
<polyline fill="none" stroke="black" points="416.497,-174.968 574.497,-174.968 "/>
<text text-anchor="middle" x="495.497" y="-161.368" font-family="Calibri" font-size="12.00">Surrogate Key</text>
<polyline fill="none" stroke="black" points="416.497,-153.968 574.497,-153.968 "/>
<text text-anchor="middle" x="495.497" y="-140.368" font-family="Calibri" font-size="12.00">...</text>
</g>
<!-- n_value&#45;&gt;n_naming_convention -->
<g id="edge13" class="edge"><title>n_value&#45;&gt;n_naming_convention</title>
<path fill="none" stroke="black" d="M495.497,-354.237C495.497,-340.892 495.497,-321.106 495.497,-300.036"/>
<polygon fill="black" stroke="black" points="498.997,-299.949 495.497,-289.949 491.997,-299.949 498.997,-299.949"/>
<text text-anchor="middle" x="519.997" y="-324.768" font-family="Calibri" font-size="14.00"> &#160;may &#160;</text>
<text text-anchor="middle" x="519.997" y="-309.768" font-family="Calibri" font-size="14.00"> &#160;follow &#160;</text>
</g>
<!-- n_freedom -->
<g id="node9" class="node"><title>n_freedom</title>
<polygon fill="#d6e7ff" stroke="black" points="553.997,-432.566 553.997,-474.566 636.997,-474.566 636.997,-432.566 553.997,-432.566"/>
<text text-anchor="middle" x="595.497" y="-460.966" font-family="Calibri" font-size="12.00">Manually</text>
<polyline fill="none" stroke="black" points="553.997,-453.566 636.997,-453.566 "/>
<text text-anchor="middle" x="595.497" y="-439.966" font-family="Calibri" font-size="12.00">Automatically</text>
</g>
<!-- n_freedom&#45;&gt;n_value -->
<g id="edge9" class="edge"><title>n_freedom&#45;&gt;n_value</title>
<path fill="none" stroke="black" d="M551.771,-417.892C538.156,-407.095 523.911,-395.799 513.159,-387.273"/>
<polygon fill="black" stroke="black" points="549.673,-420.695 559.684,-424.166 554.023,-415.21 549.673,-420.695"/>
<text text-anchor="middle" x="568.497" y="-404.866" font-family="Calibri" font-size="14.00"> &#160;is set &#160;</text>
</g>
<!-- n_mutability -->
<g id="node11" class="node"><title>n_mutability</title>
<polygon fill="#d6e7ff" stroke="black" points="461.497,-432.566 461.497,-474.566 529.497,-474.566 529.497,-432.566 461.497,-432.566"/>
<text text-anchor="middle" x="495.497" y="-460.966" font-family="Calibri" font-size="12.00">Immutable</text>
<polyline fill="none" stroke="black" points="461.497,-453.566 529.497,-453.566 "/>
<text text-anchor="middle" x="495.497" y="-439.966" font-family="Calibri" font-size="12.00">Mutable</text>
</g>
<!-- n_mutability&#45;&gt;n_value -->
<g id="edge11" class="edge"><title>n_mutability&#45;&gt;n_value</title>
<path fill="none" stroke="black" d="M495.497,-422.538C495.497,-411.639 495.497,-399.707 495.497,-390.315"/>
<polygon fill="black" stroke="black" points="491.998,-414.066 495.497,-424.066 498.998,-414.066 491.998,-414.066"/>
<text text-anchor="middle" x="506.497" y="-404.866" font-family="Calibri" font-size="14.00"> &#160;is &#160;</text>
</g>
</g>
</svg>
