<?xml version="1.0" encoding="UTF-8" standalone="no"?>
<!DOCTYPE svg PUBLIC "-//W3C//DTD SVG 1.1//EN"
 "http://www.w3.org/Graphics/SVG/1.1/DTD/svg11.dtd">
<!-- Generated by graphviz version 2.38.0 (20140413.2041)
 -->
<!-- Title: G Pages: 1 -->
<svg width="2888pt" height="2209pt"
 viewBox="0.00 0.00 693.09 530.05" xmlns="http://www.w3.org/2000/svg" xmlns:xlink="http://www.w3.org/1999/xlink">
<g id="graph0" class="graph" transform="scale(4.16667 4.16667) rotate(0) translate(4 526.049)">
<title>G</title>
<polygon fill="white" stroke="none" points="-4,4 -4,-526.049 689.086,-526.049 689.086,4 -4,4"/>
<text text-anchor="middle" x="342.543" y="-15.6" font-family="Calibri" font-size="8.00">Oprhan Account (Conceptual Diagram) by Open&#45;Measure</text>
<text text-anchor="middle" x="342.543" y="-6.6" font-family="Calibri" font-size="8.00">Licensed under Creative Commons Attribution 4.0 International License</text>
<g id="clust1" class="cluster"><title>cluster_domains</title>
<polygon fill="none" stroke="black" points="15.0858,-74.5 15.0858,-219.5 139.086,-219.5 139.086,-74.5 15.0858,-74.5"/>
<text text-anchor="middle" x="77.0858" y="-204.3" font-family="Calibri" font-size="14.00">Domains</text>
</g>
<g id="clust3" class="cluster"><title>cluster_consequences</title>
<polygon fill="none" stroke="black" points="309.086,-55 309.086,-239 505.086,-239 505.086,-55 309.086,-55"/>
<text text-anchor="middle" x="407.086" y="-223.8" font-family="Calibri" font-size="14.00">Potential Consequences</text>
</g>
<g id="clust2" class="cluster"><title>cluster_causes</title>
<polygon fill="none" stroke="black" points="147.086,-38 147.086,-256 301.086,-256 301.086,-38 147.086,-38"/>
<text text-anchor="middle" x="224.086" y="-240.8" font-family="Calibri" font-size="14.00">Possible Causes</text>
</g>
<g id="clust4" class="cluster"><title>cluster_countermeasues</title>
<polygon fill="none" stroke="black" points="513.086,-34 513.086,-260 677.086,-260 677.086,-34 513.086,-34"/>
<text text-anchor="middle" x="595.086" y="-244.8" font-family="Calibri" font-size="14.00">Sample Countermeasures</text>
</g>
<!-- n_identity -->
<g id="node1" class="node"><title>n_identity</title>
<ellipse fill="#ffffff" stroke="black" cx="227.086" cy="-498.007" rx="37.4533" ry="24.0833"/>
<text text-anchor="middle" x="227.086" y="-501.407" font-family="Calibri" font-size="12.00">Digital</text>
<text text-anchor="middle" x="227.086" y="-488.407" font-family="Calibri" font-size="12.00">Identity</text>
</g>
<!-- n_orphan_account -->
<g id="node2" class="node"><title>n_orphan_account</title>
<g id="a_node2"><a xlink:href="https://open-measure.atlassian.net/wiki/spaces/DIC/pages/1062207530" xlink:title="Orphan\nAccount">
<ellipse fill="#5599ff" stroke="black" cx="315.086" cy="-325.941" rx="54.3945" ry="33.8824"/>
<text text-anchor="middle" x="315.086" y="-331.541" font-family="Calibri" font-size="18.00">Orphan</text>
<text text-anchor="middle" x="315.086" y="-311.541" font-family="Calibri" font-size="18.00">Account</text>
</a>
</g>
</g>
<!-- n_identity&#45;&gt;n_orphan_account -->
<g id="edge1" class="edge"><title>n_identity&#45;&gt;n_orphan_account</title>
<path fill="none" stroke="black" d="M223.614,-463.438C222.895,-442.085 224.816,-414.49 236.086,-392.882 245.173,-375.458 261.037,-360.833 276.176,-349.818"/>
<polygon fill="black" stroke="black" points="220.132,-463.873 224.172,-473.667 227.122,-463.491 220.132,-463.873"/>
<text text-anchor="middle" x="251.586" y="-413.224" font-family="Calibri" font-size="14.00"> &#160;is a &#160;</text>
</g>
<!-- n_security_risk -->
<g id="node3" class="node"><title>n_security_risk</title>
<ellipse fill="#ffffff" stroke="black" cx="315.086" cy="-416.924" rx="38.7821" ry="24.0833"/>
<text text-anchor="middle" x="315.086" y="-420.324" font-family="Calibri" font-size="12.00">Security</text>
<text text-anchor="middle" x="315.086" y="-407.324" font-family="Calibri" font-size="12.00">Risk</text>
</g>
<!-- n_identity&#45;&gt;n_security_risk -->
<!-- n_domains -->
<g id="node10" class="node"><title>n_domains</title>
<polygon fill="#d6e7ff" stroke="black" points="23.0858,-83 23.0858,-188 131.086,-188 131.086,-83 23.0858,-83"/>
<text text-anchor="middle" x="77.0858" y="-174.4" font-family="Calibri" font-size="12.00">Workforce IAM</text>
<polyline fill="none" stroke="black" points="23.0858,-167 131.086,-167 "/>
<text text-anchor="middle" x="77.0858" y="-153.4" font-family="Calibri" font-size="12.00">Identity Federation</text>
<polyline fill="none" stroke="black" points="23.0858,-146 131.086,-146 "/>
<text text-anchor="middle" x="77.0858" y="-132.4" font-family="Calibri" font-size="12.00">Customer IAM</text>
<polyline fill="none" stroke="black" points="23.0858,-125 131.086,-125 "/>
<text text-anchor="middle" x="77.0858" y="-111.4" font-family="Calibri" font-size="12.00">Objects IAM</text>
<polyline fill="none" stroke="black" points="23.0858,-104 131.086,-104 "/>
<text text-anchor="middle" x="77.0858" y="-90.4" font-family="Calibri" font-size="12.00">PAM / TAM</text>
</g>
<!-- n_orphan_account&#45;&gt;n_domains -->
<g id="edge10" class="edge"><title>n_orphan_account&#45;&gt;n_domains</title>
<path fill="none" stroke="black" d="M270.251,-306.259C258.525,-301.497 245.868,-296.465 234.086,-292 193.995,-276.809 175.624,-287.915 143.086,-260 132.623,-251.024 123.557,-239.964 115.782,-228.185"/>
<polygon fill="black" stroke="black" points="118.619,-226.121 110.348,-219.5 112.685,-229.834 118.619,-226.121"/>
<text text-anchor="middle" x="232.086" y="-271.8" font-family="Calibri" font-size="14.00"> &#160;applies to &#160;</text>
</g>
<!-- n_causes -->
<g id="node11" class="node"><title>n_causes</title>
<polygon fill="#d6e7ff" stroke="black" points="155.586,-46.5 155.586,-224.5 292.586,-224.5 292.586,-46.5 155.586,-46.5"/>
<text text-anchor="middle" x="224.086" y="-210.9" font-family="Calibri" font-size="12.00">Failed Onboarding</text>
<polyline fill="none" stroke="black" points="155.586,-203.5 292.586,-203.5 "/>
<text text-anchor="middle" x="224.086" y="-189.9" font-family="Calibri" font-size="12.00">Loss of Entity Legitimacy</text>
<polyline fill="none" stroke="black" points="155.586,-182.5 292.586,-182.5 "/>
<text text-anchor="middle" x="224.086" y="-168.9" font-family="Calibri" font-size="12.00">End of Entity Lifecycle</text>
<polyline fill="none" stroke="black" points="155.586,-161.5 292.586,-161.5 "/>
<text text-anchor="middle" x="224.086" y="-147.9" font-family="Calibri" font-size="12.00">Unmanaged</text>
<text text-anchor="middle" x="224.086" y="-134.9" font-family="Calibri" font-size="12.00">Non&#45;nominative</text>
<text text-anchor="middle" x="224.086" y="-121.9" font-family="Calibri" font-size="12.00">Accounts</text>
<polyline fill="none" stroke="black" points="155.586,-114.5 292.586,-114.5 "/>
<text text-anchor="middle" x="224.086" y="-100.9" font-family="Calibri" font-size="12.00">Accounts Creation</text>
<text text-anchor="middle" x="224.086" y="-87.9" font-family="Calibri" font-size="12.00">during Dev,</text>
<text text-anchor="middle" x="224.086" y="-74.9" font-family="Calibri" font-size="12.00">Testing or Maintenance</text>
<polyline fill="none" stroke="black" points="155.586,-67.5 292.586,-67.5 "/>
<text text-anchor="middle" x="224.086" y="-53.9" font-family="Calibri" font-size="12.00">etc.</text>
</g>
<!-- n_orphan_account&#45;&gt;n_causes -->
<g id="edge11" class="edge"><title>n_orphan_account&#45;&gt;n_causes</title>
<path fill="none" stroke="black" d="M297.526,-293.458C295.656,-289.947 293.809,-286.409 292.086,-283 289.08,-277.055 286.047,-270.952 283.017,-264.771"/>
<polygon fill="black" stroke="black" points="286.109,-263.127 278.584,-255.67 279.816,-266.192 286.109,-263.127"/>
<text text-anchor="middle" x="327.086" y="-271.8" font-family="Calibri" font-size="14.00"> &#160;caused by &#160;</text>
</g>
<!-- n_consequences -->
<g id="node12" class="node"><title>n_consequences</title>
<polygon fill="#d6e7ff" stroke="black" points="317.586,-63.5 317.586,-207.5 496.586,-207.5 496.586,-63.5 317.586,-63.5"/>
<text text-anchor="middle" x="407.086" y="-193.9" font-family="Calibri" font-size="12.00">Account Takeover</text>
<polyline fill="none" stroke="black" points="317.586,-186.5 496.586,-186.5 "/>
<text text-anchor="middle" x="407.086" y="-172.9" font-family="Calibri" font-size="12.00">Increased Difficulty of</text>
<text text-anchor="middle" x="407.086" y="-159.9" font-family="Calibri" font-size="12.00">Unauthorized Accounts Detection</text>
<polyline fill="none" stroke="black" points="317.586,-152.5 496.586,-152.5 "/>
<text text-anchor="middle" x="407.086" y="-138.9" font-family="Calibri" font-size="12.00">Unauthorized Use</text>
<text text-anchor="middle" x="407.086" y="-125.9" font-family="Calibri" font-size="12.00">by Previous Owner</text>
<polyline fill="none" stroke="black" points="317.586,-118.5 496.586,-118.5 "/>
<text text-anchor="middle" x="407.086" y="-104.9" font-family="Calibri" font-size="12.00">Lack of Accountability</text>
<text text-anchor="middle" x="407.086" y="-91.9" font-family="Calibri" font-size="12.00">over Non&#45;nominative Accounts</text>
<polyline fill="none" stroke="black" points="317.586,-84.5 496.586,-84.5 "/>
<text text-anchor="middle" x="407.086" y="-70.9" font-family="Calibri" font-size="12.00">etc.</text>
</g>
<!-- n_orphan_account&#45;&gt;n_consequences -->
<g id="edge12" class="edge"><title>n_orphan_account&#45;&gt;n_consequences</title>
<path fill="none" stroke="black" d="M348.846,-299.023C353.782,-294.111 358.426,-288.708 362.086,-283 369.008,-272.204 374.918,-260.28 379.953,-248.035"/>
<polygon fill="black" stroke="black" points="383.251,-249.21 383.635,-238.622 376.732,-246.66 383.251,-249.21"/>
<text text-anchor="middle" x="396.086" y="-271.8" font-family="Calibri" font-size="14.00"> &#160;causes &#160;</text>
</g>
<!-- n_countermeasures -->
<g id="node13" class="node"><title>n_countermeasures</title>
<polygon fill="#d6e7ff" stroke="black" points="521.586,-42.5 521.586,-228.5 656.586,-228.5 656.586,-42.5 521.586,-42.5"/>
<text text-anchor="middle" x="589.086" y="-214.9" font-family="Calibri" font-size="12.00">Accounts Creation</text>
<text text-anchor="middle" x="589.086" y="-201.9" font-family="Calibri" font-size="12.00">Monitoring</text>
<polyline fill="none" stroke="black" points="521.586,-194.5 656.586,-194.5 "/>
<text text-anchor="middle" x="589.086" y="-180.9" font-family="Calibri" font-size="12.00">Inactive Identities</text>
<text text-anchor="middle" x="589.086" y="-167.9" font-family="Calibri" font-size="12.00">Deactivation</text>
<polyline fill="none" stroke="black" points="521.586,-160.5 656.586,-160.5 "/>
<text text-anchor="middle" x="589.086" y="-146.9" font-family="Calibri" font-size="12.00">PAM Process</text>
<polyline fill="none" stroke="black" points="521.586,-139.5 656.586,-139.5 "/>
<text text-anchor="middle" x="589.086" y="-125.9" font-family="Calibri" font-size="12.00">Provisioning Automation</text>
<polyline fill="none" stroke="black" points="521.586,-118.5 656.586,-118.5 "/>
<text text-anchor="middle" x="589.086" y="-104.9" font-family="Calibri" font-size="12.00">3rd Parties</text>
<text text-anchor="middle" x="589.086" y="-91.9" font-family="Calibri" font-size="12.00">Recertification</text>
<polyline fill="none" stroke="black" points="521.586,-84.5 656.586,-84.5 "/>
<text text-anchor="middle" x="589.086" y="-70.9" font-family="Calibri" font-size="12.00">Reconciliation Controls</text>
<polyline fill="none" stroke="black" points="521.586,-63.5 656.586,-63.5 "/>
<text text-anchor="middle" x="589.086" y="-49.9" font-family="Calibri" font-size="12.00">etc.</text>
</g>
<!-- n_orphan_account&#45;&gt;n_countermeasures -->
<g id="edge13" class="edge"><title>n_orphan_account&#45;&gt;n_countermeasures</title>
<path fill="none" stroke="black" d="M367.78,-317.131C407.138,-309.258 460.931,-294.025 504.988,-262.788"/>
<polygon fill="black" stroke="black" points="507.154,-265.539 513.095,-256.767 502.98,-259.919 507.154,-265.539"/>
<text text-anchor="middle" x="537.086" y="-271.8" font-family="Calibri" font-size="14.00"> &#160;mitigated by &#160;</text>
</g>
<!-- n_security_risk&#45;&gt;n_orphan_account -->
<g id="edge2" class="edge"><title>n_security_risk&#45;&gt;n_orphan_account</title>
<path fill="none" stroke="black" d="M315.086,-382.325C315.086,-375.083 315.086,-367.431 315.086,-360.202"/>
<polygon fill="black" stroke="black" points="311.586,-382.545 315.086,-392.545 318.586,-382.545 311.586,-382.545"/>
<text text-anchor="middle" x="330.586" y="-372.682" font-family="Calibri" font-size="14.00"> &#160;is a &#160;</text>
</g>
<!-- n_compliance_risk -->
<g id="node4" class="node"><title>n_compliance_risk</title>
<ellipse fill="#ffffff" stroke="black" cx="424.086" cy="-416.924" rx="52.1524" ry="24.0833"/>
<text text-anchor="middle" x="424.086" y="-420.324" font-family="Calibri" font-size="12.00">Compliance</text>
<text text-anchor="middle" x="424.086" y="-407.324" font-family="Calibri" font-size="12.00">Risk</text>
</g>
<!-- n_compliance_risk&#45;&gt;n_orphan_account -->
<g id="edge3" class="edge"><title>n_compliance_risk&#45;&gt;n_orphan_account</title>
<path fill="none" stroke="black" stroke-dasharray="5,2" d="M391.477,-389.304C377.599,-377.974 361.448,-364.789 347.582,-353.469"/>
<polygon fill="black" stroke="black" points="389.392,-392.12 399.352,-395.732 393.819,-386.697 389.392,-392.12"/>
<text text-anchor="middle" x="397.586" y="-372.682" font-family="Calibri" font-size="14.00"> &#160;is a &#160;</text>
</g>
<!-- n_op_risk -->
<g id="node5" class="node"><title>n_op_risk</title>
<ellipse fill="#ffffff" stroke="black" cx="370.086" cy="-498.007" rx="52.1524" ry="24.0833"/>
<text text-anchor="middle" x="370.086" y="-501.407" font-family="Calibri" font-size="12.00">Operational</text>
<text text-anchor="middle" x="370.086" y="-488.407" font-family="Calibri" font-size="12.00">Risk</text>
</g>
<!-- n_op_risk&#45;&gt;n_security_risk -->
<g id="edge4" class="edge"><title>n_op_risk&#45;&gt;n_security_risk</title>
<path fill="none" stroke="black" d="M348.892,-466.533C342.567,-457.439 335.772,-447.668 329.945,-439.289"/>
<polygon fill="black" stroke="black" points="346.182,-468.767 354.765,-474.978 351.929,-464.77 346.182,-468.767"/>
<text text-anchor="middle" x="363.586" y="-453.766" font-family="Calibri" font-size="14.00"> &#160;is a &#160;</text>
</g>
<!-- n_op_risk&#45;&gt;n_compliance_risk -->
<g id="edge5" class="edge"><title>n_op_risk&#45;&gt;n_compliance_risk</title>
<path fill="none" stroke="black" d="M390.935,-466.473C396.932,-457.691 403.356,-448.283 408.937,-440.109"/>
<polygon fill="black" stroke="black" points="387.876,-464.746 385.128,-474.978 393.657,-468.693 387.876,-464.746"/>
<text text-anchor="middle" x="416.586" y="-453.766" font-family="Calibri" font-size="14.00"> &#160;is a &#160;</text>
</g>
<!-- n_ownership -->
<g id="node6" class="node"><title>n_ownership</title>
<ellipse fill="#d6e7ff" stroke="black" cx="147.086" cy="-325.941" rx="42.451" ry="18"/>
<text text-anchor="middle" x="147.086" y="-322.841" font-family="Calibri" font-size="12.00">Ownership</text>
</g>
<!-- n_ownership_no -->
<g id="node7" class="node"><title>n_ownership_no</title>
<polygon fill="none" stroke="none" points="225.586,-343.941 224.586,-343.941 224.586,-307.941 225.586,-307.941 225.586,-343.941"/>
</g>
<!-- n_ownership&#45;&gt;n_ownership_no -->
<g id="edge6" class="edge"><title>n_ownership&#45;&gt;n_ownership_no</title>
<path fill="none" stroke="black" d="M189.742,-325.941C201.339,-325.941 212.936,-325.941 224.534,-325.941"/>
<text text-anchor="middle" x="224.534" y="-313.441" font-family="Verdana" font-size="50.00" fill="#ff0000">x</text>
</g>
<!-- n_ownership_no&#45;&gt;n_orphan_account -->
<g id="edge7" class="edge"><title>n_ownership_no&#45;&gt;n_orphan_account</title>
<path fill="none" stroke="black" d="M225.789,-325.941C233.883,-325.941 241.976,-325.941 250.07,-325.941"/>
<polygon fill="black" stroke="black" points="250.322,-329.441 260.322,-325.941 250.322,-322.441 250.322,-329.441"/>
</g>
<!-- n_entity -->
<g id="node8" class="node"><title>n_entity</title>
<ellipse fill="#d6e7ff" stroke="black" cx="27.0858" cy="-325.941" rx="27.1719" ry="18"/>
<text text-anchor="middle" x="27.0858" y="-322.841" font-family="Calibri" font-size="12.00">Entity</text>
</g>
<!-- n_entity&#45;&gt;n_ownership -->
<g id="edge8" class="edge"><title>n_entity&#45;&gt;n_ownership</title>
<path fill="none" stroke="black" d="M54.3157,-325.941C66.108,-325.941 80.3364,-325.941 94.0701,-325.941"/>
<polygon fill="black" stroke="black" points="94.4273,-329.441 104.427,-325.941 94.4272,-322.441 94.4273,-329.441"/>
<text text-anchor="middle" x="79.391" y="-332.741" font-family="Calibri" font-size="14.00"> &#160;has &#160;</text>
</g>
<!-- n_inactive -->
<g id="node9" class="node"><title>n_inactive</title>
<polygon fill="#d6e7ff" stroke="black" points="113.086,-395.924 113.086,-437.924 181.086,-437.924 181.086,-395.924 113.086,-395.924"/>
<text text-anchor="middle" x="147.086" y="-424.324" font-family="Calibri" font-size="12.00">Active</text>
<polyline fill="none" stroke="black" points="113.086,-416.924 181.086,-416.924 "/>
<text text-anchor="middle" x="147.086" y="-403.324" font-family="Calibri" font-size="12.00">Legitimate</text>
</g>
<!-- n_inactive&#45;&gt;n_ownership -->
<g id="edge9" class="edge"><title>n_inactive&#45;&gt;n_ownership</title>
<path fill="none" stroke="black" d="M147.086,-385.626C147.086,-371.751 147.086,-355.818 147.086,-344.058"/>
<polygon fill="black" stroke="black" points="143.586,-385.732 147.086,-395.732 150.586,-385.732 143.586,-385.732"/>
<text text-anchor="middle" x="158.086" y="-372.682" font-family="Calibri" font-size="14.00"> &#160;is &#160;</text>
</g>
</g>
</svg>
