<?xml version="1.0" encoding="UTF-8" standalone="no"?>
<!DOCTYPE svg PUBLIC "-//W3C//DTD SVG 1.1//EN"
 "http://www.w3.org/Graphics/SVG/1.1/DTD/svg11.dtd">
<!-- Generated by graphviz version 2.38.0 (20140413.2041)
 -->
<!-- Title: G Pages: 1 -->
<svg width="2979pt" height="2864pt"
 viewBox="0.00 0.00 715.00 687.47" xmlns="http://www.w3.org/2000/svg" xmlns:xlink="http://www.w3.org/1999/xlink">
<g id="graph0" class="graph" transform="scale(4.16667 4.16667) rotate(0) translate(4 683.467)">
<title>G</title>
<polygon fill="white" stroke="none" points="-4,4 -4,-683.467 711,-683.467 711,4 -4,4"/>
<text text-anchor="middle" x="353.5" y="-15.6" font-family="Calibri" font-size="8.00">Password Spraying Attack (Conceptual Diagram) by Open&#45;Measure</text>
<text text-anchor="middle" x="353.5" y="-6.6" font-family="Calibri" font-size="8.00">Licensed under Creative Commons Attribution 4.0 International License</text>
<g id="clust1" class="cluster"><title>cluster_it_system</title>
<polygon fill="none" stroke="black" points="137,-34 137,-155.234 699,-155.234 699,-34 137,-34"/>
<text text-anchor="middle" x="418" y="-140.034" font-family="Calibri" font-size="14.00">IT System</text>
</g>
<g id="clust2" class="cluster"><title>cluster_identity</title>
<polygon fill="none" stroke="black" points="274,-49.234 274,-124.234 368,-124.234 368,-49.234 274,-49.234"/>
<text text-anchor="middle" x="321" y="-109.034" font-family="Calibri" font-size="14.00">Identity</text>
</g>
<g id="clust3" class="cluster"><title>cluster_dictionary</title>
<polygon fill="none" stroke="black" points="8,-325.217 8,-412.3 234,-412.3 234,-325.217 8,-325.217"/>
<text text-anchor="middle" x="121" y="-397.1" font-family="Calibri" font-size="14.00">Probable Passwords</text>
</g>
<!-- n_attack -->
<g id="node1" class="node"><title>n_attack</title>
<ellipse fill="#ffffff" stroke="black" cx="60" cy="-631.383" rx="47.2526" ry="24.0833"/>
<text text-anchor="middle" x="60" y="-634.783" font-family="Calibri" font-size="12.00">Attack</text>
<text text-anchor="middle" x="60" y="-621.783" font-family="Calibri" font-size="12.00">Technique</text>
</g>
<!-- n_brute_force_attack -->
<g id="node2" class="node"><title>n_brute_force_attack</title>
<ellipse fill="#ffffff" stroke="black" cx="189" cy="-631.383" rx="33.4697" ry="33.4697"/>
<text text-anchor="middle" x="189" y="-641.283" font-family="Calibri" font-size="12.00">Brute</text>
<text text-anchor="middle" x="189" y="-628.283" font-family="Calibri" font-size="12.00">Force</text>
<text text-anchor="middle" x="189" y="-615.283" font-family="Calibri" font-size="12.00">Attack</text>
</g>
<!-- n_attack&#45;&gt;n_brute_force_attack -->
<g id="edge1" class="edge"><title>n_attack&#45;&gt;n_brute_force_attack</title>
<path fill="none" stroke="black" d="M117.908,-631.383C130.821,-631.383 144.09,-631.383 155.615,-631.383"/>
<polygon fill="black" stroke="black" points="117.668,-627.883 107.668,-631.383 117.668,-634.883 117.668,-627.883"/>
<text text-anchor="middle" x="131.571" y="-638.183" font-family="Calibri" font-size="14.00"> &#160;is a &#160;</text>
</g>
<!-- n_pwd_spraying_attack -->
<g id="node3" class="node"><title>n_pwd_spraying_attack</title>
<g id="a_node3"><a xlink:href="https://open-measure.atlassian.net/wiki/spaces/DIC/pages/1348730921" xlink:title="Password\nSpraying\nAttack">
<ellipse fill="#5599ff" stroke="black" cx="332" cy="-631.383" rx="60.623" ry="48.1667"/>
<text text-anchor="middle" x="332" y="-646.983" font-family="Calibri" font-size="18.00">Password</text>
<text text-anchor="middle" x="332" y="-626.983" font-family="Calibri" font-size="18.00">Spraying</text>
<text text-anchor="middle" x="332" y="-606.983" font-family="Calibri" font-size="18.00">Attack</text>
</a>
</g>
</g>
<!-- n_brute_force_attack&#45;&gt;n_pwd_spraying_attack -->
<g id="edge2" class="edge"><title>n_brute_force_attack&#45;&gt;n_pwd_spraying_attack</title>
<path fill="none" stroke="black" d="M232.752,-631.383C244.801,-631.383 258.094,-631.383 270.928,-631.383"/>
<polygon fill="black" stroke="black" points="232.527,-627.883 222.527,-631.383 232.527,-634.883 232.527,-627.883"/>
<text text-anchor="middle" x="246.711" y="-638.183" font-family="Calibri" font-size="14.00"> &#160;is a &#160;</text>
</g>
<!-- n_locking -->
<g id="node4" class="node"><title>n_locking</title>
<ellipse fill="#d6e7ff" stroke="black" cx="173" cy="-497.3" rx="55.3091" ry="33.4697"/>
<text text-anchor="middle" x="173" y="-507.2" font-family="Calibri" font-size="12.00">Account</text>
<text text-anchor="middle" x="173" y="-494.2" font-family="Calibri" font-size="12.00">Lockout</text>
<text text-anchor="middle" x="173" y="-481.2" font-family="Calibri" font-size="12.00">Mechanisms</text>
</g>
<!-- n_pwd_spraying_attack&#45;&gt;n_locking -->
<g id="edge3" class="edge"><title>n_pwd_spraying_attack&#45;&gt;n_locking</title>
<path fill="none" stroke="black" d="M282.973,-602.209C269.845,-593.855 255.982,-584.258 244,-574.3 229.838,-562.53 215.691,-548.076 203.796,-534.945"/>
<polygon fill="black" stroke="black" points="206.335,-532.534 197.069,-527.397 201.109,-537.191 206.335,-532.534"/>
<text text-anchor="middle" x="269" y="-563.1" font-family="Calibri" font-size="14.00"> &#160;avoids &#160;</text>
</g>
<!-- n_threat_actor -->
<g id="node11" class="node"><title>n_threat_actor</title>
<ellipse fill="#d6e7ff" stroke="black" cx="280" cy="-497.3" rx="33.8824" ry="24.0833"/>
<text text-anchor="middle" x="280" y="-500.7" font-family="Calibri" font-size="12.00">Threat</text>
<text text-anchor="middle" x="280" y="-487.7" font-family="Calibri" font-size="12.00">Actor</text>
</g>
<!-- n_pwd_spraying_attack&#45;&gt;n_threat_actor -->
<g id="edge9" class="edge"><title>n_pwd_spraying_attack&#45;&gt;n_threat_actor</title>
<path fill="none" stroke="black" d="M309.324,-586.598C307.439,-582.479 305.633,-578.335 304,-574.3 298.376,-560.399 293.212,-544.647 289.127,-531.103"/>
<polygon fill="black" stroke="black" points="292.406,-529.847 286.224,-521.243 285.691,-531.825 292.406,-529.847"/>
<text text-anchor="middle" x="333" y="-563.1" font-family="Calibri" font-size="14.00"> &#160;used by &#160;</text>
</g>
<!-- n_attack_phases -->
<g id="node16" class="node"><title>n_attack_phases</title>
<polygon fill="#d6e7ff" stroke="black" points="331.5,-476.3 331.5,-518.3 436.5,-518.3 436.5,-476.3 331.5,-476.3"/>
<text text-anchor="middle" x="384" y="-504.7" font-family="Calibri" font-size="12.00">Initial Exploitation</text>
<polyline fill="none" stroke="black" points="331.5,-497.3 436.5,-497.3 "/>
<text text-anchor="middle" x="384" y="-483.7" font-family="Calibri" font-size="12.00">Lateral Movement</text>
</g>
<!-- n_pwd_spraying_attack&#45;&gt;n_attack_phases -->
<g id="edge17" class="edge"><title>n_pwd_spraying_attack&#45;&gt;n_attack_phases</title>
<path fill="none" stroke="black" d="M356.327,-587.028C358.364,-582.782 360.294,-578.493 362,-574.3 368.041,-559.455 373.146,-542.354 376.912,-528.138"/>
<polygon fill="black" stroke="black" points="380.324,-528.925 379.413,-518.369 373.542,-527.189 380.324,-528.925"/>
<text text-anchor="middle" x="392" y="-563.1" font-family="Calibri" font-size="14.00"> &#160;during &#160;</text>
</g>
<!-- n_countermeasures -->
<g id="node17" class="node"><title>n_countermeasures</title>
<polygon fill="#d6e7ff" stroke="black" points="454.5,-444.8 454.5,-549.8 597.5,-549.8 597.5,-444.8 454.5,-444.8"/>
<text text-anchor="middle" x="526" y="-536.2" font-family="Calibri" font-size="12.00">Alternatives to passwords</text>
<polyline fill="none" stroke="black" points="454.5,-528.8 597.5,-528.8 "/>
<text text-anchor="middle" x="526" y="-515.2" font-family="Calibri" font-size="12.00">Password audits</text>
<polyline fill="none" stroke="black" points="454.5,-507.8 597.5,-507.8 "/>
<text text-anchor="middle" x="526" y="-494.2" font-family="Calibri" font-size="12.00">IDS, IPS, MFA, MSV</text>
<polyline fill="none" stroke="black" points="454.5,-486.8 597.5,-486.8 "/>
<text text-anchor="middle" x="526" y="-473.2" font-family="Calibri" font-size="12.00">Password complexity</text>
<polyline fill="none" stroke="black" points="454.5,-465.8 597.5,-465.8 "/>
<text text-anchor="middle" x="526" y="-452.2" font-family="Calibri" font-size="12.00">etc.</text>
</g>
<!-- n_pwd_spraying_attack&#45;&gt;n_countermeasures -->
<g id="edge18" class="edge"><title>n_pwd_spraying_attack&#45;&gt;n_countermeasures</title>
<path fill="none" stroke="black" d="M379.477,-601.254C393.007,-592.74 407.685,-583.301 421,-574.3 429.778,-568.366 438.88,-562.044 447.888,-555.677"/>
<polygon fill="black" stroke="black" points="449.998,-558.472 456.123,-549.827 445.944,-552.765 449.998,-558.472"/>
<text text-anchor="middle" x="508" y="-563.1" font-family="Calibri" font-size="14.00"> &#160;may be countered by &#160;</text>
</g>
<!-- n_weak -->
<g id="node5" class="node"><title>n_weak</title>
<ellipse fill="#d6e7ff" stroke="black" cx="172" cy="-75.234" rx="27.1719" ry="18"/>
<text text-anchor="middle" x="172" y="-72.134" font-family="Calibri" font-size="12.00">Weak</text>
</g>
<!-- n_password -->
<g id="node6" class="node"><title>n_password</title>
<ellipse fill="#d6e7ff" stroke="black" cx="321" cy="-75.234" rx="38.5652" ry="18"/>
<text text-anchor="middle" x="321" y="-72.134" font-family="Calibri" font-size="12.00">Password</text>
</g>
<!-- n_weak&#45;&gt;n_password -->
<g id="edge4" class="edge"><title>n_weak&#45;&gt;n_password</title>
<path fill="none" stroke="black" d="M209.375,-75.234C231.548,-75.234 259.616,-75.234 282.059,-75.234"/>
<polygon fill="black" stroke="black" points="209.329,-71.7341 199.329,-75.234 209.329,-78.7341 209.329,-71.7341"/>
<text text-anchor="middle" x="240.652" y="-82.034" font-family="Calibri" font-size="14.00"> &#160;some are &#160;</text>
</g>
<!-- n_authentication -->
<g id="node7" class="node"><title>n_authentication</title>
<ellipse fill="#d6e7ff" stroke="black" cx="456" cy="-75.234" rx="54.3439" ry="18"/>
<text text-anchor="middle" x="456" y="-72.134" font-family="Calibri" font-size="12.00">Authentication</text>
</g>
<!-- n_password&#45;&gt;n_authentication -->
<g id="edge5" class="edge"><title>n_password&#45;&gt;n_authentication</title>
<path fill="none" stroke="black" d="M370.085,-75.234C380.368,-75.234 391.268,-75.234 401.727,-75.234"/>
<polygon fill="black" stroke="black" points="378,-71.7345 368,-75.234 378,-78.7345 378,-71.7345"/>
<text text-anchor="middle" x="380.805" y="-82.034" font-family="Calibri" font-size="14.00"> &#160;of &#160;</text>
</g>
<!-- n_pwd_auth_factor -->
<g id="node8" class="node"><title>n_pwd_auth_factor</title>
<ellipse fill="#d6e7ff" stroke="black" cx="629" cy="-75.234" rx="62.4516" ry="33.4697"/>
<text text-anchor="middle" x="629" y="-85.134" font-family="Calibri" font-size="12.00">Password</text>
<text text-anchor="middle" x="629" y="-72.134" font-family="Calibri" font-size="12.00">Authentication</text>
<text text-anchor="middle" x="629" y="-59.134" font-family="Calibri" font-size="12.00">Factor</text>
</g>
<!-- n_authentication&#45;&gt;n_pwd_auth_factor -->
<g id="edge6" class="edge"><title>n_authentication&#45;&gt;n_pwd_auth_factor</title>
<path fill="none" stroke="black" d="M510.264,-75.234C524.895,-75.234 540.963,-75.234 556.421,-75.234"/>
<polygon fill="black" stroke="black" points="556.47,-78.7341 566.47,-75.234 556.47,-71.7341 556.47,-78.7341"/>
<text text-anchor="middle" x="538.473" y="-82.034" font-family="Calibri" font-size="14.00"> &#160;uses &#160;</text>
</g>
<!-- n_user_population -->
<g id="node9" class="node"><title>n_user_population</title>
<ellipse fill="#d6e7ff" stroke="black" cx="249" cy="-266.276" rx="48.1667" ry="24.0833"/>
<text text-anchor="middle" x="249" y="-269.676" font-family="Calibri" font-size="12.00">User</text>
<text text-anchor="middle" x="249" y="-256.676" font-family="Calibri" font-size="12.00">Population</text>
</g>
<!-- n_user_population&#45;&gt;n_password -->
<g id="edge7" class="edge"><title>n_user_population&#45;&gt;n_password</title>
<path fill="none" stroke="black" d="M251.245,-241.945C253.616,-222.947 258.267,-195.694 267,-173.234 270.398,-164.496 273.313,-163.354 278,-155.234 282.217,-147.928 286.57,-140.187 290.812,-132.52"/>
<polygon fill="black" stroke="black" points="293.974,-134.034 295.728,-123.585 287.841,-130.66 293.974,-134.034"/>
<text text-anchor="middle" x="304.5" y="-187.534" font-family="Calibri" font-size="14.00"> &#160;mapped to &#160;</text>
</g>
<!-- n_large -->
<g id="node10" class="node"><title>n_large</title>
<ellipse fill="#d6e7ff" stroke="black" cx="183" cy="-191.234" rx="27.1719" ry="18"/>
<text text-anchor="middle" x="183" y="-188.134" font-family="Calibri" font-size="12.00">Large</text>
</g>
<!-- n_user_population&#45;&gt;n_large -->
<g id="edge8" class="edge"><title>n_user_population&#45;&gt;n_large</title>
<path fill="none" stroke="black" d="M226.212,-244.716C222.369,-240.993 218.496,-237.071 215,-233.234 210.097,-227.853 205.109,-221.794 200.574,-216.019"/>
<polygon fill="black" stroke="black" points="203.186,-213.672 194.32,-207.872 197.633,-217.935 203.186,-213.672"/>
<text text-anchor="middle" x="226" y="-222.034" font-family="Calibri" font-size="14.00"> &#160;is &#160;</text>
</g>
<!-- n_large&#45;&gt;n_weak -->
<g id="edge13" class="edge"><title>n_large&#45;&gt;n_weak</title>
<path fill="none" stroke="black" stroke-dasharray="5,2" d="M181.329,-172.92C179.25,-151.368 175.72,-114.791 173.65,-93.3376"/>
</g>
<!-- n_common_passwords -->
<g id="node12" class="node"><title>n_common_passwords</title>
<ellipse fill="#d6e7ff" stroke="black" cx="178" cy="-357.258" rx="48.1667" ry="24.0833"/>
<text text-anchor="middle" x="178" y="-360.658" font-family="Calibri" font-size="12.00">Common</text>
<text text-anchor="middle" x="178" y="-347.658" font-family="Calibri" font-size="12.00">Passwords</text>
</g>
<!-- n_threat_actor&#45;&gt;n_common_passwords -->
<g id="edge10" class="edge"><title>n_threat_actor&#45;&gt;n_common_passwords</title>
<path fill="none" stroke="black" d="M264.73,-475.634C253.778,-460.812 238.408,-440.011 223.643,-420.03"/>
<polygon fill="black" stroke="black" points="226.346,-417.798 217.588,-411.835 220.716,-421.958 226.346,-417.798"/>
<text text-anchor="middle" x="265" y="-424.1" font-family="Calibri" font-size="14.00"> &#160;compiles &#160;</text>
</g>
<!-- n_rotation -->
<g id="node15" class="node"><title>n_rotation</title>
<ellipse fill="#d6e7ff" stroke="black" cx="359" cy="-357.258" rx="57.0522" ry="33.8824"/>
<text text-anchor="middle" x="359" y="-362.858" font-family="Calibri" font-size="18.00">Rotation</text>
<text text-anchor="middle" x="359" y="-342.858" font-family="Calibri" font-size="18.00">Scheme</text>
</g>
<!-- n_threat_actor&#45;&gt;n_rotation -->
<g id="edge16" class="edge"><title>n_threat_actor&#45;&gt;n_rotation</title>
<path fill="none" stroke="black" d="M292.344,-474.731C303.977,-454.403 321.702,-423.432 335.95,-398.535"/>
<polygon fill="black" stroke="black" points="339.095,-400.086 341.024,-389.669 333.019,-396.609 339.095,-400.086"/>
<text text-anchor="middle" x="340.5" y="-424.1" font-family="Calibri" font-size="14.00"> &#160;uses &#160;</text>
</g>
<!-- n_common_passwords&#45;&gt;n_rotation -->
<g id="edge14" class="edge"><title>n_common_passwords&#45;&gt;n_rotation</title>
<path fill="none" stroke="black" d="M233.664,-357.258C251.962,-357.258 272.501,-357.258 291.576,-357.258"/>
<polygon fill="black" stroke="black" points="291.678,-360.759 301.678,-357.258 291.678,-353.759 291.678,-360.759"/>
<text text-anchor="middle" x="263.904" y="-364.058" font-family="Calibri" font-size="14.00"> &#160;used by &#160;</text>
</g>
<!-- n_built_passwords -->
<g id="node13" class="node"><title>n_built_passwords</title>
<ellipse fill="#d6e7ff" stroke="black" cx="64" cy="-357.258" rx="48.1667" ry="24.0833"/>
<text text-anchor="middle" x="64" y="-360.658" font-family="Calibri" font-size="12.00">Built</text>
<text text-anchor="middle" x="64" y="-347.658" font-family="Calibri" font-size="12.00">Passwords</text>
</g>
<!-- n_public_info -->
<g id="node14" class="node"><title>n_public_info</title>
<ellipse fill="#d6e7ff" stroke="black" cx="64" cy="-266.276" rx="51.7379" ry="24.0833"/>
<text text-anchor="middle" x="64" y="-269.676" font-family="Calibri" font-size="12.00">Public</text>
<text text-anchor="middle" x="64" y="-256.676" font-family="Calibri" font-size="12.00">Information</text>
</g>
<!-- n_built_passwords&#45;&gt;n_public_info -->
<g id="edge12" class="edge"><title>n_built_passwords&#45;&gt;n_public_info</title>
<path fill="none" stroke="black" d="M64,-332.879C64,-323.07 64,-311.478 64,-300.788"/>
<polygon fill="black" stroke="black" points="67.5001,-300.499 64,-290.499 60.5001,-300.499 67.5001,-300.499"/>
<text text-anchor="middle" x="96.5" y="-303.117" font-family="Calibri" font-size="14.00"> &#160;based on &#160;</text>
</g>
<!-- n_public_info&#45;&gt;n_user_population -->
<g id="edge11" class="edge"><title>n_public_info&#45;&gt;n_user_population</title>
<path fill="none" stroke="black" d="M116.025,-266.276C139.31,-266.276 166.857,-266.276 190.822,-266.276"/>
<polygon fill="black" stroke="black" points="190.851,-269.776 200.851,-266.276 190.851,-262.776 190.851,-269.776"/>
<text text-anchor="middle" x="158.268" y="-273.076" font-family="Calibri" font-size="14.00"> &#160;related to &#160;</text>
</g>
<!-- n_rotation&#45;&gt;n_password -->
<g id="edge15" class="edge"><title>n_rotation&#45;&gt;n_password</title>
<path fill="none" stroke="black" d="M357.123,-323.047C354.764,-286.263 350.02,-225.274 342,-173.234 338.324,-149.382 332.384,-122.594 327.758,-103.222"/>
<polygon fill="black" stroke="black" points="331.107,-102.181 325.346,-93.2891 324.305,-103.833 331.107,-102.181"/>
<text text-anchor="middle" x="378" y="-222.034" font-family="Calibri" font-size="14.00"> &#160;guesses &#160;</text>
</g>
<!-- n_rotation&#45;&gt;n_authentication -->
<g id="edge19" class="edge"><title>n_rotation&#45;&gt;n_authentication</title>
<path fill="none" stroke="black" d="M373.765,-324.299C384.817,-299.709 399.88,-264.719 411,-233.234 426.865,-188.316 441.288,-134.735 449.328,-103.208"/>
<polygon fill="black" stroke="black" points="452.749,-103.959 451.803,-93.4063 445.962,-102.245 452.749,-103.959"/>
<text text-anchor="middle" x="447" y="-222.034" font-family="Calibri" font-size="14.00"> &#160;attempts &#160;</text>
</g>
</g>
</svg>
