<!DOCTYPE svg [<!ENTITY nbsp "&#160;">]><svg width="712pt" height="726pt" viewBox="0 0 712 726" xmlns="http://www.w3.org/2000/svg" xmlns:xlink="http://www.w3.org/1999/xlink">
<g id="graph0" class="graph" transform="scale(1 1) rotate(0) translate(4 722.2271)">
<title>G</title>
<polygon fill="#ffffff" stroke="transparent" points="-4,4 -4,-722.2271 708,-722.2271 708,4 -4,4"></polygon>
<text text-anchor="middle" x="352" y="-16" font-family="Calibri" font-size="8.00" fill="#000000">Password Spraying Attack (Conceptual Diagram) by Open-Measure</text>
<text text-anchor="middle" x="352" y="-6.4" font-family="Calibri" font-size="8.00" fill="#000000">Licensed under Creative Commons Attribution 4.0 International License</text>
<g id="clust1" class="cluster">
<title>cluster_it_system</title>
<polygon fill="none" stroke="#000000" points="129,-35.2 129,-163.0039 696,-163.0039 696,-35.2 129,-35.2"></polygon>
<text text-anchor="middle" x="412.5" y="-146.4039" font-family="Calibri" font-size="14.00" fill="#000000">IT System</text>
</g>
<g id="clust2" class="cluster">
<title>cluster_identity</title>
<polygon fill="none" stroke="#000000" points="266,-53.4039 266,-130.2039 362,-130.2039 362,-53.4039 266,-53.4039"></polygon>
<text text-anchor="middle" x="314" y="-113.6039" font-family="Calibri" font-size="14.00" fill="#000000">Identity</text>
</g>
<g id="clust3" class="cluster">
<title>cluster_dictionary</title>
<polygon fill="none" stroke="#000000" points="8,-340.8293 8,-433.6723 230,-433.6723 230,-340.8293 8,-340.8293"></polygon>
<text text-anchor="middle" x="119" y="-417.0723" font-family="Calibri" font-size="14.00" fill="#000000">Probable Passwords</text>
</g>
<!-- n_attack -->
<g id="node1" class="node">
<title>n_attack</title>
<ellipse fill="#ffffff" stroke="#000000" cx="61" cy="-666.7497" rx="47.252" ry="26.0431"></ellipse>
<text text-anchor="middle" x="61" y="-670.3497" font-family="Calibri" font-size="12.00" fill="#000000">Attack</text>
<text text-anchor="middle" x="61" y="-655.9497" font-family="Calibri" font-size="12.00" fill="#000000">Technique</text>
</g>
<!-- n_brute_force_attack -->
<g id="node2" class="node">
<title>n_brute_force_attack</title>
<ellipse fill="#ffffff" stroke="#000000" cx="193" cy="-666.7497" rx="33.8626" ry="36.4089"></ellipse>
<text text-anchor="middle" x="193" y="-677.5497" font-family="Calibri" font-size="12.00" fill="#000000">Brute</text>
<text text-anchor="middle" x="193" y="-663.1497" font-family="Calibri" font-size="12.00" fill="#000000">Force</text>
<text text-anchor="middle" x="193" y="-648.7497" font-family="Calibri" font-size="12.00" fill="#000000">Attack</text>
</g>
<!-- n_attack&#45;&gt;n_brute_force_attack -->
<g id="edge1" class="edge">
<title>n_attack-&gt;n_brute_force_attack</title>
<path fill="none" stroke="#000000" d="M118.6462,-666.7497C132.3766,-666.7497 146.5972,-666.7497 158.8793,-666.7497"></path>
<polygon fill="#000000" stroke="#000000" points="118.2822,-663.2498 108.2822,-666.7497 118.2822,-670.2498 118.2822,-663.2498"></polygon>
<text text-anchor="middle" x="133.5973" y="-673.9497" font-family="Calibri" font-size="14.00" fill="#000000"> &nbsp;is a &nbsp;</text>
</g>
<!-- n_pwd_spraying_attack -->
<g id="node3" class="node">
<title>n_pwd_spraying_attack</title>
<g id="a_node3"><a xlink:href="https://open-measure.atlassian.net/wiki/spaces/DIC/pages/1348730921" xlink:title="Password\nSpraying\nAttack">
<ellipse fill="#5599ff" stroke="#000000" cx="338" cy="-666.7497" rx="60.1845" ry="51.4548"></ellipse>
<text text-anchor="middle" x="338" y="-682.9497" font-family="Calibri" font-size="18.00" fill="#000000">Password</text>
<text text-anchor="middle" x="338" y="-661.3497" font-family="Calibri" font-size="18.00" fill="#000000">Spraying</text>
<text text-anchor="middle" x="338" y="-639.7497" font-family="Calibri" font-size="18.00" fill="#000000">Attack</text>
</a>
</g>
</g>
<!-- n_brute_force_attack&#45;&gt;n_pwd_spraying_attack -->
<g id="edge2" class="edge">
<title>n_brute_force_attack-&gt;n_pwd_spraying_attack</title>
<path fill="none" stroke="#000000" d="M237.3493,-666.7497C250.1118,-666.7497 264.2521,-666.7497 277.8019,-666.7497"></path>
<polygon fill="#000000" stroke="#000000" points="236.9961,-663.2498 226.9961,-666.7497 236.996,-670.2498 236.9961,-663.2498"></polygon>
<text text-anchor="middle" x="252.4195" y="-673.9497" font-family="Calibri" font-size="14.00" fill="#000000"> &nbsp;is a &nbsp;</text>
</g>
<!-- n_locking -->
<g id="node4" class="node">
<title>n_locking</title>
<ellipse fill="#d6e7ff" stroke="#000000" cx="168" cy="-523.9723" rx="54.4008" ry="36.4089"></ellipse>
<text text-anchor="middle" x="168" y="-534.7723" font-family="Calibri" font-size="12.00" fill="#000000">Account</text>
<text text-anchor="middle" x="168" y="-520.3723" font-family="Calibri" font-size="12.00" fill="#000000">Locking</text>
<text text-anchor="middle" x="168" y="-505.9723" font-family="Calibri" font-size="12.00" fill="#000000">Mechanisms</text>
</g>
<!-- n_pwd_spraying_attack&#45;&gt;n_locking -->
<g id="edge3" class="edge">
<title>n_pwd_spraying_attack-&gt;n_locking</title>
<path fill="none" stroke="#000000" d="M285.8169,-640.6891C268.8941,-631.0391 250.5953,-619.2515 235.4502,-606.2723 221.4963,-594.3139 208.2022,-579.2223 197.1621,-565.238"></path>
<polygon fill="#000000" stroke="#000000" points="199.8134,-562.9447 190.9343,-557.1644 194.2707,-567.2202 199.8134,-562.9447"></polygon>
<text text-anchor="middle" x="261.2749" y="-593.6723" font-family="Calibri" font-size="14.00" fill="#000000"> &nbsp;avoids &nbsp;</text>
</g>
<!-- n_threat_actor -->
<g id="node11" class="node">
<title>n_threat_actor</title>
<ellipse fill="#d6e7ff" stroke="#000000" cx="274" cy="-523.9723" rx="33.4122" ry="26.0431"></ellipse>
<text text-anchor="middle" x="274" y="-527.5723" font-family="Calibri" font-size="12.00" fill="#000000">Threat</text>
<text text-anchor="middle" x="274" y="-513.1723" font-family="Calibri" font-size="12.00" fill="#000000">Actor</text>
</g>
<!-- n_pwd_spraying_attack&#45;&gt;n_threat_actor -->
<g id="edge9" class="edge">
<title>n_pwd_spraying_attack-&gt;n_threat_actor</title>
<path fill="none" stroke="#000000" d="M305.2658,-623.5706C301.7807,-617.9233 298.5323,-612.0783 295.8408,-606.2723 289.0716,-591.6703 284.1097,-574.6026 280.6423,-559.8077"></path>
<polygon fill="#000000" stroke="#000000" points="284.0479,-558.9981 278.4767,-549.9863 277.2121,-560.5054 284.0479,-558.9981"></polygon>
<text text-anchor="middle" x="324.5796" y="-593.6723" font-family="Calibri" font-size="14.00" fill="#000000"> &nbsp;used by &nbsp;</text>
</g>
<!-- n_attack_phases -->
<g id="node16" class="node">
<title>n_attack_phases</title>
<polygon fill="#d6e7ff" stroke="#000000" points="325.5038,-501.5723 325.5038,-546.3723 432.4962,-546.3723 432.4962,-501.5723 325.5038,-501.5723"></polygon>
<text text-anchor="middle" x="379" y="-531.5723" font-family="Calibri" font-size="12.00" fill="#000000">Initial Exploitation</text>
<polyline fill="none" stroke="#000000" points="325.5038,-523.9723 432.4962,-523.9723 "></polyline>
<text text-anchor="middle" x="379" y="-509.1723" font-family="Calibri" font-size="12.00" fill="#000000">Lateral Movement</text>
</g>
<!-- n_pwd_spraying_attack&#45;&gt;n_attack_phases -->
<g id="edge17" class="edge">
<title>n_pwd_spraying_attack-&gt;n_attack_phases</title>
<path fill="none" stroke="#000000" d="M352.4551,-616.4117C358.1983,-596.4117 364.6367,-573.9909 369.7342,-556.2393"></path>
<polygon fill="#000000" stroke="#000000" points="373.1691,-556.9582 372.5652,-546.3806 366.441,-555.0262 373.1691,-556.9582"></polygon>
<text text-anchor="middle" x="385.2756" y="-593.6723" font-family="Calibri" font-size="14.00" fill="#000000"> &nbsp;during &nbsp;</text>
</g>
<!-- n_countermeasures -->
<g id="node17" class="node">
<title>n_countermeasures</title>
<polygon fill="#d6e7ff" stroke="#000000" points="450.0182,-467.9723 450.0182,-579.9723 589.9818,-579.9723 589.9818,-467.9723 450.0182,-467.9723"></polygon>
<text text-anchor="middle" x="520" y="-565.1723" font-family="Calibri" font-size="12.00" fill="#000000">Alternatives to passwords</text>
<polyline fill="none" stroke="#000000" points="450.0182,-557.5723 589.9818,-557.5723 "></polyline>
<text text-anchor="middle" x="520" y="-542.7723" font-family="Calibri" font-size="12.00" fill="#000000">Password audits</text>
<polyline fill="none" stroke="#000000" points="450.0182,-535.1723 589.9818,-535.1723 "></polyline>
<text text-anchor="middle" x="520" y="-520.3723" font-family="Calibri" font-size="12.00" fill="#000000">IDS, IPS, MFA, MSV</text>
<polyline fill="none" stroke="#000000" points="450.0182,-512.7723 589.9818,-512.7723 "></polyline>
<text text-anchor="middle" x="520" y="-497.9723" font-family="Calibri" font-size="12.00" fill="#000000">Password complexity</text>
<polyline fill="none" stroke="#000000" points="450.0182,-490.3723 589.9818,-490.3723 "></polyline>
<text text-anchor="middle" x="520" y="-475.5723" font-family="Calibri" font-size="12.00" fill="#000000">etc.</text>
</g>
<!-- n_pwd_spraying_attack&#45;&gt;n_countermeasures -->
<g id="edge18" class="edge">
<title>n_pwd_spraying_attack-&gt;n_countermeasures</title>
<path fill="none" stroke="#000000" d="M382.5222,-631.8224C400.3597,-617.8291 421.454,-601.2808 441.6938,-585.4028"></path>
<polygon fill="#000000" stroke="#000000" points="443.9916,-588.0488 449.6991,-579.1227 439.671,-582.5413 443.9916,-588.0488"></polygon>
<text text-anchor="middle" x="499.5074" y="-593.6723" font-family="Calibri" font-size="14.00" fill="#000000"> &nbsp;may be countered by &nbsp;</text>
</g>
<!-- n_weak -->
<g id="node5" class="node">
<title>n_weak</title>
<ellipse fill="#d6e7ff" stroke="#000000" cx="165" cy="-79.4039" rx="28.1808" ry="18"></ellipse>
<text text-anchor="middle" x="165" y="-75.8039" font-family="Calibri" font-size="12.00" fill="#000000">Weak</text>
</g>
<!-- n_password -->
<g id="node6" class="node">
<title>n_password</title>
<ellipse fill="#d6e7ff" stroke="#000000" cx="314" cy="-79.4039" rx="39.6847" ry="18"></ellipse>
<text text-anchor="middle" x="314" y="-75.8039" font-family="Calibri" font-size="12.00" fill="#000000">Password</text>
</g>
<!-- n_weak&#45;&gt;n_password -->
<g id="edge4" class="edge">
<title>n_weak-&gt;n_password</title>
<path fill="none" stroke="#000000" d="M203.5516,-79.4039C225.2479,-79.4039 252.2944,-79.4039 274.1923,-79.4039"></path>
<polygon fill="#000000" stroke="#000000" points="203.3765,-75.904 193.3765,-79.4039 203.3764,-82.904 203.3765,-75.904"></polygon>
<text text-anchor="middle" x="233.749" y="-86.6039" font-family="Calibri" font-size="14.00" fill="#000000"> &nbsp;some are &nbsp;</text>
</g>
<!-- n_authentication -->
<g id="node7" class="node">
<title>n_authentication</title>
<ellipse fill="#d6e7ff" stroke="#000000" cx="453" cy="-79.4039" rx="55.5399" ry="18"></ellipse>
<text text-anchor="middle" x="453" y="-75.8039" font-family="Calibri" font-size="12.00" fill="#000000">Authentication</text>
</g>
<!-- n_password&#45;&gt;n_authentication -->
<g id="edge5" class="edge">
<title>n_password-&gt;n_authentication</title>
<path fill="none" stroke="#000000" d="M363.9088,-79.4039C374.6769,-79.4039 386.1282,-79.4039 397.108,-79.4039"></path>
<polygon fill="#000000" stroke="#000000" points="372.0002,-75.9044 362,-79.4039 371.9998,-82.9044 372.0002,-75.9044"></polygon>
<text text-anchor="middle" x="375.4114" y="-86.6039" font-family="Calibri" font-size="14.00" fill="#000000"> &nbsp;of &nbsp;</text>
</g>
<!-- n_pwd_auth_factor -->
<g id="node8" class="node">
<title>n_pwd_auth_factor</title>
<ellipse fill="#d6e7ff" stroke="#000000" cx="626" cy="-79.4039" rx="61.9861" ry="36.4089"></ellipse>
<text text-anchor="middle" x="626" y="-90.2039" font-family="Calibri" font-size="12.00" fill="#000000">Password</text>
<text text-anchor="middle" x="626" y="-75.8039" font-family="Calibri" font-size="12.00" fill="#000000">Authentication</text>
<text text-anchor="middle" x="626" y="-61.4039" font-family="Calibri" font-size="12.00" fill="#000000">Factor</text>
</g>
<!-- n_authentication&#45;&gt;n_pwd_auth_factor -->
<g id="edge6" class="edge">
<title>n_authentication-&gt;n_pwd_auth_factor</title>
<path fill="none" stroke="#000000" d="M509.1681,-79.4039C523.4371,-79.4039 538.9669,-79.4039 553.9068,-79.4039"></path>
<polygon fill="#000000" stroke="#000000" points="554.1328,-82.904 564.1327,-79.4039 554.1327,-75.904 554.1328,-82.904"></polygon>
<text text-anchor="middle" x="536.5134" y="-86.6039" font-family="Calibri" font-size="14.00" fill="#000000"> &nbsp;uses &nbsp;</text>
</g>
<!-- n_user_population -->
<g id="node9" class="node">
<title>n_user_population</title>
<ellipse fill="#d6e7ff" stroke="#000000" cx="246" cy="-277.8254" rx="48.1695" ry="26.0431"></ellipse>
<text text-anchor="middle" x="246" y="-281.4254" font-family="Calibri" font-size="12.00" fill="#000000">User</text>
<text text-anchor="middle" x="246" y="-267.0254" font-family="Calibri" font-size="12.00" fill="#000000">Population</text>
</g>
<!-- n_user_population&#45;&gt;n_password -->
<g id="edge7" class="edge">
<title>n_user_population-&gt;n_password</title>
<path fill="none" stroke="#000000" d="M248.6449,-251.4341C251.1175,-231.6778 255.6127,-204.1832 263.2896,-181.0039 266.1954,-172.2303 273.7753,-156.2541 282.2157,-139.5283"></path>
<polygon fill="#000000" stroke="#000000" points="285.5473,-140.699 286.9691,-130.2 279.3104,-137.5208 285.5473,-140.699"></polygon>
<text text-anchor="middle" x="300.3552" y="-194.8039" font-family="Calibri" font-size="14.00" fill="#000000"> &nbsp;mapped to &nbsp;</text>
</g>
<!-- n_large -->
<g id="node10" class="node">
<title>n_large</title>
<ellipse fill="#d6e7ff" stroke="#000000" cx="181" cy="-199.0039" rx="28.1793" ry="18"></ellipse>
<text text-anchor="middle" x="181" y="-195.4039" font-family="Calibri" font-size="12.00" fill="#000000">Large</text>
</g>
<!-- n_user_population&#45;&gt;n_large -->
<g id="edge8" class="edge">
<title>n_user_population-&gt;n_large</title>
<path fill="none" stroke="#000000" d="M221.7696,-255.0717C217.9198,-251.1043 214.0842,-246.9251 210.6648,-242.8039 205.9367,-237.1053 201.2444,-230.6517 197.0342,-224.4839"></path>
<polygon fill="#000000" stroke="#000000" points="199.7039,-222.1763 191.2629,-215.7731 193.8684,-226.0425 199.7039,-222.1763"></polygon>
<text text-anchor="middle" x="222.6676" y="-230.2039" font-family="Calibri" font-size="14.00" fill="#000000"> &nbsp;is &nbsp;</text>
</g>
<!-- n_large&#45;&gt;n_weak -->
<g id="edge13" class="edge">
<title>n_large-&gt;n_weak</title>
<path fill="none" stroke="#000000" stroke-dasharray="5,2" d="M178.5699,-180.8392C175.5452,-158.2291 170.4114,-119.8544 167.4005,-97.3476"></path>
</g>
<!-- n_common_passwords -->
<g id="node12" class="node">
<title>n_common_passwords</title>
<ellipse fill="#d6e7ff" stroke="#000000" cx="175" cy="-374.8508" rx="47.2656" ry="26.0431"></ellipse>
<text text-anchor="middle" x="175" y="-378.4508" font-family="Calibri" font-size="12.00" fill="#000000">Common</text>
<text text-anchor="middle" x="175" y="-364.0508" font-family="Calibri" font-size="12.00" fill="#000000">Passwords</text>
</g>
<!-- n_threat_actor&#45;&gt;n_common_passwords -->
<g id="edge10" class="edge">
<title>n_threat_actor-&gt;n_common_passwords</title>
<path fill="none" stroke="#000000" d="M258.5313,-500.6721C248.0624,-484.9031 233.6575,-463.2053 219.7562,-442.2661"></path>
<polygon fill="#000000" stroke="#000000" points="222.4976,-440.0673 214.0507,-433.672 216.6658,-443.939 222.4976,-440.0673"></polygon>
<text text-anchor="middle" x="263.2728" y="-445.8723" font-family="Calibri" font-size="14.00" fill="#000000"> &nbsp;compiles &nbsp;</text>
</g>
<!-- n_rotation -->
<g id="node15" class="node">
<title>n_rotation</title>
<ellipse fill="#d6e7ff" stroke="#000000" cx="352" cy="-374.8508" rx="55.3105" ry="36.4089"></ellipse>
<text text-anchor="middle" x="352" y="-380.2508" font-family="Calibri" font-size="18.00" fill="#000000">Rotation</text>
<text text-anchor="middle" x="352" y="-358.6508" font-family="Calibri" font-size="18.00" fill="#000000">Scheme</text>
</g>
<!-- n_threat_actor&#45;&gt;n_rotation -->
<g id="edge16" class="edge">
<title>n_threat_actor-&gt;n_rotation</title>
<path fill="none" stroke="#000000" d="M286.7056,-499.6815C298.2131,-477.6814 315.4373,-444.7518 329.3062,-418.237"></path>
<polygon fill="#000000" stroke="#000000" points="332.5235,-419.6377 334.057,-409.1544 326.3207,-416.3932 332.5235,-419.6377"></polygon>
<text text-anchor="middle" x="335.0519" y="-445.8723" font-family="Calibri" font-size="14.00" fill="#000000"> &nbsp;uses &nbsp;</text>
</g>
<!-- n_common_passwords&#45;&gt;n_rotation -->
<g id="edge14" class="edge">
<title>n_common_passwords-&gt;n_rotation</title>
<path fill="none" stroke="#000000" d="M229.996,-374.8508C247.8382,-374.8508 267.8119,-374.8508 286.3497,-374.8508"></path>
<polygon fill="#000000" stroke="#000000" points="286.586,-378.3509 296.5859,-374.8508 286.5859,-371.3509 286.586,-378.3509"></polygon>
<text text-anchor="middle" x="259.4888" y="-382.0508" font-family="Calibri" font-size="14.00" fill="#000000"> &nbsp;used by &nbsp;</text>
</g>
<!-- n_built_passwords -->
<g id="node13" class="node">
<title>n_built_passwords</title>
<ellipse fill="#d6e7ff" stroke="#000000" cx="63" cy="-374.8508" rx="47.2656" ry="26.0431"></ellipse>
<text text-anchor="middle" x="63" y="-378.4508" font-family="Calibri" font-size="12.00" fill="#000000">Built</text>
<text text-anchor="middle" x="63" y="-364.0508" font-family="Calibri" font-size="12.00" fill="#000000">Passwords</text>
</g>
<!-- n_public_info -->
<g id="node14" class="node">
<title>n_public_info</title>
<ellipse fill="#d6e7ff" stroke="#000000" cx="63" cy="-277.8254" rx="51.6844" ry="26.0431"></ellipse>
<text text-anchor="middle" x="63" y="-281.4254" font-family="Calibri" font-size="12.00" fill="#000000">Public</text>
<text text-anchor="middle" x="63" y="-267.0254" font-family="Calibri" font-size="12.00" fill="#000000">Information</text>
</g>
<!-- n_built_passwords&#45;&gt;n_public_info -->
<g id="edge12" class="edge">
<title>n_built_passwords-&gt;n_public_info</title>
<path fill="none" stroke="#000000" d="M63,-348.5943C63,-338.0241 63,-325.6541 63,-314.2388"></path>
<polygon fill="#000000" stroke="#000000" points="66.5001,-314.1028 63,-304.1029 59.5001,-314.1029 66.5001,-314.1028"></polygon>
<text text-anchor="middle" x="94.6869" y="-317.0469" font-family="Calibri" font-size="14.00" fill="#000000"> &nbsp;based on &nbsp;</text>
</g>
<!-- n_public_info&#45;&gt;n_user_population -->
<g id="edge11" class="edge">
<title>n_public_info-&gt;n_user_population</title>
<path fill="none" stroke="#000000" d="M114.951,-277.8254C137.5948,-277.8254 164.2401,-277.8254 187.5709,-277.8254"></path>
<polygon fill="#000000" stroke="#000000" points="187.687,-281.3255 197.687,-277.8254 187.687,-274.3255 187.687,-281.3255"></polygon>
<text text-anchor="middle" x="156.3786" y="-285.0254" font-family="Calibri" font-size="14.00" fill="#000000"> &nbsp;related to &nbsp;</text>
</g>
<!-- n_rotation&#45;&gt;n_password -->
<g id="edge15" class="edge">
<title>n_rotation-&gt;n_password</title>
<path fill="none" stroke="#000000" d="M350.4273,-338.6043C348.402,-299.5382 344.1305,-235.6133 336,-181.0039 332.2657,-155.9219 326.0032,-127.7663 321.1127,-107.4668"></path>
<polygon fill="#000000" stroke="#000000" points="324.4806,-106.5051 318.701,-97.6255 317.6818,-108.1712 324.4806,-106.5051"></polygon>
<text text-anchor="middle" x="372.3815" y="-230.2039" font-family="Calibri" font-size="14.00" fill="#000000"> &nbsp;guesses &nbsp;</text>
</g>
<!-- n_rotation&#45;&gt;n_authentication -->
<g id="edge19" class="edge">
<title>n_rotation-&gt;n_authentication</title>
<path fill="none" stroke="#000000" d="M367.1,-339.8887C378.2481,-313.4707 393.4296,-276.1798 405,-242.8039 421.254,-195.9177 436.827,-140.2764 445.6255,-107.5126"></path>
<polygon fill="#000000" stroke="#000000" points="449.0423,-108.2832 448.2365,-97.719 442.2785,-106.4799 449.0423,-108.2832"></polygon>
<text text-anchor="middle" x="441.7181" y="-230.2039" font-family="Calibri" font-size="14.00" fill="#000000"> &nbsp;attempts &nbsp;</text>
</g>
</g>
</svg>