<!DOCTYPE svg [<!ENTITY nbsp "&#160;">]><svg width="546pt" height="536pt" viewBox="0 0 546 536" xmlns="http://www.w3.org/2000/svg" xmlns:xlink="http://www.w3.org/1999/xlink">
<g id="graph0" class="graph" transform="scale(1 1) rotate(0) translate(4 532.1115)">
<title>G</title>
<polygon fill="#ffffff" stroke="transparent" points="-4,4 -4,-532.1115 542.202,-532.1115 542.202,4 -4,4"></polygon>
<text text-anchor="middle" x="269.101" y="-16" font-family="Calibri" font-size="8.00" fill="#000000">Privilege Abuse (Conceptual Diagram) by Open-Measure</text>
<text text-anchor="middle" x="269.101" y="-6.4" font-family="Calibri" font-size="8.00" fill="#000000">Licensed under Creative Commons Attribution 4.0 International License</text>
<!-- n_threat -->
<g id="node1" class="node">
<title>n_threat</title>
<ellipse fill="#ffffff" stroke="#000000" cx="30.2194" cy="-507.1812" rx="30.4405" ry="18"></ellipse>
<text text-anchor="middle" x="30.2194" y="-503.5812" font-family="Calibri" font-size="12.00" fill="#000000">Threat</text>
</g>
<!-- n_insider_threat -->
<g id="node2" class="node">
<title>n_insider_threat</title>
<ellipse fill="#ffffff" stroke="#000000" cx="187.2194" cy="-507.1812" rx="53.3316" ry="18"></ellipse>
<text text-anchor="middle" x="187.2194" y="-503.5812" font-family="Calibri" font-size="12.00" fill="#000000">Insider Threat</text>
</g>
<!-- n_threat&#45;&gt;n_insider_threat -->
<g id="edge1" class="edge">
<title>n_threat-&gt;n_insider_threat</title>
<path fill="none" stroke="#000000" d="M70.6732,-507.1812C89.8133,-507.1812 112.9336,-507.1812 133.5183,-507.1812"></path>
<polygon fill="#000000" stroke="#000000" points="70.4906,-503.6813 60.4906,-507.1812 70.4906,-510.6813 70.4906,-503.6813"></polygon>
<text text-anchor="middle" x="97.1213" y="-514.3812" font-family="Calibri" font-size="14.00" fill="#000000"> &nbsp;of class &nbsp;</text>
</g>
<!-- n_privilege_abuse -->
<g id="node3" class="node">
<title>n_privilege_abuse</title>
<g id="a_node3"><a xlink:href="https://open-measure.atlassian.net/wiki/spaces/DIC/pages/1079050286" xlink:title="Privilege Abuse">
<ellipse fill="#5599ff" stroke="#000000" cx="407.2194" cy="-507.1812" rx="92.9267" ry="20.861"></ellipse>
<text text-anchor="middle" x="407.2194" y="-501.7812" font-family="Calibri" font-size="18.00" fill="#000000">Privilege Abuse</text>
</a>
</g>
</g>
<!-- n_insider_threat&#45;&gt;n_privilege_abuse -->
<g id="edge2" class="edge">
<title>n_insider_threat-&gt;n_privilege_abuse</title>
<path fill="none" stroke="#000000" d="M250.8107,-507.1812C270.494,-507.1812 292.6051,-507.1812 313.8667,-507.1812"></path>
<polygon fill="#000000" stroke="#000000" points="250.7562,-503.6813 240.7562,-507.1812 250.7561,-510.6813 250.7562,-503.6813"></polygon>
<text text-anchor="middle" x="277.4456" y="-514.3812" font-family="Calibri" font-size="14.00" fill="#000000"> &nbsp;of class &nbsp;</text>
</g>
<!-- n_abusive_usage -->
<g id="node4" class="node">
<title>n_abusive_usage</title>
<ellipse fill="#d6e7ff" stroke="#000000" cx="332.2194" cy="-410.6293" rx="39.6837" ry="26.0431"></ellipse>
<text text-anchor="middle" x="332.2194" y="-414.2293" font-family="Calibri" font-size="12.00" fill="#000000">Abusive</text>
<text text-anchor="middle" x="332.2194" y="-399.8293" font-family="Calibri" font-size="12.00" fill="#000000">Usage</text>
</g>
<!-- n_privilege_abuse&#45;&gt;n_abusive_usage -->
<g id="edge4" class="edge">
<title>n_privilege_abuse-&gt;n_abusive_usage</title>
<path fill="none" stroke="#000000" d="M362.8766,-488.7595C358.6179,-485.7107 354.6861,-482.2223 351.4438,-478.2508 344.1161,-469.2749 339.5794,-457.6564 336.7715,-446.5899"></path>
<polygon fill="#000000" stroke="#000000" points="340.1644,-445.7191 334.6482,-436.6735 333.3196,-447.1847 340.1644,-445.7191"></polygon>
<text text-anchor="middle" x="387.6072" y="-465.6508" font-family="Calibri" font-size="14.00" fill="#000000"> &nbsp;consisting &nbsp;</text>
<text text-anchor="middle" x="387.6072" y="-448.8508" font-family="Calibri" font-size="14.00" fill="#000000"> &nbsp;in &nbsp;</text>
</g>
<!-- n_subclasses -->
<g id="node9" class="node">
<title>n_subclasses</title>
<polygon fill="#d6e7ff" stroke="#000000" points="390.2368,-388.2293 390.2368,-433.0293 538.202,-433.0293 538.202,-388.2293 390.2368,-388.2293"></polygon>
<text text-anchor="middle" x="464.2194" y="-418.2293" font-family="Calibri" font-size="12.00" fill="#000000">Excessive Privilege Abuse</text>
<polyline fill="none" stroke="#000000" points="390.2368,-410.6293 538.202,-410.6293 "></polyline>
<text text-anchor="middle" x="464.2194" y="-395.8293" font-family="Calibri" font-size="12.00" fill="#000000">Legitimate Privilege Abuse</text>
</g>
<!-- n_privilege_abuse&#45;&gt;n_subclasses -->
<g id="edge8" class="edge">
<title>n_privilege_abuse-&gt;n_subclasses</title>
<path fill="none" stroke="#000000" d="M421.0923,-486.4323C422.8473,-483.6989 424.5954,-480.9203 426.2194,-478.2508 433.3437,-466.5401 440.8102,-453.4514 447.2205,-441.9318"></path>
<polygon fill="#000000" stroke="#000000" points="450.3353,-443.5316 452.1082,-433.0861 444.2084,-440.1461 450.3353,-443.5316"></polygon>
<text text-anchor="middle" x="482.3758" y="-465.6508" font-family="Calibri" font-size="14.00" fill="#000000"> &nbsp;has &nbsp;</text>
<text text-anchor="middle" x="482.3758" y="-448.8508" font-family="Calibri" font-size="14.00" fill="#000000"> &nbsp;subclasses &nbsp;</text>
</g>
<!-- n_motivations -->
<g id="node5" class="node">
<title>n_motivations</title>
<polygon fill="#d6e7ff" stroke="#000000" points="73.8862,-265.2039 73.8862,-332.4039 176.5526,-332.4039 176.5526,-265.2039 73.8862,-265.2039"></polygon>
<text text-anchor="middle" x="125.2194" y="-317.6039" font-family="Calibri" font-size="12.00" fill="#000000">Fun and Curiosity</text>
<polyline fill="none" stroke="#000000" points="73.8862,-310.0039 176.5526,-310.0039 "></polyline>
<text text-anchor="middle" x="125.2194" y="-295.2039" font-family="Calibri" font-size="12.00" fill="#000000">Financial Gain</text>
<polyline fill="none" stroke="#000000" points="73.8862,-287.6039 176.5526,-287.6039 "></polyline>
<text text-anchor="middle" x="125.2194" y="-272.8039" font-family="Calibri" font-size="12.00" fill="#000000">etc...</text>
</g>
<!-- n_abusive_usage&#45;&gt;n_motivations -->
<g id="edge3" class="edge">
<title>n_abusive_usage-&gt;n_motivations</title>
<path fill="none" stroke="#000000" d="M293.4888,-404.9876C268.0544,-400.1137 234.7162,-391.4389 208.2278,-376.6077 191.2143,-367.0817 174.9787,-353.3329 161.4511,-340.0346"></path>
<polygon fill="#000000" stroke="#000000" points="163.7447,-337.3762 154.2265,-332.7227 158.7653,-342.2961 163.7447,-337.3762"></polygon>
<text text-anchor="middle" x="244.2152" y="-364.0077" font-family="Calibri" font-size="14.00" fill="#000000"> &nbsp;motivated &nbsp;</text>
<text text-anchor="middle" x="244.2152" y="-347.2077" font-family="Calibri" font-size="14.00" fill="#000000"> &nbsp;by &nbsp;</text>
</g>
<!-- n_effective_access_permissions -->
<g id="node6" class="node">
<title>n_effective_access_permissions</title>
<ellipse fill="#d6e7ff" stroke="#000000" cx="247.2194" cy="-298.8039" rx="52.1484" ry="36.4089"></ellipse>
<text text-anchor="middle" x="247.2194" y="-309.6039" font-family="Calibri" font-size="12.00" fill="#000000">Effective</text>
<text text-anchor="middle" x="247.2194" y="-295.2039" font-family="Calibri" font-size="12.00" fill="#000000">Access</text>
<text text-anchor="middle" x="247.2194" y="-280.8039" font-family="Calibri" font-size="12.00" fill="#000000">Permissions</text>
</g>
<!-- n_abusive_usage&#45;&gt;n_effective_access_permissions -->
<g id="edge5" class="edge">
<title>n_abusive_usage-&gt;n_effective_access_permissions</title>
<path fill="none" stroke="#000000" d="M314.4006,-387.187C303.8711,-373.3344 290.2483,-355.4124 278.0251,-339.3315"></path>
<polygon fill="#000000" stroke="#000000" points="280.6223,-336.9646 271.7845,-331.1214 275.0495,-341.2006 280.6223,-336.9646"></polygon>
<text text-anchor="middle" x="318.0497" y="-355.6077" font-family="Calibri" font-size="14.00" fill="#000000"> &nbsp;of &nbsp;</text>
</g>
<!-- n_intentional -->
<g id="node7" class="node">
<title>n_intentional</title>
<ellipse fill="#d6e7ff" stroke="#000000" cx="361.2194" cy="-298.8039" rx="43.3474" ry="18"></ellipse>
<text text-anchor="middle" x="361.2194" y="-295.2039" font-family="Calibri" font-size="12.00" fill="#000000">Intentional</text>
</g>
<!-- n_abusive_usage&#45;&gt;n_intentional -->
<g id="edge6" class="edge">
<title>n_abusive_usage-&gt;n_intentional</title>
<path fill="none" stroke="#000000" d="M338.8726,-384.9743C343.3738,-367.6176 349.3186,-344.6941 353.945,-326.8543"></path>
<polygon fill="#000000" stroke="#000000" points="357.3734,-327.5769 356.4958,-317.0185 350.5975,-325.8196 357.3734,-327.5769"></polygon>
<text text-anchor="middle" x="361.887" y="-355.6077" font-family="Calibri" font-size="14.00" fill="#000000"> &nbsp;is &nbsp;</text>
</g>
<!-- n_countermeasures -->
<g id="node10" class="node">
<title>n_countermeasures</title>
<polygon fill="#d6e7ff" stroke="#000000" points="354.748,-27.7 354.748,-229.3 525.6908,-229.3 525.6908,-27.7 354.748,-27.7"></polygon>
<text text-anchor="middle" x="440.2194" y="-214.5" font-family="Calibri" font-size="12.00" fill="#000000">Vetting</text>
<polyline fill="none" stroke="#000000" points="354.748,-206.9 525.6908,-206.9 "></polyline>
<text text-anchor="middle" x="440.2194" y="-192.1" font-family="Calibri" font-size="12.00" fill="#000000">Least Privilege</text>
<polyline fill="none" stroke="#000000" points="354.748,-184.5 525.6908,-184.5 "></polyline>
<text text-anchor="middle" x="440.2194" y="-169.7" font-family="Calibri" font-size="12.00" fill="#000000">Audit Logs</text>
<polyline fill="none" stroke="#000000" points="354.748,-162.1 525.6908,-162.1 "></polyline>
<text text-anchor="middle" x="440.2194" y="-147.3" font-family="Calibri" font-size="12.00" fill="#000000">Session Recording</text>
<polyline fill="none" stroke="#000000" points="354.748,-139.7 525.6908,-139.7 "></polyline>
<text text-anchor="middle" x="440.2194" y="-124.9" font-family="Calibri" font-size="12.00" fill="#000000">Awareness Training</text>
<polyline fill="none" stroke="#000000" points="354.748,-117.3 525.6908,-117.3 "></polyline>
<text text-anchor="middle" x="440.2194" y="-102.5" font-family="Calibri" font-size="12.00" fill="#000000">Honeypots</text>
<polyline fill="none" stroke="#000000" points="354.748,-94.9 525.6908,-94.9 "></polyline>
<text text-anchor="middle" x="440.2194" y="-80.1" font-family="Calibri" font-size="12.00" fill="#000000">Deterrent Discipline</text>
<polyline fill="none" stroke="#000000" points="354.748,-72.5 525.6908,-72.5 "></polyline>
<text text-anchor="middle" x="440.2194" y="-57.7" font-family="Calibri" font-size="12.00" fill="#000000">User Behavior Analytics (UBA)</text>
<polyline fill="none" stroke="#000000" points="354.748,-50.1 525.6908,-50.1 "></polyline>
<text text-anchor="middle" x="440.2194" y="-35.3" font-family="Calibri" font-size="12.00" fill="#000000">etc.</text>
</g>
<!-- n_abusive_usage&#45;&gt;n_countermeasures -->
<g id="edge9" class="edge">
<title>n_abusive_usage-&gt;n_countermeasures</title>
<path fill="none" stroke="#000000" d="M361.0568,-392.6802C379.6643,-379.3134 402.353,-359.2311 413.2194,-335.0077 426.4397,-305.5372 433.7212,-271.4883 437.5988,-239.6448"></path>
<polygon fill="#000000" stroke="#000000" points="441.1122,-239.7182 438.7414,-229.3921 434.1553,-238.9429 441.1122,-239.7182"></polygon>
<text text-anchor="middle" x="479.3169" y="-303.0039" font-family="Calibri" font-size="14.00" fill="#000000"> &nbsp;may be &nbsp;</text>
<text text-anchor="middle" x="479.3169" y="-286.2039" font-family="Calibri" font-size="14.00" fill="#000000"> &nbsp;countered &nbsp;by &nbsp;</text>
</g>
<!-- n_identity_class -->
<g id="node8" class="node">
<title>n_identity_class</title>
<polygon fill="#d6e7ff" stroke="#000000" points="193.074,-83.7 193.074,-173.3 301.3648,-173.3 301.3648,-83.7 193.074,-83.7"></polygon>
<text text-anchor="middle" x="247.2194" y="-158.5" font-family="Calibri" font-size="12.00" fill="#000000">Workforce Identity</text>
<polyline fill="none" stroke="#000000" points="193.074,-150.9 301.3648,-150.9 "></polyline>
<text text-anchor="middle" x="247.2194" y="-136.1" font-family="Calibri" font-size="12.00" fill="#000000">Federated Identity</text>
<polyline fill="none" stroke="#000000" points="193.074,-128.5 301.3648,-128.5 "></polyline>
<text text-anchor="middle" x="247.2194" y="-113.7" font-family="Calibri" font-size="12.00" fill="#000000">Customer Identity</text>
<polyline fill="none" stroke="#000000" points="193.074,-106.1 301.3648,-106.1 "></polyline>
<text text-anchor="middle" x="247.2194" y="-91.3" font-family="Calibri" font-size="12.00" fill="#000000">Privileged Identity</text>
</g>
<!-- n_effective_access_permissions&#45;&gt;n_identity_class -->
<g id="edge7" class="edge">
<title>n_effective_access_permissions-&gt;n_identity_class</title>
<path fill="none" stroke="#000000" d="M247.2194,-262.2694C247.2194,-239.3182 247.2194,-209.2806 247.2194,-183.4848"></path>
<polygon fill="#000000" stroke="#000000" points="250.7195,-183.4628 247.2194,-173.4629 243.7195,-183.4629 250.7195,-183.4628"></polygon>
<text text-anchor="middle" x="260.0497" y="-242" font-family="Calibri" font-size="14.00" fill="#000000"> &nbsp;of &nbsp;</text>
</g>
</g>
</svg>