<?xml version="1.0" encoding="UTF-8" standalone="no"?>
<!DOCTYPE svg PUBLIC "-//W3C//DTD SVG 1.1//EN"
 "http://www.w3.org/Graphics/SVG/1.1/DTD/svg11.dtd">
<!-- Generated by graphviz version 2.38.0 (20140413.2041)
 -->
<!-- Title: G Pages: 1 -->
<svg width="2244pt" height="2088pt"
 viewBox="0.00 0.00 538.55 501.15" xmlns="http://www.w3.org/2000/svg" xmlns:xlink="http://www.w3.org/1999/xlink">
<g id="graph0" class="graph" transform="scale(4.16667 4.16667) rotate(0) translate(4 497.149)">
<title>G</title>
<polygon fill="white" stroke="none" points="-4,4 -4,-497.149 534.548,-497.149 534.548,4 -4,4"/>
<text text-anchor="middle" x="265.274" y="-15.6" font-family="Calibri" font-size="8.00">Privilege Abuse (Conceptual Diagram) by Open&#45;Measure</text>
<text text-anchor="middle" x="265.274" y="-6.6" font-family="Calibri" font-size="8.00">Licensed under Creative Commons Attribution 4.0 International License</text>
<!-- n_threat -->
<g id="node1" class="node"><title>n_threat</title>
<ellipse fill="#ffffff" stroke="black" cx="29.5482" cy="-473.35" rx="29.5964" ry="18"/>
<text text-anchor="middle" x="29.5482" y="-470.25" font-family="Calibri" font-size="12.00">Threat</text>
</g>
<!-- n_insider_threat -->
<g id="node2" class="node"><title>n_insider_threat</title>
<ellipse fill="#ffffff" stroke="black" cx="183.548" cy="-473.35" rx="51.9195" ry="18"/>
<text text-anchor="middle" x="183.548" y="-470.25" font-family="Calibri" font-size="12.00">Insider Threat</text>
</g>
<!-- n_threat&#45;&gt;n_insider_threat -->
<g id="edge1" class="edge"><title>n_threat&#45;&gt;n_insider_threat</title>
<path fill="none" stroke="black" d="M69.3638,-473.35C88.3999,-473.35 111.426,-473.35 131.8,-473.35"/>
<polygon fill="black" stroke="black" points="69.241,-469.85 59.2409,-473.35 69.2409,-476.85 69.241,-469.85"/>
<text text-anchor="middle" x="95.4676" y="-480.15" font-family="Calibri" font-size="14.00"> &#160;of class &#160;</text>
</g>
<!-- n_privilege_abuse -->
<g id="node3" class="node"><title>n_privilege_abuse</title>
<g id="a_node3"><a xlink:href="https://open-measure.atlassian.net/wiki/spaces/DIC/pages/1079050286" xlink:title="Privilege Abuse">
<ellipse fill="#5599ff" stroke="black" cx="398.548" cy="-473.35" rx="91.4341" ry="19.6"/>
<text text-anchor="middle" x="398.548" y="-468.95" font-family="Calibri" font-size="18.00">Privilege Abuse</text>
</a>
</g>
</g>
<!-- n_insider_threat&#45;&gt;n_privilege_abuse -->
<g id="edge2" class="edge"><title>n_insider_threat&#45;&gt;n_privilege_abuse</title>
<path fill="none" stroke="black" d="M245.471,-473.35C264.767,-473.35 286.466,-473.35 307.329,-473.35"/>
<polygon fill="black" stroke="black" points="245.32,-469.85 235.32,-473.35 245.32,-476.85 245.32,-469.85"/>
<text text-anchor="middle" x="271.294" y="-480.15" font-family="Calibri" font-size="14.00"> &#160;of class &#160;</text>
</g>
<!-- n_abusive_usage -->
<g id="node4" class="node"><title>n_abusive_usage</title>
<ellipse fill="#d6e7ff" stroke="black" cx="324.548" cy="-383.51" rx="38.7821" ry="24.0833"/>
<text text-anchor="middle" x="324.548" y="-386.91" font-family="Calibri" font-size="12.00">Abusive</text>
<text text-anchor="middle" x="324.548" y="-373.91" font-family="Calibri" font-size="12.00">Usage</text>
</g>
<!-- n_privilege_abuse&#45;&gt;n_abusive_usage -->
<g id="edge4" class="edge"><title>n_privilege_abuse&#45;&gt;n_abusive_usage</title>
<path fill="none" stroke="black" d="M354.361,-455.824C349.969,-452.893 345.903,-449.489 342.548,-445.551 335.848,-437.686 331.641,-427.422 328.999,-417.561"/>
<polygon fill="black" stroke="black" points="332.36,-416.55 326.775,-407.548 325.527,-418.069 332.36,-416.55"/>
<text text-anchor="middle" x="377.548" y="-434.351" font-family="Calibri" font-size="14.00"> &#160;consisting &#160;</text>
<text text-anchor="middle" x="377.548" y="-419.351" font-family="Calibri" font-size="14.00"> &#160;in &#160;</text>
</g>
<!-- n_subclasses -->
<g id="node9" class="node"><title>n_subclasses</title>
<polygon fill="#d6e7ff" stroke="black" points="381.548,-362.51 381.548,-404.51 527.548,-404.51 527.548,-362.51 381.548,-362.51"/>
<text text-anchor="middle" x="454.548" y="-390.91" font-family="Calibri" font-size="12.00">Excessive Privilege Abuse</text>
<polyline fill="none" stroke="black" points="381.548,-383.51 527.548,-383.51 "/>
<text text-anchor="middle" x="454.548" y="-369.91" font-family="Calibri" font-size="12.00">Legitimate Privilege Abuse</text>
</g>
<!-- n_privilege_abuse&#45;&gt;n_subclasses -->
<g id="edge8" class="edge"><title>n_privilege_abuse&#45;&gt;n_subclasses</title>
<path fill="none" stroke="black" d="M411.22,-453.663C413.023,-450.951 414.844,-448.187 416.548,-445.551 423.313,-435.093 430.576,-423.515 436.923,-413.278"/>
<polygon fill="black" stroke="black" points="439.95,-415.037 442.228,-404.69 433.995,-411.358 439.95,-415.037"/>
<text text-anchor="middle" x="471.548" y="-434.351" font-family="Calibri" font-size="14.00"> &#160;has &#160;</text>
<text text-anchor="middle" x="471.548" y="-419.351" font-family="Calibri" font-size="14.00"> &#160;subclasses &#160;</text>
</g>
<!-- n_motivations -->
<g id="node5" class="node"><title>n_motivations</title>
<polygon fill="#d6e7ff" stroke="black" points="79.0482,-248.734 79.0482,-311.734 180.048,-311.734 180.048,-248.734 79.0482,-248.734"/>
<text text-anchor="middle" x="129.548" y="-298.134" font-family="Calibri" font-size="12.00">Fun and Curiosity</text>
<polyline fill="none" stroke="black" points="79.0482,-290.734 180.048,-290.734 "/>
<text text-anchor="middle" x="129.548" y="-277.134" font-family="Calibri" font-size="12.00">Financial Gain</text>
<polyline fill="none" stroke="black" points="79.0482,-269.734 180.048,-269.734 "/>
<text text-anchor="middle" x="129.548" y="-256.134" font-family="Calibri" font-size="12.00">etc...</text>
</g>
<!-- n_abusive_usage&#45;&gt;n_motivations -->
<g id="edge3" class="edge"><title>n_abusive_usage&#45;&gt;n_motivations</title>
<path fill="none" stroke="black" d="M286.872,-377.532C262.546,-373.177 230.836,-365.302 205.548,-351.468 190.277,-343.114 175.678,-331.023 163.431,-319.22"/>
<polygon fill="black" stroke="black" points="165.68,-316.52 156.124,-311.944 160.741,-321.48 165.68,-316.52"/>
<text text-anchor="middle" x="241.048" y="-340.268" font-family="Calibri" font-size="14.00"> &#160;motivated &#160;</text>
<text text-anchor="middle" x="241.048" y="-325.268" font-family="Calibri" font-size="14.00"> &#160;by &#160;</text>
</g>
<!-- n_effective_access_permissions -->
<g id="node6" class="node"><title>n_effective_access_permissions</title>
<ellipse fill="#d6e7ff" stroke="black" cx="251.548" cy="-280.234" rx="53.066" ry="33.4697"/>
<text text-anchor="middle" x="251.548" y="-290.134" font-family="Calibri" font-size="12.00">Effective</text>
<text text-anchor="middle" x="251.548" y="-277.134" font-family="Calibri" font-size="12.00">Access</text>
<text text-anchor="middle" x="251.548" y="-264.134" font-family="Calibri" font-size="12.00">Permissions</text>
</g>
<!-- n_abusive_usage&#45;&gt;n_effective_access_permissions -->
<g id="edge5" class="edge"><title>n_abusive_usage&#45;&gt;n_effective_access_permissions</title>
<path fill="none" stroke="black" d="M309.067,-361.032C300.25,-348.8 288.952,-333.126 278.706,-318.911"/>
<polygon fill="black" stroke="black" points="281.509,-316.814 272.822,-310.748 275.83,-320.907 281.509,-316.814"/>
<text text-anchor="middle" x="313.048" y="-332.768" font-family="Calibri" font-size="14.00"> &#160;of &#160;</text>
</g>
<!-- n_intentional -->
<g id="node7" class="node"><title>n_intentional</title>
<ellipse fill="#d6e7ff" stroke="black" cx="365.548" cy="-280.234" rx="42.451" ry="18"/>
<text text-anchor="middle" x="365.548" y="-277.134" font-family="Calibri" font-size="12.00">Intentional</text>
</g>
<!-- n_abusive_usage&#45;&gt;n_intentional -->
<g id="edge6" class="edge"><title>n_abusive_usage&#45;&gt;n_intentional</title>
<path fill="none" stroke="black" d="M333.647,-360.033C339.899,-344.591 348.225,-324.024 354.804,-307.775"/>
<polygon fill="black" stroke="black" points="358.131,-308.882 358.639,-298.3 351.643,-306.255 358.131,-308.882"/>
<text text-anchor="middle" x="359.548" y="-332.768" font-family="Calibri" font-size="14.00"> &#160;is &#160;</text>
</g>
<!-- n_countermeasures -->
<g id="node10" class="node"><title>n_countermeasures</title>
<polygon fill="#d6e7ff" stroke="black" points="361.548,-26.5 361.548,-215.5 525.548,-215.5 525.548,-26.5 361.548,-26.5"/>
<text text-anchor="middle" x="443.548" y="-201.9" font-family="Calibri" font-size="12.00">Vetting</text>
<polyline fill="none" stroke="black" points="361.548,-194.5 525.548,-194.5 "/>
<text text-anchor="middle" x="443.548" y="-180.9" font-family="Calibri" font-size="12.00">Least Privilege</text>
<polyline fill="none" stroke="black" points="361.548,-173.5 525.548,-173.5 "/>
<text text-anchor="middle" x="443.548" y="-159.9" font-family="Calibri" font-size="12.00">Audit Logs</text>
<polyline fill="none" stroke="black" points="361.548,-152.5 525.548,-152.5 "/>
<text text-anchor="middle" x="443.548" y="-138.9" font-family="Calibri" font-size="12.00">Session Recording</text>
<polyline fill="none" stroke="black" points="361.548,-131.5 525.548,-131.5 "/>
<text text-anchor="middle" x="443.548" y="-117.9" font-family="Calibri" font-size="12.00">Awareness Training</text>
<polyline fill="none" stroke="black" points="361.548,-110.5 525.548,-110.5 "/>
<text text-anchor="middle" x="443.548" y="-96.9" font-family="Calibri" font-size="12.00">Honeypots</text>
<polyline fill="none" stroke="black" points="361.548,-89.5 525.548,-89.5 "/>
<text text-anchor="middle" x="443.548" y="-75.9" font-family="Calibri" font-size="12.00">Deterrent Discipline</text>
<polyline fill="none" stroke="black" points="361.548,-68.5 525.548,-68.5 "/>
<text text-anchor="middle" x="443.548" y="-54.9" font-family="Calibri" font-size="12.00">User Behavior Analytics (UBA)</text>
<polyline fill="none" stroke="black" points="361.548,-47.5 525.548,-47.5 "/>
<text text-anchor="middle" x="443.548" y="-33.9" font-family="Calibri" font-size="12.00">etc.</text>
</g>
<!-- n_abusive_usage&#45;&gt;n_countermeasures -->
<g id="edge9" class="edge"><title>n_abusive_usage&#45;&gt;n_countermeasures</title>
<path fill="none" stroke="black" d="M355.126,-368.533C376.407,-357.021 403.26,-338.519 416.548,-313.468 430.682,-286.824 438.221,-255.299 442.053,-225.601"/>
<polygon fill="black" stroke="black" points="445.536,-225.946 443.214,-215.609 438.583,-225.138 445.536,-225.946"/>
<text text-anchor="middle" x="484.548" y="-284.034" font-family="Calibri" font-size="14.00"> &#160;may be &#160;</text>
<text text-anchor="middle" x="484.548" y="-269.034" font-family="Calibri" font-size="14.00"> &#160;countered &#160;by &#160;</text>
</g>
<!-- n_identity_class -->
<g id="node8" class="node"><title>n_identity_class</title>
<polygon fill="#d6e7ff" stroke="black" points="198.048,-79 198.048,-163 305.048,-163 305.048,-79 198.048,-79"/>
<text text-anchor="middle" x="251.548" y="-149.4" font-family="Calibri" font-size="12.00">Workforce Identity</text>
<polyline fill="none" stroke="black" points="198.048,-142 305.048,-142 "/>
<text text-anchor="middle" x="251.548" y="-128.4" font-family="Calibri" font-size="12.00">Federated Identity</text>
<polyline fill="none" stroke="black" points="198.048,-121 305.048,-121 "/>
<text text-anchor="middle" x="251.548" y="-107.4" font-family="Calibri" font-size="12.00">Customer Identity</text>
<polyline fill="none" stroke="black" points="198.048,-100 305.048,-100 "/>
<text text-anchor="middle" x="251.548" y="-86.4" font-family="Calibri" font-size="12.00">Privileged Identity</text>
</g>
<!-- n_effective_access_permissions&#45;&gt;n_identity_class -->
<g id="edge7" class="edge"><title>n_effective_access_permissions&#45;&gt;n_identity_class</title>
<path fill="none" stroke="black" d="M251.548,-246.655C251.548,-225.483 251.548,-197.433 251.548,-173.303"/>
<polygon fill="black" stroke="black" points="255.048,-173.233 251.548,-163.233 248.048,-173.233 255.048,-173.233"/>
<text text-anchor="middle" x="264.048" y="-227.8" font-family="Calibri" font-size="14.00"> &#160;of &#160;</text>
</g>
</g>
</svg>
