<?xml version="1.0" encoding="UTF-8" standalone="no"?>
<!DOCTYPE svg PUBLIC "-//W3C//DTD SVG 1.1//EN"
 "http://www.w3.org/Graphics/SVG/1.1/DTD/svg11.dtd">
<!-- Generated by graphviz version 2.38.0 (20140413.2041)
 -->
<!-- Title: G Pages: 1 -->
<svg width="1896pt" height="2190pt"
 viewBox="0.00 0.00 455.00 525.68" xmlns="http://www.w3.org/2000/svg" xmlns:xlink="http://www.w3.org/1999/xlink">
<g id="graph0" class="graph" transform="scale(4.16667 4.16667) rotate(0) translate(4 521.681)">
<title>G</title>
<polygon fill="white" stroke="none" points="-4,4 -4,-521.681 451,-521.681 451,4 -4,4"/>
<text text-anchor="middle" x="223.5" y="-15.6" font-family="Calibri" font-size="8.00">Role Explosion (Conceptual Diagram) by Open&#45;Measure</text>
<text text-anchor="middle" x="223.5" y="-6.6" font-family="Calibri" font-size="8.00">Licensed under Creative Commons Attribution 4.0 International License</text>
<!-- n_phenomenon -->
<g id="node1" class="node"><title>n_phenomenon</title>
<ellipse fill="#ffffff" stroke="black" cx="153" cy="-493.64" rx="49.4952" ry="18"/>
<text text-anchor="middle" x="153" y="-490.54" font-family="Calibri" font-size="12.00">Phonemenon</text>
</g>
<!-- n_role_explosion -->
<g id="node2" class="node"><title>n_role_explosion</title>
<g id="a_node2"><a xlink:href="https://open-measure.atlassian.net/wiki/spaces/DIC/pages/848363630" xlink:title="Role Explosion">
<ellipse fill="#5599ff" stroke="black" cx="218" cy="-418.799" rx="88.2768" ry="19.6"/>
<text text-anchor="middle" x="218" y="-414.399" font-family="Calibri" font-size="18.00">Role Explosion</text>
</a>
</g>
</g>
<!-- n_phenomenon&#45;&gt;n_role_explosion -->
<g id="edge1" class="edge"><title>n_phenomenon&#45;&gt;n_role_explosion</title>
<path fill="none" stroke="black" d="M174.479,-468.57C183.269,-458.72 193.278,-447.503 201.48,-438.312"/>
<polygon fill="black" stroke="black" points="171.796,-466.319 167.75,-476.111 177.019,-470.98 171.796,-466.319"/>
<text text-anchor="middle" x="209.5" y="-450.398" font-family="Calibri" font-size="14.00"> &#160;is a &#160;</text>
</g>
<!-- n_uncontrolled -->
<g id="node4" class="node"><title>n_uncontrolled</title>
<ellipse fill="#d6e7ff" stroke="black" cx="218" cy="-350" rx="89.0209" ry="18"/>
<text text-anchor="middle" x="218" y="-346.9" font-family="Calibri" font-size="12.00">Uncontrolled role increase</text>
</g>
<!-- n_role_explosion&#45;&gt;n_uncontrolled -->
<g id="edge3" class="edge"><title>n_role_explosion&#45;&gt;n_uncontrolled</title>
<path fill="none" stroke="black" d="M218,-398.836C218,-392.558 218,-385.438 218,-378.645"/>
<polygon fill="black" stroke="black" points="221.5,-378.409 218,-368.409 214.5,-378.409 221.5,-378.409"/>
<text text-anchor="middle" x="272" y="-379.8" font-family="Calibri" font-size="14.00"> &#160;characterized by &#160;</text>
</g>
<!-- n_rbac -->
<g id="node3" class="node"><title>n_rbac</title>
<ellipse fill="#ffffff" stroke="black" cx="283" cy="-493.64" rx="62.8651" ry="24.0833"/>
<text text-anchor="middle" x="283" y="-497.04" font-family="Calibri" font-size="12.00">Role&#45;Based</text>
<text text-anchor="middle" x="283" y="-484.04" font-family="Calibri" font-size="12.00">Access Control</text>
</g>
<!-- n_rbac&#45;&gt;n_role_explosion -->
<g id="edge2" class="edge"><title>n_rbac&#45;&gt;n_role_explosion</title>
<path fill="none" stroke="black" d="M256.3,-462.719C248.979,-454.515 241.252,-445.856 234.671,-438.48"/>
<polygon fill="black" stroke="black" points="253.875,-465.258 263.145,-470.389 259.098,-460.598 253.875,-465.258"/>
<text text-anchor="middle" x="289" y="-450.398" font-family="Calibri" font-size="14.00"> &#160;related to &#160;</text>
</g>
<!-- n_causes -->
<g id="node5" class="node"><title>n_causes</title>
<polygon fill="#d6e7ff" stroke="black" points="0,-88 0,-224 142,-224 142,-88 0,-88"/>
<text text-anchor="middle" x="71" y="-210.4" font-family="Calibri" font-size="12.00">Insufficient competencies</text>
<polyline fill="none" stroke="black" points="0,-203 142,-203 "/>
<text text-anchor="middle" x="71" y="-189.4" font-family="Calibri" font-size="12.00">Immature role</text>
<text text-anchor="middle" x="71" y="-176.4" font-family="Calibri" font-size="12.00">engineering process</text>
<polyline fill="none" stroke="black" points="0,-169 142,-169 "/>
<text text-anchor="middle" x="71" y="-155.4" font-family="Calibri" font-size="12.00">Requiring all</text>
<text text-anchor="middle" x="71" y="-142.4" font-family="Calibri" font-size="12.00">access permissions</text>
<text text-anchor="middle" x="71" y="-129.4" font-family="Calibri" font-size="12.00">be inherited from roles</text>
<polyline fill="none" stroke="black" points="0,-122 142,-122 "/>
<text text-anchor="middle" x="71" y="-108.4" font-family="Calibri" font-size="12.00">Wrong expectations</text>
<text text-anchor="middle" x="71" y="-95.4" font-family="Calibri" font-size="12.00">from RBAC</text>
</g>
<!-- n_uncontrolled&#45;&gt;n_causes -->
<g id="edge4" class="edge"><title>n_uncontrolled&#45;&gt;n_causes</title>
<path fill="none" stroke="black" d="M176.026,-333.995C170.974,-331.145 166.145,-327.829 162,-324 135.182,-299.222 114.552,-264.689 99.7693,-233.452"/>
<polygon fill="black" stroke="black" points="102.922,-231.931 95.5621,-224.311 96.5635,-234.858 102.922,-231.931"/>
<text text-anchor="middle" x="188" y="-305.3" font-family="Calibri" font-size="14.00"> &#160;causes &#160;</text>
</g>
<!-- n_consequences -->
<g id="node6" class="node"><title>n_consequences</title>
<polygon fill="#d6e7ff" stroke="black" points="160,-124.5 160,-187.5 276,-187.5 276,-124.5 160,-124.5"/>
<text text-anchor="middle" x="218" y="-173.9" font-family="Calibri" font-size="12.00">Cost and complexity</text>
<polyline fill="none" stroke="black" points="160,-166.5 276,-166.5 "/>
<text text-anchor="middle" x="218" y="-152.9" font-family="Calibri" font-size="12.00">Reduced usability</text>
<polyline fill="none" stroke="black" points="160,-145.5 276,-145.5 "/>
<text text-anchor="middle" x="218" y="-131.9" font-family="Calibri" font-size="12.00">Reduced auditability</text>
</g>
<!-- n_uncontrolled&#45;&gt;n_consequences -->
<g id="edge5" class="edge"><title>n_uncontrolled&#45;&gt;n_consequences</title>
<path fill="none" stroke="black" d="M218,-331.961C218,-302.095 218,-239.514 218,-197.87"/>
<polygon fill="black" stroke="black" points="221.5,-197.767 218,-187.767 214.5,-197.767 221.5,-197.767"/>
<text text-anchor="middle" x="265" y="-305.3" font-family="Calibri" font-size="14.00"> &#160;consequences &#160;</text>
</g>
<!-- n_solutions -->
<g id="node7" class="node"><title>n_solutions</title>
<polygon fill="#d6e7ff" stroke="black" points="294.5,-26.5 294.5,-285.5 409.5,-285.5 409.5,-26.5 294.5,-26.5"/>
<text text-anchor="middle" x="352" y="-271.9" font-family="Calibri" font-size="12.00">Mature role</text>
<text text-anchor="middle" x="352" y="-258.9" font-family="Calibri" font-size="12.00">engineering process</text>
<polyline fill="none" stroke="black" points="294.5,-251.5 409.5,-251.5 "/>
<text text-anchor="middle" x="352" y="-237.9" font-family="Calibri" font-size="12.00">Role review</text>
<text text-anchor="middle" x="352" y="-224.9" font-family="Calibri" font-size="12.00">process</text>
<polyline fill="none" stroke="black" points="294.5,-217.5 409.5,-217.5 "/>
<text text-anchor="middle" x="352" y="-203.9" font-family="Calibri" font-size="12.00">Training</text>
<polyline fill="none" stroke="black" points="294.5,-196.5 409.5,-196.5 "/>
<text text-anchor="middle" x="352" y="-182.9" font-family="Calibri" font-size="12.00">Realistic</text>
<text text-anchor="middle" x="352" y="-169.9" font-family="Calibri" font-size="12.00">RBAC expectations</text>
<polyline fill="none" stroke="black" points="294.5,-162.5 409.5,-162.5 "/>
<text text-anchor="middle" x="352" y="-148.9" font-family="Calibri" font-size="12.00">ABAC</text>
<polyline fill="none" stroke="black" points="294.5,-141.5 409.5,-141.5 "/>
<text text-anchor="middle" x="352" y="-127.9" font-family="Calibri" font-size="12.00">PBAC</text>
<polyline fill="none" stroke="black" points="294.5,-120.5 409.5,-120.5 "/>
<text text-anchor="middle" x="352" y="-106.9" font-family="Calibri" font-size="12.00">Birth rights</text>
<text text-anchor="middle" x="352" y="-93.9" font-family="Calibri" font-size="12.00">optimization</text>
<polyline fill="none" stroke="black" points="294.5,-86.5 409.5,-86.5 "/>
<text text-anchor="middle" x="352" y="-72.9" font-family="Calibri" font-size="12.00">Delegation of</text>
<text text-anchor="middle" x="352" y="-59.9" font-family="Calibri" font-size="12.00">fine&#45;grained access</text>
<text text-anchor="middle" x="352" y="-46.9" font-family="Calibri" font-size="12.00">management to</text>
<text text-anchor="middle" x="352" y="-33.9" font-family="Calibri" font-size="12.00">underlying system</text>
</g>
<!-- n_uncontrolled&#45;&gt;n_solutions -->
<g id="edge6" class="edge"><title>n_uncontrolled&#45;&gt;n_solutions</title>
<path fill="none" stroke="black" d="M291.983,-339.829C300.956,-336.076 309.3,-330.955 316,-324 324.116,-315.574 330.586,-305.78 335.724,-295.239"/>
<polygon fill="black" stroke="black" points="339.055,-296.36 339.904,-285.799 332.655,-293.526 339.055,-296.36"/>
<text text-anchor="middle" x="392" y="-312.8" font-family="Calibri" font-size="14.00"> &#160;(non&#45;exhaustive) &#160;</text>
<text text-anchor="middle" x="392" y="-297.8" font-family="Calibri" font-size="14.00"> &#160;solutions &#160;</text>
</g>
</g>
</svg>
