<!DOCTYPE svg [<!ENTITY nbsp "&#160;">]><svg width="412pt" height="412pt" viewBox="0 0 412 412" xmlns="http://www.w3.org/2000/svg" xmlns:xlink="http://www.w3.org/1999/xlink">
<g id="graph0" class="graph" transform="scale(1 1) rotate(0) translate(4 407.7038)">
<title>G</title>
<polygon fill="#ffffff" stroke="transparent" points="-4,4 -4,-407.7038 407.632,-407.7038 407.632,4 -4,4"></polygon>
<text text-anchor="middle" x="201.816" y="-16" font-family="Calibri" font-size="8.00" fill="#000000">Role Explosion (Conceptual Diagram) by Open-Measure</text>
<text text-anchor="middle" x="201.816" y="-6.4" font-family="Calibri" font-size="8.00" fill="#000000">Licensed under Creative Commons Attribution 4.0 International License</text>
<!-- n_phenomenon -->
<g id="node1" class="node">
<title>n_phenomenon</title>
<ellipse fill="#ffffff" stroke="#000000" cx="149.8072" cy="-377.6823" rx="50.4803" ry="18"></ellipse>
<text text-anchor="middle" x="149.8072" y="-374.0823" font-family="Calibri" font-size="12.00" fill="#000000">Phonemenon</text>
</g>
<!-- n_role_explosion -->
<g id="node2" class="node">
<title>n_role_explosion</title>
<g id="a_node2"><a xlink:href="https://open-measure.atlassian.net/wiki/spaces/DIC/pages/848363630" xlink:title="Role Explosion">
<ellipse fill="#5599ff" stroke="#000000" cx="215.8072" cy="-297.9304" rx="90.3088" ry="20.861"></ellipse>
<text text-anchor="middle" x="215.8072" y="-292.5304" font-family="Calibri" font-size="18.00" fill="#000000">Role Explosion</text>
</a>
</g>
</g>
<!-- n_phenomenon&#45;&gt;n_role_explosion -->
<g id="edge1" class="edge">
<title>n_phenomenon-&gt;n_role_explosion</title>
<path fill="none" stroke="#000000" d="M170.7016,-352.4343C179.7258,-341.5297 190.1522,-328.9309 198.7059,-318.5949"></path>
<polygon fill="#000000" stroke="#000000" points="167.8074,-350.4418 164.1282,-360.3773 173.2003,-354.9047 167.8074,-350.4418"></polygon>
<text text-anchor="middle" x="207.3321" y="-331.0607" font-family="Calibri" font-size="14.00" fill="#000000"> &nbsp;is a &nbsp;</text>
</g>
<!-- n_uncontrolled -->
<g id="node4" class="node">
<title>n_uncontrolled</title>
<ellipse fill="#d6e7ff" stroke="#000000" cx="215.8072" cy="-226.2" rx="91.5201" ry="18"></ellipse>
<text text-anchor="middle" x="215.8072" y="-222.6" font-family="Calibri" font-size="12.00" fill="#000000">Uncontrolled role increase</text>
</g>
<!-- n_role_explosion&#45;&gt;n_uncontrolled -->
<g id="edge3" class="edge">
<title>n_role_explosion-&gt;n_uncontrolled</title>
<path fill="none" stroke="#000000" d="M215.8072,-276.7969C215.8072,-269.8309 215.8072,-261.9676 215.8072,-254.5528"></path>
<polygon fill="#000000" stroke="#000000" points="219.3073,-254.5094 215.8072,-244.5094 212.3073,-254.5095 219.3073,-254.5094"></polygon>
<text text-anchor="middle" x="268.8595" y="-256.4" font-family="Calibri" font-size="14.00" fill="#000000"> &nbsp;characterized by &nbsp;</text>
</g>
<!-- n_rbac -->
<g id="node3" class="node">
<title>n_rbac</title>
<ellipse fill="#ffffff" stroke="#000000" cx="281.8072" cy="-377.6823" rx="63.276" ry="26.0431"></ellipse>
<text text-anchor="middle" x="281.8072" y="-381.2823" font-family="Calibri" font-size="12.00" fill="#000000">Role-Based</text>
<text text-anchor="middle" x="281.8072" y="-366.8823" font-family="Calibri" font-size="12.00" fill="#000000">Access Control</text>
</g>
<!-- n_rbac&#45;&gt;n_role_explosion -->
<g id="edge2" class="edge">
<title>n_rbac-&gt;n_role_explosion</title>
<path fill="none" stroke="#000000" d="M254.7004,-344.9274C247.3587,-336.056 239.6148,-326.6985 232.9864,-318.689"></path>
<polygon fill="#000000" stroke="#000000" points="252.2141,-347.4129 261.2862,-352.8854 257.607,-342.9499 252.2141,-347.4129"></polygon>
<text text-anchor="middle" x="285.0453" y="-331.0607" font-family="Calibri" font-size="14.00" fill="#000000"> &nbsp;related to &nbsp;</text>
</g>
<!-- n_causes -->
<g id="node5" class="node">
<title>n_causes</title>
<polygon fill="#d6e7ff" stroke="#000000" points="0,-27.7 0,-174.9 139.6144,-174.9 139.6144,-27.7 0,-27.7"></polygon>
<text text-anchor="middle" x="69.8072" y="-160.1" font-family="Calibri" font-size="12.00" fill="#000000">Insufficient competencies</text>
<polyline fill="none" stroke="#000000" points="0,-152.5 139.6144,-152.5 "></polyline>
<text text-anchor="middle" x="69.8072" y="-137.7" font-family="Calibri" font-size="12.00" fill="#000000">Immature role</text>
<text text-anchor="middle" x="69.8072" y="-123.3" font-family="Calibri" font-size="12.00" fill="#000000">engineering process</text>
<polyline fill="none" stroke="#000000" points="0,-115.7 139.6144,-115.7 "></polyline>
<text text-anchor="middle" x="69.8072" y="-100.9" font-family="Calibri" font-size="12.00" fill="#000000">Requiring all</text>
<text text-anchor="middle" x="69.8072" y="-86.5" font-family="Calibri" font-size="12.00" fill="#000000">access permissions</text>
<text text-anchor="middle" x="69.8072" y="-72.1" font-family="Calibri" font-size="12.00" fill="#000000">be inherited from roles</text>
<polyline fill="none" stroke="#000000" points="0,-64.5 139.6144,-64.5 "></polyline>
<text text-anchor="middle" x="69.8072" y="-49.7" font-family="Calibri" font-size="12.00" fill="#000000">Wrong expectations</text>
<text text-anchor="middle" x="69.8072" y="-35.3" font-family="Calibri" font-size="12.00" fill="#000000">from RBAC</text>
</g>
<!-- n_uncontrolled&#45;&gt;n_causes -->
<g id="edge4" class="edge">
<title>n_uncontrolled-&gt;n_causes</title>
<path fill="none" stroke="#000000" d="M176.6216,-209.7647C171.2741,-206.8855 166.004,-203.6825 161.2742,-200.2 153.8747,-194.752 146.5921,-188.6467 139.5647,-182.2142"></path>
<polygon fill="#000000" stroke="#000000" points="141.7219,-179.4376 132.046,-175.1215 136.9185,-184.5295 141.7219,-179.4376"></polygon>
<text text-anchor="middle" x="187.0737" y="-187.6" font-family="Calibri" font-size="14.00" fill="#000000"> &nbsp;causes &nbsp;</text>
</g>
<!-- n_consequences -->
<g id="node6" class="node">
<title>n_consequences</title>
<polygon fill="#d6e7ff" stroke="#000000" points="157.9844,-67.7 157.9844,-134.9 273.63,-134.9 273.63,-67.7 157.9844,-67.7"></polygon>
<text text-anchor="middle" x="215.8072" y="-120.1" font-family="Calibri" font-size="12.00" fill="#000000">Cost and complexity</text>
<polyline fill="none" stroke="#000000" points="157.9844,-112.5 273.63,-112.5 "></polyline>
<text text-anchor="middle" x="215.8072" y="-97.7" font-family="Calibri" font-size="12.00" fill="#000000">Reduced usability</text>
<polyline fill="none" stroke="#000000" points="157.9844,-90.1 273.63,-90.1 "></polyline>
<text text-anchor="middle" x="215.8072" y="-75.3" font-family="Calibri" font-size="12.00" fill="#000000">Reduced auditability</text>
</g>
<!-- n_uncontrolled&#45;&gt;n_consequences -->
<g id="edge5" class="edge">
<title>n_uncontrolled-&gt;n_consequences</title>
<path fill="none" stroke="#000000" d="M215.8072,-208.0385C215.8072,-191.6421 215.8072,-166.8538 215.8072,-145.2913"></path>
<polygon fill="#000000" stroke="#000000" points="219.3073,-145.0161 215.8072,-135.0162 212.3073,-145.0162 219.3073,-145.0161"></polygon>
<text text-anchor="middle" x="261.2883" y="-187.6" font-family="Calibri" font-size="14.00" fill="#000000"> &nbsp;consequences &nbsp;</text>
</g>
<!-- n_solutions -->
<g id="node7" class="node">
<title>n_solutions</title>
<polygon fill="#d6e7ff" stroke="#000000" points="291.9824,-30.9 291.9824,-171.7 403.632,-171.7 403.632,-30.9 291.9824,-30.9"></polygon>
<text text-anchor="middle" x="347.8072" y="-156.9" font-family="Calibri" font-size="12.00" fill="#000000">Mature role</text>
<text text-anchor="middle" x="347.8072" y="-142.5" font-family="Calibri" font-size="12.00" fill="#000000">engineering process</text>
<polyline fill="none" stroke="#000000" points="291.9824,-134.9 403.632,-134.9 "></polyline>
<text text-anchor="middle" x="347.8072" y="-120.1" font-family="Calibri" font-size="12.00" fill="#000000">Training</text>
<polyline fill="none" stroke="#000000" points="291.9824,-112.5 403.632,-112.5 "></polyline>
<text text-anchor="middle" x="347.8072" y="-97.7" font-family="Calibri" font-size="12.00" fill="#000000">Realistic</text>
<text text-anchor="middle" x="347.8072" y="-83.3" font-family="Calibri" font-size="12.00" fill="#000000">RBAC expectations</text>
<polyline fill="none" stroke="#000000" points="291.9824,-75.7 403.632,-75.7 "></polyline>
<text text-anchor="middle" x="347.8072" y="-60.9" font-family="Calibri" font-size="12.00" fill="#000000">ABAC</text>
<polyline fill="none" stroke="#000000" points="291.9824,-53.3 403.632,-53.3 "></polyline>
<text text-anchor="middle" x="347.8072" y="-38.5" font-family="Calibri" font-size="12.00" fill="#000000">PBAC</text>
</g>
<!-- n_uncontrolled&#45;&gt;n_solutions -->
<g id="edge6" class="edge">
<title>n_uncontrolled-&gt;n_solutions</title>
<path fill="none" stroke="#000000" d="M280.1443,-213.1824C293.7381,-209.4001 305.5666,-204.9848 310.8072,-200.2 316.8042,-194.7245 321.8337,-188.1827 326.0508,-181.1076"></path>
<polygon fill="#000000" stroke="#000000" points="329.3445,-182.3702 330.9699,-171.9008 323.1704,-179.0715 329.3445,-182.3702"></polygon>
<text text-anchor="middle" x="355.0877" y="-187.6" font-family="Calibri" font-size="14.00" fill="#000000"> &nbsp;solutions &nbsp;</text>
</g>
</g>
</svg>