<?xml version="1.0" encoding="UTF-8" standalone="no"?>
<!DOCTYPE svg PUBLIC "-//W3C//DTD SVG 1.1//EN"
 "http://www.w3.org/Graphics/SVG/1.1/DTD/svg11.dtd">
<!-- Generated by graphviz version 2.38.0 (20140413.2041)
 -->
<!-- Title: G Pages: 1 -->
<svg width="1529pt" height="1788pt"
 viewBox="0.00 0.00 367.00 429.15" xmlns="http://www.w3.org/2000/svg" xmlns:xlink="http://www.w3.org/1999/xlink">
<g id="graph0" class="graph" transform="scale(4.16667 4.16667) rotate(0) translate(4 425.149)">
<title>G</title>
<polygon fill="white" stroke="none" points="-4,4 -4,-425.149 363,-425.149 363,4 -4,4"/>
<text text-anchor="middle" x="179.5" y="-15.6" font-family="Calibri" font-size="8.00">Intensional Definition (Conceptual Diagram) by Open&#45;Measure</text>
<text text-anchor="middle" x="179.5" y="-6.6" font-family="Calibri" font-size="8.00">Licensed under Creative Commons Attribution 4.0 International License</text>
<g id="clust1" class="cluster"><title>cluster_delimiting_characteristics</title>
<polygon fill="none" stroke="black" points="8,-34 8,-204.468 351,-204.468 351,-34 8,-34"/>
<text text-anchor="middle" x="179.5" y="-41.4" font-family="Calibri" font-size="12.00">Necessary and Sufficient Conditions linked to the Concept</text>
</g>
<!-- n_sample_2 -->
<g id="node1" class="node"><title>n_sample_2</title>
<ellipse fill="#ffffff" stroke="black" cx="135" cy="-403.149" rx="27" ry="18"/>
<text text-anchor="middle" x="135" y="-400.049" font-family="Calibri" font-size="12.00">...</text>
</g>
<!-- n_superordinate_concept -->
<g id="node2" class="node"><title>n_superordinate_concept</title>
<ellipse fill="#ffffff" stroke="black" cx="135" cy="-330.108" rx="59.2941" ry="24.0833"/>
<text text-anchor="middle" x="135" y="-333.508" font-family="Calibri" font-size="12.00">Superordinate</text>
<text text-anchor="middle" x="135" y="-320.508" font-family="Calibri" font-size="12.00">Concept</text>
</g>
<!-- n_sample_2&#45;&gt;n_superordinate_concept -->
<g id="edge1" class="edge"><title>n_sample_2&#45;&gt;n_superordinate_concept</title>
<path fill="none" stroke="black" d="M135,-374.818C135,-368.052 135,-360.868 135,-354.32"/>
<polygon fill="black" stroke="black" points="131.5,-374.952 135,-384.952 138.5,-374.952 131.5,-374.952"/>
<text text-anchor="middle" x="147" y="-365.949" font-family="Calibri" font-size="14.00"> &#160;... &#160;</text>
</g>
<!-- n_concept -->
<g id="node3" class="node"><title>n_concept</title>
<ellipse fill="#5599ff" stroke="black" cx="212" cy="-255.267" rx="65.5227" ry="19.6"/>
<text text-anchor="middle" x="212" y="-250.867" font-family="Calibri" font-size="18.00"> &#160;Concept &#160;</text>
</g>
<!-- n_superordinate_concept&#45;&gt;n_concept -->
<g id="edge2" class="edge"><title>n_superordinate_concept&#45;&gt;n_concept</title>
<path fill="none" stroke="black" d="M165.002,-300.726C174.371,-291.864 184.445,-282.333 192.855,-274.378"/>
<polygon fill="black" stroke="black" points="162.545,-298.232 157.686,-307.647 167.356,-303.317 162.545,-298.232"/>
<text text-anchor="middle" x="198.5" y="-286.866" font-family="Calibri" font-size="14.00"> &#160;is a &#160;</text>
</g>
<!-- n_delimiting_characteristic -->
<g id="node5" class="node"><title>n_delimiting_characteristic</title>
<ellipse fill="#d6e7ff" stroke="black" cx="75" cy="-163.234" rx="59.2941" ry="33.4697"/>
<text text-anchor="middle" x="75" y="-173.134" font-family="Calibri" font-size="12.00">Some</text>
<text text-anchor="middle" x="75" y="-160.134" font-family="Calibri" font-size="12.00">Delimiting</text>
<text text-anchor="middle" x="75" y="-147.134" font-family="Calibri" font-size="12.00">Characteristic</text>
</g>
<!-- n_concept&#45;&gt;n_delimiting_characteristic -->
<g id="edge4" class="edge"><title>n_concept&#45;&gt;n_delimiting_characteristic</title>
<path fill="none" stroke="black" d="M185.585,-236.908C167.407,-224.961 142.772,-208.772 121.368,-194.706"/>
<polygon fill="black" stroke="black" points="123.01,-191.597 112.73,-189.03 119.165,-197.446 123.01,-191.597"/>
<text text-anchor="middle" x="184.5" y="-216.268" font-family="Calibri" font-size="14.00"> &#160;has &#160;</text>
</g>
<!-- n_another_delimiting_characteristic -->
<g id="node6" class="node"><title>n_another_delimiting_characteristic</title>
<ellipse fill="#d6e7ff" stroke="black" cx="212" cy="-163.234" rx="59.2941" ry="33.4697"/>
<text text-anchor="middle" x="212" y="-173.134" font-family="Calibri" font-size="12.00">Another</text>
<text text-anchor="middle" x="212" y="-160.134" font-family="Calibri" font-size="12.00">Delimiting</text>
<text text-anchor="middle" x="212" y="-147.134" font-family="Calibri" font-size="12.00">Characteristic</text>
</g>
<!-- n_concept&#45;&gt;n_another_delimiting_characteristic -->
<g id="edge5" class="edge"><title>n_concept&#45;&gt;n_another_delimiting_characteristic</title>
<path fill="none" stroke="black" d="M212,-235.173C212,-226.898 212,-216.851 212,-206.951"/>
<polygon fill="black" stroke="black" points="215.5,-206.77 212,-196.77 208.5,-206.77 215.5,-206.77"/>
<text text-anchor="middle" x="228.5" y="-216.268" font-family="Calibri" font-size="14.00"> &#160;has &#160;</text>
</g>
<!-- n_sample_5 -->
<g id="node7" class="node"><title>n_sample_5</title>
<ellipse fill="#d6e7ff" stroke="black" cx="316" cy="-163.234" rx="27" ry="18"/>
<text text-anchor="middle" x="316" y="-160.134" font-family="Calibri" font-size="12.00">...</text>
</g>
<!-- n_concept&#45;&gt;n_sample_5 -->
<g id="edge6" class="edge"><title>n_concept&#45;&gt;n_sample_5</title>
<path fill="none" stroke="black" d="M236.31,-236.72C240.547,-233.645 244.906,-230.469 249,-227.468 262.836,-217.325 267.326,-216.031 280,-204.468 285.808,-199.169 291.674,-193.024 296.938,-187.155"/>
<polygon fill="black" stroke="black" points="299.741,-189.265 303.679,-179.429 294.467,-184.663 299.741,-189.265"/>
<text text-anchor="middle" x="282" y="-216.268" font-family="Calibri" font-size="14.00"> &#160;... &#160;</text>
</g>
<!-- n_sample_1 -->
<g id="node4" class="node"><title>n_sample_1</title>
<ellipse fill="#ffffff" stroke="black" cx="239" cy="-330.108" rx="27" ry="18"/>
<text text-anchor="middle" x="239" y="-327.008" font-family="Calibri" font-size="12.00">...</text>
</g>
<!-- n_sample_1&#45;&gt;n_concept -->
<g id="edge3" class="edge"><title>n_sample_1&#45;&gt;n_concept</title>
<path fill="none" stroke="black" d="M229.236,-302.767C225.844,-293.616 222.111,-283.544 218.988,-275.12"/>
<polygon fill="black" stroke="black" points="225.98,-304.053 232.738,-312.213 232.544,-301.62 225.98,-304.053"/>
<text text-anchor="middle" x="239" y="-286.866" font-family="Calibri" font-size="14.00"> &#160;... &#160;</text>
</g>
<!-- n_sample_3 -->
<g id="node8" class="node"><title>n_sample_3</title>
<ellipse fill="#d6e7ff" stroke="black" cx="182" cy="-81" rx="27" ry="18"/>
<text text-anchor="middle" x="182" y="-77.9" font-family="Calibri" font-size="12.00">...</text>
</g>
<!-- n_another_delimiting_characteristic&#45;&gt;n_sample_3 -->
<g id="edge7" class="edge"><title>n_another_delimiting_characteristic&#45;&gt;n_sample_3</title>
<path fill="none" stroke="black" d="M199.298,-130.656C198.167,-127.735 197.052,-124.817 196,-122 194.362,-117.617 192.674,-112.943 191.062,-108.394"/>
<polygon fill="black" stroke="black" points="194.309,-107.076 187.703,-98.7933 187.702,-109.388 194.309,-107.076"/>
<text text-anchor="middle" x="208" y="-110.8" font-family="Calibri" font-size="14.00"> &#160;... &#160;</text>
</g>
<!-- n_sample_4 -->
<g id="node9" class="node"><title>n_sample_4</title>
<ellipse fill="#d6e7ff" stroke="black" cx="254" cy="-81" rx="27" ry="18"/>
<text text-anchor="middle" x="254" y="-77.9" font-family="Calibri" font-size="12.00">...</text>
</g>
<!-- n_another_delimiting_characteristic&#45;&gt;n_sample_4 -->
<g id="edge8" class="edge"><title>n_another_delimiting_characteristic&#45;&gt;n_sample_4</title>
<path fill="none" stroke="black" d="M228.359,-130.984C232.44,-123.187 236.767,-114.921 240.681,-107.443"/>
<polygon fill="black" stroke="black" points="243.832,-108.971 245.369,-98.4878 237.631,-105.724 243.832,-108.971"/>
<text text-anchor="middle" x="252" y="-110.8" font-family="Calibri" font-size="14.00"> &#160;... &#160;</text>
</g>
</g>
</svg>
