<?xml version="1.0" encoding="UTF-8" standalone="no"?>
<!DOCTYPE svg PUBLIC "-//W3C//DTD SVG 1.1//EN"
 "http://www.w3.org/Graphics/SVG/1.1/DTD/svg11.dtd">
<!-- Generated by graphviz version 2.38.0 (20140413.2041)
 -->
<!-- Title: G Pages: 1 -->
<svg width="1450pt" height="1483pt"
 viewBox="0.00 0.00 348.00 356.00" xmlns="http://www.w3.org/2000/svg" xmlns:xlink="http://www.w3.org/1999/xlink">
<g id="graph0" class="graph" transform="scale(4.16667 4.16667) rotate(0) translate(4 352)">
<title>G</title>
<polygon fill="white" stroke="none" points="-4,4 -4,-352 344,-352 344,4 -4,4"/>
<text text-anchor="middle" x="170" y="-15.6" font-family="Calibri" font-size="8.00">Second Order Security (Conceptual Diagram) by Open&#45;Measure</text>
<text text-anchor="middle" x="170" y="-6.6" font-family="Calibri" font-size="8.00">Licensed under Creative Commons Attribution 4.0 International License</text>
<g id="clust2" class="cluster"><title>cluster_1</title>
<polygon fill="none" stroke="blue" points="90,-70 90,-271 172,-271 172,-70 90,-70"/>
<text text-anchor="middle" x="131" y="-260.6" font-family="Calibri" font-size="8.00">2nd Order Security</text>
</g>
<g id="clust1" class="cluster"><title>cluster_0</title>
<polygon fill="lightgrey" stroke="lightgrey" points="180,-70 180,-340 332,-340 332,-70 180,-70"/>
<text text-anchor="middle" x="256" y="-329.6" font-family="Calibri" font-size="8.00">1st Order Security</text>
</g>
<!-- Controls -->
<g id="node1" class="node"><title>Controls</title>
<ellipse fill="#d6e7ff" stroke="black" cx="256" cy="-297" rx="35.1771" ry="18"/>
<text text-anchor="middle" x="256" y="-293.9" font-family="Calibri" font-size="12.00">Controls</text>
</g>
<!-- Direct Threats -->
<g id="node2" class="node"><title>Direct Threats</title>
<ellipse fill="#d6e7ff" stroke="black" cx="256" cy="-228" rx="52.881" ry="18"/>
<text text-anchor="middle" x="256" y="-224.9" font-family="Calibri" font-size="12.00">Direct Threats</text>
</g>
<!-- Controls&#45;&gt;Direct Threats -->
<g id="edge1" class="edge"><title>Controls&#45;&gt;Direct Threats</title>
<path fill="none" stroke="black" d="M256,-278.746C256,-271.999 256,-264.093 256,-256.594"/>
<polygon fill="black" stroke="black" points="259.5,-256.429 256,-246.429 252.5,-256.429 259.5,-256.429"/>
</g>
<!-- Information System -->
<g id="node3" class="node"><title>Information System</title>
<ellipse fill="#d6e7ff" stroke="black" cx="256" cy="-184" rx="67.9298" ry="18"/>
<text text-anchor="middle" x="256" y="-180.9" font-family="Calibri" font-size="12.00">Information System</text>
</g>
<!-- Direct Threats&#45;&gt;Information System -->
<g id="edge2" class="edge"><title>Direct Threats&#45;&gt;Information System</title>
<path fill="none" stroke="black" d="M256,-209.917C256,-209.758 256,-209.599 256,-209.439"/>
<polygon fill="black" stroke="black" points="259.5,-212.204 256,-202.204 252.5,-212.204 259.5,-212.204"/>
</g>
<!-- a2 -->
<g id="node4" class="node"><title>a2</title>
<ellipse fill="#d6e7ff" stroke="black" cx="235" cy="-140" rx="27" ry="18"/>
<text text-anchor="middle" x="235" y="-136.9" font-family="Calibri" font-size="12.00">a2</text>
</g>
<!-- Information System&#45;&gt;a2 -->
<g id="edge3" class="edge"><title>Information System&#45;&gt;a2</title>
<path fill="none" stroke="black" d="M247.458,-165.917C247.414,-165.829 247.37,-165.741 247.326,-165.653"/>
<polygon fill="black" stroke="black" points="250.797,-164.768 243.194,-157.389 244.536,-167.898 250.797,-164.768"/>
</g>
<!-- a3 -->
<g id="node5" class="node"><title>a3</title>
<ellipse fill="#d6e7ff" stroke="black" cx="215" cy="-96" rx="27" ry="18"/>
<text text-anchor="middle" x="215" y="-92.9" font-family="Calibri" font-size="12.00">a3</text>
</g>
<!-- a2&#45;&gt;a3 -->
<g id="edge4" class="edge"><title>a2&#45;&gt;a3</title>
<path fill="none" stroke="black" d="M227.095,-122.4C227.052,-122.309 227.008,-122.217 226.964,-122.125"/>
<polygon fill="black" stroke="black" points="230.307,-121.003 222.847,-113.479 223.987,-124.012 230.307,-121.003"/>
</g>
<!-- a0 -->
<g id="node11" class="node"><title>a0</title>
<ellipse fill="#d6e7ff" stroke="black" cx="71" cy="-44" rx="27" ry="18"/>
<text text-anchor="middle" x="71" y="-40.9" font-family="Calibri" font-size="12.00">a0</text>
</g>
<!-- a3&#45;&gt;a0 -->
<g id="edge12" class="edge"><title>a3&#45;&gt;a0</title>
<path fill="none" stroke="black" d="M197.503,-81.8385C191.031,-77.5066 183.45,-73.0292 176,-70 159.609,-63.3354 154.239,-65.9858 137,-62 126.711,-59.6212 115.574,-56.8348 105.431,-54.2141"/>
<polygon fill="black" stroke="black" points="106.248,-50.81 95.688,-51.6699 104.479,-57.5829 106.248,-50.81"/>
</g>
<!-- end -->
<g id="node13" class="node"><title>end</title>
<ellipse fill="#d6e7ff" stroke="black" cx="173" cy="-44" rx="27" ry="18"/>
<text text-anchor="middle" x="173" y="-40.9" font-family="Calibri" font-size="12.00">end</text>
</g>
<!-- a3&#45;&gt;end -->
<g id="edge13" class="edge"><title>a3&#45;&gt;end</title>
<path fill="none" stroke="black" d="M202.399,-79.9984C199.159,-76.142 195.601,-71.9057 192.112,-67.7527"/>
<polygon fill="black" stroke="black" points="194.704,-65.3969 185.592,-59.9911 189.344,-69.8993 194.704,-65.3969"/>
</g>
<!-- b0 -->
<g id="node6" class="node"><title>b0</title>
<ellipse fill="#d6e7ff" stroke="black" cx="126" cy="-228" rx="27" ry="18"/>
<text text-anchor="middle" x="126" y="-224.9" font-family="Calibri" font-size="12.00">b0</text>
</g>
<!-- b1 -->
<g id="node7" class="node"><title>b1</title>
<ellipse fill="#d6e7ff" stroke="black" cx="126" cy="-184" rx="27" ry="18"/>
<text text-anchor="middle" x="126" y="-180.9" font-family="Calibri" font-size="12.00">b1</text>
</g>
<!-- b0&#45;&gt;b1 -->
<g id="edge5" class="edge"><title>b0&#45;&gt;b1</title>
<path fill="none" stroke="black" d="M126,-209.917C126,-209.758 126,-209.599 126,-209.439"/>
<polygon fill="black" stroke="black" points="129.5,-212.204 126,-202.204 122.5,-212.204 129.5,-212.204"/>
</g>
<!-- b2 -->
<g id="node8" class="node"><title>b2</title>
<ellipse fill="#d6e7ff" stroke="black" cx="132" cy="-140" rx="27" ry="18"/>
<text text-anchor="middle" x="132" y="-136.9" font-family="Calibri" font-size="12.00">b2</text>
</g>
<!-- b1&#45;&gt;b2 -->
<g id="edge6" class="edge"><title>b1&#45;&gt;b2</title>
<path fill="none" stroke="black" d="M128.44,-165.917C128.464,-165.752 128.488,-165.587 128.511,-165.422"/>
<polygon fill="black" stroke="black" points="131.632,-168.326 129.581,-157.932 124.702,-167.336 131.632,-168.326"/>
</g>
<!-- b2&#45;&gt;a3 -->
<g id="edge11" class="edge"><title>b2&#45;&gt;a3</title>
<path fill="none" stroke="black" d="M152.944,-128.402C162.676,-123.477 174.425,-117.532 185.07,-112.145"/>
<polygon fill="black" stroke="black" points="186.72,-115.233 194.062,-107.595 183.559,-108.987 186.72,-115.233"/>
</g>
<!-- b3 -->
<g id="node9" class="node"><title>b3</title>
<ellipse fill="#d6e7ff" stroke="black" cx="132" cy="-96" rx="27" ry="18"/>
<text text-anchor="middle" x="132" y="-92.9" font-family="Calibri" font-size="12.00">b3</text>
</g>
<!-- b2&#45;&gt;b3 -->
<g id="edge7" class="edge"><title>b2&#45;&gt;b3</title>
<path fill="none" stroke="black" d="M132,-121.917C132,-121.758 132,-121.599 132,-121.439"/>
<polygon fill="black" stroke="black" points="135.5,-124.204 132,-114.204 128.5,-124.204 135.5,-124.204"/>
</g>
<!-- b3&#45;&gt;end -->
<g id="edge14" class="edge"><title>b3&#45;&gt;end</title>
<path fill="none" stroke="black" d="M144.524,-79.7267C147.544,-76.0435 150.838,-72.0266 154.079,-68.0742"/>
<polygon fill="black" stroke="black" points="156.918,-70.1318 160.553,-60.1798 151.505,-65.6932 156.918,-70.1318"/>
</g>
<!-- start -->
<g id="node10" class="node"><title>start</title>
<ellipse fill="#d6e7ff" stroke="black" cx="63" cy="-297" rx="27" ry="18"/>
<text text-anchor="middle" x="63" y="-293.9" font-family="Calibri" font-size="12.00">start</text>
</g>
<!-- start&#45;&gt;b0 -->
<g id="edge9" class="edge"><title>start&#45;&gt;b0</title>
<path fill="none" stroke="black" d="M76.6701,-281.462C84.894,-272.716 95.5357,-261.399 104.829,-251.516"/>
<polygon fill="black" stroke="black" points="107.62,-253.656 111.92,-243.974 102.52,-248.861 107.62,-253.656"/>
</g>
<!-- start&#45;&gt;a0 -->
<g id="edge8" class="edge"><title>start&#45;&gt;a0</title>
<path fill="none" stroke="black" d="M48.3882,-281.681C29.7773,-261.839 0,-223.999 0,-185 0,-185 0,-185 0,-139 0,-108.263 24.4712,-81.2176 44.6805,-64.1234"/>
<polygon fill="black" stroke="black" points="47.1304,-66.6439 52.7157,-57.6409 42.7351,-61.1958 47.1304,-66.6439"/>
</g>
<!-- a1 -->
<g id="node12" class="node"><title>a1</title>
<ellipse fill="#d6e7ff" stroke="black" cx="55" cy="-140" rx="27" ry="18"/>
<text text-anchor="middle" x="55" y="-136.9" font-family="Calibri" font-size="12.00">a1</text>
</g>
<!-- a1&#45;&gt;b3 -->
<g id="edge10" class="edge"><title>a1&#45;&gt;b3</title>
<path fill="none" stroke="black" d="M75.3377,-127.833C78.8905,-125.886 82.552,-123.882 86,-122 91.3153,-119.098 96.9796,-116.014 102.451,-113.038"/>
<polygon fill="black" stroke="black" points="104.267,-116.034 111.382,-108.184 100.925,-109.884 104.267,-116.034"/>
</g>
</g>
</svg>
