<?xml version="1.0" encoding="UTF-8" standalone="no"?>
<!DOCTYPE svg PUBLIC "-//W3C//DTD SVG 1.1//EN"
 "http://www.w3.org/Graphics/SVG/1.1/DTD/svg11.dtd">
<!-- Generated by graphviz version 2.38.0 (20140413.2041)
 -->
<!-- Title: G Pages: 1 -->
<svg width="1867pt" height="2507pt"
 viewBox="0.00 0.00 448.04 601.60" xmlns="http://www.w3.org/2000/svg" xmlns:xlink="http://www.w3.org/1999/xlink">
<g id="graph0" class="graph" transform="scale(4.16667 4.16667) rotate(0) translate(4 597.598)">
<title>G</title>
<polygon fill="white" stroke="none" points="-4,4 -4,-597.598 444.037,-597.598 444.037,4 -4,4"/>
<text text-anchor="middle" x="220.018" y="-15.6" font-family="Calibri" font-size="8.00">Segregation of Duties (Conceptual Diagram) by Open&#45;Measure</text>
<text text-anchor="middle" x="220.018" y="-6.6" font-family="Calibri" font-size="8.00">Licensed under Creative Commons Attribution 4.0 International License</text>
<!-- n_internal_control -->
<g id="node1" class="node"><title>n_internal_control</title>
<ellipse fill="#ffffff" stroke="black" cx="60.0366" cy="-575.598" rx="56.7683" ry="18"/>
<text text-anchor="middle" x="60.0366" y="-572.498" font-family="Calibri" font-size="12.00">Internal Control</text>
</g>
<!-- n_sod -->
<g id="node2" class="node"><title>n_sod</title>
<g id="a_node2"><a xlink:href="https://open-measure.atlassian.net/wiki/spaces/DIC/pages/1079050286" xlink:title="Segregation of Duties">
<ellipse fill="#5599ff" stroke="black" cx="123.037" cy="-476.799" rx="123.073" ry="19.6"/>
<text text-anchor="middle" x="123.037" y="-472.399" font-family="Calibri" font-size="18.00">Segregation of Duties</text>
</a>
</g>
</g>
<!-- n_internal_control&#45;&gt;n_sod -->
<g id="edge1" class="edge"><title>n_internal_control&#45;&gt;n_sod</title>
<path fill="none" stroke="black" d="M62.0884,-547.457C64.2902,-533.519 68.8074,-516.925 78.0366,-504.598 80.4345,-501.395 83.3375,-498.502 86.501,-495.906"/>
<polygon fill="black" stroke="black" points="58.6029,-547.121 60.8162,-557.483 65.5473,-548.003 58.6029,-547.121"/>
<text text-anchor="middle" x="121.037" y="-538.398" font-family="Calibri" font-size="14.00"> &#160;fundamental &#160;</text>
<text text-anchor="middle" x="121.037" y="-523.398" font-family="Calibri" font-size="14.00"> &#160;component &#160;</text>
<text text-anchor="middle" x="121.037" y="-508.398" font-family="Calibri" font-size="14.00"> &#160;of &#160;</text>
</g>
<!-- n_perpetration_concealment -->
<g id="node4" class="node"><title>n_perpetration_concealment</title>
<polygon fill="#d6e7ff" stroke="black" points="212.037,-262.5 212.037,-304.5 292.037,-304.5 292.037,-262.5 212.037,-262.5"/>
<text text-anchor="middle" x="252.037" y="-290.9" font-family="Calibri" font-size="12.00">Perpetration</text>
<polyline fill="none" stroke="black" points="212.037,-283.5 292.037,-283.5 "/>
<text text-anchor="middle" x="252.037" y="-269.9" font-family="Calibri" font-size="12.00">Concealment</text>
</g>
<!-- n_sod&#45;&gt;n_perpetration_concealment -->
<g id="edge12" class="edge"><title>n_sod&#45;&gt;n_perpetration_concealment</title>
<path fill="none" stroke="black" d="M115.357,-456.917C107.286,-433.853 97.8235,-394.404 114.037,-366 132.912,-332.932 171.04,-311.929 202.444,-299.541"/>
<polygon fill="black" stroke="black" points="203.817,-302.764 211.946,-295.969 201.353,-296.212 203.817,-302.764"/>
<text text-anchor="middle" x="143.037" y="-399.8" font-family="Calibri" font-size="14.00"> &#160;prevent &#160;</text>
<text text-anchor="middle" x="143.037" y="-384.8" font-family="Calibri" font-size="14.00"> &#160;or &#160;</text>
<text text-anchor="middle" x="143.037" y="-369.8" font-family="Calibri" font-size="14.00"> &#160;detect &#160;</text>
</g>
<!-- n_two_or_more -->
<g id="node9" class="node"><title>n_two_or_more</title>
<ellipse fill="#d6e7ff" stroke="black" cx="252.037" cy="-388.5" rx="70.5856" ry="18"/>
<text text-anchor="middle" x="252.037" y="-385.4" font-family="Calibri" font-size="12.00">Two or More Agents</text>
</g>
<!-- n_sod&#45;&gt;n_two_or_more -->
<g id="edge7" class="edge"><title>n_sod&#45;&gt;n_two_or_more</title>
<path fill="none" stroke="black" d="M140.788,-456.995C152.766,-445.047 169.375,-429.845 186.037,-419 191.902,-415.182 198.345,-411.627 204.834,-408.403"/>
<polygon fill="black" stroke="black" points="206.767,-411.36 214.313,-403.922 203.776,-405.031 206.767,-411.36"/>
<text text-anchor="middle" x="219.537" y="-430.3" font-family="Calibri" font-size="14.00"> &#160;prescribe &#160;</text>
</g>
<!-- n_control_policy -->
<g id="node3" class="node"><title>n_control_policy</title>
<ellipse fill="#ffffff" stroke="black" cx="186.037" cy="-575.598" rx="51.1876" ry="18"/>
<text text-anchor="middle" x="186.037" y="-572.498" font-family="Calibri" font-size="12.00">Control Policy</text>
</g>
<!-- n_control_policy&#45;&gt;n_sod -->
<g id="edge2" class="edge"><title>n_control_policy&#45;&gt;n_sod</title>
<path fill="none" stroke="black" d="M182.031,-547.567C178.92,-533.66 173.475,-517.06 164.037,-504.598 161.675,-501.48 158.838,-498.617 155.773,-496.018"/>
<polygon fill="black" stroke="black" points="178.631,-548.42 183.983,-557.564 185.502,-547.078 178.631,-548.42"/>
<text text-anchor="middle" x="203.037" y="-530.898" font-family="Calibri" font-size="14.00"> &#160;class &#160;</text>
<text text-anchor="middle" x="203.037" y="-515.898" font-family="Calibri" font-size="14.00"> &#160;of &#160;</text>
</g>
<!-- n_fraud_error -->
<g id="node5" class="node"><title>n_fraud_error</title>
<polygon fill="#d6e7ff" stroke="black" points="167.037,-188.5 167.037,-230.5 221.037,-230.5 221.037,-188.5 167.037,-188.5"/>
<text text-anchor="middle" x="194.037" y="-216.9" font-family="Calibri" font-size="12.00">Fraud</text>
<polyline fill="none" stroke="black" points="167.037,-209.5 221.037,-209.5 "/>
<text text-anchor="middle" x="194.037" y="-195.9" font-family="Calibri" font-size="12.00">Error</text>
</g>
<!-- n_perpetration_concealment&#45;&gt;n_fraud_error -->
<g id="edge3" class="edge"><title>n_perpetration_concealment&#45;&gt;n_fraud_error</title>
<path fill="none" stroke="black" d="M235.88,-262.444C229.96,-255.094 223.144,-246.633 216.755,-238.702"/>
<polygon fill="black" stroke="black" points="219.306,-236.29 210.307,-230.698 213.855,-240.681 219.306,-236.29"/>
<text text-anchor="middle" x="241.537" y="-242.8" font-family="Calibri" font-size="14.00"> &#160;of &#160;</text>
</g>
<!-- n_commission_ommission -->
<g id="node8" class="node"><title>n_commission_ommission</title>
<polygon fill="#d6e7ff" stroke="black" points="239.037,-188.5 239.037,-230.5 315.037,-230.5 315.037,-188.5 239.037,-188.5"/>
<text text-anchor="middle" x="277.037" y="-216.9" font-family="Calibri" font-size="12.00">Commission</text>
<polyline fill="none" stroke="black" points="239.037,-209.5 315.037,-209.5 "/>
<text text-anchor="middle" x="277.037" y="-195.9" font-family="Calibri" font-size="12.00">Ommission</text>
</g>
<!-- n_perpetration_concealment&#45;&gt;n_commission_ommission -->
<g id="edge5" class="edge"><title>n_perpetration_concealment&#45;&gt;n_commission_ommission</title>
<path fill="none" stroke="black" d="M259,-262.444C261.391,-255.558 264.121,-247.697 266.72,-240.211"/>
<polygon fill="black" stroke="black" points="270.05,-241.293 270.023,-230.698 263.437,-238.997 270.05,-241.293"/>
<text text-anchor="middle" x="280.537" y="-242.8" font-family="Calibri" font-size="14.00"> &#160;by &#160;</text>
</g>
<!-- n_asset_risks -->
<g id="node6" class="node"><title>n_asset_risks</title>
<polygon fill="#d6e7ff" stroke="black" points="147.037,-93.5 147.037,-156.5 241.037,-156.5 241.037,-93.5 147.037,-93.5"/>
<text text-anchor="middle" x="194.037" y="-142.9" font-family="Calibri" font-size="12.00">Misapproriation</text>
<polyline fill="none" stroke="black" points="147.037,-135.5 241.037,-135.5 "/>
<text text-anchor="middle" x="194.037" y="-121.9" font-family="Calibri" font-size="12.00">Destruction</text>
<polyline fill="none" stroke="black" points="147.037,-114.5 241.037,-114.5 "/>
<text text-anchor="middle" x="194.037" y="-100.9" font-family="Calibri" font-size="12.00">Waste</text>
</g>
<!-- n_fraud_error&#45;&gt;n_asset_risks -->
<g id="edge6" class="edge"><title>n_fraud_error&#45;&gt;n_asset_risks</title>
<path fill="none" stroke="black" d="M194.037,-188.107C194.037,-181.611 194.037,-174.18 194.037,-166.769"/>
<polygon fill="black" stroke="black" points="197.537,-166.766 194.037,-156.766 190.537,-166.766 197.537,-166.766"/>
<text text-anchor="middle" x="228.537" y="-168.8" font-family="Calibri" font-size="14.00"> &#160;leading to &#160;</text>
</g>
<!-- n_assets -->
<g id="node7" class="node"><title>n_assets</title>
<ellipse fill="#d6e7ff" stroke="black" cx="194.037" cy="-44" rx="75.935" ry="18"/>
<text text-anchor="middle" x="194.037" y="-40.9" font-family="Calibri" font-size="12.00">Organizational Assets</text>
</g>
<!-- n_asset_risks&#45;&gt;n_assets -->
<g id="edge4" class="edge"><title>n_asset_risks&#45;&gt;n_assets</title>
<path fill="none" stroke="black" d="M194.037,-93.2303C194.037,-86.2931 194.037,-78.9776 194.037,-72.1991"/>
<polygon fill="black" stroke="black" points="197.537,-72.1205 194.037,-62.1205 190.537,-72.1206 197.537,-72.1205"/>
<text text-anchor="middle" x="206.537" y="-73.8" font-family="Calibri" font-size="14.00"> &#160;of &#160;</text>
</g>
<!-- n_two_or_more&#45;&gt;n_perpetration_concealment -->
<g id="edge11" class="edge"><title>n_two_or_more&#45;&gt;n_perpetration_concealment</title>
<path fill="none" stroke="black" d="M252.037,-370.492C252.037,-355.398 252.037,-332.989 252.037,-314.831"/>
<polygon fill="black" stroke="black" points="255.537,-314.719 252.037,-304.719 248.537,-314.719 255.537,-314.719"/>
<text text-anchor="middle" x="275.037" y="-346.8" font-family="Calibri" font-size="14.00"> &#160;may &#160;</text>
<text text-anchor="middle" x="275.037" y="-331.8" font-family="Calibri" font-size="14.00"> &#160;not &#160;</text>
<text text-anchor="middle" x="275.037" y="-316.8" font-family="Calibri" font-size="14.00"> &#160;cause &#160;</text>
</g>
<!-- n_activity -->
<g id="node10" class="node"><title>n_activity</title>
<ellipse fill="#d6e7ff" stroke="black" cx="332.037" cy="-476.799" rx="32.7527" ry="18"/>
<text text-anchor="middle" x="332.037" y="-473.699" font-family="Calibri" font-size="12.00">Activity</text>
</g>
<!-- n_activity&#45;&gt;n_two_or_more -->
<g id="edge9" class="edge"><title>n_activity&#45;&gt;n_two_or_more</title>
<path fill="none" stroke="black" d="M302.827,-468.594C291.558,-464.505 279.395,-458.284 271.037,-449 263.009,-440.084 258.372,-427.76 255.693,-416.641"/>
<polygon fill="black" stroke="black" points="259.06,-415.625 253.679,-406.499 252.194,-416.989 259.06,-415.625"/>
<text text-anchor="middle" x="308.537" y="-437.8" font-family="Calibri" font-size="14.00"> &#160;performed &#160;</text>
<text text-anchor="middle" x="308.537" y="-422.8" font-family="Calibri" font-size="14.00"> &#160;by &#160;</text>
</g>
<!-- n_single -->
<g id="node11" class="node"><title>n_single</title>
<ellipse fill="#d6e7ff" stroke="black" cx="388.037" cy="-388.5" rx="47.3006" ry="18"/>
<text text-anchor="middle" x="388.037" y="-385.4" font-family="Calibri" font-size="12.00">Single Agent</text>
</g>
<!-- n_activity&#45;&gt;n_single -->
<g id="edge8" class="edge"><title>n_activity&#45;&gt;n_single</title>
<path fill="none" stroke="black" d="M342.57,-459.567C350.756,-446.951 362.259,-429.225 371.646,-414.759"/>
<polygon fill="black" stroke="black" points="374.661,-416.542 377.169,-406.248 368.789,-412.731 374.661,-416.542"/>
<text text-anchor="middle" x="404.037" y="-437.8" font-family="Calibri" font-size="14.00"> &#160;performed </text>
<text text-anchor="middle" x="404.037" y="-422.8" font-family="Calibri" font-size="14.00"> &#160;by &#160;</text>
</g>
<!-- n_single&#45;&gt;n_perpetration_concealment -->
<g id="edge10" class="edge"><title>n_single&#45;&gt;n_perpetration_concealment</title>
<path fill="none" stroke="black" d="M371.394,-371.333C354.639,-355.49 327.673,-331.146 302.037,-313 300.635,-312.008 299.196,-311.02 297.731,-310.042"/>
<polygon fill="black" stroke="black" points="299.451,-306.987 289.138,-304.556 295.684,-312.887 299.451,-306.987"/>
<text text-anchor="middle" x="379.037" y="-339.3" font-family="Calibri" font-size="14.00"> &#160;may &#160;</text>
<text text-anchor="middle" x="379.037" y="-324.3" font-family="Calibri" font-size="14.00"> &#160;cause &#160;</text>
</g>
</g>
</svg>
