<?xml version="1.0" encoding="UTF-8" standalone="no"?>
<!DOCTYPE svg PUBLIC "-//W3C//DTD SVG 1.1//EN"
 "http://www.w3.org/Graphics/SVG/1.1/DTD/svg11.dtd">
<!-- Generated by graphviz version 2.38.0 (20140413.2041)
 -->
<!-- Title: G Pages: 1 -->
<svg width="3129pt" height="2670pt"
 viewBox="0.00 0.00 750.86 640.91" xmlns="http://www.w3.org/2000/svg" xmlns:xlink="http://www.w3.org/1999/xlink">
<g id="graph0" class="graph" transform="scale(4.16667 4.16667) rotate(0) translate(4 636.911)">
<title>G</title>
<polygon fill="white" stroke="none" points="-4,4 -4,-636.911 746.861,-636.911 746.861,4 -4,4"/>
<text text-anchor="middle" x="371.431" y="-15.6" font-family="Calibri" font-size="8.00">Self&#45;Sovereign Identity / SSI (Conceptual Diagram) by Open&#45;Measure</text>
<text text-anchor="middle" x="371.431" y="-6.6" font-family="Calibri" font-size="8.00">Licensed under Creative Commons Attribution 4.0 International License</text>
<g id="clust1" class="cluster"><title>cluster_ssi_capabilities</title>
<polygon fill="none" stroke="black" points="478.861,-114.317 478.861,-516.058 734.861,-516.058 734.861,-114.317 478.861,-114.317"/>
<text text-anchor="middle" x="606.861" y="-500.858" font-family="Calibri" font-size="14.00">Capabilities</text>
</g>
<!-- n_ims -->
<g id="node1" class="node"><title>n_ims</title>
<ellipse fill="#ffffff" stroke="black" cx="235.861" cy="-590.485" rx="57.0522" ry="42.3529"/>
<text text-anchor="middle" x="235.861" y="-606.885" font-family="Calibri" font-size="12.00">Identity</text>
<text text-anchor="middle" x="235.861" y="-593.885" font-family="Calibri" font-size="12.00">Management</text>
<text text-anchor="middle" x="235.861" y="-580.885" font-family="Calibri" font-size="12.00">System</text>
<text text-anchor="middle" x="235.861" y="-567.885" font-family="Calibri" font-size="12.00">(IdMS)</text>
</g>
<!-- n_service_centric_ims -->
<g id="node2" class="node"><title>n_service_centric_ims</title>
<ellipse fill="#ffffff" stroke="black" cx="89.8614" cy="-461.017" rx="62.8651" ry="24.0833"/>
<text text-anchor="middle" x="89.8614" y="-464.417" font-family="Calibri" font-size="12.00">Service&#45;Centric</text>
<text text-anchor="middle" x="89.8614" y="-451.417" font-family="Calibri" font-size="12.00">IdMS</text>
</g>
<!-- n_ims&#45;&gt;n_service_centric_ims -->
<g id="edge1" class="edge"><title>n_ims&#45;&gt;n_service_centric_ims</title>
<path fill="none" stroke="black" d="M191.726,-550.951C166.382,-528.825 135.507,-501.868 114.436,-483.472"/>
<polygon fill="black" stroke="black" points="189.561,-553.708 199.396,-557.648 194.165,-548.435 189.561,-553.708"/>
<text text-anchor="middle" x="192.361" y="-527.858" font-family="Calibri" font-size="14.00"> &#160;is a &#160;</text>
</g>
<!-- n_user_centric_ims -->
<g id="node3" class="node"><title>n_user_centric_ims</title>
<ellipse fill="#ffffff" stroke="black" cx="235.861" cy="-461.017" rx="54.3945" ry="24.0833"/>
<text text-anchor="middle" x="235.861" y="-464.417" font-family="Calibri" font-size="12.00">User&#45;Centric</text>
<text text-anchor="middle" x="235.861" y="-451.417" font-family="Calibri" font-size="12.00">IdMS</text>
</g>
<!-- n_ims&#45;&gt;n_user_centric_ims -->
<g id="edge2" class="edge"><title>n_ims&#45;&gt;n_user_centric_ims</title>
<path fill="none" stroke="black" d="M235.861,-537.539C235.861,-519.369 235.861,-499.875 235.861,-485.244"/>
<polygon fill="black" stroke="black" points="232.362,-537.747 235.861,-547.747 239.362,-537.747 232.362,-537.747"/>
<text text-anchor="middle" x="251.361" y="-527.858" font-family="Calibri" font-size="14.00"> &#160;is a &#160;</text>
</g>
<!-- n_motivations -->
<g id="node11" class="node"><title>n_motivations</title>
<polygon fill="#d6e7ff" stroke="black" points="307.861,-419.017 307.861,-503.017 455.861,-503.017 455.861,-419.017 307.861,-419.017"/>
<text text-anchor="middle" x="381.861" y="-489.417" font-family="Calibri" font-size="12.00">Data Privacy</text>
<polyline fill="none" stroke="black" points="307.861,-482.017 455.861,-482.017 "/>
<text text-anchor="middle" x="381.861" y="-468.417" font-family="Calibri" font-size="12.00">Security</text>
<polyline fill="none" stroke="black" points="307.861,-461.017 455.861,-461.017 "/>
<text text-anchor="middle" x="381.861" y="-447.417" font-family="Calibri" font-size="12.00">Socio&#45;Economical Inclusion</text>
<polyline fill="none" stroke="black" points="307.861,-440.017 455.861,-440.017 "/>
<text text-anchor="middle" x="381.861" y="-426.417" font-family="Calibri" font-size="12.00">etc.</text>
</g>
<!-- n_ims&#45;&gt;n_motivations -->
<!-- n_traditional_model -->
<g id="node5" class="node"><title>n_traditional_model</title>
<ellipse fill="#d6e7ff" stroke="black" cx="55.8614" cy="-245.593" rx="55.7232" ry="24.0833"/>
<text text-anchor="middle" x="55.8614" y="-248.993" font-family="Calibri" font-size="12.00">Architectural</text>
<text text-anchor="middle" x="55.8614" y="-235.993" font-family="Calibri" font-size="12.00">Model</text>
</g>
<!-- n_service_centric_ims&#45;&gt;n_traditional_model -->
<g id="edge4" class="edge"><title>n_service_centric_ims&#45;&gt;n_traditional_model</title>
<path fill="none" stroke="black" d="M86.1581,-436.77C80.1161,-398.844 68.1164,-323.52 61.1694,-279.912"/>
<polygon fill="black" stroke="black" points="64.5899,-279.135 59.5602,-269.811 57.6771,-280.237 64.5899,-279.135"/>
<text text-anchor="middle" x="92.3614" y="-332.876" font-family="Calibri" font-size="14.00"> &#160;has &#160;</text>
</g>
<!-- n_ssi -->
<g id="node4" class="node"><title>n_ssi</title>
<g id="a_node4"><a xlink:href="https://open-measure.atlassian.net/wiki/spaces/DIC/pages/446955653" xlink:title="Self&#45;Sovereign\nIdentity">
<ellipse fill="#5599ff" stroke="black" cx="381.861" cy="-336.576" rx="86.0347" ry="33.8824"/>
<text text-anchor="middle" x="381.861" y="-342.176" font-family="Calibri" font-size="18.00">Self&#45;Sovereign</text>
<text text-anchor="middle" x="381.861" y="-322.176" font-family="Calibri" font-size="18.00">Identity</text>
</a>
</g>
</g>
<!-- n_user_centric_ims&#45;&gt;n_ssi -->
<g id="edge3" class="edge"><title>n_user_centric_ims&#45;&gt;n_ssi</title>
<path fill="none" stroke="black" d="M268.105,-432.976C291.19,-413.616 322.276,-387.546 346.119,-367.551"/>
<polygon fill="black" stroke="black" points="265.712,-430.415 260.299,-439.523 270.21,-435.779 265.712,-430.415"/>
<text text-anchor="middle" x="346.361" y="-390.817" font-family="Calibri" font-size="14.00"> &#160;is a &#160;</text>
</g>
<!-- n_ssi_model -->
<g id="node6" class="node"><title>n_ssi_model</title>
<ellipse fill="#d6e7ff" stroke="black" cx="397.861" cy="-245.593" rx="55.7232" ry="24.0833"/>
<text text-anchor="middle" x="397.861" y="-248.993" font-family="Calibri" font-size="12.00">Architectural</text>
<text text-anchor="middle" x="397.861" y="-235.993" font-family="Calibri" font-size="12.00">Model</text>
</g>
<!-- n_ssi&#45;&gt;n_ssi_model -->
<g id="edge5" class="edge"><title>n_ssi&#45;&gt;n_ssi_model</title>
<path fill="none" stroke="black" d="M387.774,-302.695C389.132,-295.139 390.577,-287.102 391.937,-279.543"/>
<polygon fill="black" stroke="black" points="395.396,-280.083 393.721,-269.621 388.506,-278.844 395.396,-280.083"/>
<text text-anchor="middle" x="408.361" y="-282.435" font-family="Calibri" font-size="14.00"> &#160;has &#160;</text>
</g>
<!-- n_third_parties -->
<g id="node12" class="node"><title>n_third_parties</title>
<ellipse fill="#d6e7ff" stroke="black" cx="522.861" cy="-245.593" rx="35.2113" ry="24.0833"/>
<text text-anchor="middle" x="522.861" y="-248.993" font-family="Calibri" font-size="12.00">3rd</text>
<text text-anchor="middle" x="522.861" y="-235.993" font-family="Calibri" font-size="12.00">Parties</text>
</g>
<!-- n_ssi&#45;&gt;n_third_parties -->
<g id="edge13" class="edge"><title>n_ssi&#45;&gt;n_third_parties</title>
<path fill="none" stroke="black" d="M426.475,-307.421C440.457,-298.597 456.018,-288.777 470.486,-279.646"/>
<polygon fill="black" stroke="black" points="472.74,-282.362 479.329,-274.066 469.004,-276.443 472.74,-282.362"/>
<text text-anchor="middle" x="448.975" y="-296.221" font-family="Calibri" font-size="14.00">enables</text>
</g>
<!-- n_central_authority -->
<g id="node8" class="node"><title>n_central_authority</title>
<ellipse fill="#d6e7ff" stroke="black" cx="146.861" cy="-140.317" rx="53.9813" ry="33.4697"/>
<text text-anchor="middle" x="146.861" y="-150.217" font-family="Calibri" font-size="12.00">Central</text>
<text text-anchor="middle" x="146.861" y="-137.217" font-family="Calibri" font-size="12.00">Registration</text>
<text text-anchor="middle" x="146.861" y="-124.217" font-family="Calibri" font-size="12.00">Authority</text>
</g>
<!-- n_traditional_model&#45;&gt;n_central_authority -->
<g id="edge7" class="edge"><title>n_traditional_model&#45;&gt;n_central_authority</title>
<path fill="none" stroke="black" d="M75.1602,-222.691C86.7115,-209.581 101.68,-192.593 114.951,-177.532"/>
<polygon fill="black" stroke="black" points="117.724,-179.679 121.709,-169.863 112.472,-175.052 117.724,-179.679"/>
<text text-anchor="middle" x="140.861" y="-201.351" font-family="Calibri" font-size="14.00"> &#160;depends &#160;</text>
<text text-anchor="middle" x="140.861" y="-186.351" font-family="Calibri" font-size="14.00"> &#160;on &#160;</text>
</g>
<!-- n_service_provider -->
<g id="node9" class="node"><title>n_service_provider</title>
<ellipse fill="#d6e7ff" stroke="black" cx="226.861" cy="-245.593" rx="39.6962" ry="24.0833"/>
<text text-anchor="middle" x="226.861" y="-248.993" font-family="Calibri" font-size="12.00">Service</text>
<text text-anchor="middle" x="226.861" y="-235.993" font-family="Calibri" font-size="12.00">Provider</text>
</g>
<!-- n_traditional_model&#45;&gt;n_service_provider -->
<g id="edge9" class="edge"><title>n_traditional_model&#45;&gt;n_service_provider</title>
<path fill="none" stroke="black" d="M111.853,-245.593C132.851,-245.593 156.556,-245.593 176.965,-245.593"/>
<polygon fill="black" stroke="black" points="176.999,-249.093 186.999,-245.593 176.999,-242.093 176.999,-249.093"/>
<text text-anchor="middle" x="149.493" y="-282.393" font-family="Calibri" font-size="14.00"> &#160;tightly &#160;</text>
<text text-anchor="middle" x="149.493" y="-267.393" font-family="Calibri" font-size="14.00"> &#160;coupled &#160;</text>
<text text-anchor="middle" x="149.493" y="-252.393" font-family="Calibri" font-size="14.00"> &#160;with &#160;</text>
</g>
<!-- n_blockchain -->
<g id="node7" class="node"><title>n_blockchain</title>
<ellipse fill="#d6e7ff" stroke="black" cx="351.861" cy="-140.317" rx="48.5816" ry="33.4697"/>
<text text-anchor="middle" x="351.861" y="-150.217" font-family="Calibri" font-size="12.00">Blockchain</text>
<text text-anchor="middle" x="351.861" y="-137.217" font-family="Calibri" font-size="12.00">General</text>
<text text-anchor="middle" x="351.861" y="-124.217" font-family="Calibri" font-size="12.00">Ledger</text>
</g>
<!-- n_ssi_model&#45;&gt;n_blockchain -->
<g id="edge6" class="edge"><title>n_ssi_model&#45;&gt;n_blockchain</title>
<path fill="none" stroke="black" d="M387.767,-221.929C382.523,-210.157 375.957,-195.416 369.879,-181.769"/>
<polygon fill="black" stroke="black" points="373.037,-180.257 365.771,-172.546 366.643,-183.105 373.037,-180.257"/>
<text text-anchor="middle" x="414.861" y="-201.351" font-family="Calibri" font-size="14.00"> &#160;depends &#160;</text>
<text text-anchor="middle" x="414.861" y="-186.351" font-family="Calibri" font-size="14.00"> &#160;on &#160;</text>
</g>
<!-- n_central_authority&#45;&gt;n_blockchain -->
<g id="edge10" class="edge"><title>n_central_authority&#45;&gt;n_blockchain</title>
<path fill="none" stroke="black" d="M210.994,-140.317C240.68,-140.317 275.384,-140.317 302.918,-140.317"/>
<polygon fill="black" stroke="black" points="210.723,-136.817 200.723,-140.317 210.723,-143.817 210.723,-136.817"/>
<text text-anchor="middle" x="251.836" y="-147.117" font-family="Calibri" font-size="14.00"> &#160;substitutes &#160;</text>
</g>
<!-- n_weakness -->
<g id="node10" class="node"><title>n_weakness</title>
<ellipse fill="#d6e7ff" stroke="black" cx="146.861" cy="-50.0416" rx="47.2526" ry="24.0833"/>
<text text-anchor="middle" x="146.861" y="-53.4416" font-family="Calibri" font-size="12.00">Potential</text>
<text text-anchor="middle" x="146.861" y="-40.4416" font-family="Calibri" font-size="12.00">Weakness</text>
</g>
<!-- n_central_authority&#45;&gt;n_weakness -->
<g id="edge11" class="edge"><title>n_central_authority&#45;&gt;n_weakness</title>
<path fill="none" stroke="black" d="M146.861,-106.948C146.861,-99.59 146.861,-91.7613 146.861,-84.3645"/>
<polygon fill="black" stroke="black" points="150.362,-84.2891 146.861,-74.2891 143.362,-84.2892 150.362,-84.2891"/>
<text text-anchor="middle" x="157.861" y="-86.8833" font-family="Calibri" font-size="14.00"> &#160;is &#160;</text>
</g>
<!-- n_service_provider&#45;&gt;n_ssi_model -->
<g id="edge8" class="edge"><title>n_service_provider&#45;&gt;n_ssi_model</title>
<path fill="none" stroke="black" d="M276.577,-245.593C297.037,-245.593 320.832,-245.593 341.899,-245.593"/>
<polygon fill="black" stroke="black" points="276.522,-242.093 266.522,-245.593 276.522,-249.093 276.522,-242.093"/>
<text text-anchor="middle" x="304.23" y="-282.393" font-family="Calibri" font-size="14.00"> &#160;loosely &#160;</text>
<text text-anchor="middle" x="304.23" y="-267.393" font-family="Calibri" font-size="14.00"> &#160;coupled &#160;</text>
<text text-anchor="middle" x="304.23" y="-252.393" font-family="Calibri" font-size="14.00"> &#160;with &#160;</text>
</g>
<!-- n_motivations&#45;&gt;n_ssi -->
<g id="edge12" class="edge"><title>n_motivations&#45;&gt;n_ssi</title>
<path fill="none" stroke="black" d="M381.861,-408.749C381.861,-395.868 381.861,-382.383 381.861,-370.658"/>
<polygon fill="black" stroke="black" points="378.362,-408.905 381.861,-418.905 385.362,-408.905 378.362,-408.905"/>
<text text-anchor="middle" x="417.361" y="-398.317" font-family="Calibri" font-size="14.00"> &#160;motivated &#160;</text>
<text text-anchor="middle" x="417.361" y="-383.317" font-family="Calibri" font-size="14.00"> &#160;by &#160;</text>
</g>
<!-- n_autonomy -->
<g id="node13" class="node"><title>n_autonomy</title>
<ellipse fill="#d6e7ff" stroke="black" cx="669.861" cy="-461.017" rx="57.0522" ry="24.0833"/>
<text text-anchor="middle" x="669.861" y="-464.417" font-family="Calibri" font-size="12.00">Autonomous</text>
<text text-anchor="middle" x="669.861" y="-451.417" font-family="Calibri" font-size="12.00">Management</text>
</g>
<!-- n_identity -->
<g id="node14" class="node"><title>n_identity</title>
<ellipse fill="#d6e7ff" stroke="black" cx="621.861" cy="-245.593" rx="32.7527" ry="18"/>
<text text-anchor="middle" x="621.861" y="-242.493" font-family="Calibri" font-size="12.00">Identity</text>
</g>
<!-- n_autonomy&#45;&gt;n_identity -->
<g id="edge14" class="edge"><title>n_autonomy&#45;&gt;n_identity</title>
<path fill="none" stroke="black" d="M676.858,-437.131C686.561,-400.674 699.757,-328.452 669.861,-278.635 666.224,-272.574 660.947,-267.42 655.209,-263.134"/>
<polygon fill="black" stroke="black" points="656.887,-260.048 646.61,-257.47 653.036,-265.894 656.887,-260.048"/>
<text text-anchor="middle" x="700.361" y="-332.876" font-family="Calibri" font-size="14.00"> &#160;of &#160;</text>
</g>
<!-- n_entity -->
<g id="node16" class="node"><title>n_entity</title>
<ellipse fill="#d6e7ff" stroke="black" cx="621.861" cy="-336.576" rx="27.1719" ry="18"/>
<text text-anchor="middle" x="621.861" y="-333.476" font-family="Calibri" font-size="12.00">Entity</text>
</g>
<!-- n_autonomy&#45;&gt;n_entity -->
<g id="edge15" class="edge"><title>n_autonomy&#45;&gt;n_entity</title>
<path fill="none" stroke="black" d="M660.833,-436.987C652.674,-416.175 640.673,-385.56 632.147,-363.812"/>
<polygon fill="black" stroke="black" points="635.295,-362.253 628.386,-354.22 628.778,-364.808 635.295,-362.253"/>
<text text-anchor="middle" x="662.361" y="-390.817" font-family="Calibri" font-size="14.00"> &#160;by &#160;</text>
</g>
<!-- n_attributes -->
<g id="node17" class="node"><title>n_attributes</title>
<ellipse fill="#d6e7ff" stroke="black" cx="621.861" cy="-140.317" rx="40.0263" ry="18"/>
<text text-anchor="middle" x="621.861" y="-137.217" font-family="Calibri" font-size="12.00">Attributes</text>
</g>
<!-- n_identity&#45;&gt;n_attributes -->
<g id="edge17" class="edge"><title>n_identity&#45;&gt;n_attributes</title>
<path fill="none" stroke="black" d="M621.861,-227.539C621.861,-211.468 621.861,-187.127 621.861,-168.401"/>
<polygon fill="black" stroke="black" points="625.362,-168.396 621.861,-158.396 618.362,-168.397 625.362,-168.396"/>
<text text-anchor="middle" x="640.861" y="-193.851" font-family="Calibri" font-size="14.00"> &#160;with &#160;</text>
</g>
<!-- n_authentication -->
<g id="node15" class="node"><title>n_authentication</title>
<ellipse fill="#d6e7ff" stroke="black" cx="540.861" cy="-461.017" rx="54.3439" ry="18"/>
<text text-anchor="middle" x="540.861" y="-457.917" font-family="Calibri" font-size="12.00">Authentication</text>
</g>
<!-- n_authentication&#45;&gt;n_entity -->
<g id="edge16" class="edge"><title>n_authentication&#45;&gt;n_entity</title>
<path fill="none" stroke="black" d="M551.954,-443.249C565.862,-422.225 589.808,-386.028 605.74,-361.946"/>
<polygon fill="black" stroke="black" points="608.817,-363.638 611.415,-353.366 602.979,-359.775 608.817,-363.638"/>
<text text-anchor="middle" x="606.361" y="-390.817" font-family="Calibri" font-size="14.00"> &#160;of &#160;</text>
</g>
<!-- n_entity&#45;&gt;n_identity -->
<g id="edge18" class="edge"><title>n_entity&#45;&gt;n_identity</title>
<path fill="none" stroke="black" d="M621.861,-318.419C621.861,-305.863 621.861,-288.564 621.861,-274.09"/>
<polygon fill="black" stroke="black" points="625.362,-273.697 621.861,-263.697 618.362,-273.697 625.362,-273.697"/>
<text text-anchor="middle" x="643.861" y="-282.435" font-family="Calibri" font-size="14.00"> &#160;owns &#160;</text>
</g>
<!-- n_verifiable_claims -->
<g id="node18" class="node"><title>n_verifiable_claims</title>
<ellipse fill="#d6e7ff" stroke="black" cx="531.861" cy="-336.576" rx="45.011" ry="24.0833"/>
<text text-anchor="middle" x="531.861" y="-339.976" font-family="Calibri" font-size="12.00">Verifiable</text>
<text text-anchor="middle" x="531.861" y="-326.976" font-family="Calibri" font-size="12.00">Claims</text>
</g>
<!-- n_verifiable_claims&#45;&gt;n_third_parties -->
<g id="edge20" class="edge"><title>n_verifiable_claims&#45;&gt;n_third_parties</title>
<path fill="none" stroke="black" d="M526.763,-312.604C525.599,-306.471 524.513,-299.827 523.861,-293.635 523.409,-289.339 523.101,-284.811 522.897,-280.33"/>
<polygon fill="black" stroke="black" points="526.388,-279.981 522.59,-270.091 519.392,-280.191 526.388,-279.981"/>
<text text-anchor="middle" x="536.361" y="-282.435" font-family="Calibri" font-size="14.00"> &#160;to &#160;</text>
</g>
<!-- n_verifiable_claims&#45;&gt;n_identity -->
<g id="edge19" class="edge"><title>n_verifiable_claims&#45;&gt;n_identity</title>
<path fill="none" stroke="black" d="M552.735,-314.938C566.668,-301.162 584.982,-283.056 599.259,-268.94"/>
<polygon fill="black" stroke="black" points="602.071,-271.082 606.721,-261.562 597.149,-266.104 602.071,-271.082"/>
<text text-anchor="middle" x="601.861" y="-282.435" font-family="Calibri" font-size="14.00"> &#160;on &#160;</text>
</g>
</g>
</svg>
