<!DOCTYPE svg [<!ENTITY nbsp "&#160;">]><svg width="753pt" height="688pt" viewBox="0 0 753 688" xmlns="http://www.w3.org/2000/svg" xmlns:xlink="http://www.w3.org/1999/xlink">
<g id="graph0" class="graph" transform="scale(1 1) rotate(0) translate(4 683.5955)">
<title>G</title>
<polygon fill="#ffffff" stroke="transparent" points="-4,4 -4,-683.5955 749.0727,-683.5955 749.0727,4 -4,4"></polygon>
<text text-anchor="middle" x="372.5364" y="-16" font-family="Calibri" font-size="8.00" fill="#000000">Self-Sovereign Identity / SSI (Conceptual Diagram) by Open-Measure</text>
<text text-anchor="middle" x="372.5364" y="-6.4" font-family="Calibri" font-size="8.00" fill="#000000">Licensed under Creative Commons Attribution 4.0 International License</text>
<g id="clust1" class="cluster">
<title>cluster_ssi_capabilities</title>
<polygon fill="none" stroke="#000000" points="480.0727,-124.2469 480.0727,-553.0231 737.0727,-553.0231 737.0727,-124.2469 480.0727,-124.2469"></polygon>
<text text-anchor="middle" x="608.5727" y="-536.4231" font-family="Calibri" font-size="14.00" fill="#000000">Capabilities</text>
</g>
<!-- n_ims -->
<g id="node1" class="node">
<title>n_ims</title>
<ellipse fill="#ffffff" stroke="#000000" cx="234.0727" cy="-633.2093" rx="55.7191" ry="46.2727"></ellipse>
<text text-anchor="middle" x="234.0727" y="-651.2093" font-family="Calibri" font-size="12.00" fill="#000000">Identity</text>
<text text-anchor="middle" x="234.0727" y="-636.8093" font-family="Calibri" font-size="12.00" fill="#000000">Management</text>
<text text-anchor="middle" x="234.0727" y="-622.4093" font-family="Calibri" font-size="12.00" fill="#000000">System</text>
<text text-anchor="middle" x="234.0727" y="-608.0093" font-family="Calibri" font-size="12.00" fill="#000000">(IdMS)</text>
</g>
<!-- n_service_centric_ims -->
<g id="node2" class="node">
<title>n_service_centric_ims</title>
<ellipse fill="#ffffff" stroke="#000000" cx="86.0727" cy="-494.2016" rx="64.6127" ry="26.0431"></ellipse>
<text text-anchor="middle" x="86.0727" y="-497.8016" font-family="Calibri" font-size="12.00" fill="#000000">Service-Centric</text>
<text text-anchor="middle" x="86.0727" y="-483.4016" font-family="Calibri" font-size="12.00" fill="#000000">IdMS</text>
</g>
<!-- n_ims&#45;&gt;n_service_centric_ims -->
<g id="edge1" class="edge">
<title>n_ims-&gt;n_service_centric_ims</title>
<path fill="none" stroke="#000000" d="M189.7612,-591.5901C164.3512,-567.724 133.3426,-538.5994 111.8907,-518.4509"></path>
<polygon fill="#000000" stroke="#000000" points="187.4226,-594.1954 197.1078,-598.4904 192.215,-589.093 187.4226,-594.1954"></polygon>
<text text-anchor="middle" x="190.5976" y="-565.2231" font-family="Calibri" font-size="14.00" fill="#000000"> &nbsp;is a &nbsp;</text>
</g>
<!-- n_user_centric_ims -->
<g id="node3" class="node">
<title>n_user_centric_ims</title>
<ellipse fill="#ffffff" stroke="#000000" cx="234.0727" cy="-494.2016" rx="55.262" ry="26.0431"></ellipse>
<text text-anchor="middle" x="234.0727" y="-497.8016" font-family="Calibri" font-size="12.00" fill="#000000">User-Centric</text>
<text text-anchor="middle" x="234.0727" y="-483.4016" font-family="Calibri" font-size="12.00" fill="#000000">IdMS</text>
</g>
<!-- n_ims&#45;&gt;n_user_centric_ims -->
<g id="edge2" class="edge">
<title>n_ims-&gt;n_user_centric_ims</title>
<path fill="none" stroke="#000000" d="M234.0727,-576.5058C234.0727,-557.0198 234.0727,-536.1434 234.0727,-520.2918"></path>
<polygon fill="#000000" stroke="#000000" points="230.5728,-576.535 234.0727,-586.5351 237.5728,-576.5351 230.5728,-576.535"></polygon>
<text text-anchor="middle" x="250.5976" y="-565.2231" font-family="Calibri" font-size="14.00" fill="#000000"> &nbsp;is a &nbsp;</text>
</g>
<!-- n_motivations -->
<g id="node11" class="node">
<title>n_motivations</title>
<polygon fill="#d6e7ff" stroke="#000000" points="306.9223,-449.4016 306.9223,-539.0016 459.2231,-539.0016 459.2231,-449.4016 306.9223,-449.4016"></polygon>
<text text-anchor="middle" x="383.0727" y="-524.2016" font-family="Calibri" font-size="12.00" fill="#000000">Data Privacy</text>
<polyline fill="none" stroke="#000000" points="306.9223,-516.6016 459.2231,-516.6016 "></polyline>
<text text-anchor="middle" x="383.0727" y="-501.8016" font-family="Calibri" font-size="12.00" fill="#000000">Security</text>
<polyline fill="none" stroke="#000000" points="306.9223,-494.2016 459.2231,-494.2016 "></polyline>
<text text-anchor="middle" x="383.0727" y="-479.4016" font-family="Calibri" font-size="12.00" fill="#000000">Socio-Economical Inclusion</text>
<polyline fill="none" stroke="#000000" points="306.9223,-471.8016 459.2231,-471.8016 "></polyline>
<text text-anchor="middle" x="383.0727" y="-457.0016" font-family="Calibri" font-size="12.00" fill="#000000">etc.</text>
</g>
<!-- n_ims&#45;&gt;n_motivations -->
<!-- n_traditional_model -->
<g id="node5" class="node">
<title>n_traditional_model</title>
<ellipse fill="#d6e7ff" stroke="#000000" cx="56.0727" cy="-264.0723" rx="56.1455" ry="26.0431"></ellipse>
<text text-anchor="middle" x="56.0727" y="-267.6723" font-family="Calibri" font-size="12.00" fill="#000000">Architectural</text>
<text text-anchor="middle" x="56.0727" y="-253.2723" font-family="Calibri" font-size="12.00" fill="#000000">Model</text>
</g>
<!-- n_service_centric_ims&#45;&gt;n_traditional_model -->
<g id="edge4" class="edge">
<title>n_service_centric_ims-&gt;n_traditional_model</title>
<path fill="none" stroke="#000000" d="M82.6313,-467.8028C77.2513,-426.5329 66.8378,-346.6507 60.7717,-300.1177"></path>
<polygon fill="#000000" stroke="#000000" points="64.2374,-299.6268 59.474,-290.1632 57.2961,-300.5318 64.2374,-299.6268"></polygon>
<text text-anchor="middle" x="89.4023" y="-356.8977" font-family="Calibri" font-size="14.00" fill="#000000"> &nbsp;has &nbsp;</text>
</g>
<!-- n_ssi -->
<g id="node4" class="node">
<title>n_ssi</title>
<g id="a_node4"><a xlink:href="https://open-measure.atlassian.net/wiki/spaces/DIC/pages/446955653" xlink:title="Self-Sovereign\nIdentity">
<ellipse fill="#5599ff" stroke="#000000" cx="383.0727" cy="-361.0977" rx="87.8118" ry="36.4089"></ellipse>
<text text-anchor="middle" x="383.0727" y="-366.4977" font-family="Calibri" font-size="18.00" fill="#000000">Self-Sovereign</text>
<text text-anchor="middle" x="383.0727" y="-344.8977" font-family="Calibri" font-size="18.00" fill="#000000">Identity</text>
</a>
</g>
</g>
<!-- n_user_centric_ims&#45;&gt;n_ssi -->
<g id="edge3" class="edge">
<title>n_user_centric_ims-&gt;n_ssi</title>
<path fill="none" stroke="#000000" d="M267.6343,-464.2205C291.0128,-443.3362 322.1919,-415.4835 346.2532,-393.9891"></path>
<polygon fill="#000000" stroke="#000000" points="265.1525,-461.7444 260.0265,-471.0167 269.816,-466.9648 265.1525,-461.7444"></polygon>
<text text-anchor="middle" x="347.5976" y="-418.9016" font-family="Calibri" font-size="14.00" fill="#000000"> &nbsp;is a &nbsp;</text>
</g>
<!-- n_ssi_model -->
<g id="node6" class="node">
<title>n_ssi_model</title>
<ellipse fill="#d6e7ff" stroke="#000000" cx="400.0727" cy="-264.0723" rx="56.1455" ry="26.0431"></ellipse>
<text text-anchor="middle" x="400.0727" y="-267.6723" font-family="Calibri" font-size="12.00" fill="#000000">Architectural</text>
<text text-anchor="middle" x="400.0727" y="-253.2723" font-family="Calibri" font-size="12.00" fill="#000000">Model</text>
</g>
<!-- n_ssi&#45;&gt;n_ssi_model -->
<g id="edge5" class="edge">
<title>n_ssi-&gt;n_ssi_model</title>
<path fill="none" stroke="#000000" d="M389.4029,-324.969C390.8233,-316.862 392.3304,-308.2606 393.7505,-300.1554"></path>
<polygon fill="#000000" stroke="#000000" points="397.2113,-300.6829 395.4898,-290.2289 390.3164,-299.4748 397.2113,-300.6829"></polygon>
<text text-anchor="middle" x="410.4023" y="-303.2939" font-family="Calibri" font-size="14.00" fill="#000000"> &nbsp;has &nbsp;</text>
</g>
<!-- n_third_parties -->
<g id="node12" class="node">
<title>n_third_parties</title>
<ellipse fill="#d6e7ff" stroke="#000000" cx="528.0727" cy="-264.0723" rx="34.3097" ry="26.0431"></ellipse>
<text text-anchor="middle" x="528.0727" y="-267.6723" font-family="Calibri" font-size="12.00" fill="#000000">3rd</text>
<text text-anchor="middle" x="528.0727" y="-253.2723" font-family="Calibri" font-size="12.00" fill="#000000">Parties</text>
</g>
<!-- n_ssi&#45;&gt;n_third_parties -->
<g id="edge13" class="edge">
<title>n_ssi-&gt;n_third_parties</title>
<path fill="none" stroke="#000000" d="M429.3503,-330.1315C442.7574,-321.1603 457.5472,-311.2638 471.5078,-301.9222"></path>
<polygon fill="#000000" stroke="#000000" points="473.7086,-304.6609 480.0732,-296.1907 469.8158,-298.8432 473.7086,-304.6609"></polygon>
<text text-anchor="middle" x="450.3398" y="-317.5315" font-family="Calibri" font-size="14.00" fill="#000000">enables</text>
</g>
<!-- n_central_authority -->
<g id="node8" class="node">
<title>n_central_authority</title>
<ellipse fill="#d6e7ff" stroke="#000000" cx="169.0727" cy="-150.2469" rx="52.5821" ry="36.4089"></ellipse>
<text text-anchor="middle" x="169.0727" y="-161.0469" font-family="Calibri" font-size="12.00" fill="#000000">Central</text>
<text text-anchor="middle" x="169.0727" y="-146.6469" font-family="Calibri" font-size="12.00" fill="#000000">Registration</text>
<text text-anchor="middle" x="169.0727" y="-132.2469" font-family="Calibri" font-size="12.00" fill="#000000">Authority</text>
</g>
<!-- n_traditional_model&#45;&gt;n_central_authority -->
<g id="edge7" class="edge">
<title>n_traditional_model-&gt;n_central_authority</title>
<path fill="none" stroke="#000000" d="M79.7612,-240.2108C94.8242,-225.0378 114.6486,-205.0686 131.7926,-187.7993"></path>
<polygon fill="#000000" stroke="#000000" points="134.3929,-190.148 138.9543,-180.5853 129.4251,-185.2163 134.3929,-190.148"></polygon>
<text text-anchor="middle" x="153.0096" y="-216.4508" font-family="Calibri" font-size="14.00" fill="#000000"> &nbsp;depends &nbsp;</text>
<text text-anchor="middle" x="153.0096" y="-199.6508" font-family="Calibri" font-size="14.00" fill="#000000"> &nbsp;on &nbsp;</text>
</g>
<!-- n_service_provider -->
<g id="node9" class="node">
<title>n_service_provider</title>
<ellipse fill="#d6e7ff" stroke="#000000" cx="228.0727" cy="-264.0723" rx="40.5656" ry="26.0431"></ellipse>
<text text-anchor="middle" x="228.0727" y="-267.6723" font-family="Calibri" font-size="12.00" fill="#000000">Service</text>
<text text-anchor="middle" x="228.0727" y="-253.2723" font-family="Calibri" font-size="12.00" fill="#000000">Provider</text>
</g>
<!-- n_traditional_model&#45;&gt;n_service_provider -->
<g id="edge9" class="edge">
<title>n_traditional_model-&gt;n_service_provider</title>
<path fill="none" stroke="#000000" d="M112.392,-264.0723C133.3453,-264.0723 156.9779,-264.0723 177.3956,-264.0723"></path>
<polygon fill="#000000" stroke="#000000" points="177.4405,-267.5724 187.4405,-264.0723 177.4404,-260.5724 177.4405,-267.5724"></polygon>
<text text-anchor="middle" x="149.8427" y="-304.8723" font-family="Calibri" font-size="14.00" fill="#000000"> &nbsp;tightly &nbsp;</text>
<text text-anchor="middle" x="149.8427" y="-288.0723" font-family="Calibri" font-size="14.00" fill="#000000"> &nbsp;coupled &nbsp;</text>
<text text-anchor="middle" x="149.8427" y="-271.2723" font-family="Calibri" font-size="14.00" fill="#000000"> &nbsp;with &nbsp;</text>
</g>
<!-- n_blockchain -->
<g id="node7" class="node">
<title>n_blockchain</title>
<ellipse fill="#d6e7ff" stroke="#000000" cx="381.0727" cy="-150.2469" rx="49.9182" ry="36.4089"></ellipse>
<text text-anchor="middle" x="381.0727" y="-161.0469" font-family="Calibri" font-size="12.00" fill="#000000">Blockchain</text>
<text text-anchor="middle" x="381.0727" y="-146.6469" font-family="Calibri" font-size="12.00" fill="#000000">General</text>
<text text-anchor="middle" x="381.0727" y="-132.2469" font-family="Calibri" font-size="12.00" fill="#000000">Ledger</text>
</g>
<!-- n_ssi_model&#45;&gt;n_blockchain -->
<g id="edge6" class="edge">
<title>n_ssi_model-&gt;n_blockchain</title>
<path fill="none" stroke="#000000" d="M395.7137,-237.9585C393.6684,-225.7052 391.1681,-210.7263 388.8165,-196.6385"></path>
<polygon fill="#000000" stroke="#000000" points="392.2379,-195.8769 387.1391,-186.5896 385.3334,-197.0294 392.2379,-195.8769"></polygon>
<text text-anchor="middle" x="424.0096" y="-216.4508" font-family="Calibri" font-size="14.00" fill="#000000"> &nbsp;depends &nbsp;</text>
<text text-anchor="middle" x="424.0096" y="-199.6508" font-family="Calibri" font-size="14.00" fill="#000000"> &nbsp;on &nbsp;</text>
</g>
<!-- n_central_authority&#45;&gt;n_blockchain -->
<g id="edge10" class="edge">
<title>n_central_authority-&gt;n_blockchain</title>
<path fill="none" stroke="#000000" d="M232.0476,-150.2469C263.6457,-150.2469 301.3874,-150.2469 330.9827,-150.2469"></path>
<polygon fill="#000000" stroke="#000000" points="232.0224,-146.747 222.0224,-150.2469 232.0224,-153.747 232.0224,-146.747"></polygon>
<text text-anchor="middle" x="276.4885" y="-157.4469" font-family="Calibri" font-size="14.00" fill="#000000"> &nbsp;substitutes &nbsp;</text>
</g>
<!-- n_weakness -->
<g id="node10" class="node">
<title>n_weakness</title>
<ellipse fill="#d6e7ff" stroke="#000000" cx="169.0727" cy="-53.2215" rx="45.9168" ry="26.0431"></ellipse>
<text text-anchor="middle" x="169.0727" y="-56.8215" font-family="Calibri" font-size="12.00" fill="#000000">Potential</text>
<text text-anchor="middle" x="169.0727" y="-42.4215" font-family="Calibri" font-size="12.00" fill="#000000">Weakness</text>
</g>
<!-- n_central_authority&#45;&gt;n_weakness -->
<g id="edge11" class="edge">
<title>n_central_authority-&gt;n_weakness</title>
<path fill="none" stroke="#000000" d="M169.0727,-113.8422C169.0727,-105.9158 169.0727,-97.5288 169.0727,-89.6033"></path>
<polygon fill="#000000" stroke="#000000" points="172.5728,-89.5279 169.0727,-79.528 165.5728,-89.528 172.5728,-89.5279"></polygon>
<text text-anchor="middle" x="180.7403" y="-92.4431" font-family="Calibri" font-size="14.00" fill="#000000"> &nbsp;is &nbsp;</text>
</g>
<!-- n_service_provider&#45;&gt;n_ssi_model -->
<g id="edge8" class="edge">
<title>n_service_provider-&gt;n_ssi_model</title>
<path fill="none" stroke="#000000" d="M278.9008,-264.0723C299.3601,-264.0723 323.028,-264.0723 343.9878,-264.0723"></path>
<polygon fill="#000000" stroke="#000000" points="278.8344,-260.5724 268.8343,-264.0723 278.8343,-267.5724 278.8344,-260.5724"></polygon>
<text text-anchor="middle" x="306.3027" y="-304.8723" font-family="Calibri" font-size="14.00" fill="#000000"> &nbsp;loosely &nbsp;</text>
<text text-anchor="middle" x="306.3027" y="-288.0723" font-family="Calibri" font-size="14.00" fill="#000000"> &nbsp;coupled &nbsp;</text>
<text text-anchor="middle" x="306.3027" y="-271.2723" font-family="Calibri" font-size="14.00" fill="#000000"> &nbsp;with &nbsp;</text>
</g>
<!-- n_motivations&#45;&gt;n_ssi -->
<g id="edge12" class="edge">
<title>n_motivations-&gt;n_ssi</title>
<path fill="none" stroke="#000000" d="M383.0727,-439.1323C383.0727,-425.1712 383.0727,-410.5149 383.0727,-397.7221"></path>
<polygon fill="#000000" stroke="#000000" points="379.5728,-439.1387 383.0727,-449.1387 386.5728,-439.1387 379.5728,-439.1387"></polygon>
<text text-anchor="middle" x="418.0685" y="-427.3016" font-family="Calibri" font-size="14.00" fill="#000000"> &nbsp;motivated &nbsp;</text>
<text text-anchor="middle" x="418.0685" y="-410.5016" font-family="Calibri" font-size="14.00" fill="#000000"> &nbsp;by &nbsp;</text>
</g>
<!-- n_autonomy -->
<g id="node13" class="node">
<title>n_autonomy</title>
<ellipse fill="#d6e7ff" stroke="#000000" cx="673.0727" cy="-494.2016" rx="55.7191" ry="26.0431"></ellipse>
<text text-anchor="middle" x="673.0727" y="-497.8016" font-family="Calibri" font-size="12.00" fill="#000000">Autonomous</text>
<text text-anchor="middle" x="673.0727" y="-483.4016" font-family="Calibri" font-size="12.00" fill="#000000">Management</text>
</g>
<!-- n_identity -->
<g id="node14" class="node">
<title>n_identity</title>
<ellipse fill="#d6e7ff" stroke="#000000" cx="627.0727" cy="-264.0723" rx="34.1187" ry="18"></ellipse>
<text text-anchor="middle" x="627.0727" y="-260.4723" font-family="Calibri" font-size="12.00" fill="#000000">Identity</text>
</g>
<!-- n_autonomy&#45;&gt;n_identity -->
<g id="edge14" class="edge">
<title>n_autonomy-&gt;n_identity</title>
<path fill="none" stroke="#000000" d="M681.087,-468.4445C691.7368,-429.0328 705.8633,-352.7017 675.0727,-299.0939 671.3639,-292.6366 665.93,-287.0363 660.0389,-282.3231"></path>
<polygon fill="#000000" stroke="#000000" points="662.0083,-279.4285 651.8412,-276.4487 657.931,-285.1185 662.0083,-279.4285"></polygon>
<text text-anchor="middle" x="705.903" y="-356.8977" font-family="Calibri" font-size="14.00" fill="#000000"> &nbsp;of &nbsp;</text>
</g>
<!-- n_entity -->
<g id="node16" class="node">
<title>n_entity</title>
<ellipse fill="#d6e7ff" stroke="#000000" cx="627.0727" cy="-361.0977" rx="28.9112" ry="18"></ellipse>
<text text-anchor="middle" x="627.0727" y="-357.4977" font-family="Calibri" font-size="12.00" fill="#000000">Entity</text>
</g>
<!-- n_autonomy&#45;&gt;n_entity -->
<g id="edge15" class="edge">
<title>n_autonomy-&gt;n_entity</title>
<path fill="none" stroke="#000000" d="M664.0943,-468.2218C656.1683,-445.2876 644.6499,-411.9585 636.5716,-388.5832"></path>
<polygon fill="#000000" stroke="#000000" points="639.8084,-387.2339 633.234,-378.9257 633.1924,-389.5204 639.8084,-387.2339"></polygon>
<text text-anchor="middle" x="668.0727" y="-418.9016" font-family="Calibri" font-size="14.00" fill="#000000"> &nbsp;by &nbsp;</text>
</g>
<!-- n_attributes -->
<g id="node17" class="node">
<title>n_attributes</title>
<ellipse fill="#d6e7ff" stroke="#000000" cx="627.0727" cy="-150.2469" rx="40.7417" ry="18"></ellipse>
<text text-anchor="middle" x="627.0727" y="-146.6469" font-family="Calibri" font-size="12.00" fill="#000000">Attributes</text>
</g>
<!-- n_identity&#45;&gt;n_attributes -->
<g id="edge17" class="edge">
<title>n_identity-&gt;n_attributes</title>
<path fill="none" stroke="#000000" d="M627.0727,-246.0364C627.0727,-227.9105 627.0727,-199.707 627.0727,-178.5894"></path>
<polygon fill="#000000" stroke="#000000" points="630.5728,-178.5754 627.0727,-168.5754 623.5728,-178.5755 630.5728,-178.5754"></polygon>
<text text-anchor="middle" x="646.5166" y="-208.0508" font-family="Calibri" font-size="14.00" fill="#000000"> &nbsp;with &nbsp;</text>
</g>
<!-- n_authentication -->
<g id="node15" class="node">
<title>n_authentication</title>
<ellipse fill="#d6e7ff" stroke="#000000" cx="544.0727" cy="-494.2016" rx="55.5399" ry="18"></ellipse>
<text text-anchor="middle" x="544.0727" y="-490.6016" font-family="Calibri" font-size="12.00" fill="#000000">Authentication</text>
</g>
<!-- n_authentication&#45;&gt;n_entity -->
<g id="edge16" class="edge">
<title>n_authentication-&gt;n_entity</title>
<path fill="none" stroke="#000000" d="M555.0945,-476.5264C569.4529,-453.5005 594.6595,-413.0775 611.1093,-386.6976"></path>
<polygon fill="#000000" stroke="#000000" points="614.209,-388.3414 616.5304,-378.004 608.2692,-384.6374 614.209,-388.3414"></polygon>
<text text-anchor="middle" x="609.903" y="-418.9016" font-family="Calibri" font-size="14.00" fill="#000000"> &nbsp;of &nbsp;</text>
</g>
<!-- n_entity&#45;&gt;n_identity -->
<g id="edge18" class="edge">
<title>n_entity-&gt;n_identity</title>
<path fill="none" stroke="#000000" d="M627.0727,-342.848C627.0727,-328.6183 627.0727,-308.605 627.0727,-292.3118"></path>
<polygon fill="#000000" stroke="#000000" points="630.5728,-292.2402 627.0727,-282.2402 623.5728,-292.2403 630.5728,-292.2402"></polygon>
<text text-anchor="middle" x="648.8483" y="-303.2939" font-family="Calibri" font-size="14.00" fill="#000000"> &nbsp;owns &nbsp;</text>
</g>
<!-- n_verifiable_claims -->
<g id="node18" class="node">
<title>n_verifiable_claims</title>
<ellipse fill="#d6e7ff" stroke="#000000" cx="534.0727" cy="-361.0977" rx="45.9117" ry="26.0431"></ellipse>
<text text-anchor="middle" x="534.0727" y="-364.6977" font-family="Calibri" font-size="12.00" fill="#000000">Verifiable</text>
<text text-anchor="middle" x="534.0727" y="-350.2977" font-family="Calibri" font-size="12.00" fill="#000000">Claims</text>
</g>
<!-- n_verifiable_claims&#45;&gt;n_third_parties -->
<g id="edge20" class="edge">
<title>n_verifiable_claims-&gt;n_third_parties</title>
<path fill="none" stroke="#000000" d="M530.8439,-334.8375C530.1888,-328.6347 529.5795,-322.0381 529.1821,-315.8939 528.8614,-310.9352 528.6274,-305.7046 528.4577,-300.5501"></path>
<polygon fill="#000000" stroke="#000000" points="531.9473,-300.0954 528.1923,-290.1883 524.9496,-300.2747 531.9473,-300.0954"></polygon>
<text text-anchor="middle" x="541.518" y="-303.2939" font-family="Calibri" font-size="14.00" fill="#000000"> &nbsp;to &nbsp;</text>
</g>
<!-- n_verifiable_claims&#45;&gt;n_identity -->
<g id="edge19" class="edge">
<title>n_verifiable_claims-&gt;n_identity</title>
<path fill="none" stroke="#000000" d="M556.1124,-338.1041C570.6579,-322.929 589.6673,-303.0968 604.3497,-287.7788"></path>
<polygon fill="#000000" stroke="#000000" points="607.1937,-289.8698 611.5868,-280.2286 602.1403,-285.0259 607.1937,-289.8698"></polygon>
<text text-anchor="middle" x="605.0727" y="-303.2939" font-family="Calibri" font-size="14.00" fill="#000000"> &nbsp;on &nbsp;</text>
</g>
</g>
</svg>