<?xml version="1.0" encoding="UTF-8" standalone="no"?>
<!DOCTYPE svg PUBLIC "-//W3C//DTD SVG 1.1//EN"
 "http://www.w3.org/Graphics/SVG/1.1/DTD/svg11.dtd">
<!-- Generated by graphviz version 2.38.0 (20140413.2041)
 -->
<!-- Title: G Pages: 1 -->
<svg width="3059pt" height="2973pt"
 viewBox="0.00 0.00 734.20 713.57" xmlns="http://www.w3.org/2000/svg" xmlns:xlink="http://www.w3.org/1999/xlink">
<g id="graph0" class="graph" transform="scale(4.16667 4.16667) rotate(0) translate(4 709.569)">
<title>G</title>
<polygon fill="white" stroke="none" points="-4,4 -4,-709.569 730.196,-709.569 730.196,4 -4,4"/>
<text text-anchor="middle" x="363.098" y="-15.6" font-family="Calibri" font-size="8.00">System &#45; Computer Science (Conceptual Diagram) by Open&#45;Measure</text>
<text text-anchor="middle" x="363.098" y="-6.6" font-family="Calibri" font-size="8.00">Licensed under Creative Commons Attribution 4.0 International License</text>
<g id="clust1" class="cluster"><title>cluster_types</title>
<polygon fill="none" stroke="black" points="305.196,-602.569 305.196,-697.569 405.196,-697.569 405.196,-602.569 305.196,-602.569"/>
<text text-anchor="middle" x="355.196" y="-683.969" font-family="Calibri" font-size="12.00">System Types</text>
</g>
<g id="clust3" class="cluster"><title>cluster_components</title>
<polygon fill="none" stroke="black" points="307.196,-34 307.196,-200 505.196,-200 505.196,-34 307.196,-34"/>
<text text-anchor="middle" x="406.196" y="-43.2" font-family="Calibri" font-size="16.00">Components</text>
</g>
<g id="clust4" class="cluster"><title>cluster_it_components</title>
<polygon fill="none" stroke="black" points="315.196,-68 315.196,-192 401.196,-192 401.196,-68 315.196,-68"/>
<text text-anchor="middle" x="358.196" y="-176.8" font-family="Calibri" font-size="14.00">IT</text>
</g>
<g id="clust5" class="cluster"><title>cluster_non_it_components</title>
<polygon fill="none" stroke="black" points="409.196,-68 409.196,-192 497.196,-192 497.196,-68 409.196,-68"/>
<text text-anchor="middle" x="453.196" y="-176.8" font-family="Calibri" font-size="14.00">Non&#45;IT</text>
</g>
<g id="clust2" class="cluster"><title>cluster_desirable_characteristics</title>
<polygon fill="none" stroke="black" points="522.196,-328.77 522.196,-526.569 718.196,-526.569 718.196,-328.77 522.196,-328.77"/>
<text text-anchor="middle" x="620.196" y="-512.969" font-family="Calibri" font-size="12.00">Desirable Properties</text>
</g>
<!-- n_types -->
<g id="node1" class="node"><title>n_types</title>
<polygon fill="#d6e7ff" stroke="black" points="313.696,-611.069 313.696,-668.069 396.696,-668.069 396.696,-611.069 313.696,-611.069"/>
<text text-anchor="middle" x="355.196" y="-656.069" font-family="Calibri" font-size="10.00">System Design</text>
<polyline fill="none" stroke="black" points="313.696,-649.069 396.696,-649.069 "/>
<text text-anchor="middle" x="355.196" y="-637.069" font-family="Calibri" font-size="10.00">System Package</text>
<polyline fill="none" stroke="black" points="313.696,-630.069 396.696,-630.069 "/>
<text text-anchor="middle" x="355.196" y="-618.069" font-family="Calibri" font-size="10.00">System Instance</text>
</g>
<!-- n_system -->
<g id="node2" class="node"><title>n_system</title>
<g id="a_node2"><a xlink:href="https://open-measure.atlassian.net/wiki/spaces/DIC/pages/5965562" xlink:title="System">
<ellipse fill="#5599ff" stroke="black" cx="355.196" cy="-479.569" rx="48.5816" ry="19.6"/>
<text text-anchor="middle" x="355.196" y="-475.169" font-family="Calibri" font-size="18.00">System</text>
</a>
</g>
</g>
<!-- n_types&#45;&gt;n_system -->
<g id="edge1" class="edge"><title>n_types&#45;&gt;n_system</title>
<path fill="none" stroke="black" d="M355.196,-600.784C355.196,-568.987 355.196,-524.817 355.196,-499.824"/>
<polygon fill="black" stroke="black" points="351.696,-592.568 355.196,-602.569 358.696,-592.569 351.696,-592.568"/>
<text text-anchor="middle" x="373.696" y="-568.369" font-family="Calibri" font-size="14.00"> &#160;may &#160;</text>
<text text-anchor="middle" x="373.696" y="-553.369" font-family="Calibri" font-size="14.00"> &#160;be &#160;</text>
</g>
<!-- n_boundaries -->
<g id="node5" class="node"><title>n_boundaries</title>
<ellipse fill="#d6e7ff" stroke="black" cx="355.196" cy="-264.385" rx="67.3507" ry="18.2703"/>
<text text-anchor="middle" x="355.196" y="-260.585" font-family="Calibri" font-size="16.00"> Boundaries </text>
</g>
<!-- n_system&#45;&gt;n_boundaries -->
<g id="edge4" class="edge"><title>n_system&#45;&gt;n_boundaries</title>
<path fill="none" stroke="black" d="M355.196,-459.65C355.196,-421.9 355.196,-337.076 355.196,-293.062"/>
<polygon fill="black" stroke="black" points="358.696,-293.056 355.196,-283.056 351.696,-293.056 358.696,-293.056"/>
<text text-anchor="middle" x="380.196" y="-379.07" font-family="Calibri" font-size="14.00"> &#160;defined</text>
<text text-anchor="middle" x="380.196" y="-364.07" font-family="Calibri" font-size="14.00">by</text>
</g>
<!-- n_set -->
<g id="node3" class="node"><title>n_set</title>
<ellipse fill="#ffffff" stroke="black" cx="267.196" cy="-639.569" rx="28.0702" ry="19.6"/>
<text text-anchor="middle" x="267.196" y="-635.169" font-family="Calibri" font-size="18.00">Set</text>
</g>
<!-- n_set&#45;&gt;n_system -->
<g id="edge2" class="edge"><title>n_set&#45;&gt;n_system</title>
<path fill="none" stroke="black" d="M280.021,-611.524C290.318,-590.291 305.444,-560.143 320.196,-534.569 327.229,-522.375 335.818,-509.103 342.727,-498.768"/>
<polygon fill="black" stroke="black" points="276.834,-610.076 275.648,-620.604 283.14,-613.113 276.834,-610.076"/>
<text text-anchor="middle" x="335.696" y="-560.869" font-family="Calibri" font-size="14.00"> &#160;is a &#160;</text>
</g>
<!-- n_control -->
<g id="node4" class="node"><title>n_control</title>
<ellipse fill="#d6e7ff" stroke="black" cx="117.196" cy="-375.27" rx="43.6818" ry="24.0833"/>
<text text-anchor="middle" x="117.196" y="-378.67" font-family="Calibri" font-size="12.00">Boundary</text>
<text text-anchor="middle" x="117.196" y="-365.67" font-family="Calibri" font-size="12.00">Controls</text>
</g>
<!-- n_control&#45;&gt;n_boundaries -->
<g id="edge3" class="edge"><title>n_control&#45;&gt;n_boundaries</title>
<path fill="none" stroke="black" d="M156.443,-352.964C189.891,-335.216 239.506,-309.849 284.196,-290.77 293.827,-286.658 304.373,-282.637 314.32,-279.051"/>
<polygon fill="black" stroke="black" points="154.632,-349.962 147.455,-357.756 157.926,-356.139 154.632,-349.962"/>
<text text-anchor="middle" x="312.696" y="-309.57" font-family="Calibri" font-size="14.00">protected</text>
<text text-anchor="middle" x="312.696" y="-294.57" font-family="Calibri" font-size="14.00">by</text>
</g>
<!-- n_it_components -->
<g id="node12" class="node"><title>n_it_components</title>
<polygon fill="#d6e7ff" stroke="black" points="323.696,-76.5 323.696,-160.5 392.696,-160.5 392.696,-76.5 323.696,-76.5"/>
<text text-anchor="middle" x="358.196" y="-146.9" font-family="Calibri" font-size="12.00">Hardware</text>
<polyline fill="none" stroke="black" points="323.696,-139.5 392.696,-139.5 "/>
<text text-anchor="middle" x="358.196" y="-125.9" font-family="Calibri" font-size="12.00">Software</text>
<polyline fill="none" stroke="black" points="323.696,-118.5 392.696,-118.5 "/>
<text text-anchor="middle" x="358.196" y="-104.9" font-family="Calibri" font-size="12.00">Data</text>
<polyline fill="none" stroke="black" points="323.696,-97.5 392.696,-97.5 "/>
<text text-anchor="middle" x="358.196" y="-83.9" font-family="Calibri" font-size="12.00">Processing</text>
</g>
<!-- n_boundaries&#45;&gt;n_it_components -->
<g id="edge14" class="edge"><title>n_boundaries&#45;&gt;n_it_components</title>
<path fill="none" stroke="black" d="M353.638,-245.917C353.454,-243.266 353.297,-240.562 353.196,-238 352.736,-226.317 352.727,-213.987 352.99,-201.871"/>
<polygon fill="black" stroke="black" points="356.491,-201.857 353.271,-191.763 349.494,-201.662 356.491,-201.857"/>
<text text-anchor="middle" x="393.196" y="-226.8" font-family="Calibri" font-size="14.00"> &#160;must include</text>
<text text-anchor="middle" x="393.196" y="-211.8" font-family="Calibri" font-size="14.00">may exclude</text>
</g>
<!-- n_non_it_components -->
<g id="node13" class="node"><title>n_non_it_components</title>
<polygon fill="#d6e7ff" stroke="black" points="417.696,-76.5 417.696,-160.5 488.696,-160.5 488.696,-76.5 417.696,-76.5"/>
<text text-anchor="middle" x="453.196" y="-146.9" font-family="Calibri" font-size="12.00">Entities</text>
<polyline fill="none" stroke="black" points="417.696,-139.5 488.696,-139.5 "/>
<text text-anchor="middle" x="453.196" y="-125.9" font-family="Calibri" font-size="12.00">Procedures</text>
<polyline fill="none" stroke="black" points="417.696,-118.5 488.696,-118.5 "/>
<text text-anchor="middle" x="453.196" y="-104.9" font-family="Calibri" font-size="12.00">Processes</text>
<polyline fill="none" stroke="black" points="417.696,-97.5 488.696,-97.5 "/>
<text text-anchor="middle" x="453.196" y="-83.9" font-family="Calibri" font-size="12.00">Activities</text>
</g>
<!-- n_boundaries&#45;&gt;n_non_it_components -->
<g id="edge15" class="edge"><title>n_boundaries&#45;&gt;n_non_it_components</title>
<path fill="none" stroke="black" d="M410.568,-253.784C419.146,-250.096 427.15,-245.01 433.196,-238 442.002,-227.79 447.636,-215.183 451.139,-202.041"/>
<polygon fill="black" stroke="black" points="454.636,-202.442 453.42,-191.917 447.808,-200.904 454.636,-202.442"/>
<text text-anchor="middle" x="488.196" y="-226.8" font-family="Calibri" font-size="14.00">may include</text>
<text text-anchor="middle" x="488.196" y="-211.8" font-family="Calibri" font-size="14.00"> &#160;may exclude</text>
</g>
<!-- n_observer -->
<g id="node6" class="node"><title>n_observer</title>
<ellipse fill="#d6e7ff" stroke="black" cx="473.196" cy="-639.569" rx="58.8803" ry="19.6"/>
<text text-anchor="middle" x="473.196" y="-635.169" font-family="Calibri" font-size="18.00">Observer</text>
</g>
<!-- n_observer&#45;&gt;n_system -->
<g id="edge5" class="edge"><title>n_observer&#45;&gt;n_system</title>
<path fill="none" stroke="black" d="M454.892,-620.364C447.52,-612.674 439.139,-603.454 432.196,-594.569 412.614,-569.506 411.017,-560.911 393.196,-534.569 387.126,-525.596 380.359,-515.889 374.237,-507.213"/>
<polygon fill="black" stroke="black" points="377.017,-505.082 368.38,-498.946 371.305,-509.129 377.017,-505.082"/>
<text text-anchor="middle" x="450.696" y="-568.369" font-family="Calibri" font-size="14.00">look &#160;&#160;&#160;</text>
<text text-anchor="middle" x="450.696" y="-553.369" font-family="Calibri" font-size="14.00">at &#160;&#160;&#160;&#160;&#160;&#160;</text>
</g>
<!-- n_coherence -->
<g id="node7" class="node"><title>n_coherence</title>
<ellipse fill="#d6e7ff" stroke="black" cx="472.196" cy="-479.569" rx="41.7203" ry="18"/>
<text text-anchor="middle" x="472.196" y="-476.469" font-family="Calibri" font-size="12.00">Coherence</text>
</g>
<!-- n_observer&#45;&gt;n_coherence -->
<g id="edge6" class="edge"><title>n_observer&#45;&gt;n_coherence</title>
<path fill="none" stroke="black" d="M473.075,-619.51C472.9,-591.757 472.572,-540.062 472.37,-508.153"/>
<polygon fill="black" stroke="black" points="475.868,-507.74 472.305,-497.763 468.868,-507.785 475.868,-507.74"/>
<text text-anchor="middle" x="503.696" y="-568.369" font-family="Calibri" font-size="14.00"> &#160;regard it</text>
<text text-anchor="middle" x="503.696" y="-553.369" font-family="Calibri" font-size="14.00"> &#160;as having</text>
</g>
<!-- n_coherence&#45;&gt;n_boundaries -->
<g id="edge7" class="edge"><title>n_coherence&#45;&gt;n_boundaries</title>
<path fill="none" stroke="black" d="M466.961,-461.579C457.722,-432.918 436.856,-373.696 409.196,-328.77 400.636,-314.867 389.119,-300.894 378.92,-289.62"/>
<polygon fill="black" stroke="black" points="381.485,-287.238 372.122,-282.279 376.349,-291.995 381.485,-287.238"/>
<text text-anchor="middle" x="459.696" y="-371.57" font-family="Calibri" font-size="14.00"> &#160;of</text>
</g>
<!-- n_desirable_characteristics -->
<g id="node10" class="node"><title>n_desirable_characteristics</title>
<polygon fill="#d6e7ff" stroke="black" points="530.196,-337.27 530.196,-413.27 710.196,-413.27 710.196,-337.27 530.196,-337.27"/>
<text text-anchor="middle" x="620.196" y="-401.27" font-family="Calibri" font-size="10.00">Ownership / Managerial Control</text>
<polyline fill="none" stroke="black" points="530.196,-394.27 710.196,-394.27 "/>
<text text-anchor="middle" x="620.196" y="-382.27" font-family="Calibri" font-size="10.00">Functional Requirements / Goal</text>
<polyline fill="none" stroke="black" points="530.196,-375.27 710.196,-375.27 "/>
<text text-anchor="middle" x="620.196" y="-363.27" font-family="Calibri" font-size="10.00">Non&#45;Functional Requirements / Security</text>
<polyline fill="none" stroke="black" points="530.196,-356.27 710.196,-356.27 "/>
<text text-anchor="middle" x="620.196" y="-344.27" font-family="Calibri" font-size="10.00">Operational Constraints</text>
</g>
<!-- n_coherence&#45;&gt;n_desirable_characteristics -->
<g id="edge12" class="edge"><title>n_coherence&#45;&gt;n_desirable_characteristics</title>
<path fill="none" stroke="black" d="M493.401,-463.912C499.427,-459.746 506.429,-454.907 513.987,-449.682"/>
<polygon fill="black" stroke="black" points="516.151,-452.441 522.388,-443.876 512.171,-446.682 516.151,-452.441"/>
<text text-anchor="middle" x="574.196" y="-440.57" font-family="Calibri" font-size="14.00">should</text>
<text text-anchor="middle" x="574.196" y="-425.57" font-family="Calibri" font-size="14.00">have</text>
</g>
<!-- n_effectiveness -->
<g id="node8" class="node"><title>n_effectiveness</title>
<ellipse fill="#d6e7ff" stroke="black" cx="117.196" cy="-479.569" rx="50.4563" ry="18"/>
<text text-anchor="middle" x="117.196" y="-476.469" font-family="Calibri" font-size="12.00">Effectiveness</text>
</g>
<!-- n_effectiveness&#45;&gt;n_control -->
<g id="edge8" class="edge"><title>n_effectiveness&#45;&gt;n_control</title>
<path fill="none" stroke="black" d="M117.196,-461.215C117.196,-447.147 117.196,-426.906 117.196,-409.711"/>
<polygon fill="black" stroke="black" points="120.696,-409.481 117.196,-399.481 113.696,-409.481 120.696,-409.481"/>
<text text-anchor="middle" x="131.196" y="-433.07" font-family="Calibri" font-size="14.00"> &#160;of &#160;&#160;</text>
</g>
<!-- n_connected_system -->
<g id="node9" class="node"><title>n_connected_system</title>
<ellipse fill="#d6e7ff" stroke="black" cx="117.196" cy="-639.569" rx="50.4563" ry="18"/>
<text text-anchor="middle" x="117.196" y="-636.469" font-family="Calibri" font-size="12.00">Other System</text>
</g>
<!-- n_connected_system&#45;&gt;n_system -->
<g id="edge11" class="edge"><title>n_connected_system&#45;&gt;n_system</title>
<path fill="none" stroke="black" d="M158.969,-621.018C171.754,-614.166 185.093,-605.333 195.196,-594.569 215.465,-572.972 202.642,-554.882 224.196,-534.569 246.023,-513.998 276.773,-500.773 302.997,-492.562"/>
<polygon fill="black" stroke="black" points="157.15,-618.016 149.812,-625.657 160.314,-624.26 157.15,-618.016"/>
<polygon fill="black" stroke="black" points="304.205,-495.855 312.797,-489.656 302.215,-489.143 304.205,-495.855"/>
<text text-anchor="middle" x="254.696" y="-568.369" font-family="Calibri" font-size="14.00">connected</text>
<text text-anchor="middle" x="254.696" y="-553.369" font-family="Calibri" font-size="14.00">with</text>
</g>
<!-- n_connected_system&#45;&gt;n_control -->
<g id="edge9" class="edge"><title>n_connected_system&#45;&gt;n_control</title>
<path fill="none" stroke="black" d="M86.0686,-617.181C59.9855,-597.199 24.6128,-564.767 9.1958,-526.569 -1.91568,-499.038 -3.8864,-486.42 9.1958,-459.77 24.7045,-428.176 58.5617,-405.139 84.2617,-391.362"/>
<polygon fill="black" stroke="black" points="84.0642,-620.052 94.1736,-623.222 88.2476,-614.439 84.0642,-620.052"/>
<text text-anchor="middle" x="33.6958" y="-483.369" font-family="Calibri" font-size="14.00"> &#160;protect</text>
<text text-anchor="middle" x="33.6958" y="-468.369" font-family="Calibri" font-size="14.00">from</text>
</g>
<!-- n_connected_system&#45;&gt;n_effectiveness -->
<g id="edge10" class="edge"><title>n_connected_system&#45;&gt;n_effectiveness</title>
<path fill="none" stroke="black" d="M117.196,-611.163C117.196,-578.538 117.196,-525.049 117.196,-497.757"/>
<polygon fill="black" stroke="black" points="113.696,-611.359 117.196,-621.359 120.696,-611.359 113.696,-611.359"/>
<text text-anchor="middle" x="155.696" y="-583.369" font-family="Calibri" font-size="14.00">define</text>
<text text-anchor="middle" x="155.696" y="-568.369" font-family="Calibri" font-size="14.00">security</text>
<text text-anchor="middle" x="155.696" y="-553.369" font-family="Calibri" font-size="14.00"> &#160;dependency</text>
<text text-anchor="middle" x="155.696" y="-538.369" font-family="Calibri" font-size="14.00">with</text>
</g>
<!-- n_desirable_coherence -->
<g id="node11" class="node"><title>n_desirable_coherence</title>
<ellipse fill="#d6e7ff" stroke="black" cx="620.196" cy="-479.569" rx="34.9638" ry="18"/>
<text text-anchor="middle" x="620.196" y="-477.069" font-family="Calibri" font-size="10.00">Coherence</text>
</g>
<!-- n_desirable_coherence&#45;&gt;n_desirable_characteristics -->
<g id="edge13" class="edge"><title>n_desirable_coherence&#45;&gt;n_desirable_characteristics</title>
<path fill="none" stroke="black" d="M620.196,-461.215C620.196,-450.858 620.196,-437.155 620.196,-423.784"/>
<polygon fill="black" stroke="black" points="623.696,-423.686 620.196,-413.686 616.696,-423.686 623.696,-423.686"/>
<text text-anchor="middle" x="629.696" y="-433.07" font-family="Calibri" font-size="14.00"> &#160;of</text>
</g>
</g>
</svg>
