<?xml version="1.0" encoding="UTF-8" standalone="no"?>
<!DOCTYPE svg PUBLIC "-//W3C//DTD SVG 1.1//EN"
 "http://www.w3.org/Graphics/SVG/1.1/DTD/svg11.dtd">
<!-- Generated by graphviz version 2.38.0 (20140413.2041)
 -->
<!-- Title: G Pages: 1 -->
<svg width="1621pt" height="1342pt"
 viewBox="0.00 0.00 389.00 322.20" xmlns="http://www.w3.org/2000/svg" xmlns:xlink="http://www.w3.org/1999/xlink">
<g id="graph0" class="graph" transform="scale(4.16667 4.16667) rotate(0) translate(4 318.196)">
<title>G</title>
<polygon fill="white" stroke="none" points="-4,4 -4,-318.196 385,-318.196 385,4 -4,4"/>
<text text-anchor="middle" x="190.5" y="-15.6" font-family="Calibri" font-size="8.00">System &#45; Computer Science (Conceptual Diagram) by Open&#45;Measure</text>
<text text-anchor="middle" x="190.5" y="-6.6" font-family="Calibri" font-size="8.00">Licensed under Creative Commons Attribution 4.0 International License</text>
<g id="clust1" class="cluster"><title>cluster_types</title>
<polygon fill="none" stroke="black" points="8,-44.5 8,-147.5 120,-147.5 120,-44.5 8,-44.5"/>
<text text-anchor="middle" x="64" y="-132.3" font-family="Calibri" font-size="14.00">System Types</text>
</g>
<g id="clust2" class="cluster"><title>cluster_it_components</title>
<polygon fill="none" stroke="black" points="128,-34 128,-158 232,-158 232,-34 128,-34"/>
<text text-anchor="middle" x="180" y="-142.8" font-family="Calibri" font-size="14.00">IT Components</text>
</g>
<g id="clust3" class="cluster"><title>cluster_non_it_components</title>
<polygon fill="none" stroke="black" points="240,-34 240,-158 373,-158 373,-34 240,-34"/>
<text text-anchor="middle" x="306.5" y="-142.8" font-family="Calibri" font-size="14.00">Non&#45;IT Components</text>
</g>
<!-- n_set -->
<g id="node1" class="node"><title>n_set</title>
<ellipse fill="#ffffff" stroke="black" cx="180" cy="-294.397" rx="28.0702" ry="19.6"/>
<text text-anchor="middle" x="180" y="-289.997" font-family="Calibri" font-size="18.00">Set</text>
</g>
<!-- n_system -->
<g id="node2" class="node"><title>n_system</title>
<g id="a_node2"><a xlink:href="https://open-measure.atlassian.net/wiki/spaces/DIC/pages/5965562" xlink:title="System">
<ellipse fill="#5599ff" stroke="black" cx="180" cy="-223.799" rx="48.5816" ry="19.6"/>
<text text-anchor="middle" x="180" y="-219.399" font-family="Calibri" font-size="18.00">System</text>
</a>
</g>
</g>
<!-- n_set&#45;&gt;n_system -->
<g id="edge1" class="edge"><title>n_set&#45;&gt;n_system</title>
<path fill="none" stroke="black" d="M180,-263.943C180,-257.122 180,-250.04 180,-243.805"/>
<polygon fill="black" stroke="black" points="176.5,-264.289 180,-274.289 183.5,-264.289 176.5,-264.289"/>
<text text-anchor="middle" x="195.5" y="-255.398" font-family="Calibri" font-size="14.00"> &#160;is a &#160;</text>
</g>
<!-- n_coherent -->
<g id="node4" class="node"><title>n_coherent</title>
<ellipse fill="#d6e7ff" stroke="black" cx="305" cy="-223.799" rx="37.6017" ry="18"/>
<text text-anchor="middle" x="305" y="-220.699" font-family="Calibri" font-size="12.00">Coherent</text>
</g>
<!-- n_system&#45;&gt;n_coherent -->
<g id="edge4" class="edge"><title>n_system&#45;&gt;n_coherent</title>
<path fill="none" stroke="black" d="M228.828,-223.799C238.224,-223.799 247.62,-223.799 257.016,-223.799"/>
<polygon fill="black" stroke="black" points="257.212,-227.299 267.212,-223.799 257.212,-220.299 257.212,-227.299"/>
<text text-anchor="middle" x="254.712" y="-227.599" font-family="Calibri" font-size="14.00"> &#160;is &#160;&#160;</text>
</g>
<!-- n_types -->
<g id="node5" class="node"><title>n_types</title>
<polygon fill="#d6e7ff" stroke="black" points="16.5,-53 16.5,-116 111.5,-116 111.5,-53 16.5,-53"/>
<text text-anchor="middle" x="64" y="-102.4" font-family="Calibri" font-size="12.00">System Design</text>
<polyline fill="none" stroke="black" points="16.5,-95 111.5,-95 "/>
<text text-anchor="middle" x="64" y="-81.4" font-family="Calibri" font-size="12.00">System Package</text>
<polyline fill="none" stroke="black" points="16.5,-74 111.5,-74 "/>
<text text-anchor="middle" x="64" y="-60.4" font-family="Calibri" font-size="12.00">System Instance</text>
</g>
<!-- n_system&#45;&gt;n_types -->
<g id="edge5" class="edge"><title>n_system&#45;&gt;n_types</title>
<path fill="none" stroke="black" d="M137.768,-213.649C127.019,-209.674 116.202,-204.019 108,-196 96.9425,-185.19 88.5891,-171.248 82.3039,-156.932"/>
<polygon fill="black" stroke="black" points="85.4764,-155.443 78.4646,-147.5 78.9929,-158.082 85.4764,-155.443"/>
<text text-anchor="middle" x="142" y="-184.8" font-family="Calibri" font-size="14.00"> &#160;may &#160;</text>
<text text-anchor="middle" x="142" y="-169.8" font-family="Calibri" font-size="14.00"> &#160;designate &#160;</text>
</g>
<!-- n_it_components -->
<g id="node6" class="node"><title>n_it_components</title>
<polygon fill="#d6e7ff" stroke="black" points="145.5,-42.5 145.5,-126.5 214.5,-126.5 214.5,-42.5 145.5,-42.5"/>
<text text-anchor="middle" x="180" y="-112.9" font-family="Calibri" font-size="12.00">Hardware</text>
<polyline fill="none" stroke="black" points="145.5,-105.5 214.5,-105.5 "/>
<text text-anchor="middle" x="180" y="-91.9" font-family="Calibri" font-size="12.00">Software</text>
<polyline fill="none" stroke="black" points="145.5,-84.5 214.5,-84.5 "/>
<text text-anchor="middle" x="180" y="-70.9" font-family="Calibri" font-size="12.00">Data</text>
<polyline fill="none" stroke="black" points="145.5,-63.5 214.5,-63.5 "/>
<text text-anchor="middle" x="180" y="-49.9" font-family="Calibri" font-size="12.00">Processing</text>
</g>
<!-- n_system&#45;&gt;n_it_components -->
<g id="edge6" class="edge"><title>n_system&#45;&gt;n_it_components</title>
<path fill="none" stroke="black" d="M180,-203.996C180,-194.114 180,-181.243 180,-167.635"/>
<polygon fill="black" stroke="black" points="183.5,-167.629 180,-157.629 176.5,-167.629 183.5,-167.629"/>
<text text-anchor="middle" x="210.5" y="-177.3" font-family="Calibri" font-size="14.00"> &#160;contains &#160;</text>
</g>
<!-- n_non_it_components -->
<g id="node7" class="node"><title>n_non_it_components</title>
<polygon fill="#d6e7ff" stroke="black" points="248.5,-42.5 248.5,-126.5 319.5,-126.5 319.5,-42.5 248.5,-42.5"/>
<text text-anchor="middle" x="284" y="-112.9" font-family="Calibri" font-size="12.00">Entities</text>
<polyline fill="none" stroke="black" points="248.5,-105.5 319.5,-105.5 "/>
<text text-anchor="middle" x="284" y="-91.9" font-family="Calibri" font-size="12.00">Procedures</text>
<polyline fill="none" stroke="black" points="248.5,-84.5 319.5,-84.5 "/>
<text text-anchor="middle" x="284" y="-70.9" font-family="Calibri" font-size="12.00">Processes</text>
<polyline fill="none" stroke="black" points="248.5,-63.5 319.5,-63.5 "/>
<text text-anchor="middle" x="284" y="-49.9" font-family="Calibri" font-size="12.00">Activities</text>
</g>
<!-- n_system&#45;&gt;n_non_it_components -->
<g id="edge7" class="edge"><title>n_system&#45;&gt;n_non_it_components</title>
<path fill="none" stroke="black" d="M220.052,-212.402C229.185,-208.485 238.192,-203.17 245,-196 252.914,-187.665 259.235,-177.627 264.279,-167.044"/>
<polygon fill="black" stroke="black" points="267.595,-168.197 268.392,-157.632 261.181,-165.394 267.595,-168.197"/>
<text text-anchor="middle" x="305.5" y="-177.3" font-family="Calibri" font-size="14.00"> &#160;may contain &#160;</text>
</g>
<!-- n_observer -->
<g id="node3" class="node"><title>n_observer</title>
<ellipse fill="#d6e7ff" stroke="black" cx="297" cy="-294.397" rx="58.8803" ry="19.6"/>
<text text-anchor="middle" x="297" y="-289.997" font-family="Calibri" font-size="18.00">Observer</text>
</g>
<!-- n_observer&#45;&gt;n_system -->
<g id="edge2" class="edge"><title>n_observer&#45;&gt;n_system</title>
<path fill="none" stroke="black" d="M264.746,-277.803C257.825,-274.259 250.609,-270.411 244,-266.598 233.509,-260.545 222.365,-253.495 212.365,-246.929"/>
<polygon fill="black" stroke="black" points="214.185,-243.936 203.918,-241.32 210.313,-249.767 214.185,-243.936"/>
<text text-anchor="middle" x="270" y="-255.398" font-family="Calibri" font-size="14.00"> &#160;look at &#160;</text>
</g>
<!-- n_observer&#45;&gt;n_coherent -->
<g id="edge3" class="edge"><title>n_observer&#45;&gt;n_coherent</title>
<path fill="none" stroke="black" d="M299.228,-274.289C300.033,-267.391 300.957,-259.465 301.827,-252.008"/>
<polygon fill="black" stroke="black" points="305.32,-252.27 303.002,-241.932 298.367,-251.459 305.32,-252.27"/>
<text text-anchor="middle" x="334.5" y="-255.398" font-family="Calibri" font-size="14.00"> &#160;regard as &#160;</text>
</g>
</g>
</svg>
