<?xml version="1.0" encoding="UTF-8" standalone="no"?>
<!DOCTYPE svg PUBLIC "-//W3C//DTD SVG 1.1//EN"
 "http://www.w3.org/Graphics/SVG/1.1/DTD/svg11.dtd">
<!-- Generated by graphviz version 2.38.0 (20140413.2041)
 -->
<!-- Title: G Pages: 1 -->
<svg width="3233pt" height="2459pt"
 viewBox="0.00 0.00 776.00 590.14" xmlns="http://www.w3.org/2000/svg" xmlns:xlink="http://www.w3.org/1999/xlink">
<g id="graph0" class="graph" transform="scale(4.16667 4.16667) rotate(0) translate(4 586.137)">
<title>G</title>
<polygon fill="white" stroke="none" points="-4,4 -4,-586.137 772,-586.137 772,4 -4,4"/>
<text text-anchor="middle" x="384" y="-15.6" font-family="Calibri" font-size="8.00">Tranquility Property (Conceptual Diagram) by Open&#45;Measure</text>
<text text-anchor="middle" x="384" y="-6.6" font-family="Calibri" font-size="8.00">Licensed under Creative Commons Attribution 4.0 International License</text>
<g id="clust2" class="cluster"><title>cluster_weak</title>
<polygon fill="none" stroke="black" points="298,-93.7696 298,-377.539 502,-377.539 502,-93.7696 298,-93.7696"/>
</g>
<g id="clust1" class="cluster"><title>cluster_strong</title>
<polygon fill="none" stroke="black" points="8,-242.77 8,-377.539 230,-377.539 230,-242.77 8,-242.77"/>
</g>
<g id="clust3" class="cluster"><title>cluster_no</title>
<polygon fill="none" stroke="black" points="592,-324.77 592,-377.539 760,-377.539 760,-324.77 592,-324.77"/>
</g>
<!-- n_system -->
<g id="node1" class="node"><title>n_system</title>
<ellipse fill="#ffffff" stroke="black" cx="294" cy="-564.137" rx="31.2902" ry="18"/>
<text text-anchor="middle" x="294" y="-561.037" font-family="Calibri" font-size="12.00">System</text>
</g>
<!-- n_property -->
<g id="node2" class="node"><title>n_property</title>
<ellipse fill="#ffffff" stroke="black" cx="403" cy="-564.137" rx="35.1771" ry="18"/>
<text text-anchor="middle" x="403" y="-561.037" font-family="Calibri" font-size="12.00">Property</text>
</g>
<!-- n_system&#45;&gt;n_property -->
<g id="edge1" class="edge"><title>n_system&#45;&gt;n_property</title>
<path fill="none" stroke="black" d="M335.78,-564.137C346.32,-564.137 357.532,-564.137 367.717,-564.137"/>
<polygon fill="black" stroke="black" points="335.527,-560.637 325.527,-564.137 335.527,-567.637 335.527,-560.637"/>
<text text-anchor="middle" x="346.653" y="-570.937" font-family="Calibri" font-size="14.00"> &#160;of &#160;</text>
</g>
<!-- n_tranquility_property -->
<g id="node3" class="node"><title>n_tranquility_property</title>
<g id="a_node3"><a xlink:href="https://open-measure.atlassian.net/wiki/spaces/DIC/pages/1079050286" xlink:title="Tranquility">
<ellipse fill="#5599ff" stroke="black" cx="403" cy="-495.338" rx="69.0935" ry="19.6"/>
<text text-anchor="middle" x="403" y="-490.938" font-family="Calibri" font-size="18.00">Tranquility</text>
</a>
</g>
</g>
<!-- n_property&#45;&gt;n_tranquility_property -->
<g id="edge2" class="edge"><title>n_property&#45;&gt;n_tranquility_property</title>
<path fill="none" stroke="black" d="M403,-535.754C403,-528.991 403,-521.888 403,-515.603"/>
<polygon fill="black" stroke="black" points="399.5,-535.935 403,-545.935 406.5,-535.935 399.5,-535.935"/>
<text text-anchor="middle" x="418.5" y="-526.937" font-family="Calibri" font-size="14.00"> &#160;is a &#160;</text>
</g>
<!-- n_levels -->
<g id="node4" class="node"><title>n_levels</title>
<ellipse fill="#d6e7ff" stroke="black" cx="403" cy="-426.539" rx="28.8653" ry="18"/>
<text text-anchor="middle" x="403" y="-423.439" font-family="Calibri" font-size="12.00">Levels</text>
</g>
<!-- n_tranquility_property&#45;&gt;n_levels -->
<g id="edge3" class="edge"><title>n_tranquility_property&#45;&gt;n_levels</title>
<path fill="none" stroke="black" d="M403,-475.375C403,-469.097 403,-461.977 403,-455.185"/>
<polygon fill="black" stroke="black" points="406.5,-454.948 403,-444.948 399.5,-454.948 406.5,-454.948"/>
<text text-anchor="middle" x="419.5" y="-456.339" font-family="Calibri" font-size="14.00"> &#160;has &#160;</text>
</g>
<!-- n_strong_tranquility_property -->
<g id="node5" class="node"><title>n_strong_tranquility_property</title>
<ellipse fill="#d6e7ff" stroke="black" cx="114" cy="-351.154" rx="92.7622" ry="18.2703"/>
<text text-anchor="middle" x="114" y="-347.354" font-family="Calibri" font-size="16.00">Strong Tranquility</text>
</g>
<!-- n_levels&#45;&gt;n_strong_tranquility_property -->
<g id="edge5" class="edge"><title>n_levels&#45;&gt;n_strong_tranquility_property</title>
<path fill="none" stroke="black" d="M376.587,-418.832C342.012,-410.053 279.275,-394.122 223.794,-380.034"/>
<polygon fill="black" stroke="black" points="224.44,-376.587 213.886,-377.518 222.717,-383.372 224.44,-376.587"/>
<text text-anchor="middle" x="334" y="-389.339" font-family="Calibri" font-size="14.00"> &#160;comprise &#160;</text>
</g>
<!-- n_weak_tranquility_property -->
<g id="node7" class="node"><title>n_weak_tranquility_property</title>
<ellipse fill="#d6e7ff" stroke="black" cx="403" cy="-351.154" rx="89.191" ry="18.2703"/>
<text text-anchor="middle" x="403" y="-347.354" font-family="Calibri" font-size="16.00">Weak Tranquility</text>
</g>
<!-- n_levels&#45;&gt;n_weak_tranquility_property -->
<g id="edge9" class="edge"><title>n_levels&#45;&gt;n_weak_tranquility_property</title>
<path fill="none" stroke="black" d="M403,-408.519C403,-399.937 403,-389.316 403,-379.616"/>
<polygon fill="black" stroke="black" points="406.5,-387.539 403,-377.539 399.5,-387.539 406.5,-387.539"/>
<text text-anchor="middle" x="436" y="-389.339" font-family="Calibri" font-size="14.00"> &#160;comprise &#160;</text>
</g>
<!-- n_no_tranquility_property -->
<g id="node11" class="node"><title>n_no_tranquility_property</title>
<ellipse fill="#d6e7ff" stroke="black" cx="676" cy="-351.154" rx="76.2353" ry="18.2703"/>
<text text-anchor="middle" x="676" y="-347.354" font-family="Calibri" font-size="16.00">No Tranquility</text>
</g>
<!-- n_levels&#45;&gt;n_no_tranquility_property -->
<g id="edge11" class="edge"><title>n_levels&#45;&gt;n_no_tranquility_property</title>
<path fill="none" stroke="black" d="M429.176,-418.503C464.218,-409.083 528.231,-391.876 582.286,-377.345"/>
<polygon fill="black" stroke="black" points="583.505,-380.642 592.254,-374.666 581.688,-373.882 583.505,-380.642"/>
<text text-anchor="middle" x="580" y="-389.339" font-family="Calibri" font-size="14.00"> &#160;comprise &#160;</text>
</g>
<!-- n_strong_requirements -->
<g id="node6" class="node"><title>n_strong_requirements</title>
<polygon fill="#d6e7ff" stroke="black" points="16.5,-251.27 16.5,-293.27 221.5,-293.27 221.5,-251.27 16.5,-251.27"/>
<text text-anchor="middle" x="119" y="-279.67" font-family="Calibri" font-size="12.00">No Security Clearance Modification</text>
<polyline fill="none" stroke="black" points="16.5,-272.27 221.5,-272.27 "/>
<text text-anchor="middle" x="119" y="-258.67" font-family="Calibri" font-size="12.00">No Security Classification Modification</text>
</g>
<!-- n_strong_tranquility_property&#45;&gt;n_strong_requirements -->
<g id="edge4" class="edge"><title>n_strong_tranquility_property&#45;&gt;n_strong_requirements</title>
<path fill="none" stroke="black" d="M115.135,-332.708C115.693,-324.118 116.383,-313.511 117.025,-303.646"/>
<polygon fill="black" stroke="black" points="120.537,-303.57 117.693,-293.363 113.552,-303.115 120.537,-303.57"/>
<text text-anchor="middle" x="144.5" y="-305.57" font-family="Calibri" font-size="14.00"> &#160;require &#160;</text>
</g>
<!-- n_strong_tranquility_property&#45;&gt;n_weak_tranquility_property -->
<g id="edge10" class="edge"><title>n_strong_tranquility_property&#45;&gt;n_weak_tranquility_property</title>
<path fill="none" stroke="black" d="M229.789,-351.154C249.328,-351.154 268.866,-351.154 288.405,-351.154"/>
<polygon fill="black" stroke="black" points="288.42,-354.654 298.42,-351.154 288.42,-347.654 288.42,-354.654"/>
<text text-anchor="middle" x="264.134" y="-339.954" font-family="Calibri" font-size="14.00"> &#160;has more &#160;</text>
<text text-anchor="middle" x="264.134" y="-324.954" font-family="Calibri" font-size="14.00"> &#160;constraints &#160;</text>
<text text-anchor="middle" x="264.134" y="-309.954" font-family="Calibri" font-size="14.00"> &#160;than &#160;</text>
</g>
<!-- n_secure -->
<g id="node12" class="node"><title>n_secure</title>
<ellipse fill="#aaffaa" stroke="black" cx="239" cy="-44.3848" rx="41.9398" ry="18.2703"/>
<text text-anchor="middle" x="239" y="-40.5848" font-family="Calibri" font-size="16.00">Secure</text>
</g>
<!-- n_strong_requirements&#45;&gt;n_secure -->
<g id="edge13" class="edge"><title>n_strong_requirements&#45;&gt;n_secure</title>
<path fill="none" stroke="black" d="M134.038,-242.963C157.478,-198.84 202.387,-114.304 225.105,-71.5395"/>
<polygon fill="black" stroke="black" points="228.274,-73.036 229.874,-62.5628 222.092,-69.7519 228.274,-73.036"/>
<text text-anchor="middle" x="192" y="-156.57" font-family="Calibri" font-size="14.00"> &#160;is &#160;</text>
</g>
<!-- n_weak_requirements -->
<g id="node8" class="node"><title>n_weak_requirements</title>
<polygon fill="#d6e7ff" stroke="black" points="306,-251.27 306,-293.27 494,-293.27 494,-251.27 306,-251.27"/>
<text text-anchor="middle" x="400" y="-279.67" font-family="Calibri" font-size="12.00">Security Clearance Modification</text>
<polyline fill="none" stroke="black" points="306,-272.27 494,-272.27 "/>
<text text-anchor="middle" x="400" y="-258.67" font-family="Calibri" font-size="12.00">Security Classification Modification</text>
</g>
<!-- n_weak_tranquility_property&#45;&gt;n_weak_requirements -->
<g id="edge6" class="edge"><title>n_weak_tranquility_property&#45;&gt;n_weak_requirements</title>
<path fill="none" stroke="black" d="M402.319,-332.708C401.984,-324.118 401.57,-313.511 401.185,-303.646"/>
<polygon fill="black" stroke="black" points="404.671,-303.219 400.784,-293.363 397.677,-303.492 404.671,-303.219"/>
<text text-anchor="middle" x="428.5" y="-305.57" font-family="Calibri" font-size="14.00"> &#160;require &#160;</text>
</g>
<!-- n_weak_tranquility_property&#45;&gt;n_no_tranquility_property -->
<g id="edge12" class="edge"><title>n_weak_tranquility_property&#45;&gt;n_no_tranquility_property</title>
<path fill="none" stroke="black" d="M501.805,-351.154C531.045,-351.154 560.286,-351.154 589.526,-351.154"/>
<polygon fill="black" stroke="black" points="582,-354.655 592,-351.154 582,-347.655 582,-354.655"/>
<text text-anchor="middle" x="547.036" y="-339.954" font-family="Calibri" font-size="14.00"> &#160;has more &#160;</text>
<text text-anchor="middle" x="547.036" y="-324.954" font-family="Calibri" font-size="14.00"> &#160;constraints &#160;</text>
<text text-anchor="middle" x="547.036" y="-309.954" font-family="Calibri" font-size="14.00"> &#160;than &#160;</text>
</g>
<!-- n_weak_procedure -->
<g id="node9" class="node"><title>n_weak_procedure</title>
<ellipse fill="#d6e7ff" stroke="black" cx="382" cy="-193.77" rx="40.0263" ry="18"/>
<text text-anchor="middle" x="382" y="-190.67" font-family="Calibri" font-size="12.00">Procedure</text>
</g>
<!-- n_weak_requirements&#45;&gt;n_weak_procedure -->
<g id="edge7" class="edge"><title>n_weak_requirements&#45;&gt;n_weak_procedure</title>
<path fill="none" stroke="black" d="M395.271,-251.17C393.159,-242.197 390.64,-231.49 388.367,-221.827"/>
<polygon fill="black" stroke="black" points="391.724,-220.817 386.027,-211.884 384.91,-222.42 391.724,-220.817"/>
<text text-anchor="middle" x="441" y="-223.57" font-family="Calibri" font-size="14.00"> &#160;complying with &#160;</text>
</g>
<!-- n_weak_policy_requirements -->
<g id="node10" class="node"><title>n_weak_policy_requirements</title>
<polygon fill="#d6e7ff" stroke="black" points="307,-102.27 307,-144.27 441,-144.27 441,-102.27 307,-102.27"/>
<text text-anchor="middle" x="374" y="-130.67" font-family="Calibri" font-size="12.00">Modification Legitimacy</text>
<polyline fill="none" stroke="black" points="307,-123.27 441,-123.27 "/>
<text text-anchor="middle" x="374" y="-109.67" font-family="Calibri" font-size="12.00">Transition Security</text>
</g>
<!-- n_weak_procedure&#45;&gt;n_weak_policy_requirements -->
<g id="edge8" class="edge"><title>n_weak_procedure&#45;&gt;n_weak_policy_requirements</title>
<path fill="none" stroke="black" d="M379.981,-175.484C379.247,-169.2 378.394,-161.896 377.566,-154.807"/>
<polygon fill="black" stroke="black" points="381.025,-154.244 376.388,-144.717 374.072,-155.056 381.025,-154.244"/>
<text text-anchor="middle" x="403.5" y="-156.57" font-family="Calibri" font-size="14.00"> &#160;assure &#160;</text>
</g>
<!-- n_weak_policy_requirements&#45;&gt;n_secure -->
<g id="edge14" class="edge"><title>n_weak_policy_requirements&#45;&gt;n_secure</title>
<path fill="none" stroke="black" d="M324.481,-94.0677C307.146,-84.195 288.104,-73.3504 272.401,-64.4074"/>
<polygon fill="black" stroke="black" points="274.011,-61.2964 263.589,-59.3889 270.547,-67.3791 274.011,-61.2964"/>
<text text-anchor="middle" x="317" y="-74.5696" font-family="Calibri" font-size="14.00"> &#160;is &#160;</text>
</g>
<!-- n_insecure -->
<g id="node13" class="node"><title>n_insecure</title>
<ellipse fill="#ffaaaa" stroke="black" cx="676" cy="-44.3848" rx="49.4949" ry="18.2703"/>
<text text-anchor="middle" x="676" y="-40.5848" font-family="Calibri" font-size="16.00">Insecure</text>
</g>
<!-- n_no_tranquility_property&#45;&gt;n_insecure -->
<g id="edge15" class="edge"><title>n_no_tranquility_property&#45;&gt;n_insecure</title>
<path fill="none" stroke="black" d="M676,-324.908C676,-309.905 676,-290.501 676,-273.27 676,-273.27 676,-273.27 676,-122.27 676,-105.995 676,-87.7835 676,-73.1709"/>
<polygon fill="black" stroke="black" points="679.5,-72.7899 676,-62.7899 672.5,-72.79 679.5,-72.7899"/>
<text text-anchor="middle" x="687" y="-190.07" font-family="Calibri" font-size="14.00"> &#160;is &#160;</text>
</g>
</g>
</svg>
