<?xml version="1.0" encoding="UTF-8" standalone="no"?>
<!DOCTYPE svg PUBLIC "-//W3C//DTD SVG 1.1//EN"
 "http://www.w3.org/Graphics/SVG/1.1/DTD/svg11.dtd">
<!-- Generated by graphviz version 2.38.0 (20140413.2041)
 -->
<!-- Title: G Pages: 1 -->
<svg width="2316pt" height="2491pt"
 viewBox="0.00 0.00 555.86 597.81" xmlns="http://www.w3.org/2000/svg" xmlns:xlink="http://www.w3.org/1999/xlink">
<g id="graph0" class="graph" transform="scale(4.16667 4.16667) rotate(0) translate(4 593.806)">
<title>G</title>
<polygon fill="white" stroke="none" points="-4,4 -4,-593.806 551.86,-593.806 551.86,4 -4,4"/>
<text text-anchor="middle" x="273.93" y="-15.6" font-family="Calibri" font-size="8.00">Trust (Conceptual Diagram) by Open&#45;Measure</text>
<text text-anchor="middle" x="273.93" y="-6.6" font-family="Calibri" font-size="8.00">Licensed under Creative Commons Attribution 4.0 International License</text>
<g id="clust1" class="cluster"><title>cluster_situation</title>
<polygon fill="none" stroke="black" points="117.86,-34 117.86,-139.468 539.86,-139.468 539.86,-34 117.86,-34"/>
<text text-anchor="middle" x="328.86" y="-124.268" font-family="Calibri" font-size="14.00">Prediction</text>
</g>
<g id="clust2" class="cluster"><title>cluster_key_characteristics</title>
<polygon fill="none" stroke="black" points="292.86,-478.806 292.86,-581.806 502.86,-581.806 502.86,-478.806 292.86,-478.806"/>
<text text-anchor="middle" x="397.86" y="-566.606" font-family="Calibri" font-size="14.00">Key Characteristics</text>
</g>
<g id="clust3" class="cluster"><title>cluster_key_determinants</title>
<polygon fill="none" stroke="black" points="228.86,-170.468 228.86,-273.468 412.86,-273.468 412.86,-170.468 228.86,-170.468"/>
<text text-anchor="middle" x="320.86" y="-258.268" font-family="Calibri" font-size="14.00">Key Variables</text>
</g>
<!-- n_probability -->
<g id="node1" class="node"><title>n_probability</title>
<ellipse fill="#ffffff" stroke="black" cx="229.86" cy="-518.806" rx="53.066" ry="24.0833"/>
<text text-anchor="middle" x="229.86" y="-522.206" font-family="Calibri" font-size="12.00">Probability</text>
<text text-anchor="middle" x="229.86" y="-509.206" font-family="Calibri" font-size="12.00">Assessment</text>
</g>
<!-- n_trust -->
<g id="node2" class="node"><title>n_trust</title>
<g id="a_node2"><a xlink:href="https://open-measure.atlassian.net/wiki/spaces/DIC/pages/1037926452" xlink:title="Trust">
<ellipse fill="#5599ff" stroke="black" cx="229.86" cy="-427.007" rx="38.3684" ry="19.6"/>
<text text-anchor="middle" x="229.86" y="-422.607" font-family="Calibri" font-size="18.00">Trust</text>
</a>
</g>
</g>
<!-- n_probability&#45;&gt;n_trust -->
<g id="edge1" class="edge"><title>n_probability&#45;&gt;n_trust</title>
<path fill="none" stroke="black" d="M229.86,-484.422C229.86,-471.724 229.86,-457.708 229.86,-446.823"/>
<polygon fill="black" stroke="black" points="226.36,-484.681 229.86,-494.681 233.36,-484.681 226.36,-484.681"/>
<text text-anchor="middle" x="245.36" y="-459.606" font-family="Calibri" font-size="14.00"> &#160;is a &#160;</text>
</g>
<!-- n_trusting_entity -->
<g id="node3" class="node"><title>n_trusting_entity</title>
<ellipse fill="#d6e7ff" stroke="black" cx="229.86" cy="-347.338" rx="45.011" ry="26.7407"/>
<text text-anchor="middle" x="229.86" y="-351.138" font-family="Calibri" font-size="14.00">Trusting</text>
<text text-anchor="middle" x="229.86" y="-336.138" font-family="Calibri" font-size="14.00">Entity</text>
</g>
<!-- n_trust&#45;&gt;n_trusting_entity -->
<g id="edge2" class="edge"><title>n_trust&#45;&gt;n_trusting_entity</title>
<path fill="none" stroke="black" d="M229.86,-407.206C229.86,-400.338 229.86,-392.319 229.86,-384.451"/>
<polygon fill="black" stroke="black" points="233.36,-384.302 229.86,-374.302 226.36,-384.302 233.36,-384.302"/>
<text text-anchor="middle" x="259.86" y="-387.008" font-family="Calibri" font-size="14.00"> &#160;involves &#160;</text>
</g>
<!-- n_trusted_entity -->
<g id="node4" class="node"><title>n_trusted_entity</title>
<ellipse fill="#d6e7ff" stroke="black" cx="488.86" cy="-75.234" rx="43.2674" ry="26.7407"/>
<text text-anchor="middle" x="488.86" y="-79.034" font-family="Calibri" font-size="14.00">Trusted</text>
<text text-anchor="middle" x="488.86" y="-64.034" font-family="Calibri" font-size="14.00">Entity</text>
</g>
<!-- n_trust&#45;&gt;n_trusted_entity -->
<g id="edge3" class="edge"><title>n_trust&#45;&gt;n_trusted_entity</title>
<path fill="none" stroke="black" d="M261.063,-415.252C271.918,-410.8 283.869,-405.059 293.86,-398.208 358.072,-354.175 375.226,-339.26 416.86,-273.468 449.564,-221.787 470.327,-153.128 480.753,-111.945"/>
<polygon fill="black" stroke="black" points="484.187,-112.641 483.182,-102.094 477.39,-110.966 484.187,-112.641"/>
<text text-anchor="middle" x="440.86" y="-292.768" font-family="Calibri" font-size="14.00"> &#160;involves &#160;</text>
</g>
<!-- n_assessment -->
<g id="node5" class="node"><title>n_assessment</title>
<ellipse fill="#d6e7ff" stroke="black" cx="94.8599" cy="-210.468" rx="46.3387" ry="18"/>
<text text-anchor="middle" x="94.8599" y="-207.368" font-family="Calibri" font-size="12.00">Assessment</text>
</g>
<!-- n_trusting_entity&#45;&gt;n_assessment -->
<g id="edge4" class="edge"><title>n_trusting_entity&#45;&gt;n_assessment</title>
<path fill="none" stroke="black" d="M186.921,-338.374C169.268,-333.236 149.751,-324.897 135.86,-311.468 115.595,-291.879 104.996,-260.849 99.6962,-238.549"/>
<polygon fill="black" stroke="black" points="103.098,-237.722 97.5596,-228.691 96.2572,-239.205 103.098,-237.722"/>
<text text-anchor="middle" x="157.86" y="-292.768" font-family="Calibri" font-size="14.00"> &#160;make &#160;</text>
</g>
<!-- n_beneficial -->
<g id="node6" class="node"><title>n_beneficial</title>
<ellipse fill="#d6e7ff" stroke="black" cx="193.86" cy="-75.234" rx="67.7647" ry="33.4697"/>
<text text-anchor="middle" x="193.86" y="-85.134" font-family="Calibri" font-size="12.00">Benefical</text>
<text text-anchor="middle" x="193.86" y="-72.134" font-family="Calibri" font-size="12.00">or</text>
<text text-anchor="middle" x="193.86" y="-59.134" font-family="Calibri" font-size="12.00">Non&#45;detrimental</text>
</g>
<!-- n_trusting_entity&#45;&gt;n_beneficial -->
<g id="edge5" class="edge"><title>n_trusting_entity&#45;&gt;n_beneficial</title>
<path fill="none" stroke="black" d="M212.859,-312.255C207.698,-300.288 202.657,-286.559 199.86,-273.468 187.692,-216.515 189.039,-148.227 191.317,-108.773"/>
<polygon fill="black" stroke="black" points="209.691,-313.743 216.984,-321.428 216.075,-310.872 209.691,-313.743"/>
<text text-anchor="middle" x="212.36" y="-206.768" font-family="Calibri" font-size="14.00"> &#160;to &#160;</text>
</g>
<!-- n_key_determinants -->
<g id="node10" class="node"><title>n_key_determinants</title>
<polygon fill="#d6e7ff" stroke="black" points="237.36,-178.968 237.36,-241.968 404.36,-241.968 404.36,-178.968 237.36,-178.968"/>
<text text-anchor="middle" x="273.86" y="-228.368" font-family="Calibri" font-size="12.00">Controls</text>
<polyline fill="none" stroke="black" points="237.36,-220.968 310.36,-220.968 "/>
<text text-anchor="middle" x="273.86" y="-207.368" font-family="Calibri" font-size="12.00">Faith</text>
<polyline fill="none" stroke="black" points="237.36,-199.968 310.36,-199.968 "/>
<text text-anchor="middle" x="273.86" y="-186.368" font-family="Calibri" font-size="12.00">Information</text>
<polyline fill="none" stroke="black" points="310.36,-178.968 310.36,-241.968 "/>
<text text-anchor="middle" x="357.36" y="-228.368" font-family="Calibri" font-size="12.00">Past Experience</text>
<polyline fill="none" stroke="black" points="310.36,-220.968 404.36,-220.968 "/>
<text text-anchor="middle" x="357.36" y="-207.368" font-family="Calibri" font-size="12.00">Reputation</text>
<polyline fill="none" stroke="black" points="310.36,-199.968 404.36,-199.968 "/>
<text text-anchor="middle" x="357.36" y="-186.368" font-family="Calibri" font-size="12.00">Transparency</text>
</g>
<!-- n_trusting_entity&#45;&gt;n_key_determinants -->
<g id="edge11" class="edge"><title>n_trusting_entity&#45;&gt;n_key_determinants</title>
<path fill="none" stroke="black" d="M246.129,-322.226C253.84,-310.797 263.495,-296.489 273.277,-281.99"/>
<polygon fill="black" stroke="black" points="276.347,-283.698 279.038,-273.451 270.544,-279.783 276.347,-283.698"/>
<text text-anchor="middle" x="295.36" y="-300.268" font-family="Calibri" font-size="14.00"> &#160;based &#160;</text>
<text text-anchor="middle" x="295.36" y="-285.268" font-family="Calibri" font-size="14.00"> &#160;on &#160;</text>
</g>
<!-- n_probability_2 -->
<g id="node7" class="node"><title>n_probability_2</title>
<ellipse fill="#d6e7ff" stroke="black" cx="41.8599" cy="-75.234" rx="41.7203" ry="18"/>
<text text-anchor="middle" x="41.8599" y="-72.134" font-family="Calibri" font-size="12.00">Probability</text>
</g>
<!-- n_assessment&#45;&gt;n_probability_2 -->
<g id="edge6" class="edge"><title>n_assessment&#45;&gt;n_probability_2</title>
<path fill="none" stroke="black" d="M88.1474,-192.594C79.1569,-169.993 63.1067,-129.645 52.4706,-102.908"/>
<polygon fill="black" stroke="black" points="55.6338,-101.39 48.6853,-93.392 49.1295,-103.978 55.6338,-101.39"/>
<text text-anchor="middle" x="87.3599" y="-151.268" font-family="Calibri" font-size="14.00"> &#160;of &#160;</text>
</g>
<!-- n_future_actions -->
<g id="node9" class="node"><title>n_future_actions</title>
<ellipse fill="#d6e7ff" stroke="black" cx="365.86" cy="-75.234" rx="37.4533" ry="24.0833"/>
<text text-anchor="middle" x="365.86" y="-78.634" font-family="Calibri" font-size="12.00">Future</text>
<text text-anchor="middle" x="365.86" y="-65.634" font-family="Calibri" font-size="12.00">Actions</text>
</g>
<!-- n_beneficial&#45;&gt;n_future_actions -->
<g id="edge9" class="edge"><title>n_beneficial&#45;&gt;n_future_actions</title>
<path fill="none" stroke="black" d="M271.967,-75.234C291.472,-75.234 311.522,-75.234 328.061,-75.234"/>
<polygon fill="black" stroke="black" points="271.839,-71.7341 261.839,-75.234 271.839,-78.7341 271.839,-71.7341"/>
<text text-anchor="middle" x="295.063" y="-82.034" font-family="Calibri" font-size="14.00"> &#160;will be &#160;</text>
</g>
<!-- n_probability_2&#45;&gt;n_beneficial -->
<g id="edge7" class="edge"><title>n_probability_2&#45;&gt;n_beneficial</title>
<path fill="none" stroke="black" d="M83.797,-75.234C93.7541,-75.234 104.695,-75.234 115.696,-75.234"/>
<polygon fill="black" stroke="black" points="107.86,-78.7345 117.86,-75.234 107.86,-71.7345 107.86,-78.7345"/>
<text text-anchor="middle" x="104.849" y="-82.034" font-family="Calibri" font-size="14.00"> &#160;of &#160;</text>
</g>
<!-- n_key_characteristics -->
<g id="node8" class="node"><title>n_key_characteristics</title>
<polygon fill="#d6e7ff" stroke="black" points="301.36,-487.306 301.36,-550.306 494.36,-550.306 494.36,-487.306 301.36,-487.306"/>
<text text-anchor="middle" x="345.86" y="-536.706" font-family="Calibri" font-size="12.00">Asymmetric</text>
<polyline fill="none" stroke="black" points="301.36,-529.306 390.36,-529.306 "/>
<text text-anchor="middle" x="345.86" y="-515.706" font-family="Calibri" font-size="12.00">Dynamic</text>
<polyline fill="none" stroke="black" points="301.36,-508.306 390.36,-508.306 "/>
<text text-anchor="middle" x="345.86" y="-494.706" font-family="Calibri" font-size="12.00">Intersubjective</text>
<polyline fill="none" stroke="black" points="390.36,-487.306 390.36,-550.306 "/>
<text text-anchor="middle" x="442.36" y="-536.706" font-family="Calibri" font-size="12.00">Intransitive</text>
<polyline fill="none" stroke="black" points="390.36,-529.306 494.36,-529.306 "/>
<text text-anchor="middle" x="442.36" y="-515.706" font-family="Calibri" font-size="12.00">(Non&#45;)Distributive</text>
<polyline fill="none" stroke="black" points="390.36,-508.306 494.36,-508.306 "/>
<text text-anchor="middle" x="442.36" y="-494.706" font-family="Calibri" font-size="12.00">Subjective</text>
</g>
<!-- n_key_characteristics&#45;&gt;n_trust -->
<g id="edge8" class="edge"><title>n_key_characteristics&#45;&gt;n_trust</title>
<path fill="none" stroke="black" d="M316.205,-474.16C294.159,-462.376 271.898,-450.477 255.501,-441.713"/>
<polygon fill="black" stroke="black" points="314.82,-477.388 325.289,-479.016 318.119,-471.215 314.82,-477.388"/>
<text text-anchor="middle" x="327.36" y="-459.606" font-family="Calibri" font-size="14.00"> &#160;&#160;&#160;has &#160;</text>
</g>
<!-- n_future_actions&#45;&gt;n_trusted_entity -->
<g id="edge10" class="edge"><title>n_future_actions&#45;&gt;n_trusted_entity</title>
<path fill="none" stroke="black" d="M403.432,-75.234C413.498,-75.234 424.576,-75.234 435.324,-75.234"/>
<polygon fill="black" stroke="black" points="435.484,-78.7341 445.484,-75.234 435.484,-71.7341 435.484,-78.7341"/>
<text text-anchor="middle" x="424.531" y="-82.034" font-family="Calibri" font-size="14.00"> &#160;of &#160;</text>
</g>
</g>
</svg>
