<?xml version="1.0" encoding="UTF-8" standalone="no"?>
<!DOCTYPE svg PUBLIC "-//W3C//DTD SVG 1.1//EN"
 "http://www.w3.org/Graphics/SVG/1.1/DTD/svg11.dtd">
<!-- Generated by graphviz version 2.38.0 (20140413.2041)
 -->
<!-- Title: G Pages: 1 -->
<svg width="3020pt" height="2315pt"
 viewBox="0.00 0.00 724.82 555.55" xmlns="http://www.w3.org/2000/svg" xmlns:xlink="http://www.w3.org/1999/xlink">
<g id="graph0" class="graph" transform="scale(4.16667 4.16667) rotate(0) translate(4 551.551)">
<title>G</title>
<polygon fill="white" stroke="none" points="-4,4 -4,-551.551 720.817,-551.551 720.817,4 -4,4"/>
<text text-anchor="middle" x="358.409" y="-15.6" font-family="Calibri" font-size="8.00">Zombie Account (Conceptual Diagram) by Open&#45;Measure</text>
<text text-anchor="middle" x="358.409" y="-6.6" font-family="Calibri" font-size="8.00">Licensed under Creative Commons Attribution 4.0 International License</text>
<!-- n_digital_identity -->
<g id="node1" class="node"><title>n_digital_identity</title>
<ellipse fill="#ffffff" stroke="black" cx="366.5" cy="-523.51" rx="62.8651" ry="24.0833"/>
<text text-anchor="middle" x="366.5" y="-526.91" font-family="Calibri" font-size="12.00">Fake</text>
<text text-anchor="middle" x="366.5" y="-513.91" font-family="Calibri" font-size="12.00">Digital Identity</text>
</g>
<!-- n_zombie_account -->
<g id="node2" class="node"><title>n_zombie_account</title>
<g id="a_node2"><a xlink:href="https://open-measure.atlassian.net/wiki/spaces/DIC/pages/782893195" xlink:title="Zombie Account">
<ellipse fill="#5599ff" stroke="black" cx="366.5" cy="-435.234" rx="96.7474" ry="19.6"/>
<text text-anchor="middle" x="366.5" y="-430.834" font-family="Calibri" font-size="18.00">Zombie Account</text>
</a>
</g>
</g>
<!-- n_digital_identity&#45;&gt;n_zombie_account -->
<g id="edge1" class="edge"><title>n_digital_identity&#45;&gt;n_zombie_account</title>
<path fill="none" stroke="black" d="M366.5,-489.15C366.5,-477.586 366.5,-465.033 366.5,-455.056"/>
<polygon fill="black" stroke="black" points="363,-489.389 366.5,-499.389 370,-489.389 363,-489.389"/>
<text text-anchor="middle" x="382" y="-480.268" font-family="Calibri" font-size="14.00"> &#160;is a &#160;</text>
</g>
<!-- n_system -->
<g id="node7" class="node"><title>n_system</title>
<ellipse fill="#d6e7ff" stroke="black" cx="635.5" cy="-435.234" rx="81.135" ry="33.4697"/>
<text text-anchor="middle" x="635.5" y="-445.134" font-family="Calibri" font-size="12.00">System with</text>
<text text-anchor="middle" x="635.5" y="-432.134" font-family="Calibri" font-size="12.00">open subscription</text>
<text text-anchor="middle" x="635.5" y="-419.134" font-family="Calibri" font-size="12.00">e.g. Social Networks</text>
</g>
<!-- n_zombie_account&#45;&gt;n_system -->
<g id="edge7" class="edge"><title>n_zombie_account&#45;&gt;n_system</title>
<path fill="none" stroke="black" d="M463.615,-435.234C489.788,-435.234 518.012,-435.234 543.874,-435.234"/>
<polygon fill="black" stroke="black" points="544.038,-438.734 554.038,-435.234 544.038,-431.734 544.038,-438.734"/>
<text text-anchor="middle" x="508.778" y="-457.034" font-family="Calibri" font-size="14.00"> &#160;proliferate &#160;</text>
<text text-anchor="middle" x="508.778" y="-442.034" font-family="Calibri" font-size="14.00"> &#160;on &#160;</text>
</g>
<!-- n_actions -->
<g id="node8" class="node"><title>n_actions</title>
<polygon fill="#d6e7ff" stroke="black" points="345.5,-248.5 345.5,-355.5 493.5,-355.5 493.5,-248.5 345.5,-248.5"/>
<text text-anchor="middle" x="419.5" y="-341.9" font-family="Calibri" font-size="12.00">Social engineering</text>
<polyline fill="none" stroke="black" points="345.5,-334.5 493.5,-334.5 "/>
<text text-anchor="middle" x="419.5" y="-320.9" font-family="Calibri" font-size="12.00">Masquerading praise</text>
<text text-anchor="middle" x="419.5" y="-307.9" font-family="Calibri" font-size="12.00">or criticism</text>
<text text-anchor="middle" x="419.5" y="-294.9" font-family="Calibri" font-size="12.00">(e.g. likes, comments, etc.)</text>
<text text-anchor="middle" x="419.5" y="-281.9" font-family="Calibri" font-size="12.00">to promote or suppress</text>
<text text-anchor="middle" x="419.5" y="-268.9" font-family="Calibri" font-size="12.00">deals, products,</text>
<text text-anchor="middle" x="419.5" y="-255.9" font-family="Calibri" font-size="12.00">services, brands or ideas</text>
</g>
<!-- n_zombie_account&#45;&gt;n_actions -->
<g id="edge8" class="edge"><title>n_zombie_account&#45;&gt;n_actions</title>
<path fill="none" stroke="black" d="M374.094,-415.431C379.456,-402.154 386.973,-383.54 394.351,-365.272"/>
<polygon fill="black" stroke="black" points="397.684,-366.364 398.184,-355.781 391.194,-363.743 397.684,-366.364"/>
<text text-anchor="middle" x="422.5" y="-375.3" font-family="Calibri" font-size="14.00"> &#160;actions &#160;</text>
</g>
<!-- n_countermeasures -->
<g id="node9" class="node"><title>n_countermeasures</title>
<polygon fill="#d6e7ff" stroke="black" points="511.5,-249.5 511.5,-354.5 691.5,-354.5 691.5,-249.5 511.5,-249.5"/>
<text text-anchor="middle" x="601.5" y="-340.9" font-family="Calibri" font-size="12.00">Acceptable use policy</text>
<polyline fill="none" stroke="black" points="511.5,-333.5 691.5,-333.5 "/>
<text text-anchor="middle" x="601.5" y="-319.9" font-family="Calibri" font-size="12.00">Account behavior data analytics</text>
<polyline fill="none" stroke="black" points="511.5,-312.5 691.5,-312.5 "/>
<text text-anchor="middle" x="601.5" y="-298.9" font-family="Calibri" font-size="12.00">Captchas</text>
<polyline fill="none" stroke="black" points="511.5,-291.5 691.5,-291.5 "/>
<text text-anchor="middle" x="601.5" y="-277.9" font-family="Calibri" font-size="12.00">Identity certification / verification</text>
<polyline fill="none" stroke="black" points="511.5,-270.5 691.5,-270.5 "/>
<text text-anchor="middle" x="601.5" y="-256.9" font-family="Calibri" font-size="12.00">Social Honeypot</text>
</g>
<!-- n_zombie_account&#45;&gt;n_countermeasures -->
<g id="edge13" class="edge"><title>n_zombie_account&#45;&gt;n_countermeasures</title>
<path fill="none" stroke="black" d="M406.512,-417.193C421.491,-410.435 438.504,-402.301 453.5,-394 474.855,-382.18 478.8,-376.933 499.5,-364 501.682,-362.637 503.893,-361.262 506.126,-359.879"/>
<polygon fill="black" stroke="black" points="508.149,-362.744 514.827,-354.518 504.477,-356.784 508.149,-362.744"/>
<text text-anchor="middle" x="556.5" y="-375.3" font-family="Calibri" font-size="14.00"> &#160;countermeasures &#160;</text>
</g>
<!-- n_unauthorized_entity -->
<g id="node3" class="node"><title>n_unauthorized_entity</title>
<ellipse fill="#ffffff" stroke="black" cx="155.5" cy="-523.51" rx="57.0522" ry="24.0833"/>
<text text-anchor="middle" x="155.5" y="-526.91" font-family="Calibri" font-size="12.00">Unauthorized</text>
<text text-anchor="middle" x="155.5" y="-513.91" font-family="Calibri" font-size="12.00">Entity</text>
</g>
<!-- n_zombie_manager -->
<g id="node4" class="node"><title>n_zombie_manager</title>
<ellipse fill="#d6e7ff" stroke="black" cx="155.5" cy="-435.234" rx="42.3529" ry="33.4697"/>
<text text-anchor="middle" x="155.5" y="-445.134" font-family="Calibri" font-size="12.00">Zombie</text>
<text text-anchor="middle" x="155.5" y="-432.134" font-family="Calibri" font-size="12.00">Account</text>
<text text-anchor="middle" x="155.5" y="-419.134" font-family="Calibri" font-size="12.00">Manager</text>
</g>
<!-- n_unauthorized_entity&#45;&gt;n_zombie_manager -->
<g id="edge2" class="edge"><title>n_unauthorized_entity&#45;&gt;n_zombie_manager</title>
<path fill="none" stroke="black" d="M155.5,-489.124C155.5,-482.349 155.5,-475.235 155.5,-468.5"/>
<polygon fill="black" stroke="black" points="152,-489.389 155.5,-499.389 159,-489.389 152,-489.389"/>
<text text-anchor="middle" x="166.5" y="-480.268" font-family="Calibri" font-size="14.00"> &#160;is &#160;</text>
</g>
<!-- n_zombie_manager&#45;&gt;n_zombie_account -->
<!-- n_control_methods -->
<g id="node5" class="node"><title>n_control_methods</title>
<polygon fill="#d6e7ff" stroke="black" points="184,-281 184,-323 327,-323 327,-281 184,-281"/>
<text text-anchor="middle" x="255.5" y="-309.4" font-family="Calibri" font-size="12.00">Automatically by software</text>
<polyline fill="none" stroke="black" points="184,-302 327,-302 "/>
<text text-anchor="middle" x="255.5" y="-288.4" font-family="Calibri" font-size="12.00">Manually by people</text>
</g>
<!-- n_zombie_manager&#45;&gt;n_control_methods -->
<g id="edge4" class="edge"><title>n_zombie_manager&#45;&gt;n_control_methods</title>
<path fill="none" stroke="black" d="M176.707,-406.403C193.585,-384.253 217.104,-353.389 234.046,-331.155"/>
<polygon fill="black" stroke="black" points="236.913,-333.168 240.19,-323.092 231.345,-328.925 236.913,-333.168"/>
<text text-anchor="middle" x="240.5" y="-382.8" font-family="Calibri" font-size="14.00"> &#160;use &#160;</text>
<text text-anchor="middle" x="240.5" y="-367.8" font-family="Calibri" font-size="14.00"> &#160;methods &#160;</text>
</g>
<!-- n_motivations -->
<g id="node6" class="node"><title>n_motivations</title>
<polygon fill="#d6e7ff" stroke="black" points="0,-270.5 0,-333.5 119,-333.5 119,-270.5 0,-270.5"/>
<text text-anchor="middle" x="59.5" y="-319.9" font-family="Calibri" font-size="12.00">Financial</text>
<polyline fill="none" stroke="black" points="0,-312.5 119,-312.5 "/>
<text text-anchor="middle" x="59.5" y="-298.9" font-family="Calibri" font-size="12.00">Political / Ideological</text>
<polyline fill="none" stroke="black" points="0,-291.5 119,-291.5 "/>
<text text-anchor="middle" x="59.5" y="-277.9" font-family="Calibri" font-size="12.00">etc.</text>
</g>
<!-- n_zombie_manager&#45;&gt;n_motivations -->
<g id="edge5" class="edge"><title>n_zombie_manager&#45;&gt;n_motivations</title>
<path fill="none" stroke="black" d="M114.176,-427.487C94.4517,-421.974 72.5683,-412.002 60.5,-394 50.8099,-379.546 49.2727,-360.685 50.6669,-343.884"/>
<polygon fill="black" stroke="black" points="54.1669,-344.09 51.867,-333.748 47.2154,-343.267 54.1669,-344.09"/>
<text text-anchor="middle" x="101" y="-375.3" font-family="Calibri" font-size="14.00"> &#160;motivations &#160;</text>
</g>
<!-- n_detection -->
<g id="node11" class="node"><title>n_detection</title>
<polygon fill="#d6e7ff" stroke="black" points="268.5,-93.5 268.5,-135.5 336.5,-135.5 336.5,-93.5 268.5,-93.5"/>
<text text-anchor="middle" x="302.5" y="-121.9" font-family="Calibri" font-size="12.00">Prevention</text>
<polyline fill="none" stroke="black" points="268.5,-114.5 336.5,-114.5 "/>
<text text-anchor="middle" x="302.5" y="-100.9" font-family="Calibri" font-size="12.00">Detection</text>
</g>
<!-- n_zombie_manager&#45;&gt;n_detection -->
<g id="edge11" class="edge"><title>n_zombie_manager&#45;&gt;n_detection</title>
<path fill="none" stroke="black" d="M152.592,-401.927C150.486,-363.405 151.291,-297.96 174.5,-248 194.824,-204.252 235.628,-166.062 265.726,-142.066"/>
<polygon fill="black" stroke="black" points="268.176,-144.594 273.906,-135.682 263.869,-139.076 268.176,-144.594"/>
<text text-anchor="middle" x="208.406" y="-154.482" font-family="Calibri" font-size="14.00"> &#160;tend to continuously &#160;</text>
<text text-anchor="middle" x="208.406" y="-139.482" font-family="Calibri" font-size="14.00"> adapt to avoid &#160;</text>
</g>
<!-- n_control_methods&#45;&gt;n_zombie_account -->
<g id="edge6" class="edge"><title>n_control_methods&#45;&gt;n_zombie_account</title>
<path fill="none" stroke="black" d="M265.096,-323.329C274.947,-342.847 291.619,-372.464 311.5,-394 316.86,-399.807 323.168,-405.322 329.563,-410.304"/>
<polygon fill="black" stroke="black" points="327.532,-413.155 337.647,-416.309 331.707,-407.536 327.532,-413.155"/>
<text text-anchor="middle" x="346" y="-375.3" font-family="Calibri" font-size="14.00"> &#160;to control &#160;</text>
</g>
<!-- n_control_methods&#45;&gt;n_detection -->
<!-- n_system&#45;&gt;n_countermeasures -->
<g id="edge9" class="edge"><title>n_system&#45;&gt;n_countermeasures</title>
<path fill="none" stroke="black" d="M627.183,-402.131C624.237,-390.762 620.817,-377.56 617.451,-364.57"/>
<polygon fill="black" stroke="black" points="620.793,-363.514 614.897,-354.711 614.017,-365.269 620.793,-363.514"/>
<text text-anchor="middle" x="656" y="-375.3" font-family="Calibri" font-size="14.00"> &#160;weak on &#160;</text>
</g>
<!-- n_consequences -->
<g id="node10" class="node"><title>n_consequences</title>
<polygon fill="#d6e7ff" stroke="black" points="314,-153.5 314,-216.5 403,-216.5 403,-153.5 314,-153.5"/>
<text text-anchor="middle" x="358.5" y="-202.9" font-family="Calibri" font-size="12.00">Disinformation</text>
<polyline fill="none" stroke="black" points="314,-195.5 403,-195.5 "/>
<text text-anchor="middle" x="358.5" y="-181.9" font-family="Calibri" font-size="12.00">Fraud</text>
<polyline fill="none" stroke="black" points="314,-174.5 403,-174.5 "/>
<text text-anchor="middle" x="358.5" y="-160.9" font-family="Calibri" font-size="12.00">Larger attack</text>
</g>
<!-- n_actions&#45;&gt;n_consequences -->
<g id="edge10" class="edge"><title>n_actions&#45;&gt;n_consequences</title>
<path fill="none" stroke="black" d="M391.499,-248.212C387.447,-240.573 383.336,-232.822 379.454,-225.504"/>
<polygon fill="black" stroke="black" points="382.46,-223.701 374.682,-216.507 376.276,-226.981 382.46,-223.701"/>
<text text-anchor="middle" x="432.5" y="-228.8" font-family="Calibri" font-size="14.00"> &#160;consequences &#160;</text>
</g>
<!-- n_countermeasures&#45;&gt;n_detection -->
<g id="edge14" class="edge"><title>n_countermeasures&#45;&gt;n_detection</title>
<path fill="none" stroke="black" d="M545.517,-249.329C509.397,-218.113 460.211,-179.394 411.5,-153 391.087,-141.939 366.789,-133.202 346.321,-126.954"/>
<polygon fill="black" stroke="black" points="347.196,-123.563 336.614,-124.087 345.213,-130.276 347.196,-123.563"/>
<text text-anchor="middle" x="525" y="-181.3" font-family="Calibri" font-size="14.00">enable</text>
</g>
<!-- n_consequences&#45;&gt;n_detection -->
<!-- n_difficult -->
<g id="node12" class="node"><title>n_difficult</title>
<ellipse fill="#d6e7ff" stroke="black" cx="302.5" cy="-44" rx="74.4721" ry="18"/>
<text text-anchor="middle" x="302.5" y="-40.9" font-family="Calibri" font-size="12.00">Cat&#45;and&#45;mouse game</text>
</g>
<!-- n_detection&#45;&gt;n_difficult -->
<g id="edge12" class="edge"><title>n_detection&#45;&gt;n_difficult</title>
<path fill="none" stroke="black" d="M302.5,-93.3182C302.5,-86.7918 302.5,-79.4405 302.5,-72.478"/>
<polygon fill="black" stroke="black" points="306,-72.0316 302.5,-62.0316 299,-72.0316 306,-72.0316"/>
<text text-anchor="middle" x="313.5" y="-73.8" font-family="Calibri" font-size="14.00"> &#160;is &#160;</text>
</g>
</g>
</svg>
